<svg width="180" height="469" viewBox="0 0 180 469" fill="none" xmlns="http://www.w3.org/2000/svg">
<path d="M93.119 50.3114C93.119 49.709 93.6545 45.4257 94.324 40.9417C95.2612 34.6506 95.8637 32.509 96.8009 31.8398C98.6753 30.4343 99.5456 30.6351 100.55 32.6429C101.353 34.1152 101.889 34.3829 103.83 34.316C106.173 34.1822 106.24 34.2491 108.248 38.8001C109.788 42.1464 110.123 43.5518 109.587 44.0203C108.784 44.6226 93.9223 51.516 93.3867 51.516C93.1859 51.516 93.052 50.9806 93.119 50.3114Z" fill="#002855"/>
<path d="M81.1356 38.0677C78.1231 37.3985 75.3785 36.6623 75.0437 36.5284C74.776 36.3276 73.9726 34.4537 73.3032 32.4459C72.4329 29.5012 72.299 27.895 72.7007 25.2179C73.3032 22.0055 73.4371 21.7378 75.914 20.9346C80.0645 19.5961 85.487 19.73 87.5622 21.2693C89.3028 22.5409 89.3697 22.8086 89.5705 30.2374C89.7044 36.7292 89.5706 37.8669 88.6334 38.6031C87.9639 39.0716 87.2945 39.4062 87.0936 39.4062C86.8928 39.3393 84.215 38.8039 81.1356 38.0677Z" fill="#002855"/>
<path d="M68.4179 16.4477C66.6104 14.4399 66.4765 13.8376 66.9451 11.9636C67.2798 10.759 67.8823 8.48347 68.284 6.94417C69.0203 3.99942 71.832 0.0507812 73.1709 0.0507812C74.5097 0.0507812 78.9281 7.5465 79.3967 10.5582C80.1331 15.3099 79.4636 16.5146 75.38 17.7193C70.627 19.1247 70.7609 19.1247 68.4179 16.4477Z" fill="#002855"/>
<path d="M144.733 188.716C146.741 189.252 148.549 190.523 150.691 192.732L153.77 195.944L155.845 206.987C157.05 213.011 157.988 218.365 157.988 218.833C157.988 219.235 156.917 220.908 155.645 222.447C152.833 225.927 152.766 226.864 155.243 228.671C156.85 229.876 157.184 230.679 157.586 234.293C157.921 237.773 158.523 239.313 161 243.06C162.674 245.537 164.013 248.013 164.013 248.615C164.013 249.218 163.41 250.891 162.607 252.43C161.402 254.772 161.268 255.977 161.603 259.524C161.803 261.934 162.138 264.008 162.406 264.276C162.875 264.744 164.146 264.811 173.251 264.878L179.744 265.012L175.795 267.622C173.586 269.095 171.577 270.701 171.309 271.169C171.042 271.638 170.707 275.453 170.64 279.669L170.506 287.232L172.715 289.106C174.791 290.779 174.924 291.113 174.523 293.857C172.715 305.971 172.916 305.168 169.971 308.246C167.427 310.857 167.025 311.593 166.623 315.341C166.356 317.683 165.887 320.159 165.686 320.962C165.151 322.769 168.632 326.919 171.845 328.257C174.59 329.395 174.724 331.135 172.381 335.552C171.443 337.292 170.707 338.965 170.707 339.233C170.707 339.568 172.113 340.639 173.786 341.642C175.929 342.914 176.732 343.717 176.531 344.52C176.33 345.123 175.795 346.662 175.326 348C174.924 349.272 174.456 350.678 174.322 351.146C174.054 352.15 172.381 352.15 170.105 351.28C169.234 350.878 166.757 349.54 164.615 348.268C161.402 346.327 160.331 345.993 158.456 346.327C156.582 346.662 154.373 347.13 153.904 347.733C153.435 348.335 153.435 348.937 153.904 349.874C156.18 354.024 156.18 354.091 150.892 362.055C146.473 368.815 145.938 370.019 145.938 372.897C145.938 377.247 144.8 377.046 140.917 372.094C139.243 369.885 137.57 368.078 137.235 368.078C136.967 368.078 135.829 369.149 134.758 370.488C132.884 372.763 132.482 372.964 128.131 373.365L123.512 373.767L121.035 378.452C119.629 380.995 118.558 383.605 118.491 384.141C118.491 384.676 119.428 387.554 120.499 390.432C122.775 396.321 123.043 395.585 117.62 401.809L114.34 405.49L115.344 408.502C116.282 411.246 116.282 412.183 115.344 417.871L114.273 424.162L110.725 426.639C108.717 428.044 107.11 429.583 107.11 430.119C107.11 430.654 108.851 432.997 110.993 435.339C113.068 437.748 114.809 439.89 114.809 440.091C114.809 440.358 111.529 441.496 107.445 442.701L100.081 444.843L99.4787 447.653C99.077 449.46 98.2737 450.866 97.2695 451.535C96.3992 452.071 94.5248 454.547 93.119 457.023C88.7007 464.519 86.2907 466.259 77.6549 468.066C77.1194 468.2 74.3077 467.932 71.4961 467.53C67.2117 466.928 65.9397 466.46 64.467 464.92L62.5926 463.046L66.4084 459.566C69.0861 457.157 70.425 455.283 70.8936 453.543C71.2283 452.204 72.6342 449.795 73.9061 448.256C75.245 446.716 76.3161 445.043 76.3161 444.508C76.3161 444.039 74.2408 439.488 71.697 434.469C69.22 429.383 66.877 424.029 66.6762 422.489C65.8059 417.671 65.3373 417.403 59.714 418.541C52.551 420.08 51.4799 419.946 49.7393 417.403C47.3963 413.923 47.3293 413.32 49.5385 411.246C51.2121 409.639 51.5468 408.769 51.5468 406.36C51.5468 403.951 51.0113 402.612 48.6013 399.199L45.6558 394.983L46.8607 393.109C47.6641 391.904 47.9988 390.565 47.731 389.227C47.4632 387.487 47.9319 386.483 50.141 383.672C52.3502 380.928 52.8857 379.723 52.8857 377.515C52.8857 374.972 52.7518 374.771 50.4088 374.169C41.4383 371.826 42.1747 372.228 42.1747 369.551C42.1747 366.472 42.4424 366.137 46.3921 363.46C49.8732 361.051 50.0071 360.583 48.4674 356.701C47.4633 354.158 47.2624 354.024 44.5177 354.024C41.773 354.024 41.4383 353.756 38.158 349.674C34.2753 344.922 34.2753 344.922 24.9031 344.253C17.3385 343.717 15.9996 342.847 18.0079 339.769C19.2799 337.761 19.2799 337.694 17.8071 333.745C16.8029 330.867 16.6021 329.663 17.2046 329.462C18.4096 328.993 28.3842 321.765 28.9198 320.962C29.7901 319.691 29.5223 319.356 25.1709 316.813C21.9576 314.939 20.5518 313.667 19.6815 311.727C18.3426 308.782 18.4765 308.581 24.4345 302.156C28.4512 297.806 28.652 296.936 27.0454 292.184C25.9743 289.039 25.9743 289.039 27.8487 286.362C31.1289 281.811 31.4636 280.874 31.4636 275.586C31.4636 269.496 30.6603 268.225 25.9742 267.02C22.4262 266.083 22.7609 266.886 22.4262 258.32C22.3593 256.245 22.2254 254.237 22.1585 253.769C22.1585 253.3 21.0874 252.43 19.8154 251.962L17.6062 251.025L17.1377 244.198C16.6691 238.442 16.3343 236.903 14.7277 234.226C13.5227 232.151 12.5855 229.207 12.0499 225.927C11.3805 221.376 11.4474 220.707 12.6524 218.365C13.8574 216.022 16.6691 211.739 17.3385 209.798C18.0079 207.857 17.8071 206.853 15.6649 200.763L13.188 193.937L10.778 194.405C6.02498 195.275 5.89108 195.208 2.94555 191.059C1.33889 188.85 0.0669439 186.842 0 186.575C0 186.307 1.80749 184.835 4.01663 183.228C8.2341 180.15 9.77384 177.607 10.4433 172.386C10.8449 169.843 10.5772 169.308 8.10024 166.296C6.62747 164.422 5.35551 162.615 5.35551 162.281C5.35551 161.879 6.89525 160.005 8.76968 158.064L12.1838 154.517L13.2549 155.99C15.531 159.202 16.736 160.005 19.2798 159.804L21.7568 159.604L21.9576 155.454C22.1584 151.506 22.0915 151.238 18.8782 147.088C17.1376 144.746 15.4641 142.337 15.1963 141.667C14.7277 140.396 15.9327 130.491 16.6691 129.688C16.8699 129.42 22.2254 128.751 28.4512 128.148C44.7855 126.609 45.5219 126.475 45.9905 125.337C46.1913 124.735 45.5888 122.727 44.6516 120.72L42.9111 117.172L45.7227 113.023C47.2624 110.681 50.0741 107.067 52.0154 104.992C55.0279 101.779 56.6346 100.776 63.6637 97.63C69.4878 95.0199 72.0316 93.5476 72.5003 92.4098C73.1697 91.0713 78.6591 87.6581 80.2658 87.6581C80.6005 87.6581 81.203 88.5281 81.6716 89.5989C83.1443 93.2129 83.613 93.2129 90.9768 89.6658L97.8051 86.3195L97.6042 83.8433C97.4034 81.5678 97.5373 81.367 99.7464 80.7647C103.629 79.7608 103.964 79.0915 103.027 74.4736L102.223 70.458L105.504 65.2378C107.311 62.36 109.386 59.616 110.123 59.1475C111.729 57.9429 114.541 57.9429 116.014 59.0137C117.018 59.8168 116.884 60.1514 114.407 63.0292C110.591 67.5133 111.127 68.5172 117.085 67.9149C121.503 67.4464 121.704 67.5133 122.106 68.9857C122.307 69.8557 122.507 71.1942 122.507 71.9974C122.507 73.202 123.645 74.2728 124.917 74.2728C125.051 74.2728 126.658 72.8674 128.532 71.2612L131.946 68.2495H137.971H143.996L148.348 71.7296C150.825 73.6705 152.9 75.946 153.101 76.8829C153.369 77.8199 153.569 81.6347 153.636 85.3156V92.0082L149.218 98.7009C146.808 102.382 143.26 108.204 141.319 111.618C139.377 115.098 136.499 120.05 134.825 122.66C131.946 127.345 131.277 129.353 132.482 130.089C132.884 130.29 134.825 130.29 136.967 130.022C140.582 129.621 141.118 129.286 146.54 124.334C149.687 121.456 152.498 119.113 152.766 119.113C153.302 119.113 153.502 119.649 155.042 126.676C156.113 131.294 156.515 132.164 158.791 133.971C160.264 135.042 163.41 139.057 165.954 142.805C172.983 153.313 172.782 151.907 168.029 157.261C163.477 162.414 163.008 163.552 162.339 170.78C161.736 177.138 161.402 177.674 158.122 177.406C155.712 177.272 155.31 177.54 150.758 182.292" fill="#002855"/>
<path d="M104.001 307C99.9512 307 96.668 310.283 96.668 314.333C96.668 315.636 97.0178 316.854 97.6132 317.914C97.7121 318.09 97.8158 318.263 97.9284 318.43L104.001 329L110.074 318.43C110.168 318.292 110.248 318.145 110.332 318L110.39 317.914C110.984 316.854 111.335 315.636 111.335 314.333C111.335 310.283 108.051 307 104.001 307ZM104.001 310.667C106.026 310.667 107.668 312.308 107.668 314.333C107.668 316.358 106.026 318 104.001 318C101.976 318 100.335 316.358 100.335 314.333C100.335 312.308 101.976 310.667 104.001 310.667Z" fill="#0072CE"/>
<path d="M104.001 309.75C101.47 309.75 99.418 311.802 99.418 314.333C99.418 316.864 101.47 318.917 104.001 318.917C106.532 318.917 108.585 316.864 108.585 314.333C108.585 311.802 106.532 309.75 104.001 309.75ZM104.001 311.583C105.52 311.583 106.751 312.815 106.751 314.333C106.751 315.852 105.52 317.083 104.001 317.083C102.482 317.083 101.251 315.852 101.251 314.333C101.251 312.815 102.482 311.583 104.001 311.583Z" fill="#1697FF"/>
<ellipse cx="104" cy="314.13" rx="2.85185" ry="3.05556" fill="#002855"/>
</svg>
