<?xml version="1.0" standalone="no"?>
<!DOCTYPE svg PUBLIC "-//W3C//DTD SVG 1.1//EN" "http://www.w3.org/Graphics/SVG/1.1/DTD/svg11.dtd" >
<svg>
<metadata>
Created by FontForge 20090914 at Thu Jul 22 21:25:17 2021
 By www-data
Copyright &#194;&#169; 2011 By Svetoslav Simov &#194;&#169; Fontfabric, LLC. All rights reserved.
</metadata>
<defs>
<font id="SolomonSans-Medium" horiz-adv-x="820" >
  <font-face 
    font-family="Solomon Sans Med"
    font-weight="500"
    font-stretch="normal"
    units-per-em="1000"
    panose-1="2 0 0 0 0 0 0 0 0 0"
    ascent="750"
    descent="-250"
    x-height="506.002"
    cap-height="700"
    bbox="-138 -217.997 1676 910.004"
    underline-thickness="50"
    underline-position="-100"
    unicode-range="U+0020-U+FB04"
  />
<missing-glyph horiz-adv-x="520" 
d="M10 0h500v700h-500v-700zM60 95v510l170 -255zM90 50l170 255l170 -255h-340zM260 395l-170 255h340zM290 350l170 255v-510z" />
    <glyph glyph-name="uniFB00" unicode="ff" horiz-adv-x="609" 
d="M583 701v-68.998c-14.667 0 -28.167 -1.16699 -40.5 -3.5s-23.333 -6.5 -33 -12.5s-17.167 -14.333 -22.5 -25s-8 -24.334 -8 -41.001v-52h100v-67h-100v-431h-78v431h-226v-431h-78v431h-50v67h50v52c0 50.667 14.5 88.667 43.5 114s66.167 38 111.5 38h13.5
c4.33301 0 8.83301 -0.333008 13.5 -1v-69c-14.667 0 -28.167 -1.16699 -40.5 -3.5s-23.333 -6.5 -33 -12.5s-17.167 -14.333 -22.5 -25s-8 -24.334 -8 -41.001v-52h226v52c0 50.667 14.5 88.667 43.5 114s66.167 38 111.5 38h13.5c4.33301 0 8.83301 -0.333008 13.5 -1z
" />
    <glyph glyph-name="uniFB01" unicode="fi" horiz-adv-x="521" 
d="M441 0l-79 0.000976562v435h-189v-435h-78v435h-50v72h50v43c0 50.667 14.5 88.667 43.5 114s66.167 38 111.5 38h13.5c4.33301 0 8.83301 -0.333008 13.5 -1v-69c-14.667 0 -28.167 -1.16699 -40.5 -3.5s-23.333 -6.5 -33 -12.5s-17.167 -14.333 -22.5 -25
s-8 -24.334 -8 -41.001v-43h268v-507zM442 612.001h-81v92h81v-92z" />
    <glyph glyph-name="uniFB02" unicode="fl" horiz-adv-x="538" 
d="M277 701v-68.999c-14.667 0 -28.167 -1.16699 -40.5 -3.5s-23.333 -6.5 -33 -12.5s-17.167 -14.333 -22.5 -25s-8 -24.334 -8 -41.001v-46h100v-72h-100v-432h-78v432h-50v72h50v46c0 50.667 14.5 88.667 43.5 114s66.167 38 111.5 38h13.5
c4.33301 0 8.83301 -0.333008 13.5 -1zM516 -1.99902c-4.66699 -0.666992 -9.16699 -1 -13.5 -1h-13.5c-88.667 0 -133 50.667 -133 152v556h79v-556c0 -26.667 4.33301 -47.167 13 -61.5s27 -21.5 55 -21.5c2 0 4 0.166992 6 0.5s4.33301 0.5 7 0.5v-69z" />
    <glyph glyph-name="uniFB03" unicode="ffi" horiz-adv-x="826" 
d="M473 433v-432.998h-78v433h-221v-433h-78v433h-50v67h50v50c0 50.667 14.5 88.667 43.5 114s66.167 38 111.5 38h13.5c4.33301 0 8.83301 -0.333008 13.5 -1v-69c-14.667 0 -28.167 -1.16699 -40.5 -3.5s-23.333 -6.5 -33 -12.5s-17.167 -14.333 -22.5 -25
s-8 -24.334 -8 -41.001v-50h221v50c0 50.667 14.5 88.667 43.5 114s66.167 38 111.5 38h13.5c4.33301 0 8.83301 -0.333008 13.5 -1v-69c-14.667 0 -28.167 -1.16699 -40.5 -3.5s-23.333 -6.5 -33 -12.5s-17.167 -14.333 -22.5 -25s-8 -24.334 -8 -41.001v-50h274v-500h-79
v433h-195zM748 612.002h-81v92h81v-92z" />
    <glyph glyph-name="uniFB04" unicode="ffl" horiz-adv-x="850" 
d="M571 500v-66.998h-98v-433h-78v433h-221v-433h-78v433h-50v67h50v50c0 50.667 14.5 88.667 43.5 114s66.167 38 111.5 38h13.5c4.33301 0 8.83301 -0.333008 13.5 -1v-69c-14.667 0 -28.167 -1.16699 -40.5 -3.5s-23.333 -6.5 -33 -12.5s-17.167 -14.333 -22.5 -25
s-8 -24.334 -8 -41.001v-50h221v50c0 50.667 14.5 88.667 43.5 114s66.167 38 111.5 38h13.5c4.33301 0 8.83301 -0.333008 13.5 -1v-69c-14.667 0 -28.167 -1.16699 -40.5 -3.5s-23.333 -6.5 -33 -12.5s-17.167 -14.333 -22.5 -25s-8 -24.334 -8 -41.001v-50h98z
M828 -1.99805c-4.66699 -0.666992 -9.16699 -1 -13.5 -1h-13.5c-88.667 0 -133 50.667 -133 152v556h79v-556c0 -26.667 4.33301 -47.167 13 -61.5s27 -21.5 55 -21.5c2 0 4 0.166992 6 0.5s4.33301 0.5 7 0.5v-69z" />
    <glyph glyph-name="f_j" unicode="fj" horiz-adv-x="560" 
d="M296 -198l0.000976562 68.999c14 0 27.333 1.16699 40 3.5s23.667 6.5 33 12.5s16.666 14.333 21.999 25s8 24.334 8 41.001v482h-213v-435h-78v435h-50v72h50v43c0 50.667 14.5 88.667 43.5 114s66.167 38 111.5 38h13.5c4.33301 0 8.83301 -0.333008 13.5 -1v-71
c-14 0 -27.333 -1 -40 -3s-23.667 -6 -33 -12s-16.833 -14.167 -22.5 -24.5s-8.5 -23.833 -8.5 -40.5v-43h292v-554c0 -51.333 -14.833 -89.5 -44.5 -114.5s-67.167 -37.5 -112.5 -37.5h-12c-4 0 -8.33301 0.333008 -13 1zM477.001 611.999h-81v93h81v-93z" />
    <glyph glyph-name=".notdef" horiz-adv-x="520" 
d="M10 0h500v700h-500v-700zM60 95v510l170 -255zM90 50l170 255l170 -255h-340zM260 395l-170 255h340zM290 350l170 255v-510z" />
    <glyph glyph-name="uni0020" unicode=" " horiz-adv-x="257" 
 />
    <glyph glyph-name="uni0021" unicode="!" horiz-adv-x="319" 
d="M205 0v103h-90v-103h90zM201 170l4 530h-91l5 -530h82z" />
    <glyph glyph-name="uni0022" unicode="&#x22;" horiz-adv-x="352" 
d="M68 518h79v193h-79v-193zM205 518h79v193h-79v-193z" />
    <glyph glyph-name="uni0023" unicode="#" horiz-adv-x="599" 
d="M551 496h-82l31 204h-72l-32 -204h-127l31 204h-74l-32 -204h-100l-2 -76h90l-21 -140h-101l-2 -75h91l-31 -204h73l33 204h127l-31 -204h71l32 204h91l2 75h-81l22 140h92zM384 420l-21 -140h-127l21 140h127z" />
    <glyph glyph-name="uni0024" unicode="$" horiz-adv-x="562" 
d="M151 522c-1.33301 -22.667 2.49707 -41.3271 11.4971 -55.9941s20.667 -26.667 35 -36s29.833 -16.5 46.5 -21.5s32.334 -9.5 47.001 -13.5c26.667 -6.66699 53 -15 79 -25s49.167 -23.333 69.5 -40s36.5 -37.834 48.5 -63.501s17 -57.834 15 -96.501
c-1.33301 -28.667 -7.5 -53.834 -18.5 -75.501s-25.167 -40.167 -42.5 -55.5s-37 -27.5 -59 -36.5s-44.667 -14.833 -68 -17.5v-91h-73v91c-40 5.33301 -77.333 20.333 -112 45s-60.334 59 -77.001 103l65 34c13.333 -34.667 34.666 -61.834 63.999 -81.501
s62.333 -29.5 99 -29.5c40.667 0 73.834 10.167 99.501 30.5s39.834 49.5 42.501 87.5c2 26 -1.83301 47.5 -11.5 64.5s-22.167 31 -37.5 42s-32.333 19.5 -51 25.5s-36.334 11.333 -53.001 16c-23.333 6.66699 -47 14.5 -71 23.5s-45.667 21.167 -65 36.5
s-34.833 34.5 -46.5 57.5s-17.167 51.833 -16.5 86.5c0.666992 28 5.83398 52.833 15.501 74.5s22.334 40.167 38.001 55.5s33.667 27.666 54 36.999s41.5 15.666 63.5 18.999v91h73v-90c38 -5.33301 72.833 -19.166 104.5 -41.499s54.834 -53.166 69.501 -92.499l-63 -31
c-13.333 31.333 -33.5 54.666 -60.5 69.999s-54.833 23.333 -83.5 24c-16 0 -31.667 -2.33301 -47 -7s-29 -11.834 -41 -21.501s-21.833 -22 -29.5 -37s-12.167 -33.167 -13.5 -54.5z" />
    <glyph glyph-name="uni0025" unicode="%" horiz-adv-x="844" 
d="M608 742h86l-454 -779h-85zM790 158c0 -23.333 -4.5 -45.333 -13.5 -66s-21.333 -38.667 -37 -54s-34 -27.5 -55 -36.5s-43.167 -13.5 -66.5 -13.5c-24 0 -46.5 4.5 -67.5 13.5s-39.333 21.167 -55 36.5s-28 33.333 -37 54s-13.5 42.667 -13.5 66s4.5 45.333 13.5 66
s21.333 38.667 37 54s34 27.5 55 36.5s43.5 13.5 67.5 13.5c23.333 0 45.5 -4.5 66.5 -13.5s39.333 -21.167 55 -36.5s28 -33.333 37 -54s13.5 -42.667 13.5 -66zM718 158c0 14.667 -2.5 28.5 -7.5 41.5s-12 24.333 -21 34s-19.667 17.334 -32 23.001s-25.5 8.5 -39.5 8.5
s-27.167 -2.83301 -39.5 -8.5s-23 -13.334 -32 -23.001s-16.167 -21 -21.5 -34s-8 -26.833 -8 -41.5s2.66699 -28.334 8 -41.001s12.5 -23.667 21.5 -33s19.667 -16.833 32 -22.5s25.5 -8.5 39.5 -8.5s27.167 2.83301 39.5 8.5s23 13.167 32 22.5s16 20.333 21 33
s7.5 26.334 7.5 41.001zM395 542c0 -23.333 -4.5 -45.333 -13.5 -66s-21.333 -38.667 -37 -54s-34 -27.5 -55 -36.5s-43.167 -13.5 -66.5 -13.5s-45.5 4.5 -66.5 13.5s-39.333 21.167 -55 36.5s-28 33.333 -37 54s-13.5 42.667 -13.5 66c0 24 4.5 46.333 13.5 67
s21.333 38.667 37 54s34 27.5 55 36.5s43.167 13.5 66.5 13.5s45.5 -4.5 66.5 -13.5s39.333 -21.167 55 -36.5s28 -33.333 37 -54s13.5 -43 13.5 -67zM325 542c0 14.667 -2.66699 28.5 -8 41.5s-12.5 24.333 -21.5 34s-19.667 17.334 -32 23.001s-25.833 8.5 -40.5 8.5
c-14 0 -27.333 -2.83301 -40 -8.5s-23.5 -13.334 -32.5 -23.001s-16.167 -21 -21.5 -34s-8 -26.833 -8 -41.5s2.66699 -28.334 8 -41.001s12.5 -23.834 21.5 -33.501s19.833 -17.334 32.5 -23.001s26 -8.5 40 -8.5c14.667 0 28.167 2.83301 40.5 8.5s23 13.334 32 23.001
s16.167 20.834 21.5 33.501s8 26.334 8 41.001z" />
    <glyph glyph-name="uni0026" unicode="&#x26;" horiz-adv-x="662" 
d="M324 379l136 -147.996l25.5 44.5l24.5 42.5l69 -36l-65 -113l125 -142h-105l-65 75c-26.667 -34 -55.667 -60.833 -87 -80.5s-69.333 -29.5 -114 -29.5c-29.333 0 -56.666 4.83301 -81.999 14.5s-47.5 23.334 -66.5 41.001s-34 39 -45 64s-16.5 53.167 -16.5 84.5
c0 26 3.83301 48.833 11.5 68.5s18 37.167 31 52.5s28 29.166 45 41.499s34.5 24.166 52.5 35.499c-18 21.333 -34.5 44.666 -49.5 69.999s-22.5 53.333 -22.5 84c0 26 4.83301 49 14.5 69s22.667 37 39 51s35.166 24.667 56.499 32s43.333 11 66 11
c20.667 0 40.667 -3.66699 60 -11s36.333 -17.833 51 -31.5s26.5 -29.834 35.5 -48.501s13.5 -39.334 13.5 -62.001c0 -24 -3.83301 -45 -11.5 -63s-18 -34 -31 -48s-27.833 -26.5 -44.5 -37.5s-33.667 -21.167 -51 -30.5zM417 160.004l-167.999 179.002
c-12.667 -8 -25.5 -16.667 -38.5 -26s-24.833 -19.833 -35.5 -31.5s-19.334 -24.334 -26.001 -38.001s-10 -28.834 -10 -45.501c0 -19.333 3.66699 -36.833 11 -52.5s17.166 -29 29.499 -40s26.833 -19.5 43.5 -25.5s34.334 -9 53.001 -9c30.667 0 57.5 8.83301 80.5 26.5
s43.167 38.5 60.5 62.5zM299.001 635.006c-25.333 0 -46.667 -8 -64 -24s-26 -36.667 -26 -62c0 -20 7 -40.5 21 -61.5s28 -39.833 42 -56.5c12 6 24.5 12.833 37.5 20.5s25 16.5 36 26.5s20.167 21.333 27.5 34s11 27 11 43c0 23.333 -8.33301 42.5 -25 57.5
s-36.667 22.5 -60 22.5z" />
    <glyph glyph-name="uni0027" unicode="'" horiz-adv-x="213" 
d="M67 518h79v193h-79v-193z" />
    <glyph glyph-name="uni0028" unicode="(" horiz-adv-x="390" 
d="M157 352c0 -38 4.83301 -76.999 14.5 -116.999s23.667 -78.333 42 -115s40.833 -70.5 67.5 -101.5s57 -56.5 91 -76.5v-92c-44.667 23.333 -85.334 53.166 -122.001 89.499s-68 76.666 -94 120.999s-46 91.5 -60 141.5s-21 100 -21 150c0 50.667 7 100.834 21 150.501
s34 96.834 60 141.501s57.333 85.167 94 121.5s77.334 66.166 122.001 89.499v-92c-34 -20 -64.333 -45.5 -91 -76.5s-49.167 -64.833 -67.5 -101.5s-32.333 -75 -42 -115s-14.5 -79.333 -14.5 -118z" />
    <glyph glyph-name="uni0029" unicode=")" horiz-adv-x="389" 
d="M232 352c0 38.667 -4.83301 77.999 -14.5 117.999s-23.834 78.333 -42.501 115s-41.167 70.5 -67.5 101.5s-56.5 56.5 -90.5 76.5v92c44.667 -23.333 85.167 -53.166 121.5 -89.499s67.5 -76.833 93.5 -121.5s46 -91.834 60 -141.501s21 -99.834 21 -150.501
c0 -50 -7 -100 -21 -150s-34 -97.167 -60 -141.5s-57.167 -84.666 -93.5 -120.999s-76.833 -66.166 -121.5 -89.499v92c34 20 64.167 45.5 90.5 76.5s48.833 64.833 67.5 101.5s32.834 75 42.501 115s14.5 79 14.5 117z" />
    <glyph glyph-name="uni002A" unicode="*" horiz-adv-x="470" 
d="M422 538l-22 66l-137 -46l3 144h-70l1 -144l-136 46l-22 -66l138 -43l-87 -116l57 -41l83 119l83 -119l58 41l-88 116z" />
    <glyph glyph-name="uni002B" unicode="+" horiz-adv-x="652" 
d="M82 290h210v-206h77v206h201v79h-201v204h-77v-204h-210v-79z" />
    <glyph glyph-name="uni002C" unicode="," horiz-adv-x="263" 
d="M27 -109h75l82 216h-92z" />
    <glyph glyph-name="uni002D" unicode="-" horiz-adv-x="458" 
d="M95 272h270v79h-270v-79z" />
    <glyph glyph-name="uni002E" unicode="." horiz-adv-x="264" 
d="M181 -2v109h-100v-109h100z" />
    <glyph glyph-name="uni002F" unicode="/" horiz-adv-x="422" 
d="M404 778h-84l-288 -843h85z" />
    <glyph glyph-name="uni0030" unicode="0" horiz-adv-x="611" 
d="M67 505c0 34 6.5 64.002 19.5 90.002s30.5 47.833 52.5 65.5s47.5 31 76.5 40s59.167 13.5 90.5 13.5c30 0 59.167 -4.33301 87.5 -13s53.666 -21.667 75.999 -39s40.333 -39 54 -65s20.5 -56.667 20.5 -92v-307c0 -34.667 -6.66699 -65.167 -20 -91.5
s-31 -48.333 -53 -66s-47.667 -30.834 -77 -39.501s-60 -13 -92 -13s-62.167 4.66699 -90.5 14s-53.166 22.833 -74.499 40.5s-38.333 39.667 -51 66s-19 56.166 -19 89.499v307zM149 198.002c0 -21.333 4.49902 -40.333 13.499 -57s20.833 -30.834 35.5 -42.501
s31.334 -20.5 50.001 -26.5s38 -9 58 -9c19.333 0 38.333 3 57 9s35.334 14.833 50.001 26.5s26.5 25.834 35.5 42.501s13.5 35.667 13.5 57v307c0 21.333 -4.5 40.333 -13.5 57s-21 30.667 -36 42s-32 20 -51 26s-38.167 9 -57.5 9c-20 0 -39.167 -3 -57.5 -9
s-34.833 -14.667 -49.5 -26s-26.334 -25.333 -35.001 -42s-13 -35.667 -13 -57v-307z" />
    <glyph glyph-name="uni0031" unicode="1" horiz-adv-x="326" 
d="M144 623h-92v78h174v-701h-82v623z" />
    <glyph glyph-name="uni0032" unicode="2" horiz-adv-x="569" 
d="M277 633c-34.667 0 -64.8311 -8.33496 -90.498 -25.002s-45.167 -40.667 -58.5 -72l-68 32c20 50 49.667 86.833 89 110.5s85.333 35.5 138 35.5c33.333 -1.33301 63.166 -7.66602 89.499 -18.999s48.666 -26 66.999 -44s32.5 -38.667 42.5 -62s15.333 -48 16 -74
c0 -30 -6.5 -59.167 -19.5 -87.5s-31.833 -56.166 -56.5 -83.499l-246 -269h327v-75h-429l-24 60l316 342c17.333 18.667 31 37.167 41 55.5s14.667 37.166 14 56.499c0 20.667 -4.33301 38.334 -13 53.001s-20 27 -34 37s-29.833 17.333 -47.5 22s-35.5 7 -53.5 7z" />
    <glyph glyph-name="uni0033" unicode="3" horiz-adv-x="559" 
d="M44 133l61.998 34c16 -32.667 39.333 -58 70 -76s62.334 -27 95.001 -27c17.333 0 34.5 3 51.5 9s32.333 14.833 46 26.5s24.667 26.167 33 43.5s12.5 37.333 12.5 60c0 20.667 -3.5 39.5 -10.5 56.5s-16.5 31.667 -28.5 44s-26 21.833 -42 28.5s-33 10 -51 10h-56v73h56
c31.333 0 58.166 8.16699 80.499 24.5s33.5 42.833 33.5 79.5c0 19.333 -3.5 36.333 -10.5 51s-16.167 26.834 -27.5 36.501s-24.5 17 -39.5 22s-30.5 7.5 -46.5 7.5c-28 0 -55.667 -7.33301 -83 -22s-47.666 -36 -60.999 -64l-59 35c9.33301 20.667 21.166 39 35.499 55
s30.166 29.333 47.499 40s35.833 18.667 55.5 24s39.5 8 59.5 8c25.333 0 50.5 -4 75.5 -12s47.5 -20 67.5 -36s36.333 -36 49 -60s19 -52.333 19 -85c0 -29.333 -7 -56.5 -21 -81.5s-33 -43.167 -57 -54.5c32.667 -17.333 56.834 -41.5 72.501 -72.5
s23.5 -67.167 23.5 -108.5c0 -34.667 -6.66699 -65.334 -20 -92.001s-30.666 -49 -51.999 -67s-45.666 -31.667 -72.999 -41s-55 -14 -83 -14c-22 0 -44.167 3 -66.5 9s-43.5 15.167 -63.5 27.5s-38.167 27.5 -54.5 45.5s-29.5 39 -39.5 63z" />
    <glyph glyph-name="uni0034" unicode="4" horiz-adv-x="546" 
d="M444 701h-86l-331 -495l54 -73h281v-133h82v133h56v76h-56v492zM362 209l-238 1l240 374z" />
    <glyph glyph-name="uni0035" unicode="5" horiz-adv-x="582" 
d="M50 133l67.0029 33.999c7.33301 -16 17.333 -30.167 30 -42.5s26.5 -22.666 41.5 -30.999s30.833 -14.833 47.5 -19.5s33 -7 49 -7c27.333 0 51.166 4.66699 71.499 14s37.166 21.833 50.499 37.5s23.333 33.334 30 53.001s10 39.5 10 59.5s-3.33301 39.333 -10 58
s-16.5 35.167 -29.5 49.5s-29.5 26 -49.5 35s-43.333 13.5 -70 13.5c-30.667 0 -59 -2.5 -85 -7.5s-53 -15.5 -81 -31.5l-44 -2l54 354h350v-78h-283l-29 -181c38 14.667 78 22 120 22c40 -0.666992 74.833 -7.66699 104.5 -21s54.5 -30.833 74.5 -52.5
s34.833 -46.334 44.5 -74.001s14.5 -56.167 14.5 -85.5c0 -30 -5.16699 -59.333 -15.5 -88s-25.666 -54.167 -45.999 -76.5s-45.833 -40.5 -76.5 -54.5s-66.334 -21 -107.001 -21c-23.333 0 -46.5 3 -69.5 9s-44.833 15 -65.5 27s-39.334 26.833 -56.001 44.5
s-30.667 38.5 -42 62.5z" />
    <glyph glyph-name="uni0036" unicode="6" horiz-adv-x="603" 
d="M306 -10c-40 0 -75.1719 7 -105.505 21s-55.666 32.167 -75.999 54.5s-35.666 47.833 -45.999 76.5s-15.5 58 -15.5 88c0 48 13.333 93 40 135l208 335h95l-149 -241c7.33301 1.33301 15.166 2.33301 23.499 3s16.833 1 25.5 1c42 0 78.333 -6.66699 109 -20
s55.834 -31 75.501 -53s34.334 -46.833 44.001 -74.5s14.5 -56.167 14.5 -85.5c0 -30 -5.16699 -59.333 -15.5 -88s-25.666 -54.167 -45.999 -76.5s-45.666 -40.5 -75.999 -54.5s-65.5 -21 -105.5 -21zM305.995 387c-22.667 0 -43.8311 -3.83203 -63.498 -11.499
s-36.667 -18.334 -51 -32.001s-25.833 -30 -34.5 -49s-13 -40.167 -13 -63.5c0 -20 3.5 -39.833 10.5 -59.5s17.167 -37.334 30.5 -53.001s30.166 -28.167 50.499 -37.5s43.833 -14 70.5 -14c27.333 0 51.166 4.66699 71.499 14s37.166 21.833 50.499 37.5
s23.333 33.334 30 53.001s10 39.5 10 59.5s-3.5 39.333 -10.5 58s-17.167 35.167 -30.5 49.5s-30.166 26 -50.499 35s-43.833 13.5 -70.5 13.5z" />
    <glyph glyph-name="uni0037" unicode="7" horiz-adv-x="501" 
d="M377 622l-327 -622h93l337 646l-27 56h-413v-80h337z" />
    <glyph glyph-name="uni0038" unicode="8" horiz-adv-x="587" 
d="M291 -14c-28.667 0 -56.668 4.66797 -84.001 14.001s-51.666 23.166 -72.999 41.499s-38.666 41 -51.999 68s-20 57.833 -20 92.5c-0.666992 40 7.83301 74.667 25.5 104s41.5 53.666 71.5 72.999c-24 17.333 -41.5 38.666 -52.5 63.999s-16.5 52.333 -16.5 81
c0 30.667 5.66699 57.834 17 81.501s26.5 43.5 45.5 59.5s40.5 28 64.5 36s48.667 12 74 12s50.166 -4 74.499 -12s45.833 -20 64.5 -36s33.667 -35.833 45 -59.5s17 -50.834 17 -81.501c0 -27.333 -5.33301 -54 -16 -80s-28 -47.667 -52 -65
c30 -19.333 53.833 -43.666 71.5 -72.999s26.167 -64 25.5 -104c0 -34.667 -6.66699 -65.5 -20 -92.5s-30.666 -49.667 -51.999 -68s-45.833 -32.166 -73.5 -41.499s-55.834 -14 -84.501 -14zM290.999 343.001c-32 0 -58.835 -7.00098 -80.502 -21.001s-38 -31.5 -49 -52.5
s-16.5 -43.667 -16.5 -68s5.33301 -46.833 16 -67.5s26.834 -38 48.501 -52s48.834 -20.667 81.501 -20c33.333 0.666992 61 8 83 22s38.5 31.333 49.5 52s16.5 43.167 16.5 67.5s-5.5 46.833 -16.5 67.5s-27.667 37.834 -50 51.501s-49.833 20.5 -82.5 20.5zM290.997 637
c-26.667 0 -48.8311 -5.5 -66.498 -16.5s-30.834 -24.833 -39.501 -41.5s-12.834 -34.667 -12.501 -54s4.83301 -37.333 13.5 -54s21.834 -30.5 39.501 -41.5s39.5 -16.5 65.5 -16.5s47.833 5.5 65.5 16.5s31 24.833 40 41.5s13.667 34.667 14 54s-4 37.333 -13 54
s-22.333 30.5 -40 41.5s-39.834 16.5 -66.501 16.5z" />
    <glyph glyph-name="uni0039" unicode="9" horiz-adv-x="605" 
d="M299 709c40 0 75.1719 -7 105.505 -21s55.666 -32.167 75.999 -54.5s35.666 -47.833 45.999 -76.5s15.5 -58 15.5 -88c0 -48 -13.333 -93 -40 -135l-208 -335h-95l149 241c-7.33301 -1.33301 -15.166 -2.33301 -23.499 -3s-16.833 -1 -25.5 -1
c-42 0 -78.333 6.66699 -109 20s-55.834 31 -75.501 53s-34.334 47 -44.001 75s-14.5 56.333 -14.5 85c0 30 5.16699 59.333 15.5 88s25.666 54.167 45.999 76.5s45.666 40.5 75.999 54.5s65.5 21 105.5 21zM299.005 312c22.667 0 43.834 3.83203 63.501 11.499
s36.667 18.334 51 32.001s25.833 30.167 34.5 49.5s13 40.333 13 63c0 20 -3.5 39.833 -10.5 59.5s-17.167 37.334 -30.5 53.001s-30.166 28.167 -50.499 37.5s-43.833 14 -70.5 14s-50.334 -4.66699 -71.001 -14s-37.667 -21.833 -51 -37.5s-23.333 -33.334 -30 -53.001
s-10 -39.5 -10 -59.5s3.5 -39.333 10.5 -58s17.167 -35.167 30.5 -49.5s30.166 -26 50.499 -35s43.833 -13.5 70.5 -13.5z" />
    <glyph glyph-name="uni003A" unicode=":" horiz-adv-x="302" 
d="M197 -2v109h-100v-109h100zM197 386v109h-100v-109h100z" />
    <glyph glyph-name="uni003B" unicode=";" horiz-adv-x="303" 
d="M197 386v109h-100v-109h100zM43 -120h75l82 216h-92z" />
    <glyph glyph-name="uni003C" unicode="&#x3c;" horiz-adv-x="505" 
d="M442 529l-401 -213v-60l401 -209v87l-306 152l306 153v90z" />
    <glyph glyph-name="uni003D" unicode="=" horiz-adv-x="635" 
d="M101 337h433v79h-433v-79zM101 142h433v79h-433v-79z" />
    <glyph glyph-name="uni003E" unicode="&#x3e;" horiz-adv-x="504" 
d="M64 438l306 -152l-306 -149v-90l401 209v60l-401 213v-91z" />
    <glyph glyph-name="uni003F" unicode="?" horiz-adv-x="530" 
d="M263 1h-87v93h87v-93zM26 620l9.00098 11.0049c22.667 29.333 51.334 51.166 86.001 65.499s70.667 21.5 108 21.5c28.667 0 56.667 -4.5 84 -13.5s51.666 -22.333 72.999 -40s38.333 -39.5 51 -65.5s19 -56 19 -90c-0.666992 -60.667 -19.167 -109.834 -55.5 -147.501
s-83.5 -61.834 -141.5 -72.501l-7 -144h-71l-6 207c25.333 0 50 4 74 12s45.333 19 64 33s33.667 30.667 45 50s16.666 40.333 15.999 63c-0.666992 21.333 -5.16699 40.166 -13.5 56.499s-19.333 30.166 -33 41.499s-29.334 20 -47.001 26s-35.5 9 -53.5 9
c-27.333 0 -53.666 -6.16699 -78.999 -18.5s-46.333 -28.833 -63 -49.5z" />
    <glyph glyph-name="uni0040" unicode="@" horiz-adv-x="813" 
d="M648 473l-1.99414 2.99512c-23.333 30 -53.833 52.667 -91.5 68s-77.5 23 -119.5 23c-45.333 0 -86 -8.83301 -122 -26.5s-66.667 -40.834 -92 -69.501s-44.833 -61.167 -58.5 -97.5s-20.834 -73.166 -21.501 -110.499c-0.666992 -34 4 -67.333 14 -100
s25.667 -61.5 47 -86.5s49.166 -45.167 83.499 -60.5s75.833 -23 124.5 -23c15.333 0 31.333 1.5 48 4.5s35 8.5 55 16.5l34 -64c-26 -10 -50 -17.167 -72 -21.5s-43.667 -6.5 -65 -6.5c-61.333 0 -114 9.66699 -158 29s-79.833 45 -107.5 77s-48 68.5 -61 109.5
s-19.167 83.167 -18.5 126.5c0.666992 46 9.5 91.333 26.5 136s41.167 84.834 72.5 120.501s69.666 64.334 114.999 86.001s96.666 32.5 153.999 32.5c47.333 0 91.333 -7.5 132 -22.5s75.834 -35.833 105.501 -62.5s53 -57.834 70 -93.501s25.5 -74.5 25.5 -116.5
c0 -40.667 -6.83301 -78.5 -20.5 -113.5s-31.5 -65.5 -53.5 -91.5s-46.833 -46.5 -74.5 -61.5s-55.5 -22.5 -83.5 -22.5c-15.333 0 -29.5 4.5 -42.5 13.5s-20.167 25.167 -21.5 48.5c-12.667 -20 -29.834 -34.667 -51.501 -44s-43.167 -14 -64.5 -14
c-19.333 0 -37.333 4.33301 -54 13s-31 20 -43 34s-21.5 29.833 -28.5 47.5s-10.5 35.834 -10.5 54.501c0 34 5.16699 68 15.5 102s25.333 64.333 45 91s43.667 48.334 72 65.001s60.833 25 97.5 25c9.33301 0 19.166 -1.5 29.499 -4.5s20.166 -7.33301 29.499 -13
s17.333 -12.667 24 -21s11 -18.166 13 -29.499l14 35l79 -3l-87 -270l-6 -18c-2 -6 -3.16699 -11.667 -3.5 -17s0.5 -9.66602 2.5 -12.999s6.33301 -5 13 -5c14.667 0 30 6.5 46 19.5s30.5 29.667 43.5 50s23.667 43 32 68s12.5 49.833 12.5 74.5
c0 50.667 -14 93.667 -42 129zM294.006 209.995c0 -22.667 6.16699 -40.999 18.5 -54.999s28.833 -21 49.5 -21c20 0 39 6.66699 57 20s33.5 29.833 46.5 49.5s23.333 41 31 64s11.5 44.167 11.5 63.5c0 26 -5.33301 46.667 -16 62s-26.667 23 -48 23
c-25.333 0.666992 -47.5 -5.83301 -66.5 -19.5s-34.667 -30.834 -47 -51.501s-21.5 -43 -27.5 -67s-9 -46.667 -9 -68z" />
    <glyph glyph-name="uni0041" unicode="A" horiz-adv-x="632" 
d="M13 0h88l79 224h271l81 -224h87l-254 705h-101zM205 300l110 318l109 -318h-219z" />
    <glyph glyph-name="uni0042" unicode="B" horiz-adv-x="609" 
d="M517 519c0 -26.667 -6.66699 -52.334 -20 -77.001s-33.666 -46.334 -60.999 -65.001c40 -19.333 69 -45 87 -77s26.667 -65 26 -99c0 -35.333 -6.33301 -65.666 -19 -90.999s-29.834 -46.166 -51.501 -62.499s-47 -28.333 -76 -36s-59.833 -11.5 -92.5 -11.5h-209v704
h210c28 0 54.5 -4.16699 79.5 -12.5s46.833 -20.5 65.5 -36.5s33.5 -35.5 44.5 -58.5s16.5 -48.833 16.5 -77.5zM311 333h-128v-257h128c52.667 0 92.5 12 119.5 36s40.5 53.667 40.5 89c0 16 -3.33301 32 -10 48s-16.5 30.167 -29.5 42.5s-29.5 22.333 -49.5 30
s-43.667 11.5 -71 11.5zM183 410h128c22 0 41 3.16699 57 9.5s29.5 14.833 40.5 25.5s19.167 22.5 24.5 35.5s8 26.5 8 40.5s-2.66699 27.5 -8 40.5s-13.5 24.5 -24.5 34.5s-24.5 18.167 -40.5 24.5s-35 9.5 -57 9.5h-128v-220z" />
    <glyph glyph-name="uni0043" unicode="C" horiz-adv-x="729" 
d="M664 607l-53.001 -54.999c-55.333 56.667 -122.333 85 -201 85c-44.667 -0.666992 -84.167 -9.33398 -118.5 -26.001s-63 -38.5 -86 -65.5s-40.333 -57.667 -52 -92s-17.5 -69.5 -17.5 -105.5s6 -71 18 -105s29.5 -64.167 52.5 -90.5s51.5 -47.666 85.5 -63.999
s73.333 -24.5 118 -24.5c41.333 0 81.166 8.83301 119.499 26.5s70.833 42.5 97.5 74.5l58 -48c-33.333 -40 -73.666 -71.5 -120.999 -94.5s-98.666 -34.5 -153.999 -34.5c-58 0 -109.333 10.167 -154 30.5s-82 47.333 -112 81s-52.667 72.167 -68 115.5
s-23 87.666 -23 132.999s7.66699 89.833 23 133.5s38 82.667 68 117s67.333 62 112 83s96 31.5 154 31.5c50 0 96.667 -9.33301 140 -28s81.333 -44.667 114 -78z" />
    <glyph glyph-name="uni0044" unicode="D" horiz-adv-x="725" 
d="M317 705c57.333 0.666992 107.668 -8.83203 151.001 -28.499s79.666 -45.667 108.999 -78s51.666 -69.333 66.999 -111s23.333 -84.5 24 -128.5c1.33301 -44.667 -5.16699 -88.5 -19.5 -131.5s-36.166 -81.333 -65.499 -115s-66 -60.834 -110 -81.501
s-95.667 -31 -155 -31h-217v705h216zM317.002 76.001h6.00098c45.333 0 84.666 8 117.999 24s61 37.333 83 64s38.333 56.834 49 90.501s15.334 68.167 14.001 103.5c-0.666992 34 -6.83398 67.333 -18.501 100s-28.667 61.667 -51 87s-50 45.666 -83 60.999
s-71.5 23 -115.5 23h-136v-553h134z" />
    <glyph glyph-name="uni0045" unicode="E" horiz-adv-x="531" 
d="M462 704h-375v-703h375v78h-293l1 234h288v77h-288v237h292v77z" />
    <glyph glyph-name="uni0046" unicode="F" horiz-adv-x="518" 
d="M476 701h-375v-700h83v308h288v77h-288v238h292v77z" />
    <glyph glyph-name="uni0047" unicode="G" horiz-adv-x="821" 
d="M423 713c55.333 0 108.501 -10.8301 159.501 -32.4971s92.833 -52.167 125.5 -91.5l-58 -50c-12.667 15.333 -27.834 29.166 -45.501 41.499s-36.5 22.666 -56.5 30.999s-40.667 14.666 -62 18.999s-42.333 6.5 -63 6.5c-44.667 0 -84.667 -8.5 -120 -25.5
s-65.333 -39 -90 -66s-43.667 -57.667 -57 -92s-20 -69.166 -20 -104.499s6 -70 18 -104s29.667 -64.5 53 -91.5s52 -48.833 86 -65.5s73.333 -25 118 -25c30 0 60 5.16699 90 15.5s57.333 25 82 44s45.167 41.667 61.5 68s26.166 55.833 29.499 88.5h-313v76h404
c0 -50.667 -8.5 -98.334 -25.5 -143.001s-41 -83.667 -72 -117s-68.167 -59.666 -111.5 -78.999s-91.666 -29 -144.999 -29c-58 0 -109.167 10.333 -153.5 31s-81.5 48 -111.5 82s-52.833 72.667 -68.5 116s-23.5 87.666 -23.5 132.999s8.33301 89.833 25 133.5
s40.667 82.5 72 116.5s70 61.5 116 82.5s98 31.5 156 31.5z" />
    <glyph glyph-name="uni0048" unicode="H" horiz-adv-x="688" 
d="M505 0h83v703h-83v-317h-321v317h-83v-703h83v312h321v-312z" />
    <glyph glyph-name="uni0049" unicode="I" horiz-adv-x="284" 
d="M101 0h82v703h-82v-703z" />
    <glyph glyph-name="uni004A" unicode="J" horiz-adv-x="555" 
d="M44 167l76.002 16c6.66699 -34.667 23.167 -63 49.5 -85s57.166 -33 92.499 -33c16 0 31.667 2.83301 47 8.5s29 14 41 25s21.5 24.667 28.5 41s10.5 35.5 10.5 57.5v433h-147v70h227v-503c0 -34.667 -5.83301 -65 -17.5 -91s-27.167 -47.833 -46.5 -65.5
s-41.5 -30.834 -66.5 -39.501s-50.5 -13 -76.5 -13c-24 0 -47.667 3.66699 -71 11s-44.833 18.333 -64.5 33s-36.834 33.334 -51.501 56.001s-25 49 -31 79z" />
    <glyph glyph-name="uni004B" unicode="K" horiz-adv-x="630" 
d="M101 705v-705h83v259l76 76l250 -335h97l-292 389l281 316h-91l-321 -348v348h-83z" />
    <glyph glyph-name="uni004C" unicode="L" horiz-adv-x="478" 
d="M454 77h-270v623h-83v-700h353v77z" />
    <glyph glyph-name="uni004D" unicode="M" horiz-adv-x="851" 
d="M462 95l206 457v-552h83v704h-106l-219 -502l-220 502h-105v-704h80v557l210 -462h71z" />
    <glyph glyph-name="uni004E" unicode="N" horiz-adv-x="757" 
d="M658 700h-82v-610l-376 610h-99v-700h82v586l359 -586h116v700z" />
    <glyph glyph-name="uni004F" unicode="O" 
d="M410 714c49.333 0 95.666 -9.83301 138.999 -29.5s81.166 -46.167 113.499 -79.5s57.833 -72 76.5 -116s28 -90.667 28 -140s-9.33301 -96 -28 -140s-44.167 -82.5 -76.5 -115.5s-70.166 -59.167 -113.499 -78.5s-89.666 -29 -138.999 -29s-95.666 9.66699 -138.999 29
s-81.166 45.5 -113.499 78.5s-57.833 71.5 -76.5 115.5s-28 90.667 -28 140s9.33301 96 28 140s44.167 82.667 76.5 116s70.166 59.833 113.499 79.5s89.666 29.5 138.999 29.5zM136 349c0 -47.333 7.83105 -88.8291 23.498 -124.496s36.334 -65.5 62.001 -89.5
s55 -42.167 88 -54.5s66.5 -18.5 100.5 -18.5s67.5 6.16699 100.5 18.5s62.333 30.5 88 54.5s46.334 53.833 62.001 89.5s23.5 77.167 23.5 124.5s-7.83301 89 -23.5 125s-36.5 66.167 -62.5 90.5s-55.5 42.666 -88.5 54.999s-66.5 18.5 -100.5 18.5
s-67.5 -6.33301 -100.5 -19s-62.167 -31.334 -87.5 -56.001s-45.833 -54.834 -61.5 -90.501s-23.5 -76.834 -23.5 -123.501z" />
    <glyph glyph-name="uni0050" unicode="P" horiz-adv-x="583" 
d="M183 256l-0.000976562 -255.999h-82v703h210c39.333 0 73.666 -6.5 102.999 -19.5s53.833 -30.167 73.5 -51.5s34.5 -45.5 44.5 -72.5s15 -54.5 15 -82.5s-5 -55.333 -15 -82s-24.667 -50.334 -44 -71.001s-43.666 -37.167 -72.999 -49.5s-63.666 -18.5 -102.999 -18.5
h-129zM310.999 332.001c26 0 48.499 4.33301 67.499 13s35 19.834 48 33.501s22.667 29.167 29 46.5s9.5 34.666 9.5 51.999c0 18 -3.16699 35.833 -9.5 53.5s-16 33.667 -29 48s-29.167 26 -48.5 35s-41.666 13.5 -66.999 13.5h-128v-295h128z" />
    <glyph glyph-name="uni0051" unicode="Q" horiz-adv-x="832" 
d="M689 122l66.002 -66.001l-55 -55l-65 66c-30.667 -25.333 -65 -45.333 -103 -60s-78.333 -22 -121 -22c-49.333 0 -95.666 9.66699 -138.999 29s-81.166 45.5 -113.499 78.5s-57.833 71.5 -76.5 115.5s-28 90.667 -28 140s9.33301 96 28 140s44.167 82.667 76.5 116
s70.166 59.833 113.499 79.5s89.666 29.5 138.999 29.5s95.666 -9.83301 138.999 -29.5s81.166 -46.167 113.499 -79.5s57.833 -72 76.5 -116s28 -90.667 28 -140c0 -42.667 -6.83301 -83.167 -20.5 -121.5s-33.167 -73.166 -58.5 -104.499zM470.002 231.999l55 55.002
l110 -111c15.333 22.667 27.5 48.167 36.5 76.5s13.5 60.166 13.5 95.499c0 47.333 -8 89 -24 125s-37 66.167 -63 90.5s-55.5 42.666 -88.5 54.999s-66.5 18.5 -100.5 18.5s-67.333 -6.33301 -100 -19s-61.834 -31.167 -87.501 -55.5s-46.167 -54.5 -61.5 -90.5
s-23 -77.333 -23 -124s7.83301 -88 23.5 -124s36.334 -66 62.001 -90s55 -42.167 88 -54.5s66.5 -18.5 100.5 -18.5c30.667 0 60.667 4.83301 90 14.5s56.333 24.167 81 43.5z" />
    <glyph glyph-name="uni0052" unicode="R" horiz-adv-x="616" 
d="M351 286l225.001 -286.001h-103l-219 285h-70v-285h-83v701h223c33.333 0 64.5 -3.83301 93.5 -11.5s54.167 -20 75.5 -37s38.166 -38.833 50.499 -65.5s18.833 -58.667 19.5 -96c0 -34.667 -5.33301 -64.667 -16 -90s-25.667 -46.166 -45 -62.499
s-41.833 -28.833 -67.5 -37.5s-53.5 -13.667 -83.5 -15zM184.001 355.999h141c48 0 85.833 10.5 113.5 31.5s41.5 55.5 41.5 103.5c0 48.667 -14.5 83.167 -43.5 103.5s-66.167 30.5 -111.5 30.5h-141v-269z" />
    <glyph glyph-name="uni0053" unicode="S" horiz-adv-x="560" 
d="M143 526c-1.33301 -22 2.50195 -40.334 11.502 -55.001s20.667 -26.667 35 -36s29.833 -16.666 46.5 -21.999s32.334 -10 47.001 -14c27.333 -6.66699 54 -15 80 -25s49 -23.333 69 -40s36 -38 48 -64s17 -58.333 15 -97c-1.33301 -32 -9 -59.667 -23 -83
s-31.667 -42.833 -53 -58.5s-45.166 -27.167 -71.499 -34.5s-52.833 -11 -79.5 -11c-22.667 0 -45.167 3.16699 -67.5 9.5s-43.5 15.833 -63.5 28.5s-38 28.334 -54 47.001s-28.667 40.334 -38 65.001l65 35c13.333 -34.667 34.666 -61.834 63.999 -81.501
s62.333 -29.5 99 -29.5c40.667 0 73.834 10.667 99.501 32s39.834 50 42.501 86c2 25.333 -1.83301 46.5 -11.5 63.5s-22.167 31 -37.5 42s-32.333 19.667 -51 26s-36.334 11.833 -53.001 16.5c-23.333 6 -47 13.667 -71 23s-45.667 21.666 -65 36.999
s-34.833 34.5 -46.5 57.5s-17.167 51.833 -16.5 86.5c1.33301 32 8.16602 59.833 20.499 83.5s28.166 43.334 47.499 59.001s41.333 27.334 66 35.001s49.667 11.5 75 11.5c22 0 43.833 -2.83301 65.5 -8.5s41.667 -14.334 60 -26.001s34.833 -26 49.5 -43
s26 -36.833 34 -59.5l-63 -31c-12 30.667 -31.5 54 -58.5 70s-56.5 24 -88.5 24c-16 0 -31.333 -2.33301 -46 -7s-27.834 -11.834 -39.501 -21.501s-21.334 -22 -29.001 -37s-12.167 -32.833 -13.5 -53.5z" />
    <glyph glyph-name="uni0054" unicode="T" horiz-adv-x="451" 
d="M10 702v-80h174v-622h83v622h174v80h-431z" />
    <glyph glyph-name="uni0055" unicode="U" horiz-adv-x="655" 
d="M91 700l83 -0.00292969v-498c0 -22 4 -41.667 12 -59s19 -32.166 33 -44.499s30.333 -21.666 49 -27.999s38.334 -9.5 59.001 -9.5c19.333 0 38.166 3 56.499 9s34.833 14.833 49.5 26.5s26.334 26.334 35.001 44.001s13 38.167 13 61.5v498h83v-498
c0 -36.667 -6.83301 -68.667 -20.5 -96s-31.834 -50 -54.501 -68s-48.167 -31.333 -76.5 -40s-57.5 -13 -87.5 -13c-29.333 0 -58 4.66699 -86 14s-53 23 -75 41s-39.667 40.5 -53 67.5s-20 58.5 -20 94.5v498z" />
    <glyph glyph-name="uni0056" unicode="V" horiz-adv-x="627" 
d="M366 -2l251 706h-87l-214 -615l-215 615h-89l253 -706h101z" />
    <glyph glyph-name="uni0057" unicode="W" horiz-adv-x="954" 
d="M519 614l160 -521l160 609h85l-194 -705h-101l-147 471l-74 -236l-74 -235h-101l-194 705h86l159 -610l162 522h73z" />
    <glyph glyph-name="uni0058" unicode="X" horiz-adv-x="643" 
d="M615 700l-239 -350l120 -174.5l120 -174.5h-100l-189 281l-189 -281h-101l241 349l-239 350h99l189 -277l94.5 139l94.5 138h99z" />
    <glyph glyph-name="uni0059" unicode="Y" horiz-adv-x="589" 
d="M574 705l-240 -426v-279h-81v279l-119.5 213.5l-119.5 212.5h94l186 -339l93 169.5l92 169.5h95z" />
    <glyph glyph-name="uni005A" unicode="Z" horiz-adv-x="568" 
d="M58 0h457v75h-378l116 162l262 392v76h-445v-74h364l-103 -145l-273 -406v-80z" />
    <glyph glyph-name="uni005B" unicode="[" horiz-adv-x="311" 
d="M273 787h-167l-1 -872h167v69h-86l1 732h86v71z" />
    <glyph glyph-name="uni005C" unicode="\" horiz-adv-x="423" 
d="M307 -65h85l-288 843h-84z" />
    <glyph glyph-name="uni005D" unicode="]" horiz-adv-x="312" 
d="M36 716h86l1 -732h-86v-69h167l-1 872h-167v-71z" />
    <glyph glyph-name="uni005E" unicode="^" horiz-adv-x="609" 
d="M70 301h87l148 289l145 -289h89l-207 399h-54z" />
    <glyph glyph-name="uni005F" unicode="_" horiz-adv-x="582" 
d="M33 0v-78h511v78h-511z" />
    <glyph glyph-name="uni0060" unicode="`" horiz-adv-x="509" 
d="M263 761h74l-65 115h-93z" />
    <glyph glyph-name="uni0061" unicode="a" horiz-adv-x="568" 
d="M493 0l-61.002 0.00195312l-11 45c-18 -17.333 -39.667 -31 -65 -41s-50.666 -15.333 -75.999 -16c-38 0 -71.167 4.33301 -99.5 13s-52 20.834 -71 36.501s-33.167 34 -42.5 55s-14 43.833 -14 68.5c0 33.333 7 61.333 21 84s32.167 41 54.5 55s47.5 24.167 75.5 30.5
s56.333 9.5 85 9.5c22.667 0 45.167 -3.66699 67.5 -11s43.5 -16.333 63.5 -27v22c0 25.333 -4 46.166 -12 62.499s-18.833 29.166 -32.5 38.499s-29.167 16 -46.5 20s-35.666 6 -54.999 6c-28 0 -55.5 -4.33301 -82.5 -13s-51.167 -20.667 -72.5 -36l-33 55
c33.333 24 65.833 40.5 97.5 49.5s62.5 13.5 92.5 13.5c28 0 55.167 -3.33301 81.5 -10s49.5 -17.834 69.5 -33.501s36 -36 48 -61s18 -55.5 18 -91.5v-324zM417.998 239.002c-18.667 12 -39.333 21.001 -62 27.001s-44.667 9 -66 9
c-54.667 -0.666992 -95.834 -11.334 -123.501 -32.001s-41.5 -48 -41.5 -82c0 -30 12.833 -55.5 38.5 -76.5s64.5 -31.5 116.5 -31.5c24.667 0 49.834 5.83301 75.501 17.5s46.5 27.167 62.5 46.5v122z" />
    <glyph glyph-name="uni0062" unicode="b" horiz-adv-x="574" 
d="M267 513c40.667 0 77 -6.5 109 -19.5s59 -31 81 -54s38.833 -50.5 50.5 -82.5s17.5 -67.333 17.5 -106c0 -33.333 -5.33301 -65.333 -16 -96s-25.834 -58 -45.501 -82s-43.5 -43.167 -71.5 -57.5s-59.667 -21.5 -95 -21.5c-12 0 -24 0.5 -36 1.5s-24.167 3.5 -36.5 7.5
s-24.666 9.83301 -36.999 17.5s-24.5 18.167 -36.5 31.5l-14 -52h-56v700h76v-222c16 12 34 20.833 54 26.5s38.667 8.5 56 8.5zM290 61c52 5.33301 91.834 25.333 119.501 60s41.5 79 41.5 133c0 57.333 -17 102.833 -51 136.5s-79.333 50.5 -136 50.5
c-18.667 -0.666992 -37.167 -3.5 -55.5 -8.5s-35.833 -12.5 -52.5 -22.5v-283c15.333 -20 32.5 -36.167 51.5 -48.5s40.833 -18.5 65.5 -18.5h8.5c2.33301 0 5.16602 0.333008 8.49902 1z" />
    <glyph glyph-name="uni0063" unicode="c" horiz-adv-x="526" 
d="M481 449l-43.001 -53c-18.667 17.333 -39.5 30.333 -62.5 39s-47.167 13 -72.5 13c-23.333 0 -45.833 -4.5 -67.5 -13.5s-40.667 -22.167 -57 -39.5s-29.666 -38 -39.999 -62s-15.5 -51 -15.5 -81c0 -23.333 3.83301 -46.333 11.5 -69s19 -43 34 -61
s33.833 -32.5 56.5 -43.5s49 -16.5 79 -16.5c25.333 0 50 5 74 15s45.333 23.667 64 41l44 -53c-23.333 -23.333 -50.5 -41.333 -81.5 -54s-64.5 -19 -100.5 -19c-42.667 0 -80.334 7.5 -113.001 22.5s-59.667 34.667 -81 59s-37.5 52.333 -48.5 84
s-16.5 63.834 -16.5 96.501c0 33.333 5.66699 65.666 17 96.999s27.833 59.5 49.5 84.5s48.667 45.167 81 60.5s69.5 23 111.5 23c36 0 68.333 -5.66699 97 -17s55.334 -29 80.001 -53z" />
    <glyph glyph-name="uni0064" unicode="d" horiz-adv-x="573" 
d="M307 513c17.333 0 36.001 -2.83301 56.001 -8.5s38 -14.5 54 -26.5v222h76v-700h-56l-14 52c-22 -24.667 -44.833 -40.5 -68.5 -47.5s-51.167 -10.5 -82.5 -10.5c-32.667 0 -62.834 7 -90.501 21s-51.167 32.833 -70.5 56.5s-34.5 51 -45.5 82s-16.5 63.5 -16.5 97.5
c0 38.667 5.83301 74 17.5 106s28.5 59.5 50.5 82.5s49 41 81 54s68.333 19.5 109 19.5zM284.001 61c2 0 3.99902 -0.166992 5.99902 -0.5s4 -0.5 6 -0.5c24 0 46.5 6.16699 67.5 18.5s39.167 28.5 54.5 48.5v283c-35.333 20.667 -72.666 31 -111.999 31
c-23.333 0 -46 -3.66699 -68 -11s-41.5 -18.833 -58.5 -34.5s-30.667 -35.167 -41 -58.5s-15.5 -51 -15.5 -83c0 -54 13.833 -98.333 41.5 -133s67.5 -54.667 119.5 -60z" />
    <glyph glyph-name="uni0065" unicode="e" horiz-adv-x="599" 
d="M304 60c28 0 55.334 5.83203 82.001 17.499s48.667 29.167 66 52.5l60 -38c-25.333 -34.667 -55.833 -60.5 -91.5 -77.5s-74.5 -25.5 -116.5 -25.5c-42.667 0 -80.334 7.66699 -113.001 23s-59.667 35.5 -81 60.5s-37.333 53.5 -48 85.5s-16 64.333 -16 97
s5.5 64.834 16.5 96.501s27.333 60 49 85s48.5 45.167 80.5 60.5s69 23 111 23c40 0 76.333 -7.66699 109 -23s60 -36.166 82 -62.499s37.833 -57.333 47.5 -93s11.5 -73.834 5.5 -114.501h-425c1.33301 -21.333 6.33301 -42 15 -62s20.667 -37.833 36 -53.5
s34 -28.167 56 -37.5s47 -14 75 -14zM123.001 292.999h354c-4 46.667 -21.667 84.334 -53 113.001s-71.333 43.667 -120 45c-27.333 0 -51.5 -4.33301 -72.5 -13s-39 -20.334 -54 -35.001s-27 -31.5 -36 -50.5s-15.167 -38.833 -18.5 -59.5z" />
    <glyph glyph-name="uni0066" unicode="f" horiz-adv-x="296" 
d="M284 701l0.000976562 -65c-5.33301 0.666992 -10.166 1.16699 -14.499 1.5s-8.5 0.5 -12.5 0.5c-57.333 0 -86 -29.333 -86 -88v-42h107v-63h-107v-445h-76v445h-83v63h83v42c0 50 14.5 88 43.5 114s66.833 39 113.5 39c5.33301 0 10.666 -0.166992 15.999 -0.5
s10.666 -0.833008 15.999 -1.5z" />
    <glyph glyph-name="uni0067" unicode="g" horiz-adv-x="577" 
d="M310 512c17.333 0 36.6631 -3.5 57.9961 -10.5s38.666 -18.833 51.999 -35.5l14 41h62v-502c0 -36.667 -6.16699 -68.334 -18.5 -95.001s-28.666 -48.667 -48.999 -66s-43.666 -30.166 -69.999 -38.499s-53.5 -12.5 -81.5 -12.5c-40 0 -79.333 8 -118 24
s-70.667 39 -96 69l47 51c19.333 -22 45 -40 77 -54s64 -21 96 -21c18 0 35.333 2.66699 52 8s31.334 13.666 44.001 24.999s22.834 26 30.501 44s11.5 40 11.5 66v39c-21.333 -21.333 -43.666 -35.166 -66.999 -41.499s-49.666 -9.5 -78.999 -9.5
c-32.667 0 -62.834 7 -90.501 21s-51.167 32.833 -70.5 56.5s-34.5 51 -45.5 82s-16.5 63.5 -16.5 97.5c0 38.667 5.83301 74 17.5 106s28.5 59.5 50.5 82.5s49 41 81 54s68.333 19.5 109 19.5zM286.997 60c3.33301 -0.666992 6.16699 -1.00098 8.5 -1.00098h8.5
c24.667 0 46.5 6.16699 65.5 18.5s36.167 28.5 51.5 48.5v269c-19.333 17.333 -38.333 29 -57 35s-37.667 9 -57 9c-23.333 0 -45.833 -3.66699 -67.5 -11s-41 -18.833 -58 -34.5s-30.5 -35.167 -40.5 -58.5s-15 -50.666 -15 -81.999c0 -54 13.833 -98.333 41.5 -133
s67.5 -54.667 119.5 -60z" />
    <glyph glyph-name="uni0068" unicode="h" horiz-adv-x="606" 
d="M81 701l77.999 -0.000976562v-229c15.333 13.333 33.5 23.666 54.5 30.999s46.5 11.333 76.5 12c34 -0.666992 65.833 -6.16699 95.5 -16.5s55.334 -25.166 77.001 -44.499s38.667 -43.166 51 -71.499s18.5 -61.166 18.5 -98.499v-284h-78v284
c0 24 -4.16699 45.667 -12.5 65s-19.833 35.666 -34.5 48.999s-31.667 24 -51 32s-40.333 12.667 -63 14c-25.333 0 -49 -2.66699 -71 -8s-43.333 -15.333 -64 -30v-406h-77v701z" />
    <glyph glyph-name="uni0069" unicode="i" horiz-adv-x="241" 
d="M160 0h-79v512h79v-512zM161 592h-81v112h81v-112z" />
    <glyph glyph-name="uni006A" unicode="j" horiz-adv-x="241" 
d="M-22 -198v63.999c29.333 0 53.833 6.33301 73.5 19s29.5 35.334 29.5 68.001v559h79v-559c0 -51.333 -14.833 -89.5 -44.5 -114.5s-67.167 -37.5 -112.5 -37.5h-12c-4 0 -8.33301 0.333008 -13 1zM159 591.999h-81v113h81v-113z" />
    <glyph glyph-name="uni006B" unicode="k" horiz-adv-x="518" 
d="M81 700v-700h76v180l60 56l190 -236h91l-231 286l223 222h-95l-238 -239v431h-76z" />
    <glyph glyph-name="uni006C" unicode="l" horiz-adv-x="272" 
d="M235 67v-69c-4.66699 -0.666992 -9.16699 -1 -13.5 -1h-13.5c-88.667 0 -133 50.667 -133 152v556h79v-556c0 -26.667 4.33301 -47.167 13 -61.5s27 -21.5 55 -21.5c2 0 4 0.166992 6 0.5s4.33301 0.5 7 0.5z" />
    <glyph glyph-name="uni006D" unicode="m" horiz-adv-x="923" 
d="M429 303c0 24 -3.99512 44.998 -11.9951 62.998s-18.833 33 -32.5 45s-29.167 21 -46.5 27s-35.333 9 -54 9c-22.667 0 -45 -4.16699 -67 -12.5s-41.667 -21.166 -59 -38.499v-396h-77v507h66l10 -47c15.333 16.667 33.666 29.834 54.999 39.501s48 14.5 80 14.5
c38 0 72.5 -7.5 103.5 -22.5s54.167 -36.5 69.5 -64.5c17.333 32 41.666 54.833 72.999 68.5s65 20.5 101 20.5c26 0 51.5 -4 76.5 -12s47.5 -21 67.5 -39s36 -41.167 48 -69.5s18 -62.5 18 -102.5v-293h-77v293c0 29.333 -3.66699 53.833 -11 73.5s-17.333 35.5 -30 47.5
s-27.334 20.667 -44.001 26s-34.334 8 -53.001 8c-17.333 0 -33.833 -2.83301 -49.5 -8.5s-29.334 -14.5 -41.001 -26.5s-21.167 -27 -28.5 -45s-11 -39.667 -11 -65l-1 -303h-74v303z" />
    <glyph glyph-name="uni006E" unicode="n" horiz-adv-x="616" 
d="M81 507h65.999l10 -47c14.667 16 35.167 28.833 61.5 38.5s54.5 14.834 84.5 15.501c34 -0.666992 65.667 -5.83398 95 -15.501s54.5 -23.667 75.5 -42s37.5 -41.333 49.5 -69s18 -60.167 18 -97.5v-290h-78v290c-0.666992 48.667 -15.667 85.667 -45 111
s-66.666 39.333 -111.999 42c-26 0 -52.333 -3.66699 -79 -11s-49.667 -20.333 -69 -39v-393h-77v507z" />
    <glyph glyph-name="uni006F" unicode="o" horiz-adv-x="605" 
d="M560 253c0 -36.667 -6.33301 -71.167 -19 -103.5s-30.334 -60.5 -53.001 -84.5s-49.834 -42.833 -81.501 -56.5s-66.5 -20.5 -104.5 -20.5s-72.833 6.83301 -104.5 20.5s-58.667 32.5 -81 56.5s-39.833 52.167 -52.5 84.5s-19 66.833 -19 103.5
c0 37.333 6.33301 72 19 104s30.167 59.833 52.5 83.5s49.333 42.334 81 56.001s66.5 20.5 104.5 20.5s72.833 -6.83301 104.5 -20.5s58.834 -32.334 81.501 -56.001s40.334 -51.5 53.001 -83.5s19 -66.667 19 -104zM123 253c0 -32.667 5 -61.334 15 -86.001
s23.333 -45.167 40 -61.5s35.834 -28.5 57.501 -36.5s43.834 -12 66.501 -12c23.333 0 45.666 4 66.999 12s40.5 20.167 57.5 36.5s30.5 36.833 40.5 61.5s15 53.334 15 86.001c0 33.333 -5 62.166 -15 86.499s-23.5 44.5 -40.5 60.5s-36.167 27.833 -57.5 35.5
s-43.666 11.5 -66.999 11.5c-22.667 0 -44.834 -3.83301 -66.501 -11.5s-40.834 -19.5 -57.501 -35.5s-30 -36.167 -40 -60.5s-15 -53.166 -15 -86.499z" />
    <glyph glyph-name="uni0070" unicode="p" horiz-adv-x="573" 
d="M283 513c38.667 0 72.998 -6.33203 102.998 -18.999s55.333 -30.5 76 -53.5s36.334 -50.5 47.001 -82.5s16 -67.667 16 -107c0 -38 -6.5 -72.833 -19.5 -104.5s-30.5 -58.834 -52.5 -81.501s-47.667 -40.167 -77 -52.5s-60 -18.5 -92 -18.5c-21.333 0 -43 2.5 -65 7.5
s-43 14.167 -63 27.5v-224h-75v702h61l12 -53c16 19.333 35.333 34 58 44s46.334 15 71.001 15zM450.998 254.001c0 27.333 -3.66699 52.333 -11 75s-18.333 42.5 -33 59.5s-32.834 30.167 -54.501 39.5s-46.5 14 -74.5 14c-21.333 -0.666992 -42.5 -5.66699 -63.5 -15
s-40.5 -22.666 -58.5 -39.999v-277c15.333 -16.667 31.833 -29.334 49.5 -38.001s37.834 -13 60.501 -13c29.333 0 55.5 4.83301 78.5 14.5s42.333 23 58 40s27.667 37.5 36 61.5s12.5 50.333 12.5 79z" />
    <glyph glyph-name="uni0071" unicode="q" horiz-adv-x="573" 
d="M419 454l11.998 52.999h61v-702h-75v224c-20 -13.333 -41 -22.5 -63 -27.5s-43.667 -7.5 -65 -7.5c-32 0 -62.667 6.16699 -92 18.5s-55 29.833 -77 52.5s-39.5 49.834 -52.5 81.501s-19.5 66.5 -19.5 104.5c0 39.333 5.33301 75 16 107s26.334 59.5 47.001 82.5
s46 40.833 76 53.5s64.333 19 103 19c24.667 0 48.334 -5 71.001 -15s42 -24.667 58 -44zM306.998 58.999c22.667 0 42.834 4.33203 60.501 12.999s34.167 21.334 49.5 38.001v277c-16.667 16.667 -35.834 30 -57.501 40s-44.5 15 -68.5 15
c-22 0 -43.167 -3.83301 -63.5 -11.5s-38.333 -19.167 -54 -34.5s-28.167 -34.833 -37.5 -58.5s-14 -51.5 -14 -83.5c0 -28.667 4.16699 -55 12.5 -79s20.333 -44.5 36 -61.5s35 -30.333 58 -40s49.167 -14.5 78.5 -14.5z" />
    <glyph glyph-name="uni0072" unicode="r" horiz-adv-x="404" 
d="M81 510h67l8 -65c15.333 26.667 36 45.667 62 57s53 17 81 17c36 0 68.667 -7.33301 98 -22l-29 -68c-12.667 6 -25.334 10.333 -38.001 13s-24.667 4 -36 4c-18.667 0 -36.167 -3.33301 -52.5 -10s-30.666 -16 -42.999 -28s-22 -26.667 -29 -44s-10.5 -37 -10.5 -59
v-305h-78v510z" />
    <glyph glyph-name="uni0073" unicode="s" horiz-adv-x="439" 
d="M231 291c21.333 -4 41.8311 -9.66602 61.498 -16.999s37.167 -16.833 52.5 -28.5s27.666 -26 36.999 -43s14 -37.833 14 -62.5c0 -26.667 -5.83301 -49.5 -17.5 -68.5s-26.334 -34.667 -44.001 -47s-37.334 -21.333 -59.001 -27s-42.5 -8.5 -62.5 -8.5
c-34 0 -66.167 6.83301 -96.5 20.5s-55.166 34.5 -74.499 62.5l48 49c34 -41.333 76 -62 126 -62c12 0 24.167 1.66699 36.5 5s23.5 8.33301 33.5 15s18.167 15.167 24.5 25.5s9.5 22.5 9.5 36.5c0 12.667 -3.66699 23.5 -11 32.5s-16.166 16.667 -26.499 23
s-21.666 11.333 -33.999 15s-23.833 6.5 -34.5 8.5c-20.667 3.33301 -40.5 8.33301 -59.5 15s-35.833 15.667 -50.5 27s-26.5 25.333 -35.5 42s-13.5 37 -13.5 61s5 45.5 15 64.5s23.333 35 40 48s35.667 22.833 57 29.5s43.333 10 66 10c25.333 0 51.5 -4.33301 78.5 -13
s50.833 -23.667 71.5 -45l-45 -51c-16 14 -32.667 23.833 -50 29.5s-36.666 8.5 -57.999 8.5c-12.667 0 -25 -1.83301 -37 -5.5s-22.667 -8.83398 -32 -15.501s-16.666 -15 -21.999 -25s-8 -21.667 -8 -35c0 -12.667 3.33301 -23.334 10 -32.001s15 -15.667 25 -21
s20.833 -9.66602 32.5 -12.999s22.5 -6 32.5 -8z" />
    <glyph glyph-name="uni0074" unicode="t" horiz-adv-x="313" 
d="M269 64v-67c-4.66699 -0.666992 -9.16699 -1 -13.5 -1h-13.5c-45.333 0 -82.333 12.667 -111 38s-43 63.333 -43 114v297h-83v62h83v142l78 7v-149h103v-62h-103v-297c0 -29.333 7.66699 -50.833 23 -64.5s37 -20.5 65 -20.5c2.66699 0 5.16699 0.166992 7.5 0.5
s4.83301 0.5 7.5 0.5z" />
    <glyph glyph-name="uni0075" unicode="u" horiz-adv-x="615" 
d="M534 0l-65.002 0.000976562l-11 52c-23.333 -20 -47.666 -34.833 -72.999 -44.5s-54 -14.5 -86 -14.5c-28.667 0 -56.5 4.83301 -83.5 14.5s-51 23.834 -72 42.501s-37.833 41.667 -50.5 69s-19 58.333 -19 93v294h78v-294c0.666992 -23.333 5.5 -44.333 14.5 -63
s21 -34.334 36 -47.001s32.333 -22.5 52 -29.5s40.834 -10.5 63.501 -10.5c26 0 51.333 5.16699 76 15.5s45.667 26.166 63 47.499v381h77v-506z" />
    <glyph glyph-name="uni0076" unicode="v" horiz-adv-x="484" 
d="M100 509l119.998 -338.001c2 -4.66699 4.16699 -12.167 6.5 -22.5s4.5 -21.166 6.5 -32.499l5.5 -32.5c1.66699 -10.333 2.83398 -17.833 3.50098 -22.5h6c0.666992 5.33301 1.83398 13 3.50098 23l5.5 32c2 11.333 4 22 6 32s4 17.667 6 23l119 338h84l-181 -511h-94
l-181 511h84z" />
    <glyph glyph-name="uni0077" unicode="w" horiz-adv-x="718" 
d="M315 510l87.001 -0.000976562l85 -337c2 -6 3.83301 -13.833 5.5 -23.5s3.16699 -20 4.5 -31s2.5 -21.333 3.5 -31s1.5 -17.5 1.5 -23.5h5c0 6.66699 0.5 15 1.5 25s2.16699 20.333 3.5 31l4 30.5c1.33301 9.66699 3 17.5 5 23.5l95 336h80l-151 -510h-92l-85 339
c-0.666992 2 -1.33398 6.33301 -2.00098 13s-1.5 13.834 -2.5 21.501s-1.83301 14.834 -2.5 21.501s-1 10.667 -1 12h-4l-1 -10.5c-0.666992 -7 -1.5 -14.667 -2.5 -23s-1.83301 -16 -2.5 -23s-1 -10.833 -1 -11.5l-84 -339h-92l-152 510h80l95 -336
c2.66699 -8.66699 5 -18.334 7 -29.001s3.5 -21.167 4.5 -31.5s1.83301 -20 2.5 -29s1.33398 -15.833 2.00098 -20.5h5c0 7.33301 0.5 16.5 1.5 27.5l3 32.5c1 10.667 2.16699 20.5 3.5 29.5s2.66602 15.5 3.99902 19.5z" />
    <glyph glyph-name="uni0078" unicode="x" horiz-adv-x="514" 
d="M255 311l-131 199h-97l177 -256l-179 -254h97l133 197l133 -197h97l-180 254l178 256h-97z" />
    <glyph glyph-name="uni0079" unicode="y" horiz-adv-x="504" 
d="M89 -190l0.000976562 64.999c3.33301 -0.666992 6.66602 -1 9.99902 -1h10c23.333 0 40.666 4.83301 51.999 14.5s19.666 21.834 24.999 36.501l28 73l-207 509h84l164 -420l156 420h84l-235 -607c-13.333 -34.667 -32.666 -58.5 -57.999 -71.5s-53.333 -19.5 -84 -19.5
h-14.5c-4.33301 0 -9.16602 0.333008 -14.499 1z" />
    <glyph glyph-name="uni007A" unicode="z" horiz-adv-x="471" 
d="M46 0h376v69h-294l294 388v51h-365v-70l266 1l-277 -366v-73z" />
    <glyph glyph-name="uni007B" unicode="{" horiz-adv-x="312" 
d="M277 781v-71.0029h-25c-15.333 0 -27.166 -2.5 -35.499 -7.5s-12.5 -19.167 -12.5 -42.5v-162c0 -12 -0.666992 -25 -2 -39s-3.83301 -27.667 -7.5 -41s-9 -26.166 -16 -38.499s-16.5 -22.5 -28.5 -30.5c12 -8 21.5 -18.167 28.5 -30.5s12.333 -25.166 16 -38.499
s6.16699 -27 7.5 -41s2 -27 2 -39v-161c0 -23.333 4.16699 -37.666 12.5 -42.999s20.166 -8 35.499 -8h25v-71h-47c-34.667 0 -61.334 10.667 -80.001 32s-28 49.333 -28 84v148c0 16.667 -1 32.834 -3 48.501s-5.5 29.667 -10.5 42s-11.833 22.166 -20.5 29.499
s-19.667 11 -33 11v74c13.333 0 24.333 3.66699 33 11s15.5 17.166 20.5 29.499s8.5 26.333 10.5 42s3 31.834 3 48.501v148c0 34.667 9.33301 62.667 28 84s45.334 32 80.001 32h47z" />
    <glyph glyph-name="uni007C" unicode="|" horiz-adv-x="285" 
d="M104 -159h77v951h-77v-951z" />
    <glyph glyph-name="uni007D" unicode="}" horiz-adv-x="312" 
d="M35 710v71.0029h47c34.667 0 61.334 -10.667 80.001 -32s28 -49.333 28 -84v-148c0 -16.667 1 -32.834 3 -48.501s5.5 -29.667 10.5 -42s11.833 -22.166 20.5 -29.499s19.667 -11 33 -11v-74c-13.333 0 -24.333 -3.66699 -33 -11s-15.5 -17.166 -20.5 -29.499
s-8.5 -26.333 -10.5 -42s-3 -31.834 -3 -48.501v-148c0 -34.667 -9.33301 -62.667 -28 -84s-45.334 -32 -80.001 -32h-47v71h25c15.333 0 27.166 2.66699 35.499 8s12.5 19.666 12.5 42.999v161c0 12 0.666992 25 2 39s3.83301 27.667 7.5 41s9 26.166 16 38.499
s16.5 22.5 28.5 30.5c-12 8 -21.5 18.167 -28.5 30.5s-12.333 25.166 -16 38.499s-6.16699 27 -7.5 41s-2 27 -2 39v162c0 23.333 -4.16699 37.5 -12.5 42.5s-20.166 7.5 -35.499 7.5h-25z" />
    <glyph glyph-name="uni007E" unicode="~" horiz-adv-x="596" 
d="M478 391l52.9961 -43c-16 -36 -36.167 -62.5 -60.5 -79.5s-51.166 -25.5 -80.499 -25.5c-35.333 0 -71.666 12 -108.999 36c-31.333 20.667 -56.666 31 -75.999 31c-16 0 -30.833 -6.33301 -44.5 -19s-29.167 -31.667 -46.5 -57l-52 43
c39.333 73.333 87.666 110 144.999 110c35.333 0 74.333 -14.333 117 -43c24.667 -16.667 46.334 -25 65.001 -25c17.333 0 32.833 6.5 46.5 19.5s27.834 30.5 42.501 52.5z" />
    <glyph glyph-name="uni00A0" unicode="&#xa0;" horiz-adv-x="257" 
 />
    <glyph glyph-name="uni00A1" unicode="&#xa1;" horiz-adv-x="291" 
d="M105 336l-4 -530h91l-5 530h-82zM101 506v-103h90v103h-90z" />
    <glyph glyph-name="uni00A2" unicode="&#xa2;" horiz-adv-x="568" 
d="M290 1v85c-38.667 3.33301 -72.334 13 -101.001 29s-52.667 36 -72 60s-33.833 50.833 -43.5 80.5s-14.5 60.167 -14.5 91.5s5 61.833 15 91.5s24.667 56.667 44 81s43.333 44.666 72 60.999s62 26.166 100 29.499v90h61v-90c55.333 -6 103.333 -28.667 144 -68l-43 -53
c-18.667 17.333 -39.5 30.333 -62.5 39s-47.167 13 -72.5 13c-23.333 0 -45.833 -4.5 -67.5 -13.5s-40.667 -22.167 -57 -39.5s-29.666 -38 -39.999 -62s-15.5 -51 -15.5 -81c0 -23.333 3.83301 -46.333 11.5 -69s19 -43 34 -61s33.833 -32.5 56.5 -43.5s49 -16.5 79 -16.5
c25.333 0 50 5 74 15s45.333 23.667 64 41l44 -53c-20 -19.333 -42.5 -35.166 -67.5 -47.499s-52.167 -20.166 -81.5 -23.499v-86h-61z" />
    <glyph glyph-name="uni00A3" unicode="&#xa3;" horiz-adv-x="592" 
d="M543 533l-76.001 -15.002c-4 19.333 -10.667 36.333 -20 51s-20.333 26.834 -33 36.501s-26.667 17 -42 22s-30.666 7.5 -45.999 7.5c-16 0 -31.667 -2.66699 -47 -8s-29 -13.5 -41 -24.5s-21.5 -24.667 -28.5 -41s-10.5 -35.5 -10.5 -57.5v-128h220v-60h-220v-243h349
v-73h-487v73h57v243h-55v60h55v128c0 34.667 5.83301 65 17.5 91s27.167 47.833 46.5 65.5s41.333 30.834 66 39.501s50 13 76 13c24 0 47.667 -3.66699 71 -11s45 -18.5 65 -33.5s37.333 -33.833 52 -56.5s25 -49 31 -79z" />
    <glyph glyph-name="uni00A5" unicode="&#xa5;" horiz-adv-x="613" 
d="M591 700l-170 -304h85v-60h-119l-35 -63v-12h154v-60h-154v-201h-82v201h-153v60h153v12c-5.33301 10.667 -11 21.167 -17 31.5l-18 31.5h-118v60h84l-85.5 154.5l-84.5 149.5h95l186 -339l92 169.5l92 169.5h95z" />
    <glyph glyph-name="uni00A6" unicode="&#xa6;" horiz-adv-x="283" 
d="M104 -159h77v410h-77v-410zM181 792h-77v-407h77v407z" />
    <glyph glyph-name="uni00A7" unicode="&#xa7;" horiz-adv-x="472" 
d="M125 455c-15.333 11.333 -27.4951 25.502 -36.4951 42.502s-13.5 37.5 -13.5 61.5c0 24.667 5 46.5 15 65.5s23.333 35 40 48s35.667 22.833 57 29.5s43.333 10 66 10c25.333 0 51.5 -4.5 78.5 -13.5s50.5 -24.167 70.5 -45.5l-44 -54c-32 27.333 -68.667 41 -110 41
c-12.667 0 -24.834 -1.83301 -36.501 -5.5s-22 -8.83398 -31 -15.501s-16.167 -15 -21.5 -25s-8 -21.667 -8 -35c0 -12.667 3.33301 -23.167 10 -31.5s15 -15.166 25 -20.499s20.833 -9.5 32.5 -12.5s22.5 -5.5 32.5 -7.5c21.333 -4 41.833 -9.66699 61.5 -17
s37.167 -17 52.5 -29s27.666 -26.667 36.999 -44s14 -38 14 -62c0 -47.333 -22.333 -78.666 -67 -93.999c15.333 -12 27.666 -26.667 36.999 -44s14 -38.333 14 -63c0 -26.667 -5.83301 -49.5 -17.5 -68.5s-26.334 -34.667 -44.001 -47s-37.334 -21.333 -59.001 -27
s-42.5 -8.5 -62.5 -8.5c-34 0 -66.333 6.83301 -97 20.5s-55.667 34.5 -75 62.5l49 48c16.667 -20 35.334 -35.167 56.001 -45.5s44 -15.5 70 -15.5c12 0 24.167 1.66699 36.5 5s23.5 8.16602 33.5 14.499s18 14.666 24 24.999s9 22.5 9 36.5c0 12.667 -3.5 23.667 -10.5 33
s-15.667 17.166 -26 23.499s-21.666 11.333 -33.999 15s-23.833 6.5 -34.5 8.5c-20.667 3.33301 -40.667 8.33301 -60 15s-36.333 15.667 -51 27s-26.334 25.333 -35.001 42s-13 37 -13 61c0 21.333 6.16699 40.5 18.5 57.5s28.166 29.833 47.499 38.5zM235.005 286.002
c22 -4 42.9961 -10.002 62.9961 -18.002c12 6.66699 22 15.5 30 26.5s12 24.5 12 40.5c0 12.667 -3.66699 23.667 -11 33s-16.166 17 -26.499 23s-21.666 10.833 -33.999 14.5s-23.833 6.5 -34.5 8.5c-18.667 2.66699 -37 7.33398 -55 14.001
c-13.333 -7.33301 -24.166 -16.666 -32.499 -27.999s-12.166 -25 -11.499 -41c0 -12.667 3.33301 -23.167 10 -31.5s15 -15.333 25 -21s20.833 -10 32.5 -13s22.5 -5.5 32.5 -7.5z" />
    <glyph glyph-name="uni00A8" unicode="&#xa8;" horiz-adv-x="509" 
d="M215 782v98h-90v-98h90zM388 782v98h-90v-98h90z" />
    <glyph glyph-name="uni00A9" unicode="&#xa9;" horiz-adv-x="831" 
d="M59 350c0 50.667 9.33301 98.167 28 142.5s44 83 76 116s69.5 59 112.5 78s89.167 28.5 138.5 28.5c50 0 96.667 -9.5 140 -28.5s81.166 -45 113.499 -78s57.833 -71.667 76.5 -116s28 -91.833 28 -142.5s-9.33301 -98.167 -28 -142.5s-44.167 -83 -76.5 -116
s-70.166 -59 -113.499 -78s-90 -28.5 -140 -28.5c-49.333 0 -95.5 9.5 -138.5 28.5s-80.5 45 -112.5 78s-57.333 71.667 -76 116s-28 91.833 -28 142.5zM132 350c0 -42 7.16699 -81 21.5 -117s34.166 -67.333 59.499 -94s55.166 -47.667 89.499 -63s71.5 -23 111.5 -23
s77.5 7.66699 112.5 23s65.167 36.333 90.5 63s45.333 58 60 94s22 75 22 117s-7.33301 81 -22 117s-34.667 67.333 -60 94s-55.5 47.667 -90.5 63s-72.5 23 -112.5 23s-77.167 -7.66699 -111.5 -23s-64.166 -36.333 -89.499 -63s-45.166 -58 -59.499 -94
s-21.5 -75 -21.5 -117zM423 222c17.333 0 33.999 3.33301 49.999 10s30 15.667 42 27l45 -51c-18.667 -18 -39.834 -31.833 -63.501 -41.5s-48.167 -14.5 -73.5 -14.5c-36 0 -68.833 7.83301 -98.5 23.5s-53.167 39.5 -70.5 71.5c-17.333 31.333 -26 65.5 -26 102.5
s8.66699 71.167 26 102.5c17.333 32 40.833 56.167 70.5 72.5s62.5 24.5 98.5 24.5c28 0 53 -4.5 75 -13.5s42.667 -23.167 62 -42.5l-44 -52c-12 12 -26.167 21.5 -42.5 28.5s-33.166 10.5 -50.499 10.5c-18 0 -35.167 -4.16699 -51.5 -12.5s-30.166 -19.833 -41.499 -34.5
c-17.333 -21.333 -26.666 -46.833 -27.999 -76.5s5.33398 -56.167 20.001 -79.5c11.333 -18.667 25.666 -32.5 42.999 -41.5s36.666 -13.5 57.999 -13.5z" />
    <glyph glyph-name="uni00AA" unicode="&#xaa;" horiz-adv-x="486" 
d="M409 279v-57h-332v57h332zM345 331l-6.00195 42.998c-11.333 -16 -25.5 -27.667 -42.5 -35s-34.833 -11 -53.5 -11c-26.667 0 -51.167 5 -73.5 15s-41.666 23.833 -57.999 41.5s-29.166 38.167 -38.499 61.5s-14 48 -14 74c0 26.667 5.16699 51.834 15.5 75.501
s24.166 44.5 41.499 62.5s37.833 32.167 61.5 42.5s48.834 15.833 75.501 16.5c26.667 0 52.5 -2.16699 77.5 -6.5s49.5 -12.166 73.5 -23.499l4 -2v-354h-63zM336.998 432.998l0.998047 216.999c-19.333 6.66699 -40.666 10 -63.999 10
c-3.33301 0 -6.5 -0.166992 -9.5 -0.5s-6.16699 -0.5 -9.5 -0.5c-18 -1.33301 -34.667 -6 -50 -14s-28.666 -18.167 -39.999 -30.5s-20.166 -26.666 -26.499 -42.999s-9.5 -33.5 -9.5 -51.5c0 -16.667 3.16699 -33 9.5 -49s15 -30 26 -42s24 -21.667 39 -29
s31.167 -11 48.5 -11c35.333 0 63.666 14.667 84.999 44z" />
    <glyph glyph-name="uni00AB" unicode="&#xab;" horiz-adv-x="558" 
d="M213 77h90l-164 205l164 206h-90l-164 -206zM250 282l164 -205h90l-164 205l164 206h-90z" />
    <glyph glyph-name="uni00AC" unicode="&#xac;" horiz-adv-x="624" 
d="M65 345h405v-194h72v267h-477v-73z" />
    <glyph glyph-name="uni00AD" unicode="&#xad;" horiz-adv-x="441" 
d="M75 247h292v74h-292v-74z" />
    <glyph glyph-name="uni00AE" unicode="&#xae;" horiz-adv-x="831" 
d="M60 348c0 50.667 9.33301 98.167 28 142.5s44 83 76 116s69.5 59 112.5 78s89.167 28.5 138.5 28.5c50 0 96.667 -9.5 140 -28.5s81.166 -45 113.499 -78s57.833 -71.667 76.5 -116s28 -91.833 28 -142.5s-9.33301 -98.167 -28 -142.5s-44.167 -83 -76.5 -116
s-70.166 -59 -113.499 -78s-90 -28.5 -140 -28.5c-49.333 0 -95.5 9.5 -138.5 28.5s-80.5 45 -112.5 78s-57.333 71.667 -76 116s-28 91.833 -28 142.5zM133 348c0 -42 7.16699 -81 21.5 -117s34.166 -67.333 59.499 -94s55.166 -47.667 89.499 -63s71.5 -23 111.5 -23
s77.5 7.66699 112.5 23s65.167 36.333 90.5 63s45.333 58 60 94s22 75 22 117s-7.33301 81 -22 117s-34.667 67.333 -60 94s-55.5 47.667 -90.5 63s-72.5 23 -112.5 23s-77.167 -7.66699 -111.5 -23s-64.166 -36.333 -89.499 -63s-45.166 -58 -59.499 -94
s-21.5 -75 -21.5 -117zM363 365h59.0029c23.333 0 41.666 6.5 54.999 19.5s19.666 27.167 18.999 42.5c-0.666992 14 -7.33398 28.167 -20.001 42.5s-30.667 21.5 -54 21.5h-59v-126zM464.003 308l120.998 -153h-83l-114 150h-25v-150h-71v397h130c40 0 73.333 -10 100 -30
s40.334 -51.667 41.001 -95c0 -33.333 -8.66699 -60 -26 -80s-41.666 -33 -72.999 -39z" />
    <glyph glyph-name="uni00AF" unicode="&#xaf;" horiz-adv-x="509" 
d="M127 757h255v67h-255v-67z" />
    <glyph glyph-name="uni00B0" unicode="&#xb0;" horiz-adv-x="400" 
d="M199 437c-19.333 0 -37.5 3.5 -54.5 10.5s-31.667 16.667 -44 29s-22.166 26.833 -29.499 43.5s-11 34.334 -11 53.001s3.66699 36.167 11 52.5s17.166 30.666 29.499 42.999s27 22.166 44 29.499s35.167 11 54.5 11s37.5 -3.66699 54.5 -11s31.833 -17.166 44.5 -29.499
s22.667 -26.666 30 -42.999s11 -33.833 11 -52.5s-3.66699 -36.334 -11 -53.001s-17.333 -31.167 -30 -43.5s-27.5 -22 -44.5 -29s-35.167 -10.5 -54.5 -10.5zM199 499c21.333 0 39 7.16699 53 21.5s21 31.833 21 52.5s-7 38.334 -21 53.001s-31.667 22 -53 22
s-39 -7.33301 -53 -22s-21 -32.334 -21 -53.001s7 -38.167 21 -52.5s31.667 -21.5 53 -21.5z" />
    <glyph glyph-name="uni00B1" unicode="&#xb1;" horiz-adv-x="691" 
d="M105 69v-69h481v69h-481zM98 340h210v-206h77v206h201v79h-201v204h-77v-204h-210v-79z" />
    <glyph glyph-name="uni00B2" unicode="&#xb2;" horiz-adv-x="405" 
d="M310 526l-165.995 -147.001h221v-64h-307l-22 48l224 211c10 10 19 21.833 27 35.5s9.66699 28.167 5 43.5c-2.66699 9.33301 -7.33398 17.166 -14.001 23.499s-14.334 11.333 -23.001 15s-17.834 6.33398 -27.501 8.00098s-18.834 2.5 -27.501 2.5
c-19.333 0 -37.5 -4.16699 -54.5 -12.5s-30.167 -21.833 -39.5 -40.5l-63 26c15.333 34.667 37.666 59.167 66.999 73.5s62 21.5 98 21.5c16 -0.666992 32.167 -3 48.5 -7s31.333 -10.167 45 -18.5s25.667 -18.666 36 -30.999s17.833 -26.833 22.5 -43.5
c8 -26.667 6.5 -52.667 -4.5 -78s-26.167 -47.333 -45.5 -66z" />
    <glyph glyph-name="uni00B3" unicode="&#xb3;" horiz-adv-x="425" 
d="M309 558c23.333 -12 40.3389 -27.5 51.0059 -46.5s16 -40.5 16 -64.5c0 -22.667 -4.83301 -42.667 -14.5 -60s-22.334 -31.833 -38.001 -43.5s-33.334 -20.5 -53.001 -26.5s-39.834 -9 -60.501 -9c-33.333 0 -65 7.83301 -95 23.5s-52.667 39.167 -68 70.5l59 28
c10.667 -18.667 25.667 -33 45 -43s39.666 -15 60.999 -15c11.333 0 22.333 1.66699 33 5s20.167 8.16602 28.5 14.499s15.166 14.333 20.499 24s8 20.5 8 32.5c0 22.667 -8.33301 41 -25 55s-35.667 21 -57 21h-45v60h45c18 0 34 4.33301 48 13s21 23.334 21 44.001
c0 21.333 -8 37.166 -24 47.499s-33.667 15.5 -53 15.5c-17.333 0 -34.666 -4.16699 -51.999 -12.5s-30.333 -20.5 -39 -36.5l-57 30c13.333 27.333 33.5 48 60.5 62s55.167 21 84.5 21c19.333 0 38.166 -2.66699 56.499 -8s34.666 -13.333 48.999 -24
s26 -23.834 35 -39.501s13.5 -34.167 13.5 -55.5c0 -17.333 -5 -33.666 -15 -48.999s-23 -26.666 -39 -33.999z" />
    <glyph glyph-name="uni00B4" unicode="&#xb4;" horiz-adv-x="509" 
d="M334 876h-93l-65 -115h74z" />
    <glyph glyph-name="uni00B5" unicode="&#xb5;" horiz-adv-x="553" 
d="M470 509l-0.000976562 -509h-65l-8 73c-14 -23.333 -34 -41.166 -60 -53.499s-52.333 -18.5 -79 -18.5c-21.333 0 -40.166 4.66699 -56.499 14s-30.5 22 -42.5 38v-248h-75v704h81v-312c0 -15.333 1.16699 -30.333 3.5 -45s7 -27.667 14 -39s16.5 -20.5 28.5 -27.5
s27.667 -10.5 47 -10.5c18 0 35 3.16699 51 9.5s30 16.166 42 29.499s21.5 30 28.5 50s10.5 43.333 10.5 70v275h80z" />
    <glyph glyph-name="uni00B5" unicode="&#x3bc;" horiz-adv-x="553" 
d="M470 509l-0.000976562 -509h-65l-8 73c-14 -23.333 -34 -41.166 -60 -53.499s-52.333 -18.5 -79 -18.5c-21.333 0 -40.166 4.66699 -56.499 14s-30.5 22 -42.5 38v-248h-75v704h81v-312c0 -15.333 1.16699 -30.333 3.5 -45s7 -27.667 14 -39s16.5 -20.5 28.5 -27.5
s27.667 -10.5 47 -10.5c18 0 35 3.16699 51 9.5s30 16.166 42 29.499s21.5 30 28.5 50s10.5 43.333 10.5 70v275h80z" />
    <glyph glyph-name="uni00B6" unicode="&#xb6;" horiz-adv-x="600" 
d="M255 -80v355.999c-34.667 1.33301 -65 8.33301 -91 21s-47.667 28.834 -65 48.501s-30.333 41.834 -39 66.501s-13 49.667 -13 75c0 27.333 4.83301 54 14.5 80s24.334 49.167 44.001 69.5s44.167 36.666 73.5 48.999s63.666 18.5 102.999 18.5h220v-784h-79v715h-88
v-715h-80z" />
    <glyph glyph-name="uni00B7" unicode="&#xb7;" horiz-adv-x="270" 
d="M93 247h92v95h-92v-95z" />
    <glyph glyph-name="uni00B8" unicode="&#xb8;" horiz-adv-x="509" 
d="M298 15l-32.002 -56.999c8.66699 0 17.5 -2.16699 26.5 -6.5s17.333 -10 25 -17s13.834 -15.167 18.501 -24.5s6.66699 -19 6 -29c-0.666992 -15.333 -4 -28.666 -10 -39.999s-13.667 -20.5 -23 -27.5s-19.666 -12.167 -30.999 -15.5s-22.666 -5 -33.999 -5
c-13.333 0 -27 2.33301 -41 7s-28.667 10.667 -44 18l15 44c12.667 -7.33301 24 -12.333 34 -15s20 -4 30 -4c14 0 24.833 3.5 32.5 10.5s11.667 14.667 12 23s-3 16.166 -10 23.499s-17.833 11.333 -32.5 12c-4 0 -8.33301 -0.333008 -13 -1
s-9.33398 -2.33398 -14.001 -5.00098l-24 20l51 89h58z" />
    <glyph glyph-name="uni00B9" unicode="&#xb9;" horiz-adv-x="304" 
d="M118 311v385h-64v65h138v-450h-74z" />
    <glyph glyph-name="uni00BA" unicode="&#xba;" horiz-adv-x="477" 
d="M83 257v65h312v-65h-312zM238 392c-22.667 0 -44 4 -64 12s-37.333 19 -52 33s-26.167 30.833 -34.5 50.5s-12.5 41.167 -12.5 64.5c0 22.667 4.16699 43.5 12.5 62.5s19.833 35.5 34.5 49.5s31.834 25 51.501 33s40.834 12 63.501 12s44 -4 64 -12s37.333 -19 52 -33
s26.334 -30.5 35.001 -49.5s13 -39.833 13 -62.5c0 -23.333 -4.33301 -44.833 -13 -64.5s-20.334 -36.5 -35.001 -50.5s-31.834 -25 -51.501 -33s-40.834 -12 -63.501 -12zM238 448c27.333 0 50.5 9.66699 69.5 29s28.5 44.333 28.5 75c0 30 -9.5 54.333 -28.5 73
s-42.167 28 -69.5 28c-28 0 -51.5 -9.33301 -70.5 -28s-28.5 -43 -28.5 -73c0 -30.667 9.5 -55.667 28.5 -75s42.5 -29 70.5 -29z" />
    <glyph glyph-name="uni00BB" unicode="&#xbb;" horiz-adv-x="558" 
d="M54 77h89l164 205l-164 206h-89l164 -206zM256 77h89l164 205l-164 206h-89l164 -206z" />
    <glyph glyph-name="uni00BC" unicode="&#xbc;" horiz-adv-x="937" 
d="M311 -32h-75l375 786h75zM767 144l1 200l-146 -199zM840 144h39v-64h-39v-80h-73v80h-189l-44 53l234 310h72v-299zM161 636h-64v65h138v-412h-74v347z" />
    <glyph glyph-name="uni00BD" unicode="&#xbd;" horiz-adv-x="956" 
d="M274 -30h-75l376 780h75zM677 64l221.005 -0.000976562v-64h-307l-22 48l224 211c10 10 19 21.833 27 35.5s9.66699 28.167 5 43.5c-2.66699 9.33301 -7.33398 17.166 -14.001 23.499s-14.334 11.333 -23.001 15s-17.834 6.33398 -27.501 8.00098
s-18.834 2.5 -27.501 2.5c-19.333 0 -37.5 -4.16699 -54.5 -12.5s-30.167 -21.833 -39.5 -40.5l-63 26c15.333 34.667 37.666 59.167 66.999 73.5s62 21.5 98 21.5c16 -0.666992 32.167 -3 48.5 -7s31.333 -10.167 45 -18.5s25.667 -18.666 36 -30.999
s17.833 -26.833 22.5 -43.5c8 -26.667 6.5 -52.667 -4.5 -78s-26.167 -47.333 -45.5 -66zM144.005 635.999h-64v65h138v-412h-74v347z" />
    <glyph glyph-name="uni00BE" unicode="&#xbe;" horiz-adv-x="989" 
d="M371 -36h-75l381 786h75zM813 144l1 200l-146 -199zM886 144h39v-64h-39v-80h-73v80h-189l-44 53l234 310h72v-299zM306 505c23.333 -12 40.3389 -27.5 51.0059 -46.5s16 -40.5 16 -64.5c0 -22.667 -4.83301 -42.667 -14.5 -60s-22.334 -31.833 -38.001 -43.5
s-33.334 -20.5 -53.001 -26.5s-39.834 -9 -60.501 -9c-33.333 0 -65 7.83301 -95 23.5s-52.667 39.167 -68 70.5l59 28c10.667 -18.667 25.667 -33 45 -43s39.666 -15 60.999 -15c11.333 0 22.333 1.66699 33 5s20.167 8.16602 28.5 14.499s15.166 14.333 20.499 24
s8 20.5 8 32.5c0 22.667 -8.33301 41 -25 55s-35.667 21 -57 21h-45v60h45c18 0 34 4.33301 48 13s21 23.334 21 44.001c0 21.333 -8 37.166 -24 47.499s-33.667 15.5 -53 15.5c-17.333 0 -34.666 -4.16699 -51.999 -12.5s-30.333 -20.5 -39 -36.5l-57 30
c13.333 27.333 33.5 48 60.5 62s55.167 21 84.5 21c19.333 0 38.166 -2.66699 56.499 -8s34.666 -13.333 48.999 -24s26 -23.834 35 -39.501s13.5 -34.167 13.5 -55.5c0 -17.333 -5 -33.666 -15 -48.999s-23 -26.666 -39 -33.999z" />
    <glyph glyph-name="uni00BF" unicode="&#xbf;" horiz-adv-x="504" 
d="M480 -113l-9.00098 -11.0049c-22.667 -29.333 -51.334 -51.166 -86.001 -65.499s-70.667 -21.5 -108 -21.5c-28.667 0 -56.667 4.5 -84 13.5s-51.666 22.333 -72.999 40s-38.333 39.5 -51 65.5s-19 56 -19 90c0.666992 60.667 19.167 109.834 55.5 147.501
s83.5 61.834 141.5 72.501l7 144h71l6 -207c-25.333 0 -50 -4 -74 -12s-45.333 -19 -64 -33s-33.667 -30.5 -45 -49.5s-16.666 -40.167 -15.999 -63.5c0.666992 -21.333 5.16699 -40.166 13.5 -56.499s19.333 -30.166 33 -41.499s29.334 -20 47.001 -26s35.5 -9 53.5 -9
c27.333 0 53.666 6.16699 78.999 18.5s46.333 28.833 63 49.5zM242.999 505.995h87v-93h-87v93z" />
    <glyph glyph-name="uni00C0" unicode="&#xc0;" horiz-adv-x="632" 
d="M13 0h88l79 224h271l81 -224h87l-254 705h-101zM278 747h74l-65 115h-93zM205 300l110 318l109 -318h-219z" />
    <glyph glyph-name="uni00C1" unicode="&#xc1;" horiz-adv-x="632" 
d="M13 0h88l79 224h271l81 -224h87l-254 705h-101zM436 866h-93l-65 -115h74zM205 300l110 318l109 -318h-219z" />
    <glyph glyph-name="uni00C2" unicode="&#xc2;" horiz-adv-x="632" 
d="M13 0h88l79 224h271l81 -224h87l-254 705h-101zM175 741h74l63 81h2l64 -81h74l-88 117h-101zM205 300l110 318l109 -318h-219z" />
    <glyph glyph-name="uni00C3" unicode="&#xc3;" horiz-adv-x="632" 
d="M13 0l251 705h101l254 -705h-87l-81 224h-271l-79 -224h-88zM205 300h219l-109 318zM429 854l45 -32.998c-10 -22.667 -23.667 -39.834 -41 -51.501s-36.333 -17.5 -57 -17.5c-24 0 -46.667 7.33301 -68 22c-16 10 -30.667 15 -44 15c-23.333 0 -43.333 -13.333 -60 -40
l-48 31c12.667 23.333 28 41.166 46 53.499s37.667 18.5 59 18.5c24.667 0 49.667 -8.66699 75 -26c12.667 -8.66699 24.667 -13 36 -13s21.833 3.83301 31.5 11.5s18.167 17.5 25.5 29.5z" />
    <glyph glyph-name="uni00C4" unicode="&#xc4;" horiz-adv-x="632" 
d="M13 0h88l79 224h271l81 -224h87l-254 705h-101zM275 750v89h-84v-89h84zM438 750v89h-85v-89h85zM205 300l110 318l109 -318h-219z" />
    <glyph glyph-name="uni00C5" unicode="&#xc5;" horiz-adv-x="632" 
d="M13 0l251 705h101l254 -705h-87l-81 224h-271l-79 -224h-88zM205 300h219l-109 318zM313 741c-22.667 0 -42.5 6.5 -59.5 19.5s-25.5 31.167 -25.5 54.5s8.5 41.666 25.5 54.999s36.833 20 59.5 20c22 0 41.667 -6.66699 59 -20s26 -31.666 26 -54.999
s-8.66699 -41.5 -26 -54.5s-37 -19.5 -59 -19.5zM313 782c9.33301 0 17.166 3.16699 23.499 9.5s9.5 14.166 9.5 23.499c0 10.667 -3.16699 19.167 -9.5 25.5s-14.166 9.5 -23.499 9.5c-10 0 -18 -3.16699 -24 -9.5s-9 -14.833 -9 -25.5c0 -9.33301 3 -17.166 9 -23.499
s14 -9.5 24 -9.5z" />
    <glyph glyph-name="uni00C6" unicode="&#xc6;" horiz-adv-x="865" 
d="M11 1l358 705h442v-76h-291v-240h288v-77h-288l-1 -234h292v-78h-374v236h-218l-120 -236h-88zM437 315v332h-13l-166 -332h179z" />
    <glyph glyph-name="uni00C7" unicode="&#xc7;" horiz-adv-x="729" 
d="M664 607l-52.999 -54.998c-55.333 56.667 -122.333 85 -201 85c-44.667 -0.666992 -84.167 -9.33398 -118.5 -26.001s-63 -38.5 -86 -65.5s-40.333 -57.667 -52 -92s-17.5 -69.5 -17.5 -105.5s6 -71 18 -105s29.5 -64.167 52.5 -90.5s51.5 -47.666 85.5 -63.999
s73.333 -24.5 118 -24.5c41.333 0 81.166 8.83301 119.499 26.5s70.833 42.5 97.5 74.5l58 -48c-30.667 -36.667 -67.334 -66.167 -110.001 -88.5s-89 -35.5 -139 -39.5l-23 -42c8.66699 0 17.5 -2.16699 26.5 -6.5s17.333 -10 25 -17s13.834 -15.167 18.501 -24.5
s6.66699 -19 6 -29c-0.666992 -15.333 -4 -28.666 -10 -39.999s-13.667 -20.5 -23 -27.5s-19.666 -12.167 -30.999 -15.5s-22.666 -5 -33.999 -5c-13.333 0 -27 2.33301 -41 7s-28.667 10.667 -44 18l15 44c12.667 -7.33301 24 -12.333 34 -15s20 -4 30 -4
c14 0 24.833 3.5 32.5 10.5s11.667 14.667 12 23s-3 16.166 -10 23.499s-17.833 11.333 -32.5 12c-4 0 -8.33301 -0.333008 -13 -1s-9.33398 -2.33398 -14.001 -5.00098l-24 20l42 75c-52.667 4 -99.334 16.667 -140.001 38s-74.667 48.5 -102 81.5s-48 70.167 -62 111.5
s-21 83.666 -21 126.999c0 45.333 7.66699 89.833 23 133.5s38 82.667 68 117s67.333 62 112 83s96 31.5 154 31.5c50 0 96.667 -9.33301 140 -28s81.333 -44.667 114 -78z" />
    <glyph glyph-name="uni00C8" unicode="&#xc8;" horiz-adv-x="531" 
d="M476 704h-375v-703h375v78h-293l1 234h288v77h-288v237h292v77zM285 773h74l-65 115h-93z" />
    <glyph glyph-name="uni00C9" unicode="&#xc9;" horiz-adv-x="531" 
d="M476 704h-375v-703h375v78h-293l1 234h288v77h-288v237h292v77zM404 893h-93l-65 -115h74z" />
    <glyph glyph-name="uni00CA" unicode="&#xca;" horiz-adv-x="531" 
d="M476 704h-375v-703h375v78h-293l1 234h288v77h-288v237h292v77zM154 750h74l63 81h2l64 -81h74l-88 117h-101z" />
    <glyph glyph-name="uni00CB" unicode="&#xcb;" horiz-adv-x="531" 
d="M467 701h-375v-700h375v74h-293l1 240h288v75h-288v237h292v74zM253 769v75h-85v-75h85zM416 769v75h-85v-75h85z" />
    <glyph glyph-name="uni00CC" unicode="&#xcc;" horiz-adv-x="284" 
d="M101 0h82v703h-82v-703zM103 750h74l-65 115h-93z" />
    <glyph glyph-name="uni00CD" unicode="&#xcd;" horiz-adv-x="284" 
d="M101 0h82v703h-82v-703zM260 866h-93l-65 -115h74z" />
    <glyph glyph-name="uni00CE" unicode="&#xce;" horiz-adv-x="284" 
d="M101 0h82v703h-82v-703zM1 741h74l63 81h2l64 -81h74l-88 117h-101z" />
    <glyph glyph-name="uni00CF" unicode="&#xcf;" horiz-adv-x="284" 
d="M101 0h82v703h-82v-703zM101 750v86h-86v-86h86zM267 750v86h-86v-86h86z" />
    <glyph glyph-name="uni00D0" unicode="&#xd0;" horiz-adv-x="731" 
d="M46 311l0.00195312 76.001h61v318h216c57.333 0.666992 107.666 -8.83301 150.999 -28.5s79.666 -45.667 108.999 -78s51.666 -69.333 66.999 -111s23.333 -84.5 24 -128.5c1.33301 -44.667 -5.16699 -88.5 -19.5 -131.5s-36.166 -81.333 -65.499 -115
s-66 -60.834 -110 -81.501s-95.667 -31 -155 -31h-217v311h-61zM323.002 76.001h6.00098c45.333 0 84.666 8 117.999 24s61 37.333 83 64s38.333 56.834 49 90.501s15.334 68.167 14.001 103.5c-0.666992 34 -6.83398 67.333 -18.501 100s-28.667 61.667 -51 87
s-50 45.666 -83 60.999s-71.5 23 -115.5 23h-136v-242h132v-76h-132v-235h134z" />
    <glyph glyph-name="uni00D1" unicode="&#xd1;" horiz-adv-x="730" 
d="M101 704h88l360 -588v588h83v-704h-105l-344 564v-564h-82v704zM480 851l45 -32.998c-10 -22.667 -23.667 -39.834 -41 -51.501s-36.333 -17.5 -57 -17.5c-24 0 -46.667 7.33301 -68 22c-16 10 -30.667 15 -44 15c-23.333 0 -43.333 -13.333 -60 -40l-48 31
c12.667 23.333 28 41.166 46 53.499s37.667 18.5 59 18.5c24.667 0 49.667 -8.66699 75 -26c12.667 -8.66699 24.667 -13 36 -13s21.833 3.83301 31.5 11.5s18.167 17.5 25.5 29.5z" />
    <glyph glyph-name="uni00D2" unicode="&#xd2;" 
d="M410 714c49.333 0 95.666 -9.83301 138.999 -29.5s81.166 -46.167 113.499 -79.5s57.833 -72 76.5 -116s28 -90.667 28 -140s-9.33301 -96 -28 -140s-44.167 -82.5 -76.5 -115.5s-70.166 -59.167 -113.499 -78.5s-89.666 -29 -138.999 -29s-95.666 9.66699 -138.999 29
s-81.166 45.5 -113.499 78.5s-57.833 71.5 -76.5 115.5s-28 90.667 -28 140s9.33301 96 28 140s44.167 82.667 76.5 116s70.166 59.833 113.499 79.5s89.666 29.5 138.999 29.5zM136 349c0 -47.333 7.83105 -88.8291 23.498 -124.496s36.334 -65.5 62.001 -89.5
s55 -42.167 88 -54.5s66.5 -18.5 100.5 -18.5s67.5 6.16699 100.5 18.5s62.333 30.5 88 54.5s46.334 53.833 62.001 89.5s23.5 77.167 23.5 124.5s-7.83301 89 -23.5 125s-36.5 66.167 -62.5 90.5s-55.5 42.666 -88.5 54.999s-66.5 18.5 -100.5 18.5
s-67.5 -6.33301 -100.5 -19s-62.167 -31.334 -87.5 -56.001s-45.833 -54.834 -61.5 -90.501s-23.5 -76.834 -23.5 -123.501zM394.998 776.004l-84 115h93l65 -115h-74z" />
    <glyph glyph-name="uni00D3" unicode="&#xd3;" 
d="M410 714c49.333 0 95.666 -9.83301 138.999 -29.5s81.166 -46.167 113.499 -79.5s57.833 -72 76.5 -116s28 -90.667 28 -140s-9.33301 -96 -28 -140s-44.167 -82.5 -76.5 -115.5s-70.166 -59.167 -113.499 -78.5s-89.666 -29 -138.999 -29s-95.666 9.66699 -138.999 29
s-81.166 45.5 -113.499 78.5s-57.833 71.5 -76.5 115.5s-28 90.667 -28 140s9.33301 96 28 140s44.167 82.667 76.5 116s70.166 59.833 113.499 79.5s89.666 29.5 138.999 29.5zM136 349c0 -47.333 7.83105 -88.8291 23.498 -124.496s36.334 -65.5 62.001 -89.5
s55 -42.167 88 -54.5s66.5 -18.5 100.5 -18.5s67.5 6.16699 100.5 18.5s62.333 30.5 88 54.5s46.334 53.833 62.001 89.5s23.5 77.167 23.5 124.5s-7.83301 89 -23.5 125s-36.5 66.167 -62.5 90.5s-55.5 42.666 -88.5 54.999s-66.5 18.5 -100.5 18.5
s-67.5 -6.33301 -100.5 -19s-62.167 -31.334 -87.5 -56.001s-45.833 -54.834 -61.5 -90.501s-23.5 -76.834 -23.5 -123.501zM521.998 910.004l-84 -115h-74l65 115h93z" />
    <glyph glyph-name="uni00D4" unicode="&#xd4;" 
d="M410 714c49.333 0 95.666 -9.83301 138.999 -29.5s81.166 -46.167 113.499 -79.5s57.833 -72 76.5 -116s28 -90.667 28 -140s-9.33301 -96 -28 -140s-44.167 -82.5 -76.5 -115.5s-70.166 -59.167 -113.499 -78.5s-89.666 -29 -138.999 -29s-95.666 9.66699 -138.999 29
s-81.166 45.5 -113.499 78.5s-57.833 71.5 -76.5 115.5s-28 90.667 -28 140s9.33301 96 28 140s44.167 82.667 76.5 116s70.166 59.833 113.499 79.5s89.666 29.5 138.999 29.5zM136 349c0 -47.333 7.83105 -88.8291 23.498 -124.496s36.334 -65.5 62.001 -89.5
s55 -42.167 88 -54.5s66.5 -18.5 100.5 -18.5s67.5 6.16699 100.5 18.5s62.333 30.5 88 54.5s46.334 53.833 62.001 89.5s23.5 77.167 23.5 124.5s-7.83301 89 -23.5 125s-36.5 66.167 -62.5 90.5s-55.5 42.666 -88.5 54.999s-66.5 18.5 -100.5 18.5
s-67.5 -6.33301 -100.5 -19s-62.167 -31.334 -87.5 -56.001s-45.833 -54.834 -61.5 -90.501s-23.5 -76.834 -23.5 -123.501zM293.998 774.004l88 117h101l88 -117h-74l-64 81h-2l-63 -81h-74z" />
    <glyph glyph-name="uni00D5" unicode="&#xd5;" 
d="M410 714c49.333 0 95.666 -9.83301 138.999 -29.5s81.166 -46.167 113.499 -79.5s57.833 -72 76.5 -116s28 -90.667 28 -140s-9.33301 -96 -28 -140s-44.167 -82.5 -76.5 -115.5s-70.166 -59.167 -113.499 -78.5s-89.666 -29 -138.999 -29s-95.666 9.66699 -138.999 29
s-81.166 45.5 -113.499 78.5s-57.833 71.5 -76.5 115.5s-28 90.667 -28 140s9.33301 96 28 140s44.167 82.667 76.5 116s70.166 59.833 113.499 79.5s89.666 29.5 138.999 29.5zM136 349c0 -47.333 7.83105 -88.8291 23.498 -124.496s36.334 -65.5 62.001 -89.5
s55 -42.167 88 -54.5s66.5 -18.5 100.5 -18.5s67.5 6.16699 100.5 18.5s62.333 30.5 88 54.5s46.334 53.833 62.001 89.5s23.5 77.167 23.5 124.5s-7.83301 89 -23.5 125s-36.5 66.167 -62.5 90.5s-55.5 42.666 -88.5 54.999s-66.5 18.5 -100.5 18.5
s-67.5 -6.33301 -100.5 -19s-62.167 -31.334 -87.5 -56.001s-45.833 -54.834 -61.5 -90.501s-23.5 -76.834 -23.5 -123.501zM530.998 895.004l45 -32.998c-10 -22.667 -23.667 -39.834 -41 -51.501s-36.333 -17.5 -57 -17.5c-24 0 -46.667 7.33301 -68 22
c-16 10 -30.667 15 -44 15c-23.333 0 -43.333 -13.333 -60 -40l-48 31c12.667 23.333 28 41.166 46 53.499s37.667 18.5 59 18.5c24.667 0 49.667 -8.66699 75 -26c12.667 -8.66699 24.667 -13 36 -13s21.833 3.83301 31.5 11.5s18.167 17.5 25.5 29.5z" />
    <glyph glyph-name="uni00D6" unicode="&#xd6;" 
d="M410 714c49.333 0 95.666 -9.83301 138.999 -29.5s81.166 -46.167 113.499 -79.5s57.833 -72 76.5 -116s28 -90.667 28 -140s-9.33301 -96 -28 -140s-44.167 -82.5 -76.5 -115.5s-70.166 -59.167 -113.499 -78.5s-89.666 -29 -138.999 -29s-95.666 9.66699 -138.999 29
s-81.166 45.5 -113.499 78.5s-57.833 71.5 -76.5 115.5s-28 90.667 -28 140s9.33301 96 28 140s44.167 82.667 76.5 116s70.166 59.833 113.499 79.5s89.666 29.5 138.999 29.5zM136 349c0 -47.333 7.83105 -88.8291 23.498 -124.496s36.334 -65.5 62.001 -89.5
s55 -42.167 88 -54.5s66.5 -18.5 100.5 -18.5s67.5 6.16699 100.5 18.5s62.333 30.5 88 54.5s46.334 53.833 62.001 89.5s23.5 77.167 23.5 124.5s-7.83301 89 -23.5 125s-36.5 66.167 -62.5 90.5s-55.5 42.666 -88.5 54.999s-66.5 18.5 -100.5 18.5
s-67.5 -6.33301 -100.5 -19s-62.167 -31.334 -87.5 -56.001s-45.833 -54.834 -61.5 -90.501s-23.5 -76.834 -23.5 -123.501zM366.998 790.004h-91v84h91v-84zM541.998 790.004h-91v84h91v-84z" />
    <glyph glyph-name="uni00D7" unicode="&#xd7;" horiz-adv-x="539" 
d="M65 434l148 -149l-146 -145l55 -55l146 146l142 -142l56 55l-143 143l145 144l-55 54l-144 -144l-149 149z" />
    <glyph glyph-name="uni00D8" unicode="&#xd8;" 
d="M410 714c28.667 0 56.333 -3.33105 83 -9.99805s52 -16.334 76 -29.001l46 76h77l-67 -112c43.333 -34 77.833 -76.167 103.5 -126.5s38.5 -104.833 38.5 -163.5c0 -49.333 -9.33301 -96 -28 -140s-44.167 -82.5 -76.5 -115.5s-70.166 -59.167 -113.499 -78.5
s-89.666 -29 -138.999 -29c-28 0 -55 3.16699 -81 9.5s-50.667 15.166 -74 26.499l-43 -72h-78l64 107c-44 34 -79.167 76.167 -105.5 126.5s-39.5 105.5 -39.5 165.5c0 49.333 9.33301 96 28 140s44.167 82.667 76.5 116s70.166 59.833 113.499 79.5
s89.666 29.5 138.999 29.5zM135.999 349.002c0 -52 9.33203 -96.9971 27.999 -134.997s43 -69 73 -93l293 489c-19.333 9.33301 -39.166 16.333 -59.499 21s-40.833 7 -61.5 7c-34 0 -67.5 -6.33301 -100.5 -19s-62.167 -31.334 -87.5 -56.001
s-45.833 -54.834 -61.5 -90.501s-23.5 -76.834 -23.5 -123.501zM683.998 349.005c0 50 -9.00098 94 -27.001 132s-41.667 69 -71 93l-292 -488c37.333 -16 76 -24 116 -24c34 0 67.5 6.16699 100.5 18.5s62.333 30.5 88 54.5s46.334 53.833 62.001 89.5
s23.5 77.167 23.5 124.5z" />
    <glyph glyph-name="uni00D9" unicode="&#xd9;" horiz-adv-x="655" 
d="M91 700l83 -0.00292969v-498c0 -22 4 -41.667 12 -59s19 -32.166 33 -44.499s30.333 -21.666 49 -27.999s38.334 -9.5 59.001 -9.5c19.333 0 38.166 3 56.499 9s34.833 14.833 49.5 26.5s26.334 26.334 35.001 44.001s13 38.167 13 61.5v498h83v-498
c0 -36.667 -6.83301 -68.667 -20.5 -96s-31.834 -50 -54.501 -68s-48.167 -31.333 -76.5 -40s-57.5 -13 -87.5 -13c-29.333 0 -58 4.66699 -86 14s-53 23 -75 41s-39.667 40.5 -53 67.5s-20 58.5 -20 94.5v498zM308 773.997l-84 115h93l65 -115h-74z" />
    <glyph glyph-name="uni00DA" unicode="&#xda;" horiz-adv-x="655" 
d="M91 700l83 -0.00292969v-498c0 -22 4 -41.667 12 -59s19 -32.166 33 -44.499s30.333 -21.666 49 -27.999s38.334 -9.5 59.001 -9.5c19.333 0 38.166 3 56.499 9s34.833 14.833 49.5 26.5s26.334 26.334 35.001 44.001s13 38.167 13 61.5v498h83v-498
c0 -36.667 -6.83301 -68.667 -20.5 -96s-31.834 -50 -54.501 -68s-48.167 -31.333 -76.5 -40s-57.5 -13 -87.5 -13c-29.333 0 -58 4.66699 -86 14s-53 23 -75 41s-39.667 40.5 -53 67.5s-20 58.5 -20 94.5v498zM446 882.997l-84 -115h-74l65 115h93z" />
    <glyph glyph-name="uni00DB" unicode="&#xdb;" horiz-adv-x="655" 
d="M91 700l83 -0.00292969v-498c0 -22 4 -41.667 12 -59s19 -32.166 33 -44.499s30.333 -21.666 49 -27.999s38.334 -9.5 59.001 -9.5c19.333 0 38.166 3 56.499 9s34.833 14.833 49.5 26.5s26.334 26.334 35.001 44.001s13 38.167 13 61.5v498h83v-498
c0 -36.667 -6.83301 -68.667 -20.5 -96s-31.834 -50 -54.501 -68s-48.167 -31.333 -76.5 -40s-57.5 -13 -87.5 -13c-29.333 0 -58 4.66699 -86 14s-53 23 -75 41s-39.667 40.5 -53 67.5s-20 58.5 -20 94.5v498zM193 762.997l88 117h101l88 -117h-74l-64 81h-2l-63 -81h-74z
" />
    <glyph glyph-name="uni00DC" unicode="&#xdc;" horiz-adv-x="655" 
d="M91 700l83 -0.00292969v-498c0 -22 4 -41.667 12 -59s19 -32.166 33 -44.499s30.333 -21.666 49 -27.999s38.334 -9.5 59.001 -9.5c19.333 0 38.166 3 56.499 9s34.833 14.833 49.5 26.5s26.334 26.334 35.001 44.001s13 38.167 13 61.5v498h83v-498
c0 -36.667 -6.83301 -68.667 -20.5 -96s-31.834 -50 -54.501 -68s-48.167 -31.333 -76.5 -40s-57.5 -13 -87.5 -13c-29.333 0 -58 4.66699 -86 14s-53 23 -75 41s-39.667 40.5 -53 67.5s-20 58.5 -20 94.5v498zM294 771.997h-90v98h90v-98zM467 771.997h-90v98h90v-98z" />
    <glyph glyph-name="uni00DD" unicode="&#xdd;" horiz-adv-x="589" 
d="M574 705l-240 -426v-279h-81v279l-119.5 213.5l-119.5 212.5h94l186 -339l93 169.5l92 169.5h95zM411 860l-84 -115h-74l65 115h93z" />
    <glyph glyph-name="uni00DE" unicode="&#xde;" horiz-adv-x="583" 
d="M183 143l-0.000976562 -143.002h-82v700h82v-114h127c39.333 0 73.666 -6.5 102.999 -19.5s53.833 -30 73.5 -51s34.5 -44.833 44.5 -71.5s15 -54 15 -82s-5 -55.167 -15 -81.5s-24.667 -49.666 -44 -69.999s-43.666 -36.666 -72.999 -48.999
s-63.666 -18.5 -102.999 -18.5h-128zM309.999 218.998c26 0 48.667 4.16699 68 12.5s35.333 19.333 48 33s22.167 29 28.5 46s9.5 34.167 9.5 51.5c0 18 -3.16699 36 -9.5 54s-16 34.333 -29 49s-29 26.667 -48 36s-41.5 14 -67.5 14h-127v-296h127z" />
    <glyph glyph-name="uni00DF" unicode="&#xdf;" horiz-adv-x="581" 
d="M162 525l0.00292969 -525.006h-83v525c0 28.667 5.66699 54.334 17 77.001s26.5 42 45.5 58s40.667 28.167 65 36.5s49.833 12.5 76.5 12.5s52 -4 76 -12s45.167 -19.667 63.5 -35s33 -34.166 44 -56.499s16.5 -47.833 16.5 -76.5c0 -27.333 -6.83301 -54.333 -20.5 -81
s-34.5 -48.667 -62.5 -66c40 -15.333 71.333 -39.833 94 -73.5s33.667 -69.5 33 -107.5c0.666992 -35.333 -5 -66 -17 -92s-28.5 -47.667 -49.5 -65s-45 -30.166 -72 -38.499s-55.167 -12.5 -84.5 -12.5c-33.333 0 -67 5.66699 -101 17v76
c11.333 -6.66699 24.166 -12 38.499 -16s30.166 -6 47.499 -6c34.667 0 63.5 6.83301 86.5 20.5s40.167 30.5 51.5 50.5s17 42 17 66s-5.83301 46 -17.5 66s-28.834 36.833 -51.501 50.5s-51.334 20.5 -86.001 20.5h-59v77h59c19.333 0 36.333 3.5 51 10.5s27 16 37 27
s17.5 23.333 22.5 37s6.83301 27.5 5.5 41.5c-1.33301 16 -5.66602 30.333 -12.999 43s-16.5 23.334 -27.5 32.001s-23.667 15.334 -38 20.001s-29.166 7 -44.499 7c-14.667 0 -29.334 -2.5 -44.001 -7.5s-27.5 -12.167 -38.5 -21.5s-20 -20.666 -27 -33.999
s-10.5 -28.333 -10.5 -45z" />
    <glyph glyph-name="uni00E0" unicode="&#xe0;" horiz-adv-x="568" 
d="M493 0l-61.002 0.00195312l-11 45c-18 -17.333 -39.667 -31 -65 -41s-50.666 -15.333 -75.999 -16c-38 0 -71.167 4.33301 -99.5 13s-52 20.834 -71 36.501s-33.167 34 -42.5 55s-14 43.833 -14 68.5c0 33.333 7 61.333 21 84s32.167 41 54.5 55s47.5 24.167 75.5 30.5
s56.333 9.5 85 9.5c22.667 0 45.167 -3.66699 67.5 -11s43.5 -16.333 63.5 -27v22c0 25.333 -4 46.166 -12 62.499s-18.833 29.166 -32.5 38.499s-29.167 16 -46.5 20s-35.666 6 -54.999 6c-28 0 -55.5 -4.33301 -82.5 -13s-51.167 -20.667 -72.5 -36l-33 55
c33.333 24 65.833 40.5 97.5 49.5s62.5 13.5 92.5 13.5c28 0 55.167 -3.33301 81.5 -10s49.5 -17.834 69.5 -33.501s36 -36 48 -61s18 -55.5 18 -91.5v-324zM417.998 239.002c-18.667 12 -39.333 21.001 -62 27.001s-44.667 9 -66 9
c-54.667 -0.666992 -95.834 -11.334 -123.501 -32.001s-41.5 -48 -41.5 -82c0 -30 12.833 -55.5 38.5 -76.5s64.5 -31.5 116.5 -31.5c24.667 0 49.834 5.83301 75.501 17.5s46.5 27.167 62.5 46.5v122zM277.999 587.003l-84 115h93l65 -115h-74z" />
    <glyph glyph-name="uni00E1" unicode="&#xe1;" horiz-adv-x="568" 
d="M493 0l-61.002 0.00195312l-11 45c-18 -17.333 -39.667 -31 -65 -41s-50.666 -15.333 -75.999 -16c-38 0 -71.167 4.33301 -99.5 13s-52 20.834 -71 36.501s-33.167 34 -42.5 55s-14 43.833 -14 68.5c0 33.333 7 61.333 21 84s32.167 41 54.5 55s47.5 24.167 75.5 30.5
s56.333 9.5 85 9.5c22.667 0 45.167 -3.66699 67.5 -11s43.5 -16.333 63.5 -27v22c0 25.333 -4 46.166 -12 62.499s-18.833 29.166 -32.5 38.499s-29.167 16 -46.5 20s-35.666 6 -54.999 6c-28 0 -55.5 -4.33301 -82.5 -13s-51.167 -20.667 -72.5 -36l-33 55
c33.333 24 65.833 40.5 97.5 49.5s62.5 13.5 92.5 13.5c28 0 55.167 -3.33301 81.5 -10s49.5 -17.834 69.5 -33.501s36 -36 48 -61s18 -55.5 18 -91.5v-324zM417.998 239.002c-18.667 12 -39.333 21.001 -62 27.001s-44.667 9 -66 9
c-54.667 -0.666992 -95.834 -11.334 -123.501 -32.001s-41.5 -48 -41.5 -82c0 -30 12.833 -55.5 38.5 -76.5s64.5 -31.5 116.5 -31.5c24.667 0 49.834 5.83301 75.501 17.5s46.5 27.167 62.5 46.5v122zM394.999 701.003l-84 -115h-74l65 115h93z" />
    <glyph glyph-name="uni00E2" unicode="&#xe2;" horiz-adv-x="568" 
d="M493 0l-61.002 0.00195312l-11 45c-18 -17.333 -39.667 -31 -65 -41s-50.666 -15.333 -75.999 -16c-38 0 -71.167 4.33301 -99.5 13s-52 20.834 -71 36.501s-33.167 34 -42.5 55s-14 43.833 -14 68.5c0 33.333 7 61.333 21 84s32.167 41 54.5 55s47.5 24.167 75.5 30.5
s56.333 9.5 85 9.5c22.667 0 45.167 -3.66699 67.5 -11s43.5 -16.333 63.5 -27v22c0 25.333 -4 46.166 -12 62.499s-18.833 29.166 -32.5 38.499s-29.167 16 -46.5 20s-35.666 6 -54.999 6c-28 0 -55.5 -4.33301 -82.5 -13s-51.167 -20.667 -72.5 -36l-33 55
c33.333 24 65.833 40.5 97.5 49.5s62.5 13.5 92.5 13.5c28 0 55.167 -3.33301 81.5 -10s49.5 -17.834 69.5 -33.501s36 -36 48 -61s18 -55.5 18 -91.5v-324zM417.998 239.002c-18.667 12 -39.333 21.001 -62 27.001s-44.667 9 -66 9
c-54.667 -0.666992 -95.834 -11.334 -123.501 -32.001s-41.5 -48 -41.5 -82c0 -30 12.833 -55.5 38.5 -76.5s64.5 -31.5 116.5 -31.5c24.667 0 49.834 5.83301 75.501 17.5s46.5 27.167 62.5 46.5v122zM153.999 585.003l88 117h101l88 -117h-74l-64 81h-2l-63 -81h-74z" />
    <glyph glyph-name="uni00E3" unicode="&#xe3;" horiz-adv-x="568" 
d="M493 0l-61.002 0.00195312l-11 45c-18 -17.333 -39.667 -31 -65 -41s-50.666 -15.333 -75.999 -16c-38 0 -71.167 4.33301 -99.5 13s-52 20.834 -71 36.501s-33.167 34 -42.5 55s-14 43.833 -14 68.5c0 33.333 7 61.333 21 84s32.167 41 54.5 55s47.5 24.167 75.5 30.5
s56.333 9.5 85 9.5c22.667 0 45.167 -3.66699 67.5 -11s43.5 -16.333 63.5 -27v22c0 25.333 -4 46.166 -12 62.499s-18.833 29.166 -32.5 38.499s-29.167 16 -46.5 20s-35.666 6 -54.999 6c-28 0 -55.5 -4.33301 -82.5 -13s-51.167 -20.667 -72.5 -36l-33 55
c33.333 24 65.833 40.5 97.5 49.5s62.5 13.5 92.5 13.5c28 0 55.167 -3.33301 81.5 -10s49.5 -17.834 69.5 -33.501s36 -36 48 -61s18 -55.5 18 -91.5v-324zM417.998 239.002c-18.667 12 -39.333 21.001 -62 27.001s-44.667 9 -66 9
c-54.667 -0.666992 -95.834 -11.334 -123.501 -32.001s-41.5 -48 -41.5 -82c0 -30 12.833 -55.5 38.5 -76.5s64.5 -31.5 116.5 -31.5c24.667 0 49.834 5.83301 75.501 17.5s46.5 27.167 62.5 46.5v122zM403.999 712.003l45 -32.998c-10 -22.667 -23.667 -39.834 -41 -51.501
s-36.333 -17.5 -57 -17.5c-24 0 -46.667 7.33301 -68 22c-16 10 -30.667 15 -44 15c-23.333 0 -43.333 -13.333 -60 -40l-48 31c12.667 23.333 28 41.166 46 53.499s37.667 18.5 59 18.5c24.667 0 49.667 -8.66699 75 -26c12.667 -8.66699 24.667 -13 36 -13
s21.833 3.83301 31.5 11.5s18.167 17.5 25.5 29.5z" />
    <glyph glyph-name="uni00E4" unicode="&#xe4;" horiz-adv-x="568" 
d="M493 0l-61.002 0.00195312l-11 45c-18 -17.333 -39.667 -31 -65 -41s-50.666 -15.333 -75.999 -16c-38 0 -71.167 4.33301 -99.5 13s-52 20.834 -71 36.501s-33.167 34 -42.5 55s-14 43.833 -14 68.5c0 33.333 7 61.333 21 84s32.167 41 54.5 55s47.5 24.167 75.5 30.5
s56.333 9.5 85 9.5c22.667 0 45.167 -3.66699 67.5 -11s43.5 -16.333 63.5 -27v22c0 25.333 -4 46.166 -12 62.499s-18.833 29.166 -32.5 38.499s-29.167 16 -46.5 20s-35.666 6 -54.999 6c-28 0 -55.5 -4.33301 -82.5 -13s-51.167 -20.667 -72.5 -36l-33 55
c33.333 24 65.833 40.5 97.5 49.5s62.5 13.5 92.5 13.5c28 0 55.167 -3.33301 81.5 -10s49.5 -17.834 69.5 -33.501s36 -36 48 -61s18 -55.5 18 -91.5v-324zM417.998 239.002c-18.667 12 -39.333 21.001 -62 27.001s-44.667 9 -66 9
c-54.667 -0.666992 -95.834 -11.334 -123.501 -32.001s-41.5 -48 -41.5 -82c0 -30 12.833 -55.5 38.5 -76.5s64.5 -31.5 116.5 -31.5c24.667 0 49.834 5.83301 75.501 17.5s46.5 27.167 62.5 46.5v122zM249.999 614.003h-89v87h89v-87zM421.999 614.003h-89v87h89v-87z" />
    <glyph glyph-name="uni00E5" unicode="&#xe5;" horiz-adv-x="568" 
d="M493 0l-61.002 0.00195312l-11 45c-18 -17.333 -39.667 -31 -65 -41s-50.666 -15.333 -75.999 -16c-38 0 -71.167 4.33301 -99.5 13s-52 20.834 -71 36.501s-33.167 34 -42.5 55s-14 43.833 -14 68.5c0 33.333 7 61.333 21 84s32.167 41 54.5 55s47.5 24.167 75.5 30.5
s56.333 9.5 85 9.5c22.667 0 45.167 -3.66699 67.5 -11s43.5 -16.333 63.5 -27v22c0 25.333 -4 46.166 -12 62.499s-18.833 29.166 -32.5 38.499s-29.167 16 -46.5 20s-35.666 6 -54.999 6c-28 0 -55.5 -4.33301 -82.5 -13s-51.167 -20.667 -72.5 -36l-33 55
c33.333 24 65.833 40.5 97.5 49.5s62.5 13.5 92.5 13.5c28 0 55.167 -3.33301 81.5 -10s49.5 -17.834 69.5 -33.501s36 -36 48 -61s18 -55.5 18 -91.5v-324zM417.998 239.002c-18.667 12 -39.333 21.001 -62 27.001s-44.667 9 -66 9
c-54.667 -0.666992 -95.834 -11.334 -123.501 -32.001s-41.5 -48 -41.5 -82c0 -30 12.833 -55.5 38.5 -76.5s64.5 -31.5 116.5 -31.5c24.667 0 49.834 5.83301 75.501 17.5s46.5 27.167 62.5 46.5v122zM288.999 578.003c-22.667 0 -42.334 6.5 -59.001 19.5
s-25 31.167 -25 54.5s8.33301 41.666 25 54.999s36.334 20 59.001 20c22 0 41.5 -6.66699 58.5 -20s25.5 -31.666 25.5 -54.999s-8.5 -41.5 -25.5 -54.5s-36.5 -19.5 -58.5 -19.5zM288.999 620.003c9.33301 0 17.166 3 23.499 9s9.5 13.667 9.5 23
c0 10.667 -3.16699 19 -9.5 25s-14.166 9 -23.499 9c-10 0 -18 -3 -24 -9s-9 -14.333 -9 -25c0 -9.33301 3 -17 9 -23s14 -9 24 -9z" />
    <glyph glyph-name="uni00E6" unicode="&#xe6;" horiz-adv-x="958" 
d="M663 58c28 0 54.998 5.83203 80.998 17.499s47.667 29.167 65 52.5l63 -38c-25.333 -34.667 -56 -60.167 -92 -76.5s-75 -24.5 -117 -24.5c-44 0 -82.333 7.83301 -115 23.5s-59.667 36.167 -81 61.5c-25.333 -26.667 -55 -47.167 -89 -61.5s-69.333 -21.5 -106 -21.5
c-50.667 -0.666992 -92.667 7.5 -126 24.5s-58.166 38.333 -74.499 64s-24.166 53.5 -23.499 83.5s9.66699 57.833 27 83.5s43.166 47 77.499 64s77.166 25.167 128.499 24.5c22.667 0 44.5 -3.16699 65.5 -9.5s41.5 -14.833 61.5 -25.5l1 10
c0 25.333 -4.5 47.166 -13.5 65.499s-21 33.5 -36 45.5s-32 20.833 -51 26.5s-38.833 8.5 -59.5 8.5c-26 0 -51.667 -4.5 -77 -13.5s-46.666 -22.167 -63.999 -39.5l-40 46c23.333 23.333 51.5 40.833 84.5 52.5s66.833 17.5 101.5 17.5c22.667 0 44.834 -2.66699 66.501 -8
s41.5 -13.166 59.5 -23.499s33.833 -23.5 47.5 -39.5s23.5 -34.667 29.5 -56c19.333 38 46.5 68.333 81.5 91s76.167 34.334 123.5 35.001c40 0 76.5 -7.83301 109.5 -23.5s60.5 -37 82.5 -64s37.833 -58.5 47.5 -94.5s11.5 -74.333 5.5 -115h-426
c1.33301 -21.333 6.33301 -41.833 15 -61.5s20.667 -37 36 -52s34 -27 56 -36s47 -13.5 75 -13.5zM271.998 59.999c24 0 50.833 4.99707 80.5 14.9971s55.834 28.333 78.501 55c-16 36 -24.667 73 -26 111c-18 10.667 -38 18.167 -60 22.5s-43 6.5 -63 6.5
c-34.667 0 -63.834 -5.33301 -87.501 -16s-41.667 -23.667 -54 -39s-18.833 -32.166 -19.5 -50.499s4.5 -35.166 15.5 -50.499s27.833 -28.166 50.5 -38.499s51 -15.5 85 -15.5zM479.998 286.996h355.998c-2 23.333 -7.66699 44.833 -17 64.5s-21.5 36.667 -36.5 51
s-32.667 25.5 -53 33.5s-42.5 12.333 -66.5 13c-27.333 0 -51.666 -4.66699 -72.999 -14s-39.666 -21.5 -54.999 -36.5s-27.5 -32.167 -36.5 -51.5s-15.167 -39.333 -18.5 -60z" />
    <glyph glyph-name="uni00E7" unicode="&#xe7;" horiz-adv-x="526" 
d="M481 449l-43.0029 -52.9971c-18.667 17.333 -39.5 30.333 -62.5 39s-47.167 13 -72.5 13c-23.333 0 -45.833 -4.5 -67.5 -13.5s-40.667 -22.167 -57 -39.5s-29.666 -38 -39.999 -62s-15.5 -51 -15.5 -81c0 -23.333 3.83301 -46.333 11.5 -69s19 -43 34 -61
s33.833 -32.5 56.5 -43.5s49 -16.5 79 -16.5c25.333 0 50 5 74 15s45.333 23.667 64 41l44 -53c-22.667 -22 -48.667 -39.333 -78 -52s-61 -19.667 -95 -21l-17 -30c8.66699 0 17.5 -2.16699 26.5 -6.5s17.333 -10 25 -17s13.834 -15.167 18.501 -24.5s6.66699 -19 6 -29
c-0.666992 -15.333 -4 -28.666 -10 -39.999s-13.667 -20.5 -23 -27.5s-19.666 -12.167 -30.999 -15.5s-22.666 -5 -33.999 -5c-13.333 0 -27 2.33301 -41 7s-28.667 10.667 -44 18l15 44c12.667 -7.33301 24 -12.333 34 -15s20 -4 30 -4c14 0 24.833 3.5 32.5 10.5
s11.667 14.667 12 23s-3 16.166 -10 23.499s-17.833 11.333 -32.5 12c-4 0 -8.33301 -0.333008 -13 -1s-9.33398 -2.33398 -14.001 -5.00098l-24 20l37 66c-34.667 5.33301 -65.334 16.166 -92.001 32.499s-48.667 36.333 -66 60s-30.5 49.667 -39.5 78
s-13.5 57.5 -13.5 87.5c0 33.333 5.66699 65.666 17 96.999s27.833 59.5 49.5 84.5s48.667 45.167 81 60.5s69.5 23 111.5 23c36 0 68.333 -5.66699 97 -17s55.334 -29 80.001 -53z" />
    <glyph glyph-name="uni00E8" unicode="&#xe8;" horiz-adv-x="599" 
d="M304 60c28 0 55.334 5.83203 82.001 17.499s48.667 29.167 66 52.5l60 -38c-25.333 -34.667 -55.833 -60.5 -91.5 -77.5s-74.5 -25.5 -116.5 -25.5c-42.667 0 -80.334 7.66699 -113.001 23s-59.667 35.5 -81 60.5s-37.333 53.5 -48 85.5s-16 64.333 -16 97
s5.5 64.834 16.5 96.501s27.333 60 49 85s48.5 45.167 80.5 60.5s69 23 111 23c40 0 76.333 -7.66699 109 -23s60 -36.166 82 -62.499s37.833 -57.333 47.5 -93s11.5 -73.834 5.5 -114.501h-425c1.33301 -21.333 6.33301 -42 15 -62s20.667 -37.833 36 -53.5
s34 -28.167 56 -37.5s47 -14 75 -14zM123.001 292.999h354c-4 46.667 -21.667 84.334 -53 113.001s-71.333 43.667 -120 45c-27.333 0 -51.5 -4.33301 -72.5 -13s-39 -20.334 -54 -35.001s-27 -31.5 -36 -50.5s-15.167 -38.833 -18.5 -59.5zM290.001 594.999l-84 115h93
l65 -115h-74z" />
    <glyph glyph-name="uni00E9" unicode="&#xe9;" horiz-adv-x="599" 
d="M304 60c28 0 55.334 5.83203 82.001 17.499s48.667 29.167 66 52.5l60 -38c-25.333 -34.667 -55.833 -60.5 -91.5 -77.5s-74.5 -25.5 -116.5 -25.5c-42.667 0 -80.334 7.66699 -113.001 23s-59.667 35.5 -81 60.5s-37.333 53.5 -48 85.5s-16 64.333 -16 97
s5.5 64.834 16.5 96.501s27.333 60 49 85s48.5 45.167 80.5 60.5s69 23 111 23c40 0 76.333 -7.66699 109 -23s60 -36.166 82 -62.499s37.833 -57.333 47.5 -93s11.5 -73.834 5.5 -114.501h-425c1.33301 -21.333 6.33301 -42 15 -62s20.667 -37.833 36 -53.5
s34 -28.167 56 -37.5s47 -14 75 -14zM123.001 292.999h354c-4 46.667 -21.667 84.334 -53 113.001s-71.333 43.667 -120 45c-27.333 0 -51.5 -4.33301 -72.5 -13s-39 -20.334 -54 -35.001s-27 -31.5 -36 -50.5s-15.167 -38.833 -18.5 -59.5zM415.001 706.999l-84 -115h-74
l65 115h93z" />
    <glyph glyph-name="uni00EA" unicode="&#xea;" horiz-adv-x="599" 
d="M304 60c28 0 55.334 5.83203 82.001 17.499s48.667 29.167 66 52.5l60 -38c-25.333 -34.667 -55.833 -60.5 -91.5 -77.5s-74.5 -25.5 -116.5 -25.5c-42.667 0 -80.334 7.66699 -113.001 23s-59.667 35.5 -81 60.5s-37.333 53.5 -48 85.5s-16 64.333 -16 97
s5.5 64.834 16.5 96.501s27.333 60 49 85s48.5 45.167 80.5 60.5s69 23 111 23c40 0 76.333 -7.66699 109 -23s60 -36.166 82 -62.499s37.833 -57.333 47.5 -93s11.5 -73.834 5.5 -114.501h-425c1.33301 -21.333 6.33301 -42 15 -62s20.667 -37.833 36 -53.5
s34 -28.167 56 -37.5s47 -14 75 -14zM123.001 292.999h354c-4 46.667 -21.667 84.334 -53 113.001s-71.333 43.667 -120 45c-27.333 0 -51.5 -4.33301 -72.5 -13s-39 -20.334 -54 -35.001s-27 -31.5 -36 -50.5s-15.167 -38.833 -18.5 -59.5zM165.001 590.999l88 117h101
l88 -117h-74l-64 81h-2l-63 -81h-74z" />
    <glyph glyph-name="uni00EB" unicode="&#xeb;" horiz-adv-x="599" 
d="M304 60c28 0 55.334 5.83203 82.001 17.499s48.667 29.167 66 52.5l60 -38c-25.333 -34.667 -55.833 -60.5 -91.5 -77.5s-74.5 -25.5 -116.5 -25.5c-42.667 0 -80.334 7.66699 -113.001 23s-59.667 35.5 -81 60.5s-37.333 53.5 -48 85.5s-16 64.333 -16 97
s5.5 64.834 16.5 96.501s27.333 60 49 85s48.5 45.167 80.5 60.5s69 23 111 23c40 0 76.333 -7.66699 109 -23s60 -36.166 82 -62.499s37.833 -57.333 47.5 -93s11.5 -73.834 5.5 -114.501h-425c1.33301 -21.333 6.33301 -42 15 -62s20.667 -37.833 36 -53.5
s34 -28.167 56 -37.5s47 -14 75 -14zM123.001 292.999h354c-4 46.667 -21.667 84.334 -53 113.001s-71.333 43.667 -120 45c-27.333 0 -51.5 -4.33301 -72.5 -13s-39 -20.334 -54 -35.001s-27 -31.5 -36 -50.5s-15.167 -38.833 -18.5 -59.5zM262.001 615.999h-91v81h91v-81z
M437.001 615.999h-91v81h91v-81z" />
    <glyph glyph-name="uni00EC" unicode="&#xec;" horiz-adv-x="240" 
d="M160 0v512h-79v-512h79zM95 592h74l-65 115h-93z" />
    <glyph glyph-name="uni00ED" unicode="&#xed;" horiz-adv-x="240" 
d="M160 0v512h-79v-512h79zM226 707h-93l-65 -115h74z" />
    <glyph glyph-name="uni00EE" unicode="&#xee;" horiz-adv-x="240" 
d="M160 0v512h-79v-512h79zM-19 590h74l63 81h2l64 -81h74l-88 117h-101z" />
    <glyph glyph-name="uni00EF" unicode="&#xef;" horiz-adv-x="240" 
d="M160 0v512h-79v-512h79zM81 610v88h-82v-88h82zM237 610v88h-81v-88h81z" />
    <glyph glyph-name="uni00F0" unicode="&#xf0;" horiz-adv-x="613" 
d="M209 498l-28.998 41l106 64c-44.667 19.333 -95.334 29 -152.001 29l7 68c43.333 0 83.5 -4.33301 120.5 -13s70.5 -21 100.5 -37l101 61l26 -42l-81 -49c53.333 -40.667 92 -92.5 116 -155.5s34.667 -138.5 32 -226.5c0 -31.333 -5.16699 -61.666 -15.5 -90.999
s-26 -55.333 -47 -78s-47.5 -40.834 -79.5 -54.501s-69.667 -20.5 -113 -20.5c-42.667 0 -80.167 7 -112.5 21s-59 32.333 -80 55s-36.667 48.5 -47 77.5s-15.166 58.5 -14.499 88.5c0.666992 29.333 6.5 57.833 17.5 85.5s27.167 52.334 48.5 74.001s47.666 39 78.999 52
s67.666 19.5 108.999 19.5c36.667 -0.666992 70.5 -8.33398 101.5 -23.001s56.833 -37 77.5 -67c-10.667 42 -28 80 -52 114s-54 62.667 -90 86zM301.002 396c-29.333 0 -54.668 -4.66699 -76.001 -14s-39.166 -21.5 -53.499 -36.5s-25 -32.167 -32 -51.5
s-10.833 -39 -11.5 -59c-0.666992 -20.667 2.33301 -41 9 -61s17.167 -38 31.5 -54s32.5 -28.833 54.5 -38.5s48 -14.5 78 -14.5c30.667 0 57 4.83301 79 14.5s40.333 22.5 55 38.5s25.334 34.167 32.001 54.5s9.66699 40.833 9 61.5c-0.666992 20 -4.5 39.667 -11.5 59
s-17.833 36.5 -32.5 51.5s-32.834 27 -54.501 36s-47.167 13.5 -76.5 13.5z" />
    <glyph glyph-name="uni00F1" unicode="&#xf1;" horiz-adv-x="616" 
d="M81 507h65.999l10 -47c14.667 16 35.167 28.833 61.5 38.5s54.5 14.834 84.5 15.501c34 -0.666992 65.667 -5.83398 95 -15.501s54.5 -23.667 75.5 -42s37.5 -41.333 49.5 -69s18 -60.167 18 -97.5v-290h-78v290c-0.666992 48.667 -15.667 85.667 -45 111
s-66.666 39.333 -111.999 42c-26 0 -52.333 -3.66699 -79 -11s-49.667 -20.333 -69 -39v-393h-77v507zM410.999 711l45 -32.998c-10 -22.667 -23.667 -39.834 -41 -51.501s-36.333 -17.5 -57 -17.5c-24 0 -46.667 7.33301 -68 22c-16 10 -30.667 15 -44 15
c-23.333 0 -43.333 -13.333 -60 -40l-48 31c12.667 23.333 28 41.166 46 53.499s37.667 18.5 59 18.5c24.667 0 49.667 -8.66699 75 -26c12.667 -8.66699 24.667 -13 36 -13s21.833 3.83301 31.5 11.5s18.167 17.5 25.5 29.5z" />
    <glyph glyph-name="uni00F2" unicode="&#xf2;" horiz-adv-x="605" 
d="M560 253c0 -36.667 -6.33301 -71.167 -19 -103.5s-30.334 -60.5 -53.001 -84.5s-49.834 -42.833 -81.501 -56.5s-66.5 -20.5 -104.5 -20.5s-72.833 6.83301 -104.5 20.5s-58.667 32.5 -81 56.5s-39.833 52.167 -52.5 84.5s-19 66.833 -19 103.5
c0 37.333 6.33301 72 19 104s30.167 59.833 52.5 83.5s49.333 42.334 81 56.001s66.5 20.5 104.5 20.5s72.833 -6.83301 104.5 -20.5s58.834 -32.334 81.501 -56.001s40.334 -51.5 53.001 -83.5s19 -66.667 19 -104zM123 253c0 -32.667 5 -61.334 15 -86.001
s23.333 -45.167 40 -61.5s35.834 -28.5 57.501 -36.5s43.834 -12 66.501 -12c23.333 0 45.666 4 66.999 12s40.5 20.167 57.5 36.5s30.5 36.833 40.5 61.5s15 53.334 15 86.001c0 33.333 -5 62.166 -15 86.499s-23.5 44.5 -40.5 60.5s-36.167 27.833 -57.5 35.5
s-43.666 11.5 -66.999 11.5c-22.667 0 -44.834 -3.83301 -66.501 -11.5s-40.834 -19.5 -57.501 -35.5s-30 -36.167 -40 -60.5s-15 -53.166 -15 -86.499zM288 592l-84 115h93l65 -115h-74z" />
    <glyph glyph-name="uni00F3" unicode="&#xf3;" horiz-adv-x="605" 
d="M560 253c0 -36.667 -6.33301 -71.167 -19 -103.5s-30.334 -60.5 -53.001 -84.5s-49.834 -42.833 -81.501 -56.5s-66.5 -20.5 -104.5 -20.5s-72.833 6.83301 -104.5 20.5s-58.667 32.5 -81 56.5s-39.833 52.167 -52.5 84.5s-19 66.833 -19 103.5
c0 37.333 6.33301 72 19 104s30.167 59.833 52.5 83.5s49.333 42.334 81 56.001s66.5 20.5 104.5 20.5s72.833 -6.83301 104.5 -20.5s58.834 -32.334 81.501 -56.001s40.334 -51.5 53.001 -83.5s19 -66.667 19 -104zM123 253c0 -32.667 5 -61.334 15 -86.001
s23.333 -45.167 40 -61.5s35.834 -28.5 57.501 -36.5s43.834 -12 66.501 -12c23.333 0 45.666 4 66.999 12s40.5 20.167 57.5 36.5s30.5 36.833 40.5 61.5s15 53.334 15 86.001c0 33.333 -5 62.166 -15 86.499s-23.5 44.5 -40.5 60.5s-36.167 27.833 -57.5 35.5
s-43.666 11.5 -66.999 11.5c-22.667 0 -44.834 -3.83301 -66.501 -11.5s-40.834 -19.5 -57.501 -35.5s-30 -36.167 -40 -60.5s-15 -53.166 -15 -86.499zM414 705l-84 -115h-74l65 115h93z" />
    <glyph glyph-name="uni00F4" unicode="&#xf4;" horiz-adv-x="605" 
d="M560 253c0 -36.667 -6.33301 -71.167 -19 -103.5s-30.334 -60.5 -53.001 -84.5s-49.834 -42.833 -81.501 -56.5s-66.5 -20.5 -104.5 -20.5s-72.833 6.83301 -104.5 20.5s-58.667 32.5 -81 56.5s-39.833 52.167 -52.5 84.5s-19 66.833 -19 103.5
c0 37.333 6.33301 72 19 104s30.167 59.833 52.5 83.5s49.333 42.334 81 56.001s66.5 20.5 104.5 20.5s72.833 -6.83301 104.5 -20.5s58.834 -32.334 81.501 -56.001s40.334 -51.5 53.001 -83.5s19 -66.667 19 -104zM123 253c0 -32.667 5 -61.334 15 -86.001
s23.333 -45.167 40 -61.5s35.834 -28.5 57.501 -36.5s43.834 -12 66.501 -12c23.333 0 45.666 4 66.999 12s40.5 20.167 57.5 36.5s30.5 36.833 40.5 61.5s15 53.334 15 86.001c0 33.333 -5 62.166 -15 86.499s-23.5 44.5 -40.5 60.5s-36.167 27.833 -57.5 35.5
s-43.666 11.5 -66.999 11.5c-22.667 0 -44.834 -3.83301 -66.501 -11.5s-40.834 -19.5 -57.501 -35.5s-30 -36.167 -40 -60.5s-15 -53.166 -15 -86.499zM170 590l88 117h101l88 -117h-74l-64 81h-2l-63 -81h-74z" />
    <glyph glyph-name="uni00F5" unicode="&#xf5;" horiz-adv-x="605" 
d="M560 253c0 -36.667 -6.33301 -71.167 -19 -103.5s-30.334 -60.5 -53.001 -84.5s-49.834 -42.833 -81.501 -56.5s-66.5 -20.5 -104.5 -20.5s-72.833 6.83301 -104.5 20.5s-58.667 32.5 -81 56.5s-39.833 52.167 -52.5 84.5s-19 66.833 -19 103.5
c0 37.333 6.33301 72 19 104s30.167 59.833 52.5 83.5s49.333 42.334 81 56.001s66.5 20.5 104.5 20.5s72.833 -6.83301 104.5 -20.5s58.834 -32.334 81.501 -56.001s40.334 -51.5 53.001 -83.5s19 -66.667 19 -104zM123 253c0 -32.667 5 -61.334 15 -86.001
s23.333 -45.167 40 -61.5s35.834 -28.5 57.501 -36.5s43.834 -12 66.501 -12c23.333 0 45.666 4 66.999 12s40.5 20.167 57.5 36.5s30.5 36.833 40.5 61.5s15 53.334 15 86.001c0 33.333 -5 62.166 -15 86.499s-23.5 44.5 -40.5 60.5s-36.167 27.833 -57.5 35.5
s-43.666 11.5 -66.999 11.5c-22.667 0 -44.834 -3.83301 -66.501 -11.5s-40.834 -19.5 -57.501 -35.5s-30 -36.167 -40 -60.5s-15 -53.166 -15 -86.499zM428 715l45 -32.998c-10 -22.667 -23.667 -39.834 -41 -51.501s-36.333 -17.5 -57 -17.5c-24 0 -46.667 7.33301 -68 22
c-16 10 -30.667 15 -44 15c-23.333 0 -43.333 -13.333 -60 -40l-48 31c12.667 23.333 28 41.166 46 53.499s37.667 18.5 59 18.5c24.667 0 49.667 -8.66699 75 -26c12.667 -8.66699 24.667 -13 36 -13s21.833 3.83301 31.5 11.5s18.167 17.5 25.5 29.5z" />
    <glyph glyph-name="uni00F6" unicode="&#xf6;" horiz-adv-x="605" 
d="M560 253c0 -36.667 -6.33301 -71.167 -19 -103.5s-30.334 -60.5 -53.001 -84.5s-49.834 -42.833 -81.501 -56.5s-66.5 -20.5 -104.5 -20.5s-72.833 6.83301 -104.5 20.5s-58.667 32.5 -81 56.5s-39.833 52.167 -52.5 84.5s-19 66.833 -19 103.5
c0 37.333 6.33301 72 19 104s30.167 59.833 52.5 83.5s49.333 42.334 81 56.001s66.5 20.5 104.5 20.5s72.833 -6.83301 104.5 -20.5s58.834 -32.334 81.501 -56.001s40.334 -51.5 53.001 -83.5s19 -66.667 19 -104zM123 253c0 -32.667 5 -61.334 15 -86.001
s23.333 -45.167 40 -61.5s35.834 -28.5 57.501 -36.5s43.834 -12 66.501 -12c23.333 0 45.666 4 66.999 12s40.5 20.167 57.5 36.5s30.5 36.833 40.5 61.5s15 53.334 15 86.001c0 33.333 -5 62.166 -15 86.499s-23.5 44.5 -40.5 60.5s-36.167 27.833 -57.5 35.5
s-43.666 11.5 -66.999 11.5c-22.667 0 -44.834 -3.83301 -66.501 -11.5s-40.834 -19.5 -57.501 -35.5s-30 -36.167 -40 -60.5s-15 -53.166 -15 -86.499zM266 618h-89v87h89v-87zM439 618h-90v87h90v-87z" />
    <glyph glyph-name="uni00F7" unicode="&#xf7;" horiz-adv-x="615" 
d="M255 91h91v91h-91v-91zM255 482h90v91h-90v-91zM70 293h472v78h-472v-78z" />
    <glyph glyph-name="uni00F8" unicode="&#xf8;" horiz-adv-x="605" 
d="M560 253c0 -36.667 -6.33203 -71.168 -18.999 -103.501s-30.334 -60.5 -53.001 -84.5s-49.834 -42.833 -81.501 -56.5s-66.5 -20.5 -104.5 -20.5c-21.333 0 -41.5 2.33301 -60.5 7s-37.167 10.667 -54.5 18l-39 -63h-68l58 94c-29.333 24 -52.166 54.167 -68.499 90.5
s-24.5 75.833 -24.5 118.5c0 37.333 6.33301 72 19 104s30.167 59.833 52.5 83.5s49.333 42.334 81 56.001s66.5 20.5 104.5 20.5c41.333 0 79.333 -8.33301 114 -25l41 66h67l-60 -96c30 -24 53.5 -54 70.5 -90s25.5 -75.667 25.5 -119zM123.001 252.999
c0 -32.667 4.83301 -61.168 14.5 -85.501s22.834 -44.5 39.501 -60.5l201 324c-23.333 10.667 -48.666 16 -75.999 16c-22.667 0 -44.834 -3.83301 -66.501 -11.5s-40.834 -19.5 -57.501 -35.5s-30 -36.167 -40 -60.5s-15 -53.166 -15 -86.499zM482.001 252.998
c0 33.333 -4.99902 62.166 -14.999 86.499s-23.667 44.5 -41 60.5l-202 -327c23.333 -10.667 49.333 -16 78 -16c23.333 0 45.666 4 66.999 12s40.5 20.167 57.5 36.5s30.5 36.833 40.5 61.5s15 53.334 15 86.001z" />
    <glyph glyph-name="uni00F9" unicode="&#xf9;" horiz-adv-x="615" 
d="M534 0l-65.002 0.000976562l-11 52c-23.333 -20 -47.666 -34.833 -72.999 -44.5s-54 -14.5 -86 -14.5c-28.667 0 -56.5 4.83301 -83.5 14.5s-51 23.834 -72 42.501s-37.833 41.667 -50.5 69s-19 58.333 -19 93v294h78v-294c0.666992 -23.333 5.5 -44.333 14.5 -63
s21 -34.334 36 -47.001s32.333 -22.5 52 -29.5s40.834 -10.5 63.501 -10.5c26 0 51.333 5.16699 76 15.5s45.667 26.166 63 47.499v381h77v-506zM278.998 595.001l-84 115h93l65 -115h-74z" />
    <glyph glyph-name="uni00FA" unicode="&#xfa;" horiz-adv-x="615" 
d="M534 0l-65.002 0.000976562l-11 52c-23.333 -20 -47.666 -34.833 -72.999 -44.5s-54 -14.5 -86 -14.5c-28.667 0 -56.5 4.83301 -83.5 14.5s-51 23.834 -72 42.501s-37.833 41.667 -50.5 69s-19 58.333 -19 93v294h78v-294c0.666992 -23.333 5.5 -44.333 14.5 -63
s21 -34.334 36 -47.001s32.333 -22.5 52 -29.5s40.834 -10.5 63.501 -10.5c26 0 51.333 5.16699 76 15.5s45.667 26.166 63 47.499v381h77v-506zM410.998 707.001l-84 -115h-74l65 115h93z" />
    <glyph glyph-name="uni00FB" unicode="&#xfb;" horiz-adv-x="615" 
d="M534 0l-65.002 0.000976562l-11 52c-23.333 -20 -47.666 -34.833 -72.999 -44.5s-54 -14.5 -86 -14.5c-28.667 0 -56.5 4.83301 -83.5 14.5s-51 23.834 -72 42.501s-37.833 41.667 -50.5 69s-19 58.333 -19 93v294h78v-294c0.666992 -23.333 5.5 -44.333 14.5 -63
s21 -34.334 36 -47.001s32.333 -22.5 52 -29.5s40.834 -10.5 63.501 -10.5c26 0 51.333 5.16699 76 15.5s45.667 26.166 63 47.499v381h77v-506zM172.998 596.001l88 117h101l88 -117h-74l-64 81h-2l-63 -81h-74z" />
    <glyph glyph-name="uni00FC" unicode="&#xfc;" horiz-adv-x="615" 
d="M534 0l-65.002 0.000976562l-11 52c-23.333 -20 -47.666 -34.833 -72.999 -44.5s-54 -14.5 -86 -14.5c-28.667 0 -56.5 4.83301 -83.5 14.5s-51 23.834 -72 42.501s-37.833 41.667 -50.5 69s-19 58.333 -19 93v294h78v-294c0.666992 -23.333 5.5 -44.333 14.5 -63
s21 -34.334 36 -47.001s32.333 -22.5 52 -29.5s40.834 -10.5 63.501 -10.5c26 0 51.333 5.16699 76 15.5s45.667 26.166 63 47.499v381h77v-506zM259.998 620.001h-88v80h88v-80zM429.998 620.001h-89v80h89v-80z" />
    <glyph glyph-name="uni00FD" unicode="&#xfd;" horiz-adv-x="504" 
d="M89 -190l0.000976562 64.999c3.33301 -0.666992 6.66602 -1 9.99902 -1h10c23.333 0 40.666 4.83301 51.999 14.5s19.666 21.834 24.999 36.501l28 73l-207 509h84l164 -420l156 420h84l-235 -607c-13.333 -34.667 -32.666 -58.5 -57.999 -71.5s-53.333 -19.5 -84 -19.5
h-14.5c-4.33301 0 -9.16602 0.333008 -14.499 1zM369.001 702.999l-84 -115h-74l65 115h93z" />
    <glyph glyph-name="uni00FE" unicode="&#xfe;" horiz-adv-x="574" 
d="M81 -195l-0.000976562 894.001h75v-239c16 18.667 35.167 32.167 57.5 40.5s45.5 12.5 69.5 12.5c38.667 0 73 -6.33301 103 -19s55.333 -30.5 76 -53.5s36.334 -50.5 47.001 -82.5s16 -67.667 16 -107c0 -38 -6.5 -72.833 -19.5 -104.5s-30.5 -58.834 -52.5 -81.501
s-47.667 -40.167 -77 -52.5s-60 -18.5 -92 -18.5c-21.333 0 -43 2.5 -65 7.5s-43 14.167 -63 27.5v-224h-75zM450.999 254.001c0 27.333 -3.66699 52.333 -11 75s-18.333 42.5 -33 59.5s-32.834 30.167 -54.501 39.5s-46.5 14 -74.5 14
c-21.333 -0.666992 -42.5 -5.66699 -63.5 -15s-40.5 -22.666 -58.5 -39.999v-277c15.333 -16.667 31.833 -29.334 49.5 -38.001s37.834 -13 60.501 -13c29.333 0 55.5 4.83301 78.5 14.5s42.333 23 58 40s27.667 37.5 36 61.5s12.5 50.333 12.5 79z" />
    <glyph glyph-name="uni00FF" unicode="&#xff;" horiz-adv-x="504" 
d="M89 -190l0.000976562 64.999c3.33301 -0.666992 6.66602 -1 9.99902 -1h10c23.333 0 40.666 4.83301 51.999 14.5s19.666 21.834 24.999 36.501l28 73l-207 509h84l164 -420l156 420h84l-235 -607c-13.333 -34.667 -32.666 -58.5 -57.999 -71.5s-53.333 -19.5 -84 -19.5
h-14.5c-4.33301 0 -9.16602 0.333008 -14.499 1zM210.001 624.999h-91v78h91v-78zM385.001 624.999h-91v78h91v-78z" />
    <glyph glyph-name="uni0100" unicode="&#x100;" horiz-adv-x="632" 
d="M13 0h88l79 224h271l81 -224h87l-254 705h-101zM188 762h252v67h-252v-67zM205 300l110 318l109 -318h-219z" />
    <glyph glyph-name="uni0101" unicode="&#x101;" horiz-adv-x="556" 
d="M485 0h-61.0049l-11 45c-18 -17.333 -39.667 -30.166 -65 -38.499s-50.666 -12.833 -75.999 -13.5c-51.333 -0.666992 -93.833 7.5 -127.5 24.5s-58.834 38.333 -75.501 64s-24.667 53.5 -24 83.5s9.83398 57.833 27.501 83.5s43.834 47 78.501 64s78 25.167 130 24.5
c22.667 0 44.834 -3.16699 66.501 -9.5s42.5 -14.833 62.5 -25.5v10c0 25.333 -4 47 -12 65s-18.5 32.667 -31.5 44s-28.167 19.666 -45.5 24.999s-35.666 8 -54.999 8c-25.333 0 -51.166 -4.16699 -77.499 -12.5s-49.5 -19.833 -69.5 -34.5l-40 46
c26 22 55.667 38.667 89 50s67 17 101 17c28 0 55 -4.16699 81 -12.5s49 -21 69 -38s36 -38.5 48 -64.5s18 -57 18 -93v-312zM409.995 239c-18.667 12 -39.3359 20.4971 -62.0029 25.4971s-44.667 7.5 -66 7.5c-35.333 0 -65.166 -5.33301 -89.499 -16
s-42.666 -23.667 -54.999 -39s-18.833 -32.166 -19.5 -50.499s4.5 -35.166 15.5 -50.499s28.167 -28.166 51.5 -38.499s52.333 -15.5 87 -15.5c24.667 0 49.834 4.33301 75.501 13s46.5 22.667 62.5 42v122zM149.993 603.997v61h245v-61h-245z" />
    <glyph glyph-name="uni0102" unicode="&#x102;" horiz-adv-x="632" 
d="M13 0l251 705h101l254 -705h-87l-81 224h-271l-79 -224h-88zM205 300h219l-109 318zM313 748c-17.333 0 -34 2.5 -50 7.5s-30 12.333 -42 22s-21.667 21.834 -29 36.501s-11 31.667 -11 51h64c0 -20.667 7.5 -35.667 22.5 -45s30.167 -14 45.5 -14
c14.667 0 29.167 4.5 43.5 13.5s21.5 24.167 21.5 45.5h66c0 -19.333 -3.66699 -36.333 -11 -51s-17 -26.834 -29 -36.501s-25.833 -17 -41.5 -22s-32.167 -7.5 -49.5 -7.5z" />
    <glyph glyph-name="uni0103" unicode="&#x103;" horiz-adv-x="556" 
d="M485 0h-61.0049l-11 45c-18 -17.333 -39.667 -30.166 -65 -38.499s-50.666 -12.833 -75.999 -13.5c-51.333 -0.666992 -93.833 7.5 -127.5 24.5s-58.834 38.333 -75.501 64s-24.667 53.5 -24 83.5s9.83398 57.833 27.501 83.5s43.834 47 78.501 64s78 25.167 130 24.5
c22.667 0 44.834 -3.16699 66.501 -9.5s42.5 -14.833 62.5 -25.5v10c0 25.333 -4 47 -12 65s-18.5 32.667 -31.5 44s-28.167 19.666 -45.5 24.999s-35.666 8 -54.999 8c-25.333 0 -51.166 -4.16699 -77.499 -12.5s-49.5 -19.833 -69.5 -34.5l-40 46
c26 22 55.667 38.667 89 50s67 17 101 17c28 0 55 -4.16699 81 -12.5s49 -21 69 -38s36 -38.5 48 -64.5s18 -57 18 -93v-312zM409.995 239c-18.667 12 -39.3359 20.4971 -62.0029 25.4971s-44.667 7.5 -66 7.5c-35.333 0 -65.166 -5.33301 -89.499 -16
s-42.666 -23.667 -54.999 -39s-18.833 -32.166 -19.5 -50.499s4.5 -35.166 15.5 -50.499s28.167 -28.166 51.5 -38.499s52.333 -15.5 87 -15.5c24.667 0 49.834 4.33301 75.501 13s46.5 22.667 62.5 42v122zM274.993 567.997c-17.333 0 -34 2.5 -50 7.5s-30 12.333 -42 22
s-21.667 21.834 -29 36.501s-11 31.667 -11 51h64c0 -20.667 7.5 -35.667 22.5 -45s30.167 -14 45.5 -14c14.667 0 29.167 4.5 43.5 13.5s21.5 24.167 21.5 45.5h66c0 -19.333 -3.66699 -36.333 -11 -51s-17 -26.834 -29 -36.501s-25.833 -17 -41.5 -22
s-32.167 -7.5 -49.5 -7.5z" />
    <glyph glyph-name="uni0104" unicode="&#x104;" horiz-adv-x="635" 
d="M470 -116c-2 14 -0.832031 26.9951 3.50098 38.9951s10.166 22.833 17.499 32.5s15.666 18.334 24.999 26.001s18 13.834 26 18.501h-7l-81 224h-271l-79 -224h-88l251 705h101l254 -705c-15.333 -10 -29 -20.667 -41 -32c-11.333 -10 -21.166 -20.5 -29.499 -31.5
s-12.5 -22.167 -12.5 -33.5c0 -9.33301 3.66699 -17.166 11 -23.499s15.333 -11.5 24 -15.5c10 -4 21.667 -7.33301 35 -10l-24 -44c-12.667 0 -25.5 1 -38.5 3s-24.667 5.83301 -35 11.5s-19.333 13.334 -27 23.001s-12.5 21.834 -14.5 36.501zM208.001 299.995h219
l-109 318z" />
    <glyph glyph-name="uni0105" unicode="&#x105;" horiz-adv-x="557" 
d="M353 -112c-2 14.667 -0.835938 27.9961 3.49707 39.9961s10.166 22.833 17.499 32.5s15.666 17.667 24.999 24s17.333 11.5 24 15.5l-10 44c-18 -17.333 -39.667 -30.166 -65 -38.499s-50.666 -12.833 -75.999 -13.5c-51.333 -0.666992 -93.833 7.5 -127.5 24.5
s-58.834 38.333 -75.501 64s-24.667 53.5 -24 83.5s9.83398 57.833 27.501 83.5s43.834 47 78.501 64s78 25.167 130 24.5c22.667 0 44.834 -3.16699 66.501 -9.5s42.5 -14.833 62.5 -25.5v10c0 25.333 -4 47 -12 65s-18.5 32.667 -31.5 44s-28.167 19.666 -45.5 24.999
s-35.666 8 -54.999 8c-25.333 0 -51.166 -4.16699 -77.499 -12.5s-49.5 -19.833 -69.5 -34.5l-40 46c26 22 55.667 38.667 89 50s67 17 101 17c28 0 55 -4.16699 81 -12.5s49 -21 69 -38s36 -38.5 48 -64.5s18 -57 18 -93v-310h1l-1 -1v-1h-2c-2 -2 -6.33301 -6 -13 -12
s-13.5 -13.167 -20.5 -21.5s-13.333 -17.666 -19 -27.999s-8.5 -20.5 -8.5 -30.5c0 -9.33301 3.66699 -17.166 11 -23.499s15.333 -11.5 24 -15.5c10 -4 21.667 -7.33301 35 -10l-24 -44c-12.667 0 -25.5 1 -38.5 3s-24.667 5.83301 -35 11.5s-19.333 13.334 -27 23.001
s-12.5 21.834 -14.5 36.501zM409.997 237.996c-18.667 12 -39.3359 20.4971 -62.0029 25.4971s-44.667 7.5 -66 7.5c-35.333 0 -65.166 -5.33301 -89.499 -16s-42.666 -23.667 -54.999 -39s-18.833 -32.166 -19.5 -50.499s4.5 -35.166 15.5 -50.499
s28.167 -28.166 51.5 -38.499s52.333 -15.5 87 -15.5c24.667 0 49.834 4.33301 75.501 13s46.5 22.667 62.5 42v122z" />
    <glyph glyph-name="uni0106" unicode="&#x106;" horiz-adv-x="729" 
d="M664 607l-53.001 -54.999c-55.333 56.667 -122.333 85 -201 85c-44.667 -0.666992 -84.167 -9.33398 -118.5 -26.001s-63 -38.5 -86 -65.5s-40.333 -57.667 -52 -92s-17.5 -69.5 -17.5 -105.5s6 -71 18 -105s29.5 -64.167 52.5 -90.5s51.5 -47.666 85.5 -63.999
s73.333 -24.5 118 -24.5c41.333 0 81.166 8.83301 119.499 26.5s70.833 42.5 97.5 74.5l58 -48c-33.333 -40 -73.666 -71.5 -120.999 -94.5s-98.666 -34.5 -153.999 -34.5c-58 0 -109.333 10.167 -154 30.5s-82 47.333 -112 81s-52.667 72.167 -68 115.5
s-23 87.666 -23 132.999s7.66699 89.833 23 133.5s38 82.667 68 117s67.333 62 112 83s96 31.5 154 31.5c50 0 96.667 -9.33301 140 -28s81.333 -44.667 114 -78zM526.999 876.001l-84 -115h-74l65 115h93z" />
    <glyph glyph-name="uni0107" unicode="&#x107;" horiz-adv-x="526" 
d="M481 449l-43.001 -53c-18.667 17.333 -39.5 30.333 -62.5 39s-47.167 13 -72.5 13c-23.333 0 -45.833 -4.5 -67.5 -13.5s-40.667 -22.167 -57 -39.5s-29.666 -38 -39.999 -62s-15.5 -51 -15.5 -81c0 -23.333 3.83301 -46.333 11.5 -69s19 -43 34 -61
s33.833 -32.5 56.5 -43.5s49 -16.5 79 -16.5c25.333 0 50 5 74 15s45.333 23.667 64 41l44 -53c-23.333 -23.333 -50.5 -41.333 -81.5 -54s-64.5 -19 -100.5 -19c-42.667 0 -80.334 7.5 -113.001 22.5s-59.667 34.667 -81 59s-37.5 52.333 -48.5 84
s-16.5 63.834 -16.5 96.501c0 33.333 5.66699 65.666 17 96.999s27.833 59.5 49.5 84.5s48.667 45.167 81 60.5s69.5 23 111.5 23c36 0 68.333 -5.66699 97 -17s55.334 -29 80.001 -53zM409.999 702l-84 -115h-74l65 115h93z" />
    <glyph glyph-name="uni0108" unicode="&#x108;" horiz-adv-x="729" 
d="M664 607l-53.001 -54.999c-55.333 56.667 -122.333 85 -201 85c-44.667 -0.666992 -84.167 -9.33398 -118.5 -26.001s-63 -38.5 -86 -65.5s-40.333 -57.667 -52 -92s-17.5 -69.5 -17.5 -105.5s6 -71 18 -105s29.5 -64.167 52.5 -90.5s51.5 -47.666 85.5 -63.999
s73.333 -24.5 118 -24.5c41.333 0 81.166 8.83301 119.499 26.5s70.833 42.5 97.5 74.5l58 -48c-33.333 -40 -73.666 -71.5 -120.999 -94.5s-98.666 -34.5 -153.999 -34.5c-58 0 -109.333 10.167 -154 30.5s-82 47.333 -112 81s-52.667 72.167 -68 115.5
s-23 87.666 -23 132.999s7.66699 89.833 23 133.5s38 82.667 68 117s67.333 62 112 83s96 31.5 154 31.5c50 0 96.667 -9.33301 140 -28s81.333 -44.667 114 -78zM265.999 756.001l88 117h101l88 -117h-74l-64 81h-2l-63 -81h-74z" />
    <glyph glyph-name="uni0109" unicode="&#x109;" horiz-adv-x="525" 
d="M481 449l-43.001 -53c-18.667 17.333 -39.5 30.333 -62.5 39s-47.167 13 -72.5 13c-23.333 0 -45.833 -4.5 -67.5 -13.5s-40.667 -22.167 -57 -39.5s-29.666 -38 -39.999 -62s-15.5 -51 -15.5 -81c0 -23.333 3.83301 -46.333 11.5 -69s19 -43 34 -61
s33.833 -32.5 56.5 -43.5s49 -16.5 79 -16.5c25.333 0 50 5 74 15s45.333 23.667 64 41l44 -53c-23.333 -23.333 -50.5 -41.333 -81.5 -54s-64.5 -19 -100.5 -19c-42.667 0 -80.334 7.5 -113.001 22.5s-59.667 34.667 -81 59s-37.5 52.333 -48.5 84
s-16.5 63.834 -16.5 96.501c0 33.333 5.66699 65.666 17 96.999s27.833 59.5 49.5 84.5s48.667 45.167 81 60.5s69.5 23 111.5 23c36 0 68.333 -5.66699 97 -17s55.334 -29 80.001 -53zM161.999 579l88 117h101l88 -117h-74l-64 81h-2l-63 -81h-74z" />
    <glyph glyph-name="uni010A" unicode="&#x10a;" horiz-adv-x="729" 
d="M664 607l-53.001 -54.999c-55.333 56.667 -122.333 85 -201 85c-44.667 -0.666992 -84.167 -9.33398 -118.5 -26.001s-63 -38.5 -86 -65.5s-40.333 -57.667 -52 -92s-17.5 -69.5 -17.5 -105.5s6 -71 18 -105s29.5 -64.167 52.5 -90.5s51.5 -47.666 85.5 -63.999
s73.333 -24.5 118 -24.5c41.333 0 81.166 8.83301 119.499 26.5s70.833 42.5 97.5 74.5l58 -48c-33.333 -40 -73.666 -71.5 -120.999 -94.5s-98.666 -34.5 -153.999 -34.5c-58 0 -109.333 10.167 -154 30.5s-82 47.333 -112 81s-52.667 72.167 -68 115.5
s-23 87.666 -23 132.999s7.66699 89.833 23 133.5s38 82.667 68 117s67.333 62 112 83s96 31.5 154 31.5c50 0 96.667 -9.33301 140 -28s81.333 -44.667 114 -78zM360.999 784.001v88h87v-88h-87z" />
    <glyph glyph-name="uni010B" unicode="&#x10b;" horiz-adv-x="525" 
d="M481 449l-43.001 -53c-18.667 17.333 -39.5 30.333 -62.5 39s-47.167 13 -72.5 13c-23.333 0 -45.833 -4.5 -67.5 -13.5s-40.667 -22.167 -57 -39.5s-29.666 -38 -39.999 -62s-15.5 -51 -15.5 -81c0 -23.333 3.83301 -46.333 11.5 -69s19 -43 34 -61
s33.833 -32.5 56.5 -43.5s49 -16.5 79 -16.5c25.333 0 50 5 74 15s45.333 23.667 64 41l44 -53c-23.333 -23.333 -50.5 -41.333 -81.5 -54s-64.5 -19 -100.5 -19c-42.667 0 -80.334 7.5 -113.001 22.5s-59.667 34.667 -81 59s-37.5 52.333 -48.5 84
s-16.5 63.834 -16.5 96.501c0 33.333 5.66699 65.666 17 96.999s27.833 59.5 49.5 84.5s48.667 45.167 81 60.5s69.5 23 111.5 23c36 0 68.333 -5.66699 97 -17s55.334 -29 80.001 -53zM253.999 608v85h87v-85h-87z" />
    <glyph glyph-name="uni010C" unicode="&#x10c;" horiz-adv-x="729" 
d="M664 607l-53.001 -54.999c-55.333 56.667 -122.333 85 -201 85c-44.667 -0.666992 -84.167 -9.33398 -118.5 -26.001s-63 -38.5 -86 -65.5s-40.333 -57.667 -52 -92s-17.5 -69.5 -17.5 -105.5s6 -71 18 -105s29.5 -64.167 52.5 -90.5s51.5 -47.666 85.5 -63.999
s73.333 -24.5 118 -24.5c41.333 0 81.166 8.83301 119.499 26.5s70.833 42.5 97.5 74.5l58 -48c-33.333 -40 -73.666 -71.5 -120.999 -94.5s-98.666 -34.5 -153.999 -34.5c-58 0 -109.333 10.167 -154 30.5s-82 47.333 -112 81s-52.667 72.167 -68 115.5
s-23 87.666 -23 132.999s7.66699 89.833 23 133.5s38 82.667 68 117s67.333 62 112 83s96 31.5 154 31.5c50 0 96.667 -9.33301 140 -28s81.333 -44.667 114 -78zM542.999 874.001l-88 -120h-101l-88 120h74l64 -81h2l63 81h74z" />
    <glyph glyph-name="uni010D" unicode="&#x10d;" horiz-adv-x="525" 
d="M481 449l-43.001 -53c-18.667 17.333 -39.5 30.333 -62.5 39s-47.167 13 -72.5 13c-23.333 0 -45.833 -4.5 -67.5 -13.5s-40.667 -22.167 -57 -39.5s-29.666 -38 -39.999 -62s-15.5 -51 -15.5 -81c0 -23.333 3.83301 -46.333 11.5 -69s19 -43 34 -61
s33.833 -32.5 56.5 -43.5s49 -16.5 79 -16.5c25.333 0 50 5 74 15s45.333 23.667 64 41l44 -53c-23.333 -23.333 -50.5 -41.333 -81.5 -54s-64.5 -19 -100.5 -19c-42.667 0 -80.334 7.5 -113.001 22.5s-59.667 34.667 -81 59s-37.5 52.333 -48.5 84
s-16.5 63.834 -16.5 96.501c0 33.333 5.66699 65.666 17 96.999s27.833 59.5 49.5 84.5s48.667 45.167 81 60.5s69.5 23 111.5 23c36 0 68.333 -5.66699 97 -17s55.334 -29 80.001 -53zM434.999 698l-88 -120h-101l-88 120h74l64 -81h2l63 81h74z" />
    <glyph glyph-name="uni010E" unicode="&#x10e;" horiz-adv-x="726" 
d="M317 705c57.333 0.666992 107.668 -8.83203 151.001 -28.499s79.666 -45.667 108.999 -78s51.666 -69.333 66.999 -111s23.333 -84.5 24 -128.5c1.33301 -44.667 -5.16699 -88.5 -19.5 -131.5s-36.166 -81.333 -65.499 -115s-66 -60.834 -110 -81.501
s-95.667 -31 -155 -31h-217v705h216zM317.002 76.001h6.00098c45.333 0 84.666 8 117.999 24s61 37.333 83 64s38.333 56.834 49 90.501s15.334 68.167 14.001 103.5c-0.666992 34 -6.83398 67.333 -18.501 100s-28.667 61.667 -51 87s-50 45.666 -83 60.999
s-71.5 23 -115.5 23h-136v-553h134zM474.003 872.001l-88 -120h-101l-88 120h74l64 -81h2l63 81h74z" />
    <glyph glyph-name="uni010F" unicode="&#x10f;" horiz-adv-x="611" 
d="M309 513c17.333 0 36.001 -2.83301 56.001 -8.5s38 -14.5 54 -26.5v222h76v-700h-56l-14 52c-22 -24.667 -44.833 -40.5 -68.5 -47.5s-51.167 -10.5 -82.5 -10.5c-32.667 0 -62.834 7 -90.501 21s-51.167 32.833 -70.5 56.5s-34.5 51 -45.5 82s-16.5 63.5 -16.5 97.5
c0 38.667 5.83301 74 17.5 106s28.5 59.5 50.5 82.5s49 41 81 54s68.333 19.5 109 19.5zM286.001 61c3.33301 -0.666992 6.16699 -1 8.5 -1h8.5c24.667 0 46.5 6.16699 65.5 18.5s36.167 28.5 51.5 48.5v283c-36 20.667 -73.667 31 -113 31
c-23.333 0 -46 -3.83301 -68 -11.5s-41.5 -19.167 -58.5 -34.5s-30.5 -34.833 -40.5 -58.5s-15 -51.167 -15 -82.5c0 -54 13.833 -98.333 41.5 -133s67.5 -54.667 119.5 -60zM565.002 703h72.999c7.33301 -26.667 8.83301 -51.5 4.5 -74.5s-16.166 -46.5 -35.499 -70.5h-49
c9.33301 27.333 15.5 51.5 18.5 72.5s-0.833008 45.167 -11.5 72.5z" />
    <glyph glyph-name="uni0110" unicode="&#x110;" horiz-adv-x="730" 
d="M46 311l0.00195312 76.001h61v318h216c57.333 0.666992 107.666 -8.83301 150.999 -28.5s79.666 -45.667 108.999 -78s51.666 -69.333 66.999 -111s23.333 -84.5 24 -128.5c1.33301 -44.667 -5.16699 -88.5 -19.5 -131.5s-36.166 -81.333 -65.499 -115
s-66 -60.834 -110 -81.501s-95.667 -31 -155 -31h-217v311h-61zM323.002 76.001h6.00098c45.333 0 84.666 8 117.999 24s61 37.333 83 64s38.333 56.834 49 90.501s15.334 68.167 14.001 103.5c-0.666992 34 -6.83398 67.333 -18.501 100s-28.667 61.667 -51 87
s-50 45.666 -83 60.999s-71.5 23 -115.5 23h-136v-242h132v-76h-132v-235h134z" />
    <glyph glyph-name="uni0111" unicode="&#x111;" horiz-adv-x="579" 
d="M304 584l0.000976562 53h113v63h76v-63h72v-53h-72v-584h-56l-14 52c-22 -24.667 -44.833 -40.5 -68.5 -47.5s-51.167 -10.5 -82.5 -10.5c-32.667 0 -62.834 7 -90.501 21s-51.167 32.833 -70.5 56.5s-34.5 51 -45.5 82s-16.5 63.5 -16.5 97.5
c0 38.667 5.83301 74 17.5 106s28.5 59.5 50.5 82.5s49 41 81 54s68.333 19.5 109 19.5c17.333 0 36 -2.83301 56 -8.5s38 -14.5 54 -26.5v106h-113zM284.001 61c3.33301 -0.666992 6.16699 -1 8.5 -1h8.5c24.667 0 46.5 6.16699 65.5 18.5s36.167 28.5 51.5 48.5v283
c-36 20.667 -73.667 31 -113 31c-23.333 0 -46 -3.83301 -68 -11.5s-41.5 -19.167 -58.5 -34.5s-30.5 -34.833 -40.5 -58.5s-15 -51.167 -15 -82.5c0 -54 13.833 -98.333 41.5 -133s67.5 -54.667 119.5 -60z" />
    <glyph glyph-name="uni0112" unicode="&#x112;" horiz-adv-x="530" 
d="M476 704h-375v-703h375v78h-293l1 234h288v77h-288v237h292v77zM180 764h252v67h-252v-67z" />
    <glyph glyph-name="uni0113" unicode="&#x113;" horiz-adv-x="600" 
d="M304 60c28 0 55.001 5.83008 81.001 17.4971s47.667 29.167 65 52.5l63 -38c-25.333 -34.667 -56 -60.167 -92 -76.5s-75 -24.5 -117 -24.5c-42.667 0 -80.334 7.66699 -113.001 23s-59.667 35.333 -81 60s-37.333 52.834 -48 84.501s-16 63.834 -16 96.501
s5.5 64.834 16.5 96.501s27.333 60 49 85s48.5 45.167 80.5 60.5s69 23 111 23c40 0 76.5 -7.83301 109.5 -23.5s60.5 -37 82.5 -64s37.833 -58.5 47.5 -94.5s11.5 -74.333 5.5 -115h-426c1.33301 -21.333 6.33301 -41.833 15 -61.5s20.667 -37 36 -52s34 -27 56 -36
s47 -13.5 75 -13.5zM123.001 288.997h354c-2 23.333 -7.66699 44.833 -17 64.5s-21.5 36.667 -36.5 51s-32.667 25.5 -53 33.5s-42.5 12.333 -66.5 13c-27.333 0 -51.5 -4.66699 -72.5 -14s-39 -21.5 -54 -36.5s-27 -32.167 -36 -51.5s-15.167 -39.333 -18.5 -60z
M174.001 607.997v67h252v-67h-252z" />
    <glyph glyph-name="uni0114" unicode="&#x114;" horiz-adv-x="530" 
d="M476 704v-77h-292v-237h288v-77h-288l-1 -234h293v-78h-375v703h375zM297 748c-17.333 0 -34 2.5 -50 7.5s-30 12.333 -42 22s-21.667 21.834 -29 36.501s-11 31.667 -11 51h64c0 -20.667 7.5 -35.667 22.5 -45s30.167 -14 45.5 -14c14.667 0 29.167 4.5 43.5 13.5
s21.5 24.167 21.5 45.5h66c0 -19.333 -3.66699 -36.333 -11 -51s-17 -26.834 -29 -36.501s-25.833 -17 -41.5 -22s-32.167 -7.5 -49.5 -7.5z" />
    <glyph glyph-name="uni0115" unicode="&#x115;" horiz-adv-x="600" 
d="M304 60c28 0 55.001 5.83008 81.001 17.4971s47.667 29.167 65 52.5l63 -38c-25.333 -34.667 -56 -60.167 -92 -76.5s-75 -24.5 -117 -24.5c-42.667 0 -80.334 7.66699 -113.001 23s-59.667 35.333 -81 60s-37.333 52.834 -48 84.501s-16 63.834 -16 96.501
s5.5 64.834 16.5 96.501s27.333 60 49 85s48.5 45.167 80.5 60.5s69 23 111 23c40 0 76.5 -7.83301 109.5 -23.5s60.5 -37 82.5 -64s37.833 -58.5 47.5 -94.5s11.5 -74.333 5.5 -115h-426c1.33301 -21.333 6.33301 -41.833 15 -61.5s20.667 -37 36 -52s34 -27 56 -36
s47 -13.5 75 -13.5zM123.001 288.997h354c-2 23.333 -7.66699 44.833 -17 64.5s-21.5 36.667 -36.5 51s-32.667 25.5 -53 33.5s-42.5 12.333 -66.5 13c-27.333 0 -51.5 -4.66699 -72.5 -14s-39 -21.5 -54 -36.5s-27 -32.167 -36 -51.5s-15.167 -39.333 -18.5 -60z
M302.001 577.997c-17.333 0 -34 2.5 -50 7.5s-30 12.333 -42 22s-21.667 21.834 -29 36.501s-11 31.667 -11 51h64c0 -20.667 7.5 -35.667 22.5 -45s30.167 -14 45.5 -14c14.667 0 29.167 4.5 43.5 13.5s21.5 24.167 21.5 45.5h66c0 -19.333 -3.66699 -36.333 -11 -51
s-17 -26.834 -29 -36.501s-25.833 -17 -41.5 -22s-32.167 -7.5 -49.5 -7.5z" />
    <glyph glyph-name="uni0116" unicode="&#x116;" horiz-adv-x="530" 
d="M476 704h-375v-703h375v78h-293l1 234h288v77h-288v237h292v77zM253 771h87v88h-87v-88z" />
    <glyph glyph-name="uni0117" unicode="&#x117;" horiz-adv-x="600" 
d="M304 60c28 0 55.001 5.83008 81.001 17.4971s47.667 29.167 65 52.5l63 -38c-25.333 -34.667 -56 -60.167 -92 -76.5s-75 -24.5 -117 -24.5c-42.667 0 -80.334 7.66699 -113.001 23s-59.667 35.333 -81 60s-37.333 52.834 -48 84.501s-16 63.834 -16 96.501
s5.5 64.834 16.5 96.501s27.333 60 49 85s48.5 45.167 80.5 60.5s69 23 111 23c40 0 76.5 -7.83301 109.5 -23.5s60.5 -37 82.5 -64s37.833 -58.5 47.5 -94.5s11.5 -74.333 5.5 -115h-426c1.33301 -21.333 6.33301 -41.833 15 -61.5s20.667 -37 36 -52s34 -27 56 -36
s47 -13.5 75 -13.5zM123.001 288.997h354c-2 23.333 -7.66699 44.833 -17 64.5s-21.5 36.667 -36.5 51s-32.667 25.5 -53 33.5s-42.5 12.333 -66.5 13c-27.333 0 -51.5 -4.66699 -72.5 -14s-39 -21.5 -54 -36.5s-27 -32.167 -36 -51.5s-15.167 -39.333 -18.5 -60z
M258.001 601.997v81h87v-81h-87z" />
    <glyph glyph-name="uni0118" unicode="&#x118;" horiz-adv-x="530" 
d="M476 704v-76.998h-292v-237h288v-77h-288l-1 -234h293v-78h-2c-6 -4 -13 -9.16699 -21 -15.5s-15.5 -13.333 -22.5 -21s-13 -15.834 -18 -24.501s-7.5 -17.334 -7.5 -26.001c0 -9.33301 3.66699 -17.166 11 -23.499s15.333 -11.5 24 -15.5c10 -4 21.667 -7.33301 35 -10
l-24 -44c-12.667 0 -25.667 1 -39 3s-25.5 5.66699 -36.5 11s-20.5 12.833 -28.5 22.5s-13 22.167 -15 37.5c-2 12 -1.16699 23.167 2.5 33.5s8.66699 20 15 29s13.5 17.167 21.5 24.5s15.667 13.666 23 18.999h-293v703h375z" />
    <glyph glyph-name="uni0119" unicode="&#x119;" horiz-adv-x="600" 
d="M305 -76c-2.66699 14 -1.16211 26.6641 4.50488 37.9971s13.167 21.666 22.5 30.999c-4.66699 -0.666992 -9.33398 -1.16699 -14.001 -1.5s-9.33398 -0.5 -14.001 -0.5c-42.667 0 -80.334 7.66699 -113.001 23s-59.667 35.333 -81 60s-37.333 52.834 -48 84.501
s-16 63.834 -16 96.501s5.5 64.834 16.5 96.501s27.333 60 49 85s48.5 45.167 80.5 60.5s69 23 111 23c40 0 76.5 -7.83301 109.5 -23.5s60.5 -37 82.5 -64s37.833 -58.5 47.5 -94.5s11.5 -74.333 5.5 -115h-426c1.33301 -21.333 6.33301 -41.833 15 -61.5
s20.667 -37 36 -52s34 -27 56 -36s47 -13.5 75 -13.5s55 5.83301 81 17.5s47.667 29.167 65 52.5l63 -38c-8 -10.667 -18.5 -22 -31.5 -34s-25.167 -21.667 -36.5 -29l-20.5 -16.5c-7.66699 -6.33301 -14.834 -13.333 -21.501 -21s-12.334 -15.667 -17.001 -24
s-7 -16.5 -7 -24.5c0 -9.33301 3.66699 -17.166 11 -23.499s15.333 -11.5 24 -15.5c10 -4 21.667 -7.33301 35 -10l-24 -44c-12.667 0 -25.5 1.16699 -38.5 3.5s-25.167 6.33301 -36.5 12s-21 13.167 -29 22.5s-13.333 21.333 -16 36zM123.005 288.997h354
c-2 23.333 -7.66699 44.833 -17 64.5s-21.5 36.667 -36.5 51s-32.667 25.5 -53 33.5s-42.5 12.333 -66.5 13c-27.333 0 -51.5 -4.66699 -72.5 -14s-39 -21.5 -54 -36.5s-27 -32.167 -36 -51.5s-15.167 -39.333 -18.5 -60z" />
    <glyph glyph-name="uni011A" unicode="&#x11a;" horiz-adv-x="530" 
d="M476 704h-375v-703h375v78h-293l1 234h288v77h-288v237h292v77zM442 874h-74l-63 -81h-2l-64 81h-74l88 -120h101z" />
    <glyph glyph-name="uni011B" unicode="&#x11b;" horiz-adv-x="600" 
d="M304 60c28 0 55.001 5.83008 81.001 17.4971s47.667 29.167 65 52.5l63 -38c-25.333 -34.667 -56 -60.167 -92 -76.5s-75 -24.5 -117 -24.5c-42.667 0 -80.334 7.66699 -113.001 23s-59.667 35.333 -81 60s-37.333 52.834 -48 84.501s-16 63.834 -16 96.501
s5.5 64.834 16.5 96.501s27.333 60 49 85s48.5 45.167 80.5 60.5s69 23 111 23c40 0 76.5 -7.83301 109.5 -23.5s60.5 -37 82.5 -64s37.833 -58.5 47.5 -94.5s11.5 -74.333 5.5 -115h-426c1.33301 -21.333 6.33301 -41.833 15 -61.5s20.667 -37 36 -52s34 -27 56 -36
s47 -13.5 75 -13.5zM123.001 288.997h354c-2 23.333 -7.66699 44.833 -17 64.5s-21.5 36.667 -36.5 51s-32.667 25.5 -53 33.5s-42.5 12.333 -66.5 13c-27.333 0 -51.5 -4.66699 -72.5 -14s-39 -21.5 -54 -36.5s-27 -32.167 -36 -51.5s-15.167 -39.333 -18.5 -60z
M433.001 697.997l-88 -120h-101l-88 120h74l64 -81h2l63 81h74z" />
    <glyph glyph-name="uni011C" unicode="&#x11c;" horiz-adv-x="822" 
d="M411 713c55.333 0 106.666 -11.333 153.999 -34s87.333 -53.667 120 -93l-58 -49c-26 31.333 -58.167 55.833 -96.5 73.5s-78.166 26.5 -119.499 26.5c-44.667 0 -84 -8.5 -118 -25.5s-62.667 -39 -86 -66s-41 -57.667 -53 -92s-18 -69.166 -18 -104.499s6 -70 18 -104
s29.667 -64.5 53 -91.5s52 -48.833 86 -65.5s73.333 -25 118 -25c30 0 60 5.16699 90 15.5s57.333 25 82 44s45.167 41.667 61.5 68s26.166 55.833 29.499 88.5h-313v76h404c0 -50.667 -8.5 -98.334 -25.5 -143.001s-41 -83.667 -72 -117s-68.167 -59.666 -111.5 -78.999
s-91.666 -29 -144.999 -29c-58 0 -109.167 10.333 -153.5 31s-81.5 48 -111.5 82s-52.833 72.667 -68.5 116s-23.5 87.666 -23.5 132.999s7.66699 89.833 23 133.5s38 82.5 68 116.5s67.333 61.5 112 82.5s96 31.5 154 31.5zM266 756l88 117h101l88 -117h-74l-64 81h-2
l-63 -81h-74z" />
    <glyph glyph-name="uni011D" unicode="&#x11d;" horiz-adv-x="576" 
d="M309 512c17.333 0 36.666 -3.5 57.999 -10.5s38.666 -18.833 51.999 -35.5l14 41h62v-502c0 -36.667 -6 -68.334 -18 -95.001s-28.167 -48.667 -48.5 -66s-43.5 -30.166 -69.5 -38.499s-53 -12.5 -81 -12.5c-40 0 -79.333 8 -118 24s-70.667 39.333 -96 70l43 50
c19.333 -22 45 -40 77 -54s64.333 -21 97 -21c18 0 35.5 2.66699 52.5 8s31.833 13.666 44.5 24.999s22.834 26 30.501 44s11.5 40 11.5 66v39c-21.333 -21.333 -43.666 -35.166 -66.999 -41.499s-49.666 -9.5 -78.999 -9.5c-32.667 0 -62.834 7 -90.501 21
s-51.167 32.833 -70.5 56.5s-34.5 51 -45.5 82s-16.5 63.5 -16.5 97.5c0 38.667 5.83301 74 17.5 106s28.5 59.5 50.5 82.5s49 41 81 54s68.333 19.5 109 19.5zM286 60c3.33301 -0.666992 6.16699 -1.00098 8.5 -1.00098h8.5c24.667 0 46.5 6.16699 65.5 18.5
s36.167 28.5 51.5 48.5v269c-19.333 17.333 -38.333 29 -57 35s-37.667 9 -57 9c-23.333 0 -45.833 -3.66699 -67.5 -11s-41 -18.833 -58 -34.5s-30.5 -35.167 -40.5 -58.5s-15 -50.666 -15 -81.999c0 -54 13.833 -98.333 41.5 -133s67.5 -54.667 119.5 -60z
M152.001 583.999l88 117h101l88 -117h-74l-64 81h-2l-63 -81h-74z" />
    <glyph glyph-name="uni011E" unicode="&#x11e;" horiz-adv-x="822" 
d="M411 713c55.333 0 106.666 -11.333 153.999 -34s87.333 -53.667 120 -93l-58 -49c-26 31.333 -58.167 55.833 -96.5 73.5s-78.166 26.5 -119.499 26.5c-44.667 0 -84 -8.5 -118 -25.5s-62.667 -39 -86 -66s-41 -57.667 -53 -92s-18 -69.166 -18 -104.499s6 -70 18 -104
s29.667 -64.5 53 -91.5s52 -48.833 86 -65.5s73.333 -25 118 -25c30 0 60 5.16699 90 15.5s57.333 25 82 44s45.167 41.667 61.5 68s26.166 55.833 29.499 88.5h-313v76h404c0 -50.667 -8.5 -98.334 -25.5 -143.001s-41 -83.667 -72 -117s-68.167 -59.666 -111.5 -78.999
s-91.666 -29 -144.999 -29c-58 0 -109.167 10.333 -153.5 31s-81.5 48 -111.5 82s-52.833 72.667 -68.5 116s-23.5 87.666 -23.5 132.999s7.66699 89.833 23 133.5s38 82.5 68 116.5s67.333 61.5 112 82.5s96 31.5 154 31.5zM407 750c-17.333 0 -34 2.5 -50 7.5
s-30 12.333 -42 22s-21.667 21.834 -29 36.501s-11 31.667 -11 51h64c0 -20.667 7.5 -35.667 22.5 -45s30.167 -14 45.5 -14c14.667 0 29.167 4.5 43.5 13.5s21.5 24.167 21.5 45.5h66c0 -19.333 -3.66699 -36.333 -11 -51s-17 -26.834 -29 -36.501s-25.833 -17 -41.5 -22
s-32.167 -7.5 -49.5 -7.5z" />
    <glyph glyph-name="uni011F" unicode="&#x11f;" horiz-adv-x="577" 
d="M310 512c17.333 0 36.666 -3.5 57.999 -10.5s38.666 -18.833 51.999 -35.5l14 41h62v-502c0 -36.667 -6 -68.334 -18 -95.001s-28.167 -48.667 -48.5 -66s-43.5 -30.166 -69.5 -38.499s-53 -12.5 -81 -12.5c-40 0 -79.333 8 -118 24s-70.667 39.333 -96 70l43 50
c19.333 -22 45 -40 77 -54s64.333 -21 97 -21c18 0 35.5 2.66699 52.5 8s31.833 13.666 44.5 24.999s22.834 26 30.501 44s11.5 40 11.5 66v39c-21.333 -21.333 -43.666 -35.166 -66.999 -41.499s-49.666 -9.5 -78.999 -9.5c-32.667 0 -62.834 7 -90.501 21
s-51.167 32.833 -70.5 56.5s-34.5 51 -45.5 82s-16.5 63.5 -16.5 97.5c0 38.667 5.83301 74 17.5 106s28.5 59.5 50.5 82.5s49 41 81 54s68.333 19.5 109 19.5zM287 60c3.33301 -0.666992 6.16699 -1.00098 8.5 -1.00098h8.5c24.667 0 46.5 6.16699 65.5 18.5
s36.167 28.5 51.5 48.5v269c-19.333 17.333 -38.333 29 -57 35s-37.667 9 -57 9c-23.333 0 -45.833 -3.66699 -67.5 -11s-41 -18.833 -58 -34.5s-30.5 -35.167 -40.5 -58.5s-15 -50.666 -15 -81.999c0 -54 13.833 -98.333 41.5 -133s67.5 -54.667 119.5 -60z
M299.001 579.999c-17.333 0 -33.834 2.33301 -49.501 7s-29.5 11.667 -41.5 21s-21.5 21.166 -28.5 35.499s-10.5 31.166 -10.5 50.499h62c0 -21.333 7.5 -36.833 22.5 -46.5s30.167 -14.5 45.5 -14.5c14.667 0 29.167 4.83301 43.5 14.5s21.5 25.167 21.5 46.5h63
c0 -19.333 -3.5 -36.166 -10.5 -50.499s-16.333 -26.166 -28 -35.499s-25.167 -16.333 -40.5 -21s-31.666 -7 -48.999 -7z" />
    <glyph glyph-name="uni0120" unicode="&#x120;" horiz-adv-x="822" 
d="M411 713c55.333 0 106.666 -11.333 153.999 -34s87.333 -53.667 120 -93l-58 -49c-26 31.333 -58.167 55.833 -96.5 73.5s-78.166 26.5 -119.499 26.5c-44.667 0 -84 -8.5 -118 -25.5s-62.667 -39 -86 -66s-41 -57.667 -53 -92s-18 -69.166 -18 -104.499s6 -70 18 -104
s29.667 -64.5 53 -91.5s52 -48.833 86 -65.5s73.333 -25 118 -25c30 0 60 5.16699 90 15.5s57.333 25 82 44s45.167 41.667 61.5 68s26.166 55.833 29.499 88.5h-313v76h404c0 -50.667 -8.5 -98.334 -25.5 -143.001s-41 -83.667 -72 -117s-68.167 -59.666 -111.5 -78.999
s-91.666 -29 -144.999 -29c-58 0 -109.167 10.333 -153.5 31s-81.5 48 -111.5 82s-52.833 72.667 -68.5 116s-23.5 87.666 -23.5 132.999s7.66699 89.833 23 133.5s38 82.5 68 116.5s67.333 61.5 112 82.5s96 31.5 154 31.5zM360 784v90h87v-90h-87z" />
    <glyph glyph-name="uni0121" unicode="&#x121;" horiz-adv-x="577" 
d="M309 512c17.333 0 36.666 -3.5 57.999 -10.5s38.666 -18.833 51.999 -35.5l14 41h62v-502c0 -36.667 -6 -68.334 -18 -95.001s-28.167 -48.667 -48.5 -66s-43.5 -30.166 -69.5 -38.499s-53 -12.5 -81 -12.5c-40 0 -79.333 8 -118 24s-70.667 39.333 -96 70l43 50
c19.333 -22 45 -40 77 -54s64.333 -21 97 -21c18 0 35.5 2.66699 52.5 8s31.833 13.666 44.5 24.999s22.834 26 30.501 44s11.5 40 11.5 66v39c-21.333 -21.333 -43.666 -35.166 -66.999 -41.499s-49.666 -9.5 -78.999 -9.5c-32.667 0 -62.834 7 -90.501 21
s-51.167 32.833 -70.5 56.5s-34.5 51 -45.5 82s-16.5 63.5 -16.5 97.5c0 38.667 5.83301 74 17.5 106s28.5 59.5 50.5 82.5s49 41 81 54s68.333 19.5 109 19.5zM286 60c3.33301 -0.666992 6.16699 -1.00098 8.5 -1.00098h8.5c24.667 0 46.5 6.16699 65.5 18.5
s36.167 28.5 51.5 48.5v269c-19.333 17.333 -38.333 29 -57 35s-37.667 9 -57 9c-23.333 0 -45.833 -3.66699 -67.5 -11s-41 -18.833 -58 -34.5s-30.5 -35.167 -40.5 -58.5s-15 -50.666 -15 -81.999c0 -54 13.833 -98.333 41.5 -133s67.5 -54.667 119.5 -60z
M259.001 607.999v89h87v-89h-87z" />
    <glyph glyph-name="uni0122" unicode="&#x122;" horiz-adv-x="822" 
d="M411 713c55.333 0 106.666 -11.333 153.999 -34s87.333 -53.667 120 -93l-58 -49c-26 31.333 -58.167 55.833 -96.5 73.5s-78.166 26.5 -119.499 26.5c-44.667 0 -84 -8.5 -118 -25.5s-62.667 -39 -86 -66s-41 -57.667 -53 -92s-18 -69.166 -18 -104.499s6 -70 18 -104
s29.667 -64.5 53 -91.5s52 -48.833 86 -65.5s73.333 -25 118 -25c30 0 60 5.16699 90 15.5s57.333 25 82 44s45.167 41.667 61.5 68s26.166 55.833 29.499 88.5h-313v76h404c0 -50.667 -8.5 -98.334 -25.5 -143.001s-41 -83.667 -72 -117s-68.167 -59.666 -111.5 -78.999
s-91.666 -29 -144.999 -29c-58 0 -109.167 10.333 -153.5 31s-81.5 48 -111.5 82s-52.833 72.667 -68.5 116s-23.5 87.666 -23.5 132.999s7.66699 89.833 23 133.5s38 82.5 68 116.5s67.333 61.5 112 82.5s96 31.5 154 31.5zM357 -59l85 -0.00195312
c7.33301 -25.333 9.5 -50.666 6.5 -75.999s-13.5 -48.666 -31.5 -69.999l-67 1c9.33301 27.333 15.5 51.5 18.5 72.5s-0.833008 45.167 -11.5 72.5z" />
    <glyph glyph-name="uni0123" unicode="&#x123;" horiz-adv-x="577" 
d="M310 512c17.333 0 36.666 -3.5 57.999 -10.5s38.666 -18.833 51.999 -35.5l14 41h62v-502c0 -36.667 -6 -68.334 -18 -95.001s-28.167 -48.667 -48.5 -66s-43.5 -30.166 -69.5 -38.499s-53 -12.5 -81 -12.5c-40 0 -79.333 8 -118 24s-70.667 39.333 -96 70l43 50
c19.333 -22 45 -40 77 -54s64.333 -21 97 -21c18 0 35.5 2.66699 52.5 8s31.833 13.666 44.5 24.999s22.834 26 30.501 44s11.5 40 11.5 66v39c-21.333 -21.333 -43.666 -35.166 -66.999 -41.499s-49.666 -9.5 -78.999 -9.5c-32.667 0 -62.834 7 -90.501 21
s-51.167 32.833 -70.5 56.5s-34.5 51 -45.5 82s-16.5 63.5 -16.5 97.5c0 38.667 5.83301 74 17.5 106s28.5 59.5 50.5 82.5s49 41 81 54s68.333 19.5 109 19.5zM287 60c3.33301 -0.666992 6.16699 -1.00098 8.5 -1.00098h8.5c24.667 0 46.5 6.16699 65.5 18.5
s36.167 28.5 51.5 48.5v269c-19.333 17.333 -38.333 29 -57 35s-37.667 9 -57 9c-23.333 0 -45.833 -3.66699 -67.5 -11s-41 -18.833 -58 -34.5s-30.5 -35.167 -40.5 -58.5s-15 -50.666 -15 -81.999c0 -54 13.833 -98.333 41.5 -133s67.5 -54.667 119.5 -60z
M348.001 564.999h-84.002c-7.33301 26.667 -9.16602 50.5 -5.49902 71.5s11.5 44.167 23.5 69.5h69c-9.33301 -25.333 -14.666 -49 -15.999 -71s3 -45.333 13 -70z" />
    <glyph glyph-name="uni0124" unicode="&#x124;" horiz-adv-x="688" 
d="M505 0h83v703h-83v-317h-321v317h-83v-703h83v312h321v-312zM205 756h74l63 81h2l64 -81h74l-88 117h-101z" />
    <glyph glyph-name="uni0125" unicode="&#x125;" horiz-adv-x="607" 
d="M81 701l77.999 -0.000976562v-229c15.333 13.333 33.5 23.666 54.5 30.999s46.5 11.333 76.5 12c34 -0.666992 65.833 -6.16699 95.5 -16.5s55.334 -25.166 77.001 -44.499s38.667 -43.166 51 -71.499s18.5 -61.166 18.5 -98.499v-284h-78v284
c0 24 -4.16699 45.667 -12.5 65s-19.833 35.666 -34.5 48.999s-31.667 24 -51 32s-40.333 12.667 -63 14c-25.333 0 -49 -2.66699 -71 -8s-43.333 -15.333 -64 -30v-406h-77v701zM-16.001 751.999l88 117h101l88 -117h-74l-64 81h-2l-63 -81h-74z" />
    <glyph glyph-name="uni0126" unicode="&#x126;" horiz-adv-x="688" 
d="M42 518h59v-518h83v312h321v-312h83v518h61v64h-61v121h-83v-121h-321v121h-83v-121h-59v-64zM184 386v132h321v-132h-321z" />
    <glyph glyph-name="uni0127" unicode="&#x127;" horiz-adv-x="597" 
d="M11 576l-0.000976562 54.999h70v70h78v-70h124v-55h-124v-104c15.333 13.333 33.5 23.666 54.5 30.999s46.5 11.333 76.5 12c34 -0.666992 65.833 -6.16699 95.5 -16.5s55.334 -25.166 77.001 -44.499s38.667 -43.166 51 -71.499s18.5 -61.166 18.5 -98.499v-284h-78v284
c0 24 -4.16699 45.667 -12.5 65s-19.833 35.666 -34.5 48.999s-31.667 24 -51 32s-40.333 12.667 -63 14c-25.333 0 -49 -2.66699 -71 -8s-43.333 -15.333 -64 -30v-406h-77v576h-70z" />
    <glyph glyph-name="uni0128" unicode="&#x128;" horiz-adv-x="283" 
d="M101 0v703h82v-703h-82zM253 851l41.998 -31c-9.33301 -21.333 -22.166 -37.333 -38.499 -48s-34.166 -16 -53.499 -16c-21.333 0 -42.333 6.66699 -63 20c-14 9.33301 -28 14 -42 14c-20.667 0 -39.334 -12.333 -56.001 -37l-44 29c11.333 22 25.5 38.667 42.5 50
s35.167 17 54.5 17c23.333 0 47 -8 71 -24c12 -8 23.333 -12 34 -12s20.334 3.5 29.001 10.5s16.667 16.167 24 27.5z" />
    <glyph glyph-name="uni0129" unicode="&#x129;" horiz-adv-x="240" 
d="M160 0h-79v511h79v-511zM228 692l41.998 -31c-9.33301 -21.333 -22.166 -37.333 -38.499 -48s-34.166 -16 -53.499 -16c-21.333 0 -42.333 6.66699 -63 20c-14 9.33301 -28 14 -42 14c-20.667 0 -39.334 -12.333 -56.001 -37l-44 29c11.333 22 25.5 38.667 42.5 50
s35.167 17 54.5 17c23.333 0 47 -8 71 -24c12 -8 23.333 -12 34 -12s20.334 3.5 29.001 10.5s16.667 16.167 24 27.5z" />
    <glyph glyph-name="uni012A" unicode="&#x12a;" horiz-adv-x="283" 
d="M101 0h82v703h-82v-703zM21 784h255v64h-255v-64z" />
    <glyph glyph-name="uni012B" unicode="&#x12b;" horiz-adv-x="240" 
d="M160 0v512h-79v-512h79zM3 614h255v64h-255v-64z" />
    <glyph glyph-name="uni012C" unicode="&#x12c;" horiz-adv-x="283" 
d="M101 0v703h82v-703h-82zM143 752c-17.333 0 -34 2.5 -50 7.5s-30 12.333 -42 22s-21.667 21.834 -29 36.501s-11 31.667 -11 51h64c0 -20.667 7.5 -35.667 22.5 -45s30.167 -14 45.5 -14c14.667 0 29.167 4.5 43.5 13.5s21.5 24.167 21.5 45.5h66
c0 -19.333 -3.66699 -36.333 -11 -51s-17 -26.834 -29 -36.501s-25.833 -17 -41.5 -22s-32.167 -7.5 -49.5 -7.5z" />
    <glyph glyph-name="uni012D" unicode="&#x12d;" horiz-adv-x="240" 
d="M160 0h-79v512h79v-512zM123 575c-17.333 0 -34 2.5 -50 7.5s-30 12.333 -42 22s-21.667 21.834 -29 36.501s-11 31.667 -11 51h64c0 -20.667 7.5 -35.667 22.5 -45s30.167 -14 45.5 -14c14.667 0 29.167 4.5 43.5 13.5s21.5 24.167 21.5 45.5h66
c0 -19.333 -3.66699 -36.333 -11 -51s-17 -26.834 -29 -36.501s-25.833 -17 -41.5 -22s-32.167 -7.5 -49.5 -7.5z" />
    <glyph glyph-name="uni012E" unicode="&#x12e;" horiz-adv-x="285" 
d="M101 0l0.000976562 703h82v-703l-21 -18c-8 -6.66699 -15.333 -14 -22 -22s-12.334 -16 -17.001 -24s-7 -15.667 -7 -23c0 -9.33301 3.66699 -17.166 11 -23.499s15.333 -11.5 24 -15.5c10 -4 21.667 -7.33301 35 -10l-24 -44c-12.667 0 -25.667 1 -39 3
s-25.5 5.66699 -36.5 11s-20.333 12.833 -28 22.5s-12.5 22.167 -14.5 37.5c-2 12 -1.33301 23.167 2 33.5s8 20 14 29s12.833 17.167 20.5 24.5s15.5 13.666 23.5 18.999h-3z" />
    <glyph glyph-name="uni012F" unicode="&#x12f;" horiz-adv-x="240" 
d="M37 -106c-3.33301 23.333 0.832031 43.999 12.499 61.999s24.167 32.667 37.5 44h-6v512h79l-1 -513c-12.667 -10 -24.5 -23.167 -35.5 -39.5s-16.5 -31.833 -16.5 -46.5c0 -9.33301 2.83301 -17.166 8.5 -23.499s12.167 -11.5 19.5 -15.5c8 -4 17.333 -7.33301 28 -10
l-24 -44c-25.333 0 -47.666 5.33301 -66.999 16s-31 30 -35 58zM79.998 606.999v99h86v-99h-86z" />
    <glyph glyph-name="uni0130" unicode="&#x130;" horiz-adv-x="283" 
d="M101 0h82v703h-82v-703zM98 774h87v98h-87v-98z" />
    <glyph glyph-name="uni0131" unicode="&#x131;" horiz-adv-x="240" 
d="M160 0v512h-79v-512h79z" />
    <glyph glyph-name="uni0132" unicode="&#x132;" horiz-adv-x="603" 
d="M100 0v703h82v-703h-82zM267 -14l0.000976562 78.9971c23.333 0 44.833 1.83301 64.5 5.5s36.5 10.334 50.5 20.001s25 23 33 40s12 38.833 12 65.5v426h-132v78h215v-504c0 -36 -6 -67.167 -18 -93.5s-28.833 -48.166 -50.5 -65.499s-47.334 -30.166 -77.001 -38.499
s-62.167 -12.5 -97.5 -12.5z" />
    <glyph glyph-name="uni0133" unicode="&#x133;" horiz-adv-x="509" 
d="M164 0h-79v512h79v-512zM230 -198l0.000976562 68.999c14 0 27.333 1.16699 40 3.5s23.667 6.5 33 12.5s16.666 14.333 21.999 25s8 24.334 8 41.001v559h79v-559c0 -51.333 -14.833 -89.5 -44.5 -114.5s-67.167 -37.5 -112.5 -37.5h-12c-4 0 -8.33301 0.333008 -13 1z
M84.001 606.999v99h84v-99h-84zM416.001 606.999h-86v98h86v-98z" />
    <glyph glyph-name="uni0134" unicode="&#x134;" horiz-adv-x="545" 
d="M34 166l76.002 15.999c4 -19.333 10.667 -36.333 20 -51s20.333 -27 33 -37s26.667 -17.5 42 -22.5s30.666 -7.5 45.999 -7.5c16 0 31.5 2.83301 46.5 8.5s28.333 14 40 25s21 24.667 28 41s10.5 35.5 10.5 57.5v426h-132v78h215v-504
c0 -34.667 -5.83301 -65.167 -17.5 -91.5s-27.167 -48.166 -46.5 -65.499s-41.5 -30.5 -66.5 -39.5s-50.5 -13.5 -76.5 -13.5c-24 0 -47.667 3.66699 -71 11s-44.833 18.5 -64.5 33.5s-36.834 33.833 -51.501 56.5s-25 49 -31 79zM179.002 751.999l88 117h101l88 -117h-74
l-64 81h-2l-63 -81h-74z" />
    <glyph glyph-name="uni0135" unicode="&#x135;" horiz-adv-x="240" 
d="M-22 -198l0.000976562 68.999c14 0 27.333 1.16699 40 3.5s23.667 6.5 33 12.5s16.666 14.333 21.999 25s8 24.334 8 41.001v559h79v-559c0 -51.333 -14.833 -89.5 -44.5 -114.5s-67.167 -37.5 -112.5 -37.5h-12c-4 0 -8.33301 0.333008 -13 1zM-11.999 583.999l88 117
h101l88 -117h-74l-64 81h-2l-63 -81h-74z" />
    <glyph glyph-name="uni0136" unicode="&#x136;" horiz-adv-x="634" 
d="M101 705h83v-348l321 348h91l-281 -316l292 -389h-97l-250 335l-76 -76v-259h-83v705zM296 -49l77.999 -0.00195312c7.33301 -26.667 8.83301 -52 4.5 -76s-15.166 -47 -32.499 -69h-63l13 37.5c4 11.667 6.83301 23.334 8.5 35.001s2 23.334 1 35.001
s-4.16699 24.167 -9.5 37.5z" />
    <glyph glyph-name="uni0137" unicode="&#x137;" horiz-adv-x="517" 
d="M81 700h76v-431l238 239h95l-223 -222l231 -286h-91l-190 236l-60 -56v-180h-76v700zM238 -40l79.001 -0.000976562c8 -27.333 10.5 -52.166 7.5 -74.499s-13.167 -45.833 -30.5 -70.5h-63c5.33301 15.333 9.83301 29.833 13.5 43.5s5.5 27.167 5.5 40.5
c0 9.33301 -0.833008 19 -2.5 29s-4.83398 20.667 -9.50098 32z" />
    <glyph glyph-name="uni0138" unicode="&#x138;" horiz-adv-x="517" 
d="M81 507v-507h76v180l60 56l190 -236h91l-231 286l223 222h-95l-238 -239v238h-76z" />
    <glyph glyph-name="uni0139" unicode="&#x139;" horiz-adv-x="479" 
d="M454 77h-270v623h-83v-700h353v77zM265 870h-93l-65 -115h74z" />
    <glyph glyph-name="uni013A" unicode="&#x13a;" horiz-adv-x="267" 
d="M235 67v-69c-4.66699 -0.666992 -9.16699 -1 -13.5 -1h-13.5c-88.667 0 -133 50.667 -133 152v556h79v-556c0 -26.667 4.33301 -47.167 13 -61.5s27 -21.5 55 -21.5c2 0 4 0.166992 6 0.5s4.33301 0.5 7 0.5zM236 869l-84 -115h-74l65 115h93z" />
    <glyph glyph-name="uni013B" unicode="&#x13b;" horiz-adv-x="479" 
d="M454 77v-77h-353v700h83v-623h270zM270 -59h85.001c4.66699 -18 7 -35 7 -51s-2.16699 -31.333 -6.5 -46s-10.5 -30.667 -18.5 -48h-74c5.33301 15.333 9.83301 29.833 13.5 43.5s5.5 27.167 5.5 40.5c0 9.33301 -0.833008 19 -2.5 29s-4.83398 20.667 -9.50098 32z" />
    <glyph glyph-name="uni013C" unicode="&#x13c;" horiz-adv-x="267" 
d="M235 67v-69c-4.66699 -0.666992 -9.16699 -1 -13.5 -1h-13.5c-88.667 0 -133 50.667 -133 152v556h79v-556c0 -26.667 4.33301 -47.167 13 -61.5s27 -21.5 55 -21.5c2 0 4 0.166992 6 0.5s4.33301 0.5 7 0.5zM115 -59l80.999 0.000976562
c6.66699 -24.667 8.83398 -48.334 6.50098 -71.001s-10.5 -45.667 -24.5 -69h-70c10 26 16.167 49.167 18.5 69.5s-1.5 43.833 -11.5 70.5z" />
    <glyph glyph-name="uni013D" unicode="&#x13d;" horiz-adv-x="479" 
d="M454 77v-77h-353v700h83v-623h270zM285 706l77.001 0.00195312c7.33301 -26.667 9.5 -51.334 6.5 -74.001s-11.833 -46.334 -26.5 -71.001h-64c5.33301 15.333 9.83301 29.833 13.5 43.5s5.5 27.167 5.5 40.5c0 9.33301 -0.833008 19 -2.5 29
s-4.83398 20.667 -9.50098 32z" />
    <glyph glyph-name="uni013E" unicode="&#x13e;" horiz-adv-x="298" 
d="M233 706h74c7.33301 -26.667 9 -50.5 5 -71.5s-12.667 -44.167 -26 -69.5h-60c9.33301 25.333 15.333 48.833 18 70.5s-1 45.167 -11 70.5zM235 -2c-4.66699 -0.666992 -9.16699 -1 -13.5 -1h-13.5c-88.667 0 -133 50.667 -133 152v556h79v-556
c0 -26.667 4.33301 -47.167 13 -61.5s27 -21.5 55 -21.5c2 0 4 0.166992 6 0.5s4.33301 0.5 7 0.5v-69z" />
    <glyph glyph-name="uni013F" unicode="&#x13f;" horiz-adv-x="479" 
d="M454 77h-270v623h-83v-700h353v77zM278 330h93v101h-93v-101z" />
    <glyph glyph-name="uni0140" unicode="&#x140;" horiz-adv-x="304" 
d="M235 67v-69c-4.66699 -0.666992 -9.16699 -1 -13.5 -1h-13.5c-88.667 0 -133 50.667 -133 152v556h79v-556c0 -26.667 4.33301 -47.167 13 -61.5s27 -21.5 55 -21.5c2 0 4 0.166992 6 0.5s4.33301 0.5 7 0.5zM210 332v99h87v-99h-87z" />
    <glyph glyph-name="uni0141" unicode="&#x141;" horiz-adv-x="479" 
d="M42 268l59 33v-301h353v77h-270v272l118 67v77l-118 -68v275h-83v-323l-59 -34v-75z" />
    <glyph glyph-name="uni0142" unicode="&#x142;" horiz-adv-x="267" 
d="M75 290l-42 -24v71l42 24v344h79v-298l83 49v-73l-83 -48v-186c0 -26.667 4.33301 -47.167 13 -61.5s27 -21.5 55 -21.5c2 0 4 0.166992 6 0.5s4.33301 0.5 7 0.5v-69c-4.66699 -0.666992 -9.16699 -1 -13.5 -1h-13.5c-88.667 0 -133 50.667 -133 152v141z" />
    <glyph glyph-name="uni0143" unicode="&#x143;" horiz-adv-x="759" 
d="M658 700h-82v-610l-376 610h-99v-700h82v586l359 -586h116v700zM496 865h-93l-65 -115h74z" />
    <glyph glyph-name="uni0144" unicode="&#x144;" horiz-adv-x="616" 
d="M81 507l66 -0.00292969l10 -47c14.667 16 33.334 28.833 56.001 38.5s49 14.834 79 15.501c34 -0.666992 66.167 -6.16699 96.5 -16.5s56.833 -25.166 79.5 -44.499s40.5 -43 53.5 -71s19.5 -60.667 19.5 -98v-284h-78v284c0 24 -4.66699 45.5 -14 64.5
s-21.833 35.333 -37.5 49s-33.667 24.334 -54 32.001s-41.833 12.167 -64.5 13.5c-26 0 -50.333 -3.66699 -73 -11s-43.334 -20.333 -62.001 -39v-393h-77v507zM414 690.997l-84 -115h-65l59 115h90z" />
    <glyph glyph-name="uni0145" unicode="&#x145;" horiz-adv-x="759" 
d="M658 700v-700h-116l-359 586v-586h-82v700h99l376 -610v610h82zM331 -35l84 -0.000976562c7.33301 -26.667 9.33301 -51.167 6 -73.5s-11.333 -46.166 -24 -71.499h-73c9.33301 27.333 15.5 51.5 18.5 72.5s-0.833008 45.167 -11.5 72.5z" />
    <glyph glyph-name="uni0146" unicode="&#x146;" horiz-adv-x="616" 
d="M81 507l66 -0.00292969l10 -47c14.667 16 33 28.833 55 38.5s48 14.834 78 15.501c34 -0.666992 66.333 -6.16699 97 -16.5s57.334 -25.166 80.001 -44.499s40.667 -43 54 -71s20 -60.667 20 -98v-284h-78v284c0 24 -4.66699 45.5 -14 64.5s-21.833 35.333 -37.5 49
s-33.667 24.334 -54 32.001s-41.833 12.167 -64.5 13.5c-26 0 -50.333 -3.66699 -73 -11s-43.334 -20.333 -62.001 -39v-393h-77v507zM272 -26.0029l75 -0.000976562c7.33301 -26.667 9.33301 -51.167 6 -73.5s-11.333 -46.166 -24 -71.499h-64
c9.33301 27.333 15.5 51.5 18.5 72.5s-0.833008 45.167 -11.5 72.5z" />
    <glyph glyph-name="uni0147" unicode="&#x147;" horiz-adv-x="759" 
d="M534 868h-74l-63 -81h-2l-64 81h-74l88 -120h101zM658 0h-116l-359 586v-586h-82v700h99l376 -610v610h82v-700z" />
    <glyph glyph-name="uni0148" unicode="&#x148;" horiz-adv-x="616" 
d="M81 507l66 -0.00292969l10 -47c14.667 16 33 28.833 55 38.5s48 14.834 78 15.501c34 -0.666992 66.333 -6.16699 97 -16.5s57.334 -25.166 80.001 -44.499s40.667 -43 54 -71s20 -60.667 20 -98v-284h-78v284c0 24 -4.66699 45.5 -14 64.5s-21.833 35.333 -37.5 49
s-33.667 24.334 -54 32.001s-41.833 12.167 -64.5 13.5c-26 0 -50.333 -3.66699 -73 -11s-43.334 -20.333 -62.001 -39v-393h-77v507zM443 695.997l-88 -120h-101l-88 120h74l64 -81h2l63 81h74z" />
    <glyph glyph-name="uni0149" unicode="&#x149;" horiz-adv-x="609" 
d="M76 507l66 -0.00292969l10 -47c14.667 16 33 28.833 55 38.5s48 14.834 78 15.501c34 -0.666992 66.333 -6.16699 97 -16.5s57.334 -25.166 80.001 -44.499s40.667 -43 54 -71s20 -60.667 20 -98v-284h-78v284c0 24 -4.66699 45.5 -14 64.5s-21.833 35.333 -37.5 49
s-33.667 24.334 -54 32.001s-41.833 12.167 -64.5 13.5c-26 0 -50.333 -3.66699 -73 -11s-43.334 -20.333 -62.001 -39v-393h-77v507zM0 705.997l77 -0.000976562c7.33301 -26.667 9.33301 -51.167 6 -73.5s-11.333 -46.166 -24 -71.499h-66
c9.33301 27.333 15.5 51.5 18.5 72.5s-0.833008 45.167 -11.5 72.5z" />
    <glyph glyph-name="uni014A" unicode="&#x14a;" horiz-adv-x="759" 
d="M576 700h82.001v-733c0 -52 -15.333 -92 -46 -120s-75.334 -42 -134.001 -42h-13.5c-4.33301 0 -9.16602 0.333008 -14.499 1v74c3.33301 -0.666992 6.66602 -1 9.99902 -1h10c29.333 0 52.5 6.83301 69.5 20.5s25.5 36.167 25.5 67.5v33h-20l-362 586v-586h-82v700h99
l376 -610v610z" />
    <glyph glyph-name="uni014B" unicode="&#x14b;" horiz-adv-x="613" 
d="M81 507l66.001 -0.00195312l10 -47c14.667 16 33 28.833 55 38.5s48 14.834 78 15.501c34 -0.666992 66.333 -6.16699 97 -16.5s57.334 -25.166 80.001 -44.499s40.667 -43 54 -71s20 -60.667 20 -98v-330c0 -50.667 -13.5 -88.334 -40.5 -113.001
s-63.167 -37 -108.5 -37h-12.5c-4.33301 0 -8.83301 0.333008 -13.5 1v61c32.667 0 57.167 5.83301 73.5 17.5s24.5 35.167 24.5 70.5v330c0 24 -4.83301 45.5 -14.5 64.5s-22.334 35.333 -38.001 49s-33.667 24.334 -54 32.001s-41.833 12.167 -64.5 13.5
c-26 0 -50.333 -3.66699 -73 -11s-43.334 -20.333 -62.001 -39v-393h-77v507z" />
    <glyph glyph-name="uni014C" unicode="&#x14c;" 
d="M410 714c49.333 0 95.666 -9.83301 138.999 -29.5s81.166 -46.167 113.499 -79.5s57.833 -72 76.5 -116s28 -90.667 28 -140s-9.33301 -96 -28 -140s-44.167 -82.5 -76.5 -115.5s-70.166 -59.167 -113.499 -78.5s-89.666 -29 -138.999 -29s-95.666 9.66699 -138.999 29
s-81.166 45.5 -113.499 78.5s-57.833 71.5 -76.5 115.5s-28 90.667 -28 140s9.33301 96 28 140s44.167 82.667 76.5 116s70.166 59.833 113.499 79.5s89.666 29.5 138.999 29.5zM136 349c0 -47.333 7.83105 -88.8291 23.498 -124.496s36.334 -65.5 62.001 -89.5
s55 -42.167 88 -54.5s66.5 -18.5 100.5 -18.5s67.5 6.16699 100.5 18.5s62.333 30.5 88 54.5s46.334 53.833 62.001 89.5s23.5 77.167 23.5 124.5s-7.83301 89 -23.5 125s-36.5 66.167 -62.5 90.5s-55.5 42.666 -88.5 54.999s-66.5 18.5 -100.5 18.5
s-67.5 -6.33301 -100.5 -19s-62.167 -31.334 -87.5 -56.001s-45.833 -54.834 -61.5 -90.501s-23.5 -76.834 -23.5 -123.501zM280.998 784.004v63h255v-63h-255z" />
    <glyph glyph-name="uni014D" unicode="&#x14d;" horiz-adv-x="605" 
d="M560 253c0 -36.667 -6.33301 -71.167 -19 -103.5s-30.334 -60.5 -53.001 -84.5s-49.834 -42.833 -81.501 -56.5s-66.5 -20.5 -104.5 -20.5s-72.833 6.83301 -104.5 20.5s-58.667 32.5 -81 56.5s-39.833 52.167 -52.5 84.5s-19 66.833 -19 103.5
c0 37.333 6.33301 72 19 104s30.167 59.833 52.5 83.5s49.333 42.334 81 56.001s66.5 20.5 104.5 20.5s72.833 -6.83301 104.5 -20.5s58.834 -32.334 81.501 -56.001s40.334 -51.5 53.001 -83.5s19 -66.667 19 -104zM123 253c0 -32.667 5 -61.334 15 -86.001
s23.333 -45.167 40 -61.5s35.834 -28.5 57.501 -36.5s43.834 -12 66.501 -12c23.333 0 45.666 4 66.999 12s40.5 20.167 57.5 36.5s30.5 36.833 40.5 61.5s15 53.334 15 86.001c0 33.333 -5 62.166 -15 86.499s-23.5 44.5 -40.5 60.5s-36.167 27.833 -57.5 35.5
s-43.666 11.5 -66.999 11.5c-22.667 0 -44.834 -3.83301 -66.501 -11.5s-40.834 -19.5 -57.501 -35.5s-30 -36.167 -40 -60.5s-15 -53.166 -15 -86.499zM172 605v62h255v-62h-255z" />
    <glyph glyph-name="uni014E" unicode="&#x14e;" 
d="M410 714c49.333 0 95.666 -9.83301 138.999 -29.5s81.166 -46.167 113.499 -79.5s57.833 -72 76.5 -116s28 -90.667 28 -140s-9.33301 -96 -28 -140s-44.167 -82.5 -76.5 -115.5s-70.166 -59.167 -113.499 -78.5s-89.666 -29 -138.999 -29s-95.666 9.66699 -138.999 29
s-81.166 45.5 -113.499 78.5s-57.833 71.5 -76.5 115.5s-28 90.667 -28 140s9.33301 96 28 140s44.167 82.667 76.5 116s70.166 59.833 113.499 79.5s89.666 29.5 138.999 29.5zM136 349c0 -47.333 7.83105 -88.8291 23.498 -124.496s36.334 -65.5 62.001 -89.5
s55 -42.167 88 -54.5s66.5 -18.5 100.5 -18.5s67.5 6.16699 100.5 18.5s62.333 30.5 88 54.5s46.334 53.833 62.001 89.5s23.5 77.167 23.5 124.5s-7.83301 89 -23.5 125s-36.5 66.167 -62.5 90.5s-55.5 42.666 -88.5 54.999s-66.5 18.5 -100.5 18.5
s-67.5 -6.33301 -100.5 -19s-62.167 -31.334 -87.5 -56.001s-45.833 -54.834 -61.5 -90.501s-23.5 -76.834 -23.5 -123.501zM410.998 754.004c-17.333 0 -34 2.5 -50 7.5s-30 12.333 -42 22s-21.667 21.834 -29 36.501s-11 31.667 -11 51h64c0 -20.667 7.5 -35.667 22.5 -45
s30.167 -14 45.5 -14c14.667 0 29.167 4.5 43.5 13.5s21.5 24.167 21.5 45.5h66c0 -19.333 -3.66699 -36.333 -11 -51s-17 -26.834 -29 -36.501s-25.833 -17 -41.5 -22s-32.167 -7.5 -49.5 -7.5z" />
    <glyph glyph-name="uni014F" unicode="&#x14f;" horiz-adv-x="605" 
d="M560 253c0 -36.667 -6.33301 -71.167 -19 -103.5s-30.334 -60.5 -53.001 -84.5s-49.834 -42.833 -81.501 -56.5s-66.5 -20.5 -104.5 -20.5s-72.833 6.83301 -104.5 20.5s-58.667 32.5 -81 56.5s-39.833 52.167 -52.5 84.5s-19 66.833 -19 103.5
c0 37.333 6.33301 72 19 104s30.167 59.833 52.5 83.5s49.333 42.334 81 56.001s66.5 20.5 104.5 20.5s72.833 -6.83301 104.5 -20.5s58.834 -32.334 81.501 -56.001s40.334 -51.5 53.001 -83.5s19 -66.667 19 -104zM123 253c0 -32.667 5 -61.334 15 -86.001
s23.333 -45.167 40 -61.5s35.834 -28.5 57.501 -36.5s43.834 -12 66.501 -12c23.333 0 45.666 4 66.999 12s40.5 20.167 57.5 36.5s30.5 36.833 40.5 61.5s15 53.334 15 86.001c0 33.333 -5 62.166 -15 86.499s-23.5 44.5 -40.5 60.5s-36.167 27.833 -57.5 35.5
s-43.666 11.5 -66.999 11.5c-22.667 0 -44.834 -3.83301 -66.501 -11.5s-40.834 -19.5 -57.501 -35.5s-30 -36.167 -40 -60.5s-15 -53.166 -15 -86.499zM301 574c-17.333 0 -34 2.5 -50 7.5s-30 12.333 -42 22s-21.667 21.834 -29 36.501s-11 31.667 -11 51h64
c0 -20.667 7.5 -35.667 22.5 -45s30.167 -14 45.5 -14c14.667 0 29.167 4.5 43.5 13.5s21.5 24.167 21.5 45.5h66c0 -19.333 -3.66699 -36.333 -11 -51s-17 -26.834 -29 -36.501s-25.833 -17 -41.5 -22s-32.167 -7.5 -49.5 -7.5z" />
    <glyph glyph-name="uni0150" unicode="&#x150;" 
d="M410 714c49.333 0 95.666 -9.83301 138.999 -29.5s81.166 -46.167 113.499 -79.5s57.833 -72 76.5 -116s28 -90.667 28 -140s-9.33301 -96 -28 -140s-44.167 -82.5 -76.5 -115.5s-70.166 -59.167 -113.499 -78.5s-89.666 -29 -138.999 -29s-95.666 9.66699 -138.999 29
s-81.166 45.5 -113.499 78.5s-57.833 71.5 -76.5 115.5s-28 90.667 -28 140s9.33301 96 28 140s44.167 82.667 76.5 116s70.166 59.833 113.499 79.5s89.666 29.5 138.999 29.5zM136 349c0 -47.333 7.83105 -88.8291 23.498 -124.496s36.334 -65.5 62.001 -89.5
s55 -42.167 88 -54.5s66.5 -18.5 100.5 -18.5s67.5 6.16699 100.5 18.5s62.333 30.5 88 54.5s46.334 53.833 62.001 89.5s23.5 77.167 23.5 124.5s-7.83301 89 -23.5 125s-36.5 66.167 -62.5 90.5s-55.5 42.666 -88.5 54.999s-66.5 18.5 -100.5 18.5
s-67.5 -6.33301 -100.5 -19s-62.167 -31.334 -87.5 -56.001s-45.833 -54.834 -61.5 -90.501s-23.5 -76.834 -23.5 -123.501zM292.998 755.004l63 113h82l-76 -113h-69zM446.998 755.004l68 113h89l-87 -113h-70z" />
    <glyph glyph-name="uni0151" unicode="&#x151;" horiz-adv-x="605" 
d="M560 253c0 -36.667 -6.33301 -71.167 -19 -103.5s-30.334 -60.5 -53.001 -84.5s-49.834 -42.833 -81.501 -56.5s-66.5 -20.5 -104.5 -20.5s-72.833 6.83301 -104.5 20.5s-58.667 32.5 -81 56.5s-39.833 52.167 -52.5 84.5s-19 66.833 -19 103.5
c0 37.333 6.33301 72 19 104s30.167 59.833 52.5 83.5s49.333 42.334 81 56.001s66.5 20.5 104.5 20.5s72.833 -6.83301 104.5 -20.5s58.834 -32.334 81.501 -56.001s40.334 -51.5 53.001 -83.5s19 -66.667 19 -104zM123 253c0 -32.667 5 -61.334 15 -86.001
s23.333 -45.167 40 -61.5s35.834 -28.5 57.501 -36.5s43.834 -12 66.501 -12c23.333 0 45.666 4 66.999 12s40.5 20.167 57.5 36.5s30.5 36.833 40.5 61.5s15 53.334 15 86.001c0 33.333 -5 62.166 -15 86.499s-23.5 44.5 -40.5 60.5s-36.167 27.833 -57.5 35.5
s-43.666 11.5 -66.999 11.5c-22.667 0 -44.834 -3.83301 -66.501 -11.5s-40.834 -19.5 -57.501 -35.5s-30 -36.167 -40 -60.5s-15 -53.166 -15 -86.499zM177 584l61 107h79l-73 -107h-67zM326 584l66 107h86l-84 -107h-68z" />
    <glyph glyph-name="uni0152" unicode="&#x152;" horiz-adv-x="943" 
d="M410 714c16.667 0 32.833 -1.16699 48.5 -3.5s31.167 -5.5 46.5 -9.5h374v-77h-291v-234h288v-77h-288l-1 -234h292v-78h-368c-32 -10 -65.667 -15 -101 -15c-49.333 0 -95.666 9.66699 -138.999 29s-81.166 45.5 -113.499 78.5s-57.833 71.5 -76.5 115.5
s-28 90.667 -28 140s9.33301 96 28 140s44.167 82.667 76.5 116s70.166 59.833 113.499 79.5s89.666 29.5 138.999 29.5zM504.999 72v554.002c-28 10.667 -58 16 -90 16c-41.333 0 -79.166 -7.66699 -113.499 -23s-63.666 -36.333 -87.999 -63s-43.333 -57.834 -57 -93.501
s-20.5 -73.5 -20.5 -113.5s6.83301 -77.667 20.5 -113s32.667 -66.333 57 -93s53.666 -47.834 87.999 -63.501s72.166 -23.5 113.499 -23.5c14.667 0 29.5 1.33301 44.5 4s30.167 6.66699 45.5 12z" />
    <glyph glyph-name="uni0153" unicode="&#x153;" horiz-adv-x="1036" 
d="M740 64c28.667 0 56 5.83301 82 17.5s47.667 29.167 65 52.5l63 -38c-25.333 -34.667 -56.166 -60.167 -92.499 -76.5s-75.5 -24.5 -117.5 -24.5c-47.333 0 -90.333 11.167 -129 33.5s-68.667 54.5 -90 96.5c-21.333 -42 -51.333 -74.833 -90 -98.5
s-81.667 -35.5 -129 -35.5c-38 0 -72.833 6.83301 -104.5 20.5s-58.667 32.334 -81 56.001s-39.833 51.667 -52.5 84s-19 66.833 -19 103.5c0 37.333 6.33301 72.166 19 104.499s30.167 60.5 52.5 84.5s49.333 42.833 81 56.5s66.5 20.5 104.5 20.5
c22.667 0 45 -2.83301 67 -8.5s42.667 -14 62 -25s36.833 -24.667 52.5 -41s28.5 -34.833 38.5 -55.5c20 38 48.333 69 85 93s81 36.333 133 37c27.333 0 51.833 -3.5 73.5 -10.5s42.5 -17.167 62.5 -30.5c46 -29.333 77.667 -66.333 95 -111s23.666 -93 18.999 -145h-431
c3.33301 -20.667 9.5 -40.667 18.5 -60s21.167 -36.333 36.5 -51s33.5 -26.5 54.5 -35.5s44.833 -13.5 71.5 -13.5zM123 255c0 -32.667 5 -61.334 15 -86.001s23.333 -45 40 -61s35.834 -28 57.501 -36s43.834 -12 66.501 -12c23.333 0 45.666 4 66.999 12s40.5 20 57.5 36
s30.5 36.333 40.5 61s15 53.334 15 86.001c0 33.333 -5 62.166 -15 86.499s-23.5 44.666 -40.5 60.999s-36.167 28.5 -57.5 36.5s-43.666 12 -66.999 12c-22.667 0 -44.834 -4 -66.501 -12s-40.834 -20.167 -57.501 -36.5s-30 -36.666 -40 -60.999s-15 -53.166 -15 -86.499z
M559 290h354.999c-2 23.333 -7.66699 44.833 -17 64.5s-21.5 36.5 -36.5 50.5s-32.667 25.167 -53 33.5s-42.5 12.5 -66.5 12.5c-27.333 0 -51.666 -4.5 -72.999 -13.5s-39.5 -21 -54.5 -36s-27 -32.167 -36 -51.5s-15.167 -39.333 -18.5 -60z" />
    <glyph glyph-name="uni0154" unicode="&#x154;" horiz-adv-x="616" 
d="M351 286l225.001 -286.001h-99l-219 285h-74v-285h-83v701h223c33.333 0 64.5 -3.83301 93.5 -11.5s54.167 -20 75.5 -37s38.166 -38.833 50.499 -65.5s18.833 -58.667 19.5 -96c0 -34.667 -5.33301 -64.667 -16 -90s-25.667 -46.166 -45 -62.499
s-41.833 -28.833 -67.5 -37.5s-53.5 -13.667 -83.5 -15zM184.001 355.999h141c48 0 85.833 10.5 113.5 31.5s41.5 55.5 41.5 103.5c0 48.667 -14.5 83.167 -43.5 103.5s-66.167 30.5 -111.5 30.5h-141v-269zM413.001 864.999l-84 -115h-74l65 115h93z" />
    <glyph glyph-name="uni0155" unicode="&#x155;" horiz-adv-x="401" 
d="M81 510h67l8 -65c15.333 26.667 36 45.667 62 57s53 17 81 17c36 0 68.667 -7.33301 98 -22l-29 -68c-12.667 6 -25.334 10.333 -38.001 13s-24.667 4 -36 4c-18.667 0 -36.167 -3.33301 -52.5 -10s-30.666 -16 -42.999 -28s-22 -26.667 -29 -44s-10.5 -37 -10.5 -59
v-305h-78v510zM343 698l-84 -115h-74l65 115h93z" />
    <glyph glyph-name="uni0156" unicode="&#x156;" horiz-adv-x="616" 
d="M351 286l225.001 -286.001h-99l-219 285h-74v-285h-83v701h223c33.333 0 64.5 -3.83301 93.5 -11.5s54.167 -20 75.5 -37s38.166 -38.833 50.499 -65.5s18.833 -58.667 19.5 -96c0 -34.667 -5.33301 -64.667 -16 -90s-25.667 -46.166 -45 -62.499
s-41.833 -28.833 -67.5 -37.5s-53.5 -13.667 -83.5 -15zM184.001 355.999h141c48 0 85.833 10.5 113.5 31.5s41.5 55.5 41.5 103.5c0 48.667 -14.5 83.167 -43.5 103.5s-66.167 30.5 -111.5 30.5h-141v-269zM288.001 -44.001h78.001c4.66699 -18 7 -35 7 -51
s-2.16699 -31.333 -6.5 -46s-10.5 -30.667 -18.5 -48h-67c5.33301 15.333 9.83301 29.833 13.5 43.5s5.5 27.167 5.5 40.5c0 9.33301 -0.833008 19 -2.5 29s-4.83398 20.667 -9.50098 32z" />
    <glyph glyph-name="uni0157" unicode="&#x157;" horiz-adv-x="401" 
d="M81 510h67l8 -65c15.333 26.667 36 45.667 62 57s53 17 81 17c36 0 68.667 -7.33301 98 -22l-29 -68c-12.667 6 -25.334 10.333 -38.001 13s-24.667 4 -36 4c-18.667 0 -36.167 -3.33301 -52.5 -10s-30.666 -16 -42.999 -28s-22 -26.667 -29 -44s-10.5 -37 -10.5 -59
v-305h-78v510zM86 -55l77 -0.00292969c12.667 -49.333 6.66699 -96.666 -18 -141.999h-66c11.333 26.667 17.833 50.334 19.5 71.001s-2.5 44.334 -12.5 71.001z" />
    <glyph glyph-name="uni0158" unicode="&#x158;" horiz-adv-x="614" 
d="M351 286l225.001 -286.001h-99l-219 285h-74v-285h-83v701h223c33.333 0 64.5 -3.83301 93.5 -11.5s54.167 -20 75.5 -37s38.166 -38.833 50.499 -65.5s18.833 -58.667 19.5 -96c0 -34.667 -5.33301 -64.667 -16 -90s-25.667 -46.166 -45 -62.499
s-41.833 -28.833 -67.5 -37.5s-53.5 -13.667 -83.5 -15zM184.001 355.999h141c48 0 85.833 10.5 113.5 31.5s41.5 55.5 41.5 103.5c0 48.667 -14.5 83.167 -43.5 103.5s-66.167 30.5 -111.5 30.5h-141v-269zM442.001 871.999l-88 -120h-101l-88 120h74l64 -81h2l63 81h74z
" />
    <glyph glyph-name="uni0159" unicode="&#x159;" horiz-adv-x="401" 
d="M81 510h67l8 -65c15.333 26.667 36 45.667 62 57s53 17 81 17c36 0 68.667 -7.33301 98 -22l-29 -68c-12.667 6 -25.334 10.333 -38.001 13s-24.667 4 -36 4c-18.667 0 -36.167 -3.33301 -52.5 -10s-30.666 -16 -42.999 -28s-22 -26.667 -29 -44s-10.5 -37 -10.5 -59
v-305h-78v510zM372 694l-88 -113h-101l-88 113h74l64 -80h2l63 80h74z" />
    <glyph glyph-name="uni015A" unicode="&#x15a;" horiz-adv-x="558" 
d="M143 526c-1.33301 -22 2.50195 -40.334 11.502 -55.001s20.667 -26.667 35 -36s29.833 -16.666 46.5 -21.999s32.334 -10 47.001 -14c27.333 -6.66699 54 -15 80 -25s49 -23.333 69 -40s36 -38 48 -64s17 -58.333 15 -97c-1.33301 -32 -9 -59.667 -23 -83
s-31.667 -42.833 -53 -58.5s-45.166 -27.167 -71.499 -34.5s-52.833 -11 -79.5 -11c-22.667 0 -45.167 3.16699 -67.5 9.5s-43.5 15.833 -63.5 28.5s-38 28.334 -54 47.001s-28.667 40.334 -38 65.001l65 35c13.333 -34.667 34.666 -61.834 63.999 -81.501
s62.333 -29.5 99 -29.5c40.667 0 73.834 10.667 99.501 32s39.834 50 42.501 86c2 25.333 -1.83301 46.5 -11.5 63.5s-22.167 31 -37.5 42s-32.333 19.667 -51 26s-36.334 11.833 -53.001 16.5c-23.333 6 -47 13.667 -71 23s-45.667 21.666 -65 36.999
s-34.833 34.5 -46.5 57.5s-17.167 51.833 -16.5 86.5c1.33301 32 8.16602 59.833 20.499 83.5s28.166 43.334 47.499 59.001s41.333 27.334 66 35.001s49.667 11.5 75 11.5c22 0 43.833 -2.83301 65.5 -8.5s41.667 -14.334 60 -26.001s34.833 -26 49.5 -43
s26 -36.833 34 -59.5l-63 -31c-12 30.667 -31.5 54 -58.5 70s-56.5 24 -88.5 24c-16 0 -31.333 -2.33301 -46 -7s-27.834 -11.834 -39.501 -21.501s-21.334 -22 -29.001 -37s-12.167 -32.833 -13.5 -53.5zM396.002 870.999l-84 -115h-74l65 115h93z" />
    <glyph glyph-name="uni015B" unicode="&#x15b;" horiz-adv-x="439" 
d="M231 291c21.333 -4 41.8311 -9.66602 61.498 -16.999s37.167 -16.833 52.5 -28.5s27.666 -26 36.999 -43s14 -37.833 14 -62.5c0 -26.667 -5.83301 -49.5 -17.5 -68.5s-26.334 -34.667 -44.001 -47s-37.334 -21.333 -59.001 -27s-42.5 -8.5 -62.5 -8.5
c-34 0 -66.167 6.83301 -96.5 20.5s-55.166 34.5 -74.499 62.5l48 49c34 -41.333 76 -62 126 -62c12 0 24.167 1.66699 36.5 5s23.5 8.33301 33.5 15s18.167 15.167 24.5 25.5s9.5 22.5 9.5 36.5c0 12.667 -3.66699 23.5 -11 32.5s-16.166 16.667 -26.499 23
s-21.666 11.333 -33.999 15s-23.833 6.5 -34.5 8.5c-20.667 3.33301 -40.5 8.33301 -59.5 15s-35.833 15.667 -50.5 27s-26.5 25.333 -35.5 42s-13.5 37 -13.5 61s5 45.5 15 64.5s23.333 35 40 48s35.667 22.833 57 29.5s43.333 10 66 10c25.333 0 51.5 -4.33301 78.5 -13
s50.833 -23.667 71.5 -45l-45 -51c-16 14 -32.667 23.833 -50 29.5s-36.666 8.5 -57.999 8.5c-12.667 0 -25 -1.83301 -37 -5.5s-22.667 -8.83398 -32 -15.501s-16.666 -15 -21.999 -25s-8 -21.667 -8 -35c0 -12.667 3.33301 -23.334 10 -32.001s15 -15.667 25 -21
s20.833 -9.66602 32.5 -12.999s22.5 -6 32.5 -8zM344.998 691.001l-85 -115h-71l65 115h91z" />
    <glyph glyph-name="uni015C" unicode="&#x15c;" horiz-adv-x="558" 
d="M143 526c-1.33301 -22 2.50195 -40.334 11.502 -55.001s20.667 -26.667 35 -36s29.833 -16.666 46.5 -21.999s32.334 -10 47.001 -14c27.333 -6.66699 54 -15 80 -25s49 -23.333 69 -40s36 -38 48 -64s17 -58.333 15 -97c-1.33301 -32 -9 -59.667 -23 -83
s-31.667 -42.833 -53 -58.5s-45.166 -27.167 -71.499 -34.5s-52.833 -11 -79.5 -11c-22.667 0 -45.167 3.16699 -67.5 9.5s-43.5 15.833 -63.5 28.5s-38 28.334 -54 47.001s-28.667 40.334 -38 65.001l65 35c13.333 -34.667 34.666 -61.834 63.999 -81.501
s62.333 -29.5 99 -29.5c40.667 0 73.834 10.667 99.501 32s39.834 50 42.501 86c2 25.333 -1.83301 46.5 -11.5 63.5s-22.167 31 -37.5 42s-32.333 19.667 -51 26s-36.334 11.833 -53.001 16.5c-23.333 6 -47 13.667 -71 23s-45.667 21.666 -65 36.999
s-34.833 34.5 -46.5 57.5s-17.167 51.833 -16.5 86.5c1.33301 32 8.16602 59.833 20.499 83.5s28.166 43.334 47.499 59.001s41.333 27.334 66 35.001s49.667 11.5 75 11.5c22 0 43.833 -2.83301 65.5 -8.5s41.667 -14.334 60 -26.001s34.833 -26 49.5 -43
s26 -36.833 34 -59.5l-63 -31c-12 30.667 -31.5 54 -58.5 70s-56.5 24 -88.5 24c-16 0 -31.333 -2.33301 -46 -7s-27.834 -11.834 -39.501 -21.501s-21.334 -22 -29.001 -37s-12.167 -32.833 -13.5 -53.5zM140.002 755.999l88 114h101l88 -114h-74l-64 78h-2l-63 -78h-74z
" />
    <glyph glyph-name="uni015D" unicode="&#x15d;" horiz-adv-x="439" 
d="M231 291c21.333 -4 41.8311 -9.66602 61.498 -16.999s37.167 -16.833 52.5 -28.5s27.666 -26 36.999 -43s14 -37.833 14 -62.5c0 -26.667 -5.83301 -49.5 -17.5 -68.5s-26.334 -34.667 -44.001 -47s-37.334 -21.333 -59.001 -27s-42.5 -8.5 -62.5 -8.5
c-34 0 -66.167 6.83301 -96.5 20.5s-55.166 34.5 -74.499 62.5l48 49c34 -41.333 76 -62 126 -62c12 0 24.167 1.66699 36.5 5s23.5 8.33301 33.5 15s18.167 15.167 24.5 25.5s9.5 22.5 9.5 36.5c0 12.667 -3.66699 23.5 -11 32.5s-16.166 16.667 -26.499 23
s-21.666 11.333 -33.999 15s-23.833 6.5 -34.5 8.5c-20.667 3.33301 -40.5 8.33301 -59.5 15s-35.833 15.667 -50.5 27s-26.5 25.333 -35.5 42s-13.5 37 -13.5 61s5 45.5 15 64.5s23.333 35 40 48s35.667 22.833 57 29.5s43.333 10 66 10c25.333 0 51.5 -4.33301 78.5 -13
s50.833 -23.667 71.5 -45l-45 -51c-16 14 -32.667 23.833 -50 29.5s-36.666 8.5 -57.999 8.5c-12.667 0 -25 -1.83301 -37 -5.5s-22.667 -8.83398 -32 -15.501s-16.666 -15 -21.999 -25s-8 -21.667 -8 -35c0 -12.667 3.33301 -23.334 10 -32.001s15 -15.667 25 -21
s20.833 -9.66602 32.5 -12.999s22.5 -6 32.5 -8zM94.998 570.001l88 114h101l88 -114h-74l-64 78h-2l-63 -78h-74z" />
    <glyph glyph-name="uni015E" unicode="&#x15e;" horiz-adv-x="558" 
d="M143 526c-1.33301 -22 2.5 -40.332 11.5 -54.999s20.667 -26.667 35 -36s29.833 -16.666 46.5 -21.999s32.334 -10 47.001 -14c27.333 -6.66699 54 -15 80 -25s49 -23.333 69 -40s36 -38 48 -64s17 -58.333 15 -97c-1.33301 -28 -7.33301 -52.667 -18 -74
s-24.667 -39.666 -42 -54.999s-36.833 -27.5 -58.5 -36.5s-44.167 -15.167 -67.5 -18.5l-22 -37c8.66699 0 17.5 -2 26.5 -6s17.333 -9.16699 25 -15.5s13.834 -13.833 18.501 -22.5s6.66699 -17.667 6 -27c-0.666992 -14.667 -4 -27.167 -10 -37.5
s-13.667 -18.833 -23 -25.5s-19.666 -11.5 -30.999 -14.5s-22.666 -4.5 -33.999 -4.5c-13.333 0 -27 2 -41 6s-28.667 9.66699 -44 17l15 41c12.667 -6.66699 24 -11.334 34 -14.001s20 -4 30 -4c14 0 24.833 3.16699 32.5 9.5s11.667 13.5 12 21.5s-3 15.5 -10 22.5
s-17.833 10.5 -32.5 10.5c-4 0 -8.33301 -0.333008 -13 -1s-9.33398 -2 -14.001 -4l-24 18l40 65c-21.333 2 -42.333 6.5 -63 13.5s-40.167 16.667 -58.5 29s-34.666 27.333 -48.999 45s-25.833 38.167 -34.5 61.5l65 35c13.333 -34.667 34.666 -61.834 63.999 -81.501
s62.333 -29.5 99 -29.5c40.667 0 73.834 10.667 99.501 32s39.834 50 42.501 86c2 25.333 -1.83301 46.5 -11.5 63.5s-22.167 31 -37.5 42s-32.333 19.667 -51 26s-36.334 11.833 -53.001 16.5c-23.333 6 -47 13.667 -71 23s-45.667 21.666 -65 36.999
s-34.833 34.5 -46.5 57.5s-17.167 51.833 -16.5 86.5c1.33301 32 8.16602 59.833 20.499 83.5s28.166 43.334 47.499 59.001s41.333 27.334 66 35.001s49.667 11.5 75 11.5c22 0 43.833 -2.83301 65.5 -8.5s41.667 -14.334 60 -26.001s34.833 -26 49.5 -43
s26 -36.833 34 -59.5l-63 -31c-12 30.667 -31.5 54 -58.5 70s-56.5 24 -88.5 24c-16 0 -31.333 -2.33301 -46 -7s-27.834 -11.834 -39.501 -21.501s-21.334 -22 -29.001 -37s-12.167 -32.833 -13.5 -53.5z" />
    <glyph glyph-name="uni015F" unicode="&#x15f;" horiz-adv-x="438" 
d="M231 291c21.333 -4 41.8301 -9.66504 61.4971 -16.998s37.167 -16.833 52.5 -28.5s27.666 -26 36.999 -43s14 -37.833 14 -62.5s-5 -46 -15 -64s-22.833 -33.167 -38.5 -45.5s-33.167 -21.666 -52.5 -27.999s-38.666 -10.5 -57.999 -12.5l-14 -24
c7.33301 0 14.833 -1.83301 22.5 -5.5s14.834 -8.33398 21.501 -14.001s12 -12.334 16 -20.001s5.66699 -15.5 5 -23.5c-0.666992 -13.333 -3.5 -24.5 -8.5 -33.5s-11.333 -16.5 -19 -22.5s-16.167 -10.333 -25.5 -13s-18.666 -4 -27.999 -4
c-11.333 0 -22.833 1.83301 -34.5 5.5s-23.834 8.5 -36.501 14.5l13 37c10.667 -6 20 -10.167 28 -12.5s16.333 -3.5 25 -3.5c12 0 21 2.83301 27 8.5s9.16699 12 9.5 19s-2.33398 13.667 -8.00098 20s-14.834 9.5 -27.501 9.5c-6.66699 0 -13 -1.66699 -19 -5l-20 16l29 52
c-30 3.33301 -57.5 11.5 -82.5 24.5s-46.167 31.833 -63.5 56.5l48 49c34 -41.333 76 -62 126 -62c12 0 24.167 1.66699 36.5 5s23.5 8.33301 33.5 15s18.167 15.167 24.5 25.5s9.5 22.5 9.5 36.5c0 12.667 -3.66699 23.5 -11 32.5s-16.166 16.667 -26.499 23
s-21.666 11.333 -33.999 15s-23.833 6.5 -34.5 8.5c-20.667 3.33301 -40.5 8.33301 -59.5 15s-35.833 15.667 -50.5 27s-26.5 25.333 -35.5 42s-13.5 37 -13.5 61s5 45.5 15 64.5s23.333 35 40 48s35.667 22.833 57 29.5s43.333 10 66 10c25.333 0 51.5 -4.33301 78.5 -13
s50.833 -23.667 71.5 -45l-45 -51c-16 14 -32.667 23.833 -50 29.5s-36.666 8.5 -57.999 8.5c-12.667 0 -25 -1.83301 -37 -5.5s-22.667 -8.83398 -32 -15.501s-16.666 -15 -21.999 -25s-8 -21.667 -8 -35c0 -12.667 3.33301 -23.334 10 -32.001s15 -15.667 25 -21
s20.833 -9.66602 32.5 -12.999s22.5 -6 32.5 -8z" />
    <glyph glyph-name="uni0160" unicode="&#x160;" horiz-adv-x="560" 
d="M143 526c-1.33301 -22 2.50195 -40.334 11.502 -55.001s20.667 -26.667 35 -36s29.833 -16.666 46.5 -21.999s32.334 -10 47.001 -14c27.333 -6.66699 54 -15 80 -25s49 -23.333 69 -40s36 -38 48 -64s17 -58.333 15 -97c-1.33301 -32 -9 -59.667 -23 -83
s-31.667 -42.833 -53 -58.5s-45.166 -27.167 -71.499 -34.5s-52.833 -11 -79.5 -11c-22.667 0 -45.167 3.16699 -67.5 9.5s-43.5 15.833 -63.5 28.5s-38 28.334 -54 47.001s-28.667 40.334 -38 65.001l65 35c13.333 -34.667 34.666 -61.834 63.999 -81.501
s62.333 -29.5 99 -29.5c40.667 0 73.834 10.667 99.501 32s39.834 50 42.501 86c2 25.333 -1.83301 46.5 -11.5 63.5s-22.167 31 -37.5 42s-32.333 19.667 -51 26s-36.334 11.833 -53.001 16.5c-23.333 6 -47 13.667 -71 23s-45.667 21.666 -65 36.999
s-34.833 34.5 -46.5 57.5s-17.167 51.833 -16.5 86.5c1.33301 32 8.16602 59.833 20.499 83.5s28.166 43.334 47.499 59.001s41.333 27.334 66 35.001s49.667 11.5 75 11.5c22 0 43.833 -2.83301 65.5 -8.5s41.667 -14.334 60 -26.001s34.833 -26 49.5 -43
s26 -36.833 34 -59.5l-63 -31c-12 30.667 -31.5 54 -58.5 70s-56.5 24 -88.5 24c-16 0 -31.333 -2.33301 -46 -7s-27.834 -11.834 -39.501 -21.501s-21.334 -22 -29.001 -37s-12.167 -32.833 -13.5 -53.5zM420.002 895.999l-88 -106h-101l-88 106h74l65 -66h2l62 66h74z" />
    <glyph glyph-name="uni0161" unicode="&#x161;" horiz-adv-x="439" 
d="M231 292c21.333 -4 41.8311 -9.66602 61.498 -16.999s37.167 -16.833 52.5 -28.5s27.666 -26.167 36.999 -43.5s14 -38.333 14 -63c0 -26.667 -5.83301 -49.5 -17.5 -68.5s-26.334 -34.667 -44.001 -47s-37.334 -21.333 -59.001 -27s-42.5 -8.5 -62.5 -8.5
c-34 0 -66.167 6.83301 -96.5 20.5s-55.166 34.5 -74.499 62.5l48 49c34 -41.333 76 -62 126 -62c12 0 24.167 1.66699 36.5 5s23.5 8.33301 33.5 15s18.167 15.167 24.5 25.5s9.5 22.5 9.5 36.5c0 12.667 -3.66699 23.5 -11 32.5s-16.166 16.667 -26.499 23
s-21.666 11.333 -33.999 15s-23.833 6.5 -34.5 8.5c-20.667 3.33301 -40.5 8.33301 -59.5 15s-35.833 15.667 -50.5 27s-26.5 25.333 -35.5 42s-13.5 37 -13.5 61s5 45.5 15 64.5s23.333 35 40 48s35.667 22.833 57 29.5s43.333 10 66 10c25.333 0 51.5 -4.33301 78.5 -13
s50.833 -23.667 71.5 -45l-45 -51c-16 14 -32.667 23.833 -50 29.5s-36.666 8.5 -57.999 8.5c-12.667 0 -25 -1.83301 -37 -5.5s-22.667 -8.83398 -32 -15.501s-16.666 -15 -21.999 -25s-8 -21.667 -8 -35c0 -12.667 3.33301 -23.167 10 -31.5s15 -15.333 25 -21
s20.833 -10 32.5 -13s22.5 -5.5 32.5 -7.5zM362.998 691.001l-88 -120h-101l-88 120h74l64 -81h2l63 81h74z" />
    <glyph glyph-name="uni0162" unicode="&#x162;" horiz-adv-x="451" 
d="M10 702h430.999v-80h-174v-622h-19l-8 -42c32 -3.33301 55 -13.666 69 -30.999s20.167 -36 18.5 -56s-10.5 -38 -26.5 -54s-38.333 -24 -67 -24c-13.333 0 -27 2.33301 -41 7s-28.667 10.667 -44 18l15 44c12.667 -7.33301 24 -12.333 34 -15s20 -4 30 -4
c15.333 0 26.833 3.5 34.5 10.5s11.667 14.667 12 23s-3.16699 16.166 -10.5 23.499s-18.666 11.333 -33.999 12h-8c-3.33301 0 -7 -0.166992 -11 -0.5s-7.66699 -1.5 -11 -3.5l-21 18l13 74h-8v622h-174v80z" />
    <glyph glyph-name="uni0163" unicode="&#x163;" horiz-adv-x="307" 
d="M219 -3l-14.001 -39c32 -3.33301 55 -13.666 69 -30.999s20.167 -36 18.5 -56s-10.5 -38 -26.5 -54s-38.333 -24 -67 -24c-13.333 0 -27 2.33301 -41 7s-28.667 10.667 -44 18l15 44c12.667 -7.33301 24 -12.333 34 -15s20 -4 30 -4c15.333 0 26.833 3.5 34.5 10.5
s11.667 14.667 12 23s-3.16699 16.166 -10.5 23.499s-18.666 11.333 -33.999 12h-8c-3.33301 0 -7 -0.166992 -11 -0.5s-7.66699 -1.5 -11 -3.5l-21 18l26 83c-24.667 11.333 -44.5 28.333 -59.5 51s-22.5 52 -22.5 88v291h-52v68h52v192h78v-192h103v-68h-103v-291
c0 -26.667 7.83301 -47.167 23.5 -61.5s37.5 -21.5 65.5 -21.5c2.66699 0 5 0.166992 7 0.5s4.33301 0.5 7 0.5v-69c-4.66699 -0.666992 -9 -1.16699 -13 -1.5s-8.33301 -0.5 -13 -0.5c-4 0 -8 0.166992 -12 0.5s-8 0.833008 -12 1.5z" />
    <glyph glyph-name="uni0164" unicode="&#x164;" horiz-adv-x="451" 
d="M10 702v-80h174v-622h83v622h174v80h-431zM363 869h-74l-63 -79h-2l-64 79h-74l88 -118h101z" />
    <glyph glyph-name="uni0165" unicode="&#x165;" horiz-adv-x="307" 
d="M245 707l72.002 0.000976562c7.33301 -26 9.33301 -49.833 6 -71.5s-11.333 -45.167 -24 -70.5h-62c4.66699 13.333 8.66699 25.833 12 37.5s5.66602 23 6.99902 34s1.16602 22.167 -0.500977 33.5s-5.16699 23.666 -10.5 36.999zM269.002 -2.99902
c-4.66699 -0.666992 -9.16699 -1 -13.5 -1h-13.5c-45.333 0 -82.333 12.667 -111 38s-43 63.333 -43 114v291h-52v68h52v192h78v-192h103v-68h-103v-291c0 -26.667 7.83301 -47.167 23.5 -61.5s37.5 -21.5 65.5 -21.5c2.66699 0 5 0.166992 7 0.5s4.33301 0.5 7 0.5v-69z
" />
    <glyph glyph-name="uni0166" unicode="&#x166;" horiz-adv-x="450" 
d="M53 320h131v-320h83v320h132v58h-132v244h174v80h-431v-80h174v-244h-131v-58z" />
    <glyph glyph-name="uni0167" unicode="&#x167;" horiz-adv-x="307" 
d="M39 240v60h49v139h-52v68h52v192h78v-192h103v-68h-103v-139h103v-60h-103v-92c0 -33.333 9.83301 -55.833 29.5 -67.5s44.167 -17.5 73.5 -17.5v-66c-4.66699 -0.666992 -9.16699 -1 -13.5 -1h-13.5c-45.333 0 -82.333 12.667 -111 38s-43 63.333 -43 114v92h-49z" />
    <glyph glyph-name="uni0168" unicode="&#x168;" horiz-adv-x="654" 
d="M91 700h82.998v-498c0 -23.333 4.33301 -43.833 13 -61.5s20.334 -32.334 35.001 -44.001s31.167 -20.5 49.5 -26.5s37.166 -9 56.499 -9s38 3 56 9s34.333 14.833 49 26.5s26.334 26.334 35.001 44.001s13 38.167 13 61.5v498h83v-498c0 -36 -6.83301 -67.5 -20.5 -94.5
s-31.5 -49.667 -53.5 -68s-47.167 -32 -75.5 -41s-57.166 -13.5 -86.499 -13.5c-30 0 -59.167 4.5 -87.5 13.5s-53.5 22.667 -75.5 41s-39.833 41 -53.5 68s-20.5 58.5 -20.5 94.5v498zM437.998 864l44 -31c-9.33301 -21.333 -22.5 -37.666 -39.5 -48.999
s-35.5 -17 -55.5 -17c-22.667 0 -45 7 -67 21c-14.667 10 -29 15 -43 15c-21.333 0 -40.666 -13 -57.999 -39l-47 30c12 22.667 26.833 39.667 44.5 51s36.834 17 57.501 17c24 0 48.333 -8.33301 73 -25c13.333 -8 25 -12 35 -12c11.333 0 21.666 3.66699 30.999 11
s17.666 16.666 24.999 27.999z" />
    <glyph glyph-name="uni0169" unicode="&#x169;" horiz-adv-x="614" 
d="M534 0l-65.001 0.000976562l-11 52c-14.667 -16 -33 -30 -55 -42s-48 -18.333 -78 -19c-34 0.666992 -66.333 5.16699 -97 13.5s-57.334 21.166 -80.001 38.499s-40.667 39.833 -54 67.5s-20 61.5 -20 101.5v295h78v-295c0.666992 -25.333 5.83398 -47.5 15.501 -66.5
s22.667 -34.667 39 -47s35 -21.5 56 -27.5s43.167 -9 66.5 -9c23.333 1.33301 45.833 7.33301 67.5 18s41.834 25.667 60.501 45v382h77v-507zM416.999 692.001l42.001 -32c-10 -20 -23 -35.167 -39 -45.5s-33.667 -15.5 -53 -15.5c-23.333 0 -46.333 7.66699 -69 23
c-16.667 11.333 -31.334 17 -44.001 17c-20 0 -38.667 -11.667 -56 -35l-45 31c25.333 42 58 63 98 63c26 0 51.333 -9.33301 76 -28c12.667 -8.66699 24.667 -13 36 -13c10.667 0 20.5 3.16699 29.5 9.5s17.167 14.833 24.5 25.5z" />
    <glyph glyph-name="uni016A" unicode="&#x16a;" horiz-adv-x="654" 
d="M91 700h82.998v-498c0 -23.333 4.33301 -43.833 13 -61.5s20.334 -32.334 35.001 -44.001s31.167 -20.5 49.5 -26.5s37.166 -9 56.499 -9s38 3 56 9s34.333 14.833 49 26.5s26.334 26.334 35.001 44.001s13 38.167 13 61.5v498h83v-498c0 -36 -6.83301 -67.5 -20.5 -94.5
s-31.5 -49.667 -53.5 -68s-47.167 -32 -75.5 -41s-57.166 -13.5 -86.499 -13.5c-30 0 -59.167 4.5 -87.5 13.5s-53.5 22.667 -75.5 41s-39.833 41 -53.5 68s-20.5 58.5 -20.5 94.5v498zM202.998 778v65h255v-65h-255z" />
    <glyph glyph-name="uni016B" unicode="&#x16b;" horiz-adv-x="614" 
d="M534 0l-65.001 0.000976562l-11 52c-14.667 -16 -33 -30 -55 -42s-48 -18.333 -78 -19c-34 0.666992 -66.333 5.16699 -97 13.5s-57.334 21.166 -80.001 38.499s-40.667 39.833 -54 67.5s-20 61.5 -20 101.5v295h78v-295c0.666992 -25.333 5.83398 -47.5 15.501 -66.5
s22.667 -34.667 39 -47s35 -21.5 56 -27.5s43.167 -9 66.5 -9c23.333 1.33301 45.833 7.33301 67.5 18s41.834 25.667 60.501 45v382h77v-507zM180.999 626.001v62h251v-62h-251z" />
    <glyph glyph-name="uni016C" unicode="&#x16c;" horiz-adv-x="654" 
d="M91 700h82.998v-498c0 -23.333 4.33301 -43.833 13 -61.5s20.334 -32.334 35.001 -44.001s31.167 -20.5 49.5 -26.5s37.166 -9 56.499 -9s38 3 56 9s34.333 14.833 49 26.5s26.334 26.334 35.001 44.001s13 38.167 13 61.5v498h83v-498c0 -36 -6.83301 -67.5 -20.5 -94.5
s-31.5 -49.667 -53.5 -68s-47.167 -32 -75.5 -41s-57.166 -13.5 -86.499 -13.5c-30 0 -59.167 4.5 -87.5 13.5s-53.5 22.667 -75.5 41s-39.833 41 -53.5 68s-20.5 58.5 -20.5 94.5v498zM331.998 744c-17.333 0 -34 2.50195 -50 7.50195s-30 12.333 -42 22
s-21.667 21.834 -29 36.501s-11 31.667 -11 51h64c0 -20.667 7.5 -35.834 22.5 -45.501s30.167 -14.5 45.5 -14.5c14.667 0 29.167 4.66699 43.5 14s21.5 24.666 21.5 45.999h66c0 -19.333 -3.66699 -36.333 -11 -51s-17 -26.834 -29 -36.501s-25.833 -17 -41.5 -22
s-32.167 -7.5 -49.5 -7.5z" />
    <glyph glyph-name="uni016D" unicode="&#x16d;" horiz-adv-x="614" 
d="M534 0l-65.001 0.000976562l-11 52c-14.667 -16 -33 -30 -55 -42s-48 -18.333 -78 -19c-34 0.666992 -66.333 5.16699 -97 13.5s-57.334 21.166 -80.001 38.499s-40.667 39.833 -54 67.5s-20 61.5 -20 101.5v295h78v-295c0.666992 -25.333 5.83398 -47.5 15.501 -66.5
s22.667 -34.667 39 -47s35 -21.5 56 -27.5s43.167 -9 66.5 -9c23.333 1.33301 45.833 7.33301 67.5 18s41.834 25.667 60.501 45v382h77v-507zM309.999 576.001c-17.333 0 -34 2.50195 -50 7.50195s-30 12.333 -42 22s-21.667 21.834 -29 36.501s-11 31.667 -11 51h64
c0 -20.667 7.5 -35.834 22.5 -45.501s30.167 -14.5 45.5 -14.5c14.667 0 29.167 4.66699 43.5 14s21.5 24.666 21.5 45.999h66c0 -19.333 -3.66699 -36.333 -11 -51s-17 -26.834 -29 -36.501s-25.833 -17 -41.5 -22s-32.167 -7.5 -49.5 -7.5z" />
    <glyph glyph-name="uni016E" unicode="&#x16e;" horiz-adv-x="654" 
d="M91 700h82.998v-498c0 -23.333 4.33301 -43.833 13 -61.5s20.334 -32.334 35.001 -44.001s31.167 -20.5 49.5 -26.5s37.166 -9 56.499 -9s38 3 56 9s34.333 14.833 49 26.5s26.334 26.334 35.001 44.001s13 38.167 13 61.5v498h83v-498c0 -36 -6.83301 -67.5 -20.5 -94.5
s-31.5 -49.667 -53.5 -68s-47.167 -32 -75.5 -41s-57.166 -13.5 -86.499 -13.5c-30 0 -59.167 4.5 -87.5 13.5s-53.5 22.667 -75.5 41s-39.833 41 -53.5 68s-20.5 58.5 -20.5 94.5v498zM336.998 738c-22.667 0 -42.334 6.5 -59.001 19.5s-25 31.167 -25 54.5
s8.33301 41.666 25 54.999s36.334 20 59.001 20c22 0 41.5 -6.66699 58.5 -20s25.5 -31.666 25.5 -54.999s-8.5 -41.5 -25.5 -54.5s-36.5 -19.5 -58.5 -19.5zM336.998 780c9.33301 0 17.166 3 23.499 9s9.5 13.667 9.5 23c0 10.667 -3.16699 19 -9.5 25s-14.166 9 -23.499 9
c-10 0 -18 -3 -24 -9s-9 -14.333 -9 -25c0 -9.33301 3 -17 9 -23s14 -9 24 -9z" />
    <glyph glyph-name="uni016F" unicode="&#x16f;" horiz-adv-x="614" 
d="M534 0l-65.001 0.000976562l-11 52c-14.667 -16 -33 -30 -55 -42s-48 -18.333 -78 -19c-34 0.666992 -66.333 5.16699 -97 13.5s-57.334 21.166 -80.001 38.499s-40.667 39.833 -54 67.5s-20 61.5 -20 101.5v295h78v-295c0.666992 -25.333 5.83398 -47.5 15.501 -66.5
s22.667 -34.667 39 -47s35 -21.5 56 -27.5s43.167 -9 66.5 -9c23.333 1.33301 45.833 7.33301 67.5 18s41.834 25.667 60.501 45v382h77v-507zM303.999 556.001c-22.667 0 -42.334 6.5 -59.001 19.5s-25 31.167 -25 54.5s8.33301 41.666 25 54.999s36.334 20 59.001 20
c22 0 41.5 -6.66699 58.5 -20s25.5 -31.666 25.5 -54.999s-8.5 -41.5 -25.5 -54.5s-36.5 -19.5 -58.5 -19.5zM303.999 598.001c9.33301 0 17.166 3 23.499 9s9.5 13.667 9.5 23c0 10.667 -3.16699 19 -9.5 25s-14.166 9 -23.499 9c-10 0 -18 -3 -24 -9s-9 -14.333 -9 -25
c0 -9.33301 3 -17 9 -23s14 -9 24 -9z" />
    <glyph glyph-name="uni0170" unicode="&#x170;" horiz-adv-x="654" 
d="M91 700h82.998v-498c0 -23.333 4.33301 -43.833 13 -61.5s20.334 -32.334 35.001 -44.001s31.167 -20.5 49.5 -26.5s37.166 -9 56.499 -9s38 3 56 9s34.333 14.833 49 26.5s26.334 26.334 35.001 44.001s13 38.167 13 61.5v498h83v-498c0 -36 -6.83301 -67.5 -20.5 -94.5
s-31.5 -49.667 -53.5 -68s-47.167 -32 -75.5 -41s-57.166 -13.5 -86.499 -13.5c-30 0 -59.167 4.5 -87.5 13.5s-53.5 22.667 -75.5 41s-39.833 41 -53.5 68s-20.5 58.5 -20.5 94.5v498zM218.998 755l61 107h79l-73 -107h-67zM367.998 755l66 107h86l-84 -107h-68z" />
    <glyph glyph-name="uni0171" unicode="&#x171;" horiz-adv-x="616" 
d="M534 0l-65.001 0.000976562l-11 52c-14.667 -16 -33 -30 -55 -42s-48 -18.333 -78 -19c-34 0.666992 -66.333 5.16699 -97 13.5s-57.334 21.166 -80.001 38.499s-40.667 39.833 -54 67.5s-20 61.5 -20 101.5v295h78v-295c0.666992 -25.333 5.83398 -47.5 15.501 -66.5
s22.667 -34.667 39 -47s35 -21.5 56 -27.5s43.167 -9 66.5 -9c23.333 1.33301 45.833 7.33301 67.5 18s41.834 25.667 60.501 45v382h77v-507zM183.999 585.001l61 107h79l-73 -107h-67zM332.999 585.001l66 107h86l-84 -107h-68z" />
    <glyph glyph-name="uni0172" unicode="&#x172;" horiz-adv-x="654" 
d="M91 700l82.9971 -0.000976562v-498c0 -23.333 4.33301 -43.833 13 -61.5s20.334 -32.334 35.001 -44.001s31.167 -20.5 49.5 -26.5s37.166 -9 56.499 -9s38 3 56 9s34.333 14.833 49 26.5s26.334 26.334 35.001 44.001s13 38.167 13 61.5v498h83v-498
c0 -40.667 -8.5 -75.667 -25.5 -105s-38.833 -52.666 -65.5 -69.999l-18.999 -15s-14.333 -12.5 -21 -19.5s-12.334 -14.5 -17.001 -22.5s-7 -16.333 -7 -25c0 -10 3.33301 -19 10 -27s14.334 -15 23.001 -21c9.33301 -6.66699 20 -12.334 32 -17.001l-23 -62
c-21.333 4.66699 -40 12 -56 22c-16 8.66699 -29.5 19.834 -40.5 33.501s-16.5 31.167 -16.5 52.5c0 12.667 2.83301 24 8.5 34s12.5 19.333 20.5 28c-12.667 -2 -26 -3 -40 -3c-29.333 0 -58.166 4.5 -86.499 13.5s-53.5 22.5 -75.5 40.5s-39.833 40.667 -53.5 68
s-20.5 59 -20.5 95v498z" />
    <glyph glyph-name="uni0173" unicode="&#x173;" horiz-adv-x="614" 
d="M534 0c-13.333 -7.33301 -26.5 -16.3301 -39.5 -26.9971s-19.833 -24 -20.5 -40c-0.666992 -11.333 2.16602 -20.666 8.49902 -27.999s13.5 -13.333 21.5 -18c8.66699 -4.66699 19 -8.33398 31 -11.001l-22 -46c-19.333 2 -36.333 6.33301 -51 13
c-14 6 -26 14.667 -36 26s-15 27.333 -15 48c0 17.333 5.5 33.166 16.5 47.499s24.833 26.166 41.5 35.499l-11 52c-14.667 -16 -33 -30 -55 -42s-48 -18.333 -78 -19c-34 0.666992 -66.333 5.16699 -97 13.5s-57.334 21.166 -80.001 38.499s-40.667 39.833 -54 67.5
s-20 61.5 -20 101.5v295h78v-295c0.666992 -25.333 5.83398 -47.5 15.501 -66.5s22.667 -34.667 39 -47s35 -21.5 56 -27.5s43.167 -9 66.5 -9c23.333 1.33301 45.833 7.33301 67.5 18s41.834 25.667 60.501 45v382h77v-507z" />
    <glyph glyph-name="uni0174" unicode="&#x174;" horiz-adv-x="958" 
d="M519 614l160 -521l159 609h85l-193 -705h-101l-147 471l-74 -236l-74 -235h-101l-194 705h86l159 -610l162 522h73zM344 754l88 117h101l88 -117h-74l-64 81h-2l-63 -81h-74z" />
    <glyph glyph-name="uni0175" unicode="&#x175;" horiz-adv-x="720" 
d="M318 510l87.001 -0.00390625l85 -337c2 -6 3.83301 -13.333 5.5 -22s3.16699 -17.5 4.5 -26.5s2.5 -17.833 3.5 -26.5s1.5 -16 1.5 -22h5c0.666992 13.333 2.33398 30 5.00098 50s5.66699 36 9 48l95 336h80l-151 -510h-92l-85 339
c-0.666992 2 -1.33398 6.33301 -2.00098 13s-1.5 13.834 -2.5 21.501s-1.83301 14.834 -2.5 21.501s-1 10.667 -1 12h-4l-1 -10.5c-0.666992 -7 -1.5 -14.667 -2.5 -23s-1.83301 -16 -2.5 -23s-1 -10.833 -1 -11.5l-84 -339h-92l-152 510h80l95 -336
c5.33301 -17.333 9 -35.666 11 -54.999s3.66699 -33.666 5 -42.999h5c0 7.33301 0.5 15.833 1.5 25.5l3 28.5c1 9.33301 2.16699 17.833 3.5 25.5s2.66602 13.5 3.99902 17.5zM221.001 578.996l88 117h101l88 -117h-74l-64 81h-2l-63 -81h-74z" />
    <glyph glyph-name="uni0176" unicode="&#x176;" horiz-adv-x="586" 
d="M571 705l-240 -426v-279h-81v279l-119.5 213.5l-119.5 212.5h94l186 -339l93 169.5l92 169.5h95zM157 754l88 117h101l88 -117h-74l-64 81h-2l-63 -81h-74z" />
    <glyph glyph-name="uni0177" unicode="&#x177;" horiz-adv-x="505" 
d="M90 -190l0.000976562 64.999c3.33301 -0.666992 6.66602 -1 9.99902 -1h10c23.333 0 40.666 4.83301 51.999 14.5s19.666 21.834 24.999 36.501l28 73l-207 509h84l164 -419l156 419h84l-235 -607c-13.333 -34.667 -32.666 -58.5 -57.999 -71.5s-53.333 -19.5 -84 -19.5
h-14.5c-4.33301 0 -9.16602 0.333008 -14.499 1zM115.001 577.999l88 117h101l88 -117h-74l-64 81h-2l-63 -81h-74z" />
    <glyph glyph-name="uni0178" unicode="&#x178;" horiz-adv-x="589" 
d="M574 705l-240 -426v-279h-81v279l-119.5 213.5l-119.5 212.5h94l186 -339l93 169.5l92 169.5h95zM253 775h-90v98h90v-98zM426 775h-90v98h90v-98z" />
    <glyph glyph-name="uni0179" unicode="&#x179;" horiz-adv-x="569" 
d="M58 0h457v75h-378l116 162l262 392v76h-445v-74h364l-103 -145l-273 -406v-80zM415 873h-93l-65 -115h74z" />
    <glyph glyph-name="uni017A" unicode="&#x17a;" horiz-adv-x="469" 
d="M46 0h376v69h-294l294 388v51h-365v-70l266 1l-277 -366v-73zM342 692h-93l-65 -115h74z" />
    <glyph glyph-name="uni017B" unicode="&#x17b;" horiz-adv-x="568" 
d="M58 0h457v75h-378l116 162l262 392v76h-445v-74h364l-103 -145l-273 -406v-80zM258 769h87v89h-87v-89z" />
    <glyph glyph-name="uni017C" unicode="&#x17c;" horiz-adv-x="469" 
d="M46 0h376v69h-294l294 388v51h-365v-70l266 1l-277 -366v-73zM202 596h87v83h-87v-83z" />
    <glyph glyph-name="uni017D" unicode="&#x17d;" horiz-adv-x="557" 
d="M52 0h457v75h-378l116 162l262 392v76h-445v-74h364l-103 -145l-273 -406v-80zM441 892h-75l-62 -78h-2l-62 78h-76l88 -120h101z" />
    <glyph glyph-name="uni017E" unicode="&#x17e;" horiz-adv-x="468" 
d="M46 0h376v69h-294l294 388v51h-365v-70l266 1l-277 -366v-73zM391 726h-74l-63 -81h-2l-64 81h-74l88 -120h101z" />
    <glyph glyph-name="uni017F" unicode="&#x17f;" horiz-adv-x="232" 
d="M277 701v-68.999c-14.667 0 -28.167 -1.16699 -40.5 -3.5s-23.333 -6.5 -33 -12.5s-17.167 -14.333 -22.5 -25s-8 -24.334 -8 -41.001v-550h-78v432h-55v72h55v46c0 50.667 14.5 88.667 43.5 114s66.167 38 111.5 38h13.5c4.33301 0 8.83301 -0.333008 13.5 -1z" />
    <glyph glyph-name="uni0192" unicode="&#x192;" horiz-adv-x="562" 
d="M518 712l-11.999 -72c-2.66699 0 -5.16699 0.166992 -7.5 0.5s-4.5 0.5 -6.5 0.5c-22 0 -40 -4.5 -54 -13.5s-25.5 -20.667 -34.5 -35s-16 -30.666 -21 -48.999s-9.16699 -36.833 -12.5 -55.5h108l-13 -76h-108l-88 -461c-4.66699 -24 -11.667 -46.333 -21 -67
s-21.833 -38.334 -37.5 -53.001s-35 -26.167 -58 -34.5s-51.167 -12.5 -84.5 -12.5c-8.66699 0 -17.167 0.333008 -25.5 1s-16.5 2.33398 -24.5 5.00098l11 65c15.333 -2 29 -3 41 -3c37.333 0 64.166 9.66699 80.499 29s28.166 47.333 35.499 84l86 447h-95l14 76h96l6 32
c4.66699 25.333 12.5 49.666 23.5 72.999s25.167 44 42.5 62s37.833 32.333 61.5 43s50.5 16 80.5 16c4.66699 0 10.334 -0.666992 17.001 -2z" />
    <glyph glyph-name="uni0218" unicode="&#x218;" horiz-adv-x="558" 
d="M143 526c-1.33301 -22 2.50195 -40.334 11.502 -55.001s20.667 -26.667 35 -36s29.833 -16.666 46.5 -21.999s32.334 -10 47.001 -14c27.333 -6.66699 54 -15 80 -25s49 -23.333 69 -40s36 -38 48 -64s17 -58.333 15 -97c-1.33301 -32 -9 -59.667 -23 -83
s-31.667 -42.833 -53 -58.5s-45.166 -27.167 -71.499 -34.5s-52.833 -11 -79.5 -11c-22.667 0 -45.167 3.16699 -67.5 9.5s-43.5 15.833 -63.5 28.5s-38 28.334 -54 47.001s-28.667 40.334 -38 65.001l65 35c13.333 -34.667 34.666 -61.834 63.999 -81.501
s62.333 -29.5 99 -29.5c40.667 0 73.834 10.667 99.501 32s39.834 50 42.501 86c2 25.333 -1.83301 46.5 -11.5 63.5s-22.167 31 -37.5 42s-32.333 19.667 -51 26s-36.334 11.833 -53.001 16.5c-23.333 6 -47 13.667 -71 23s-45.667 21.666 -65 36.999
s-34.833 34.5 -46.5 57.5s-17.167 51.833 -16.5 86.5c1.33301 32 8.16602 59.833 20.499 83.5s28.166 43.334 47.499 59.001s41.333 27.334 66 35.001s49.667 11.5 75 11.5c22 0 43.833 -2.83301 65.5 -8.5s41.667 -14.334 60 -26.001s34.833 -26 49.5 -43
s26 -36.833 34 -59.5l-63 -31c-12 30.667 -31.5 54 -58.5 70s-56.5 24 -88.5 24c-16 0 -31.333 -2.33301 -46 -7s-27.834 -11.834 -39.501 -21.501s-21.334 -22 -29.001 -37s-12.167 -32.833 -13.5 -53.5zM237.002 -56.001h78c7.33301 -26 9.33301 -49.5 6 -70.5
s-11.333 -44.167 -24 -69.5h-67c10 26 16.167 49.167 18.5 69.5s-1.5 43.833 -11.5 70.5z" />
    <glyph glyph-name="uni0219" unicode="&#x219;" horiz-adv-x="439" 
d="M231 291c21.333 -4 41.8311 -9.66602 61.498 -16.999s37.167 -16.833 52.5 -28.5s27.666 -26 36.999 -43s14 -37.833 14 -62.5c0 -26.667 -5.83301 -49.5 -17.5 -68.5s-26.334 -34.667 -44.001 -47s-37.334 -21.333 -59.001 -27s-42.5 -8.5 -62.5 -8.5
c-34 0 -66.167 6.83301 -96.5 20.5s-55.166 34.5 -74.499 62.5l48 49c34 -41.333 76 -62 126 -62c12 0 24.167 1.66699 36.5 5s23.5 8.33301 33.5 15s18.167 15.167 24.5 25.5s9.5 22.5 9.5 36.5c0 12.667 -3.66699 23.5 -11 32.5s-16.166 16.667 -26.499 23
s-21.666 11.333 -33.999 15s-23.833 6.5 -34.5 8.5c-20.667 3.33301 -40.5 8.33301 -59.5 15s-35.833 15.667 -50.5 27s-26.5 25.333 -35.5 42s-13.5 37 -13.5 61s5 45.5 15 64.5s23.333 35 40 48s35.667 22.833 57 29.5s43.333 10 66 10c25.333 0 51.5 -4.33301 78.5 -13
s50.833 -23.667 71.5 -45l-45 -51c-16 14 -32.667 23.833 -50 29.5s-36.666 8.5 -57.999 8.5c-12.667 0 -25 -1.83301 -37 -5.5s-22.667 -8.83398 -32 -15.501s-16.666 -15 -21.999 -25s-8 -21.667 -8 -35c0 -12.667 3.33301 -23.334 10 -32.001s15 -15.667 25 -21
s20.833 -9.66602 32.5 -12.999s22.5 -6 32.5 -8zM181.998 -55.999l74.998 -0.000976562c5.33301 -22.667 6.5 -45.667 3.5 -69s-10.167 -45.666 -21.5 -66.999h-64c10.667 25.333 16.834 47.833 18.501 67.5s-2.16602 42.5 -11.499 68.5z" />
    <glyph glyph-name="uni021A" unicode="&#x21a;" horiz-adv-x="451" 
d="M10 702h431v-80h-174v-622h-83v622h-174v80zM189 -47h80c7.33301 -26.667 9.33301 -51.5 6 -74.5s-11.333 -47.167 -24 -72.5h-69c9.33301 27.333 15.5 51.833 18.5 73.5s-0.833008 46.167 -11.5 73.5z" />
    <glyph glyph-name="uni021B" unicode="&#x21b;" horiz-adv-x="307" 
d="M270 66v-69c-4.66699 -0.666992 -9.16699 -1 -13.5 -1h-13.5c-45.333 0 -82.333 12.667 -111 38s-43 63.333 -43 114v291h-52v68h52v192h78v-192h103v-68h-103v-291c0 -26.667 7.83301 -47.167 23.5 -61.5s37.5 -21.5 65.5 -21.5c2.66699 0 5 0.166992 7 0.5
s4.33301 0.5 7 0.5zM166 -57l77 -0.000976562c7.33301 -26.667 9.33301 -51.167 6 -73.5s-11.333 -46.166 -24 -71.499h-66c9.33301 27.333 15.5 51.5 18.5 72.5s-0.833008 45.167 -11.5 72.5z" />
    <glyph glyph-name="uni02C6" unicode="&#x2c6;" horiz-adv-x="509" 
d="M117 763h74l63 81h2l64 -81h74l-88 117h-101z" />
    <glyph glyph-name="uni02C7" unicode="&#x2c7;" horiz-adv-x="509" 
d="M393 879h-74l-63 -81h-2l-64 81h-74l88 -120h101z" />
    <glyph glyph-name="uni02D8" unicode="&#x2d8;" horiz-adv-x="509" 
d="M255 751c-17.333 0 -34 2.5 -50 7.5s-30 12.333 -42 22s-21.667 21.834 -29 36.501s-11 31.667 -11 51h64c0 -20.667 7.5 -35.667 22.5 -45s30.167 -14 45.5 -14c14.667 0 29.167 4.5 43.5 13.5s21.5 24.167 21.5 45.5h66c0 -19.333 -3.66699 -36.333 -11 -51
s-17 -26.834 -29 -36.501s-25.833 -17 -41.5 -22s-32.167 -7.5 -49.5 -7.5z" />
    <glyph glyph-name="uni02D9" unicode="&#x2d9;" horiz-adv-x="510" 
d="M211 784h87v89h-87v-89z" />
    <glyph glyph-name="uni02DA" unicode="&#x2da;" horiz-adv-x="510" 
d="M255 743c-22.667 0 -42.334 6.5 -59.001 19.5s-25 31.167 -25 54.5s8.33301 41.666 25 54.999s36.334 20 59.001 20c22 0 41.5 -6.66699 58.5 -20s25.5 -31.666 25.5 -54.999s-8.5 -41.5 -25.5 -54.5s-36.5 -19.5 -58.5 -19.5zM255 785c9.33301 0 17.166 3 23.499 9
s9.5 13.667 9.5 23c0 10.667 -3.16699 19 -9.5 25s-14.166 9 -23.499 9c-10 0 -18 -3 -24 -9s-9 -14.333 -9 -25c0 -9.33301 3 -17 9 -23s14 -9 24 -9z" />
    <glyph glyph-name="uni02DB" unicode="&#x2db;" horiz-adv-x="509" 
d="M175 -106c-3.33301 20 0 37.8311 10 53.498s21.667 29.167 35 40.5c15.333 13.333 33.333 25 54 35l58 -11c-16 -10.667 -30 -21.667 -42 -33c-12 -10 -22.167 -20.667 -30.5 -32s-12.5 -22.666 -12.5 -33.999c0 -9.33301 3.66699 -17.166 11 -23.499
s15.333 -11.5 24 -15.5c10 -4 21.667 -7.33301 35 -10l-24 -44c-12.667 0 -25.667 1 -39 3s-25.5 5.66699 -36.5 11s-20.333 12.833 -28 22.5s-12.5 22.167 -14.5 37.5z" />
    <glyph glyph-name="uni02DC" unicode="&#x2dc;" horiz-adv-x="490" 
d="M359 858l45 -32.998c-10 -22.667 -23.667 -39.834 -41 -51.501s-36.333 -17.5 -57 -17.5c-24 0 -46.667 7.33301 -68 22c-16 10 -30.667 15 -44 15c-23.333 0 -43.333 -13.333 -60 -40l-48 31c12.667 23.333 28 41.166 46 53.499s37.667 18.5 59 18.5
c24.667 0 49.667 -8.66699 75 -26c12.667 -8.66699 24.667 -13 36 -13s21.833 3.83301 31.5 11.5s18.167 17.5 25.5 29.5z" />
    <glyph glyph-name="uni02DD" unicode="&#x2dd;" horiz-adv-x="509" 
d="M91 755h69l76 113h-82zM245 755h70l87 113h-89z" />
    <glyph glyph-name="uni0384" unicode="&#x384;" horiz-adv-x="509" 
d="M328 876h-87l-65 -115h68z" />
    <glyph glyph-name="uni0385" unicode="&#x385;" horiz-adv-x="509" 
d="M155 791v89h-81v-89h81zM429 791v89h-81v-89h81zM241 765h-60l52 113h85z" />
    <glyph glyph-name="uni0386" unicode="&#x386;" horiz-adv-x="632" 
d="M13 0h88l79 224h271l81 -224h87l-254 705h-101zM65 590h-68l65 115h87zM205 300l110 318l109 -318h-219z" />
    <glyph glyph-name="uni0388" unicode="&#x388;" horiz-adv-x="570" 
d="M501 704h-375v-703h375v78h-293l1 234h288v77h-288v237h292v77zM98 705h-87l-65 -115h68z" />
    <glyph glyph-name="uni0389" unicode="&#x389;" horiz-adv-x="713" 
d="M530 0h83v703h-83v-317h-321v317h-83v-703h83v312h321v-312zM102 705h-87l-65 -115h68z" />
    <glyph glyph-name="uni038A" unicode="&#x38a;" horiz-adv-x="307" 
d="M124 0h82v703h-82v-703zM98 705h-87l-65 -115h68z" />
    <glyph glyph-name="uni038C" unicode="&#x38c;" 
d="M410 714c49.333 0 95.666 -9.83301 138.999 -29.5s81.166 -46.167 113.499 -79.5s57.833 -72 76.5 -116s28 -90.667 28 -140s-9.33301 -96 -28 -140s-44.167 -82.5 -76.5 -115.5s-70.166 -59.167 -113.499 -78.5s-89.666 -29 -138.999 -29s-95.666 9.66699 -138.999 29
s-81.166 45.5 -113.499 78.5s-57.833 71.5 -76.5 115.5s-28 90.667 -28 140s9.33301 96 28 140s44.167 82.667 76.5 116s70.166 59.833 113.499 79.5s89.666 29.5 138.999 29.5zM136 349c0 -47.333 7.83105 -88.8291 23.498 -124.496s36.334 -65.5 62.001 -89.5
s55 -42.167 88 -54.5s66.5 -18.5 100.5 -18.5s67.5 6.16699 100.5 18.5s62.333 30.5 88 54.5s46.334 53.833 62.001 89.5s23.5 77.167 23.5 124.5s-7.83301 89 -23.5 125s-36.5 66.167 -62.5 90.5s-55.5 42.666 -88.5 54.999s-66.5 18.5 -100.5 18.5
s-67.5 -6.33301 -100.5 -19s-62.167 -31.334 -87.5 -56.001s-45.833 -54.834 -61.5 -90.501s-23.5 -76.834 -23.5 -123.501zM39.998 590.004h-68l65 115h87z" />
    <glyph glyph-name="uni038E" unicode="&#x38e;" horiz-adv-x="690" 
d="M675 705l-240 -426v-279h-81v279l-119.5 213.5l-119.5 212.5h94l186 -339l93 169.5l92 169.5h95zM18 590h-68l65 115h87z" />
    <glyph glyph-name="uni038F" unicode="&#x38f;" horiz-adv-x="810" 
d="M405 637c-40.667 0 -78 -7.16602 -112 -21.499s-63.333 -34.166 -88 -59.499s-43.834 -55 -57.501 -89s-20.5 -71 -20.5 -111c0 -73.333 18.667 -134 56 -182s86.333 -84.333 147 -109l-17 -65h-284v67h183c-26 10.667 -49 25.834 -69 45.501s-37 42.334 -51 68.001
s-24.667 53.5 -32 83.5s-11 60.667 -11 92c0 51.333 8.66699 98.666 26 141.999s41.833 80.666 73.5 111.999s69.334 56 113.001 74s91.5 27 143.5 27c52.667 0 100.834 -9 144.501 -27s81 -42.833 112 -74.5s55.167 -69.167 72.5 -112.5s26 -90.333 26 -141
c0 -30 -4 -60.167 -12 -90.5s-19.167 -58.666 -33.5 -84.999s-31.5 -49.5 -51.5 -69.5s-41.667 -35 -65 -45h184v-66h-278l-13 66c30 14 56.833 29.833 80.5 47.5s43.667 38.167 60 61.5s29 49.833 38 79.5s13.5 63.5 13.5 101.5c0 39.333 -6.83301 76.166 -20.5 110.499
s-32.834 64.166 -57.501 89.499s-54 45.166 -88 59.499s-71.333 21.5 -112 21.5zM117 705.001l-84 -115h-68l65 115h87z" />
    <glyph glyph-name="uni0390" unicode="&#x390;" horiz-adv-x="244" 
d="M220 66l-0.00195312 -67c-22 0 -41.667 1.16699 -59 3.5s-32.166 7.5 -44.499 15.5s-21.666 19.667 -27.999 35s-9.5 36 -9.5 62v392h79v-392c0 -18.667 4.33301 -31.5 13 -38.5s25 -10.5 49 -10.5zM58.998 612h-77v85h77v-85zM204.998 697l-74 -108h-56l49 108h81z
M301.998 612h-77v85h77v-85z" />
    <glyph glyph-name="uni0391" unicode="&#x391;" horiz-adv-x="632" 
d="M13 0h88l79 224h271l81 -224h87l-254 705h-101zM205 300l110 318l109 -318h-219z" />
    <glyph glyph-name="uni0392" unicode="&#x392;" horiz-adv-x="609" 
d="M517 519c0 -26.667 -6.66699 -52.3311 -20 -76.998s-33.666 -46.334 -60.999 -65.001c40 -19.333 69 -45 87 -77s26.667 -65 26 -99c0 -34.667 -6.33301 -64.667 -19 -90s-29.834 -46.333 -51.501 -63s-47 -28.834 -76 -36.501s-59.833 -11.5 -92.5 -11.5h-209v704h210
c28 0 54.5 -4.16699 79.5 -12.5s46.833 -20.5 65.5 -36.5s33.5 -35.5 44.5 -58.5s16.5 -48.833 16.5 -77.5zM311 333.003h-128.001v-257h128c36 0 65.833 6.33301 89.5 19s41.334 28.5 53.001 47.5s17.5 39.667 17.5 62s-6 43 -18 62s-29.833 34.833 -53.5 47.5
s-53.167 19 -88.5 19zM182.999 410.003h128c28.667 0 52.667 5.5 72 16.5s33.833 24.5 43.5 40.5s14.5 33.667 14.5 53s-4.83301 37 -14.5 53s-24.167 29.5 -43.5 40.5s-43.333 16.5 -72 16.5h-128v-220z" />
    <glyph glyph-name="uni0393" unicode="&#x393;" horiz-adv-x="518" 
d="M473 700h-371v-700h80v629h291v71z" />
    <glyph glyph-name="uni0394" unicode="&#x394;" horiz-adv-x="632" 
d="M619 0l-254 705h-101l-251 -705h606zM315 618l193 -550h-384z" />
    <glyph glyph-name="uni0395" unicode="&#x395;" horiz-adv-x="531" 
d="M462 704h-375v-703h375v78h-293l1 234h288v77h-288v237h292v77z" />
    <glyph glyph-name="uni0396" unicode="&#x396;" horiz-adv-x="568" 
d="M58 0h457v75h-378l116 162l262 392v76h-445v-74h364l-103 -145l-273 -406v-80z" />
    <glyph glyph-name="uni0397" unicode="&#x397;" horiz-adv-x="688" 
d="M505 0h83v703h-83v-317h-321v317h-83v-703h83v312h321v-312z" />
    <glyph glyph-name="uni0398" unicode="&#x398;" 
d="M410 714c49.333 0 95.666 -9.83301 138.999 -29.5s81.166 -46.167 113.499 -79.5s57.833 -72 76.5 -116s28 -90.667 28 -140s-9.33301 -96 -28 -140s-44.167 -82.5 -76.5 -115.5s-70.166 -59.167 -113.499 -78.5s-89.666 -29 -138.999 -29s-95.666 9.66699 -138.999 29
s-81.166 45.5 -113.499 78.5s-57.833 71.5 -76.5 115.5s-28 90.667 -28 140s9.33301 96 28 140s44.167 82.667 76.5 116s70.166 59.833 113.499 79.5s89.666 29.5 138.999 29.5zM136 349c0 -47.333 7.83105 -88.8291 23.498 -124.496s36.334 -65.5 62.001 -89.5
s55 -42.167 88 -54.5s66.5 -18.5 100.5 -18.5s67.5 6.16699 100.5 18.5s62.333 30.5 88 54.5s46.334 53.833 62.001 89.5s23.5 77.167 23.5 124.5s-7.83301 89 -23.5 125s-36.5 66.167 -62.5 90.5s-55.5 42.666 -88.5 54.999s-66.5 18.5 -100.5 18.5
s-67.5 -6.33301 -100.5 -19s-62.167 -31.334 -87.5 -56.001s-45.833 -54.834 -61.5 -90.501s-23.5 -76.834 -23.5 -123.501zM202.998 314.004v71h409v-71h-409z" />
    <glyph glyph-name="uni0399" unicode="&#x399;" horiz-adv-x="284" 
d="M101 0h82v703h-82v-703z" />
    <glyph glyph-name="uni039A" unicode="&#x39a;" horiz-adv-x="630" 
d="M101 705v-705h83v259l76 76l250 -335h97l-292 389l281 316h-91l-321 -348v348h-83z" />
    <glyph glyph-name="uni039B" unicode="&#x39b;" horiz-adv-x="627" 
d="M262 705l-251 -706h87l214 620l215 -620h89l-253 706h-101z" />
    <glyph glyph-name="uni039C" unicode="&#x39c;" horiz-adv-x="851" 
d="M462 95l206 457v-552h83v704h-106l-219 -502l-220 502h-105v-704h80v557l210 -462h71z" />
    <glyph glyph-name="uni039D" unicode="&#x39d;" horiz-adv-x="757" 
d="M658 700h-82v-610l-376 610h-99v-700h82v586l359 -586h116v700z" />
    <glyph glyph-name="uni039E" unicode="&#x39e;" horiz-adv-x="530" 
d="M37 74v-74h462v74h-462zM78 319h377v69h-377v-69zM493 627v73h-450v-73h450z" />
    <glyph glyph-name="uni039F" unicode="&#x39f;" 
d="M410 714c49.333 0 95.666 -9.83301 138.999 -29.5s81.166 -46.167 113.499 -79.5s57.833 -72 76.5 -116s28 -90.667 28 -140s-9.33301 -96 -28 -140s-44.167 -82.5 -76.5 -115.5s-70.166 -59.167 -113.499 -78.5s-89.666 -29 -138.999 -29s-95.666 9.66699 -138.999 29
s-81.166 45.5 -113.499 78.5s-57.833 71.5 -76.5 115.5s-28 90.667 -28 140s9.33301 96 28 140s44.167 82.667 76.5 116s70.166 59.833 113.499 79.5s89.666 29.5 138.999 29.5zM136 349c0 -47.333 7.83105 -88.8291 23.498 -124.496s36.334 -65.5 62.001 -89.5
s55 -42.167 88 -54.5s66.5 -18.5 100.5 -18.5s67.5 6.16699 100.5 18.5s62.333 30.5 88 54.5s46.334 53.833 62.001 89.5s23.5 77.167 23.5 124.5s-7.83301 89 -23.5 125s-36.5 66.167 -62.5 90.5s-55.5 42.666 -88.5 54.999s-66.5 18.5 -100.5 18.5
s-67.5 -6.33301 -100.5 -19s-62.167 -31.334 -87.5 -56.001s-45.833 -54.834 -61.5 -90.501s-23.5 -76.834 -23.5 -123.501z" />
    <glyph glyph-name="uni03A0" unicode="&#x3a0;" horiz-adv-x="658" 
d="M557 0v700h-455v-700h80v633h297v-633h78z" />
    <glyph glyph-name="uni03A1" unicode="&#x3a1;" horiz-adv-x="583" 
d="M183 256l-0.000976562 -255.999h-82v703h210c39.333 0 73.666 -6.5 102.999 -19.5s53.833 -30.167 73.5 -51.5s34.5 -45.5 44.5 -72.5s15 -54.5 15 -82.5s-5 -55.333 -15 -82s-24.667 -50.334 -44 -71.001s-43.666 -37.167 -72.999 -49.5s-63.666 -18.5 -102.999 -18.5
h-129zM310.999 332.001c26 0 48.499 4.33301 67.499 13s35 19.834 48 33.501s22.667 29.167 29 46.5s9.5 34.666 9.5 51.999c0 18 -3.16699 35.833 -9.5 53.5s-16 33.667 -29 48s-29.167 26 -48.5 35s-41.666 13.5 -66.999 13.5h-128v-295h128z" />
    <glyph glyph-name="uni03A3" unicode="&#x3a3;" horiz-adv-x="546" 
d="M329 374l-183 259h356v67h-426l-31 -44l202 -297l-211 -315l36 -44h437v70h-367l187 275v29z" />
    <glyph glyph-name="uni03A4" unicode="&#x3a4;" horiz-adv-x="451" 
d="M10 702v-80h174v-622h83v622h174v80h-431z" />
    <glyph glyph-name="uni03A5" unicode="&#x3a5;" horiz-adv-x="589" 
d="M574 705l-240 -426v-279h-81v279l-119.5 213.5l-119.5 212.5h94l186 -339l93 169.5l92 169.5h95z" />
    <glyph glyph-name="uni03A6" unicode="&#x3a6;" horiz-adv-x="818" 
d="M361 639l-0.00292969 64.0029h79v-64c68 -0.666992 124.667 -15.334 170 -44.001s79.333 -64 102 -106s33.834 -87.667 33.501 -137s-11.833 -95.166 -34.5 -137.499s-56.667 -77.833 -102 -106.5s-101.666 -43.667 -168.999 -45v-66h-79v66
c-68.667 1.33301 -126 16.166 -172 44.499s-80.333 63.666 -103 105.999s-34 88.166 -34 137.499s11.5 95.166 34.5 137.499s57.333 77.833 103 106.5s102.834 43.334 171.501 44.001zM131.997 352.003c0 -26.667 5.00098 -53.333 15.001 -80s24.667 -50.5 44 -71.5
s43.166 -38.167 71.499 -51.5s61.166 -20 98.499 -20v443c-38 0 -71.167 -6.5 -99.5 -19.5s-52.166 -29.833 -71.499 -50.5s-33.833 -44.167 -43.5 -70.5s-14.5 -52.833 -14.5 -79.5zM439.998 572.004v-443.001c50.667 1.33301 92.667 13 126 35s58.333 49.167 75 81.5
s25 67.333 25 105s-8.5 72.834 -25.5 105.501s-42.167 60 -75.5 82s-75 33.333 -125 34z" />
    <glyph glyph-name="uni03A7" unicode="&#x3a7;" horiz-adv-x="643" 
d="M615 700l-239 -350l120 -174.5l120 -174.5h-100l-189 281l-189 -281h-101l241 349l-239 350h99l189 -277l94.5 139l94.5 138h99z" />
    <glyph glyph-name="uni03A8" unicode="&#x3a8;" horiz-adv-x="749" 
d="M338 213l-0.00292969 487.001h81v-487c36 3.33301 66.833 11.166 92.5 23.499s46.834 28.333 63.501 48s28.834 42.167 36.501 67.5s11.5 52 11.5 80v268h80v-268c0 -35.333 -5.16699 -69.833 -15.5 -103.5s-26.666 -64 -48.999 -91s-51.5 -49.167 -87.5 -66.5
s-80 -27 -132 -29v-142h-81v142c-51.333 3.33301 -95 13.666 -131 30.999s-65.333 39.166 -88 65.499s-39.334 56.333 -50.001 90s-16 67.834 -16 102.501v269h80v-268c0 -26.667 4 -52.5 12 -77.5s20.333 -47.333 37 -67s37.834 -36.167 63.501 -49.5
s56.5 -21.666 92.5 -24.999z" />
    </font>
</defs>
</svg>
