<?xml version="1.0" standalone="no"?>
<!DOCTYPE svg PUBLIC "-//W3C//DTD SVG 1.1//EN" "http://www.w3.org/Graphics/SVG/1.1/DTD/svg11.dtd" >
<svg>
<metadata>
Created by FontForge 20090914 at Wed Jul 14 11:07:34 2021
 By www-data
Copyright &#194;&#169; 2011 By Svetoslav Simov &#194;&#169; Fontfabric, LLC. All rights reserved.
</metadata>
<defs>
<font id="Solomon-Sans-Normal" horiz-adv-x="820" >
  <font-face 
    font-family="Solomon Sans Normal"
    font-weight="400"
    font-stretch="normal"
    units-per-em="1000"
    panose-1="2 0 0 0 0 0 0 0 0 0"
    ascent="750"
    descent="-250"
    x-height="506.001"
    cap-height="700"
    bbox="-138 -218 1676 910"
    underline-thickness="50"
    underline-position="-100"
    unicode-range="U+0020-U+FB04"
  />
<missing-glyph horiz-adv-x="520" 
d="M10 0v700h500v-700h-500zM260 395l170 255h-340zM290 350l170 -255v510zM60 95l170 255l-170 255v-510zM90 50h340l-170 255z" />
    <glyph glyph-name="f_f" unicode="ff" horiz-adv-x="609" 
d="M583 701v-69c-33.333 2 -59 -4 -77 -18s-27 -35.333 -27 -64v-52h100v-67h-100v-431h-78v431h-226v-431h-78v431h-50v67h50v52c0 54 16.833 94.167 50.5 120.5s77.5 36.5 131.5 30.5v-69c-33.333 2 -59 -4 -77 -18s-27 -35.333 -27 -64v-52h226v52
c0 54 16.833 94.167 50.5 120.5s77.5 36.5 131.5 30.5z" />
    <glyph glyph-name="fi" unicode="fi" horiz-adv-x="521" 
d="M441 0h-79v435h-189v-435h-78v435h-50v72h50v43c0 54 16.833 94.167 50.5 120.5s77.5 36.5 131.5 30.5v-69c-33.333 2 -59 -4 -77 -18s-27 -35.333 -27 -64v-43h268v-507zM442 612v92h-81v-92h81z" />
    <glyph glyph-name="fl" unicode="fl" horiz-adv-x="538" 
d="M277 701v-69c-33.333 2 -59 -4 -77 -18s-27 -35.333 -27 -64v-46h100v-72h-100v-432h-78v432h-50v72h50v46c0 54 16.833 94.167 50.5 120.5s77.5 36.5 131.5 30.5zM516 -2l-0.000976562 69c-31.333 -2.66699 -52.666 2.66602 -63.999 15.999s-17 35.333 -17 66v556h-79
v-556c0 -55.333 13.667 -95.666 41 -120.999s67 -35.333 119 -30z" />
    <glyph glyph-name="f_f_i" unicode="ffi" horiz-adv-x="826" 
d="M473 433v-433h-78v433h-221v-433h-78v433h-50v67h50v50c0 54 16.833 94.167 50.5 120.5s77.5 36.5 131.5 30.5v-69c-33.333 2 -59 -4 -77 -18s-27 -35.333 -27 -64v-50h221v50c0 54 16.833 94.167 50.5 120.5s77.5 36.5 131.5 30.5v-69c-33.333 2 -59 -4 -77 -18
s-27 -35.333 -27 -64v-50h274v-500h-79v433h-195zM748 612v92h-81v-92h81z" />
    <glyph glyph-name="f_f_l" unicode="ffl" horiz-adv-x="850" 
d="M571 500v-67h-98v-433h-78v433h-221v-433h-78v433h-50v67h50v50c0 54 16.833 94.167 50.5 120.5s77.5 36.5 131.5 30.5v-69c-33.333 2 -59 -4 -77 -18s-27 -35.333 -27 -64v-50h221v50c0 54 16.833 94.167 50.5 120.5s77.5 36.5 131.5 30.5v-69c-33.333 2 -59 -4 -77 -18
s-27 -35.333 -27 -64v-50h98zM828 -2l-0.000976562 69c-31.333 -2.66699 -52.666 2.66602 -63.999 15.999s-17 35.333 -17 66v556h-79v-556c0 -55.333 13.667 -95.666 41 -120.999s67 -35.333 119 -30z" />
    <glyph glyph-name="f_j" unicode="fj" horiz-adv-x="560" 
d="M477 612v93h-81v-93h81zM296 -198v69c32.667 -2 58 4 76 18s27 35.333 27 64v482h-213v-435h-78v435h-50v72h50v43c0 54 16.833 94.167 50.5 120.5s77.5 36.5 131.5 30.5v-71c-69.333 4 -104 -22.667 -104 -80v-43h292v-554c0 -54 -16.833 -94 -50.5 -120
s-77.5 -36.333 -131.5 -31z" />
    <glyph glyph-name=".notdef" horiz-adv-x="520" 
d="M10 0v700h500v-700h-500zM260 395l170 255h-340zM290 350l170 -255v510zM60 95l170 255l-170 255v-510zM90 50h340l-170 255z" />
    <glyph glyph-name="space" unicode=" " horiz-adv-x="257" 
 />
    <glyph glyph-name="exclam" unicode="!" horiz-adv-x="319" 
d="M201 170h-82l-5 530h91zM205 0h-90v103h90v-103z" />
    <glyph glyph-name="quotedbl" unicode="&#x22;" horiz-adv-x="352" 
d="M68 518v193h79v-193h-79zM205 518v193h79v-193h-79z" />
    <glyph glyph-name="numbersign" unicode="#" horiz-adv-x="599" 
d="M551 496l-2 -76h-92l-22 -140h81l-2 -75h-91l-32 -204h-71l31 204h-127l-33 -204h-73l31 204h-91l2 75h101l21 140h-90l2 76h100l32 204h74l-31 -204h127l32 204h72l-31 -204h82zM384 420h-127l-21 -140h127z" />
    <glyph glyph-name="dollar" unicode="$" horiz-adv-x="562" 
d="M151 522c-1.33301 -21.333 2.00391 -39.667 10.0039 -55s20.667 -27.833 38 -37.5s31.833 -16.5 43.5 -20.5s27.834 -8.66699 48.501 -14c24.667 -6 46.167 -12.333 64.5 -19s37.666 -15.834 57.999 -27.501s36.833 -25.167 49.5 -40.5s22.834 -34.833 30.501 -58.5
s10.834 -50.167 9.50098 -79.5c-2.66699 -53.333 -21.834 -95.833 -57.501 -127.5s-79.167 -50.834 -130.5 -57.501v-91h-73v91c-42 6 -80 21.667 -114 47s-59 59 -75 101l65 34c13.333 -33.333 34.5 -60.166 63.5 -80.499s61.167 -30.5 96.5 -30.5
c42 -0.666992 76 9.5 102 30.5s40.333 50.167 43 87.5c1.33301 20 -1.16699 38 -7.5 54s-14 28.667 -23 38s-21.833 18 -38.5 26s-30.334 13.833 -41.001 17.5s-25 7.83398 -43 12.501c-28.667 8 -52.834 16.167 -72.501 24.5s-40.5 20 -62.5 35s-38.333 34.667 -49 59
s-15.667 52.833 -15 85.5c1.33301 52.667 18.166 95.167 50.499 127.5s72.5 51.833 120.5 58.5v91h73v-90c39.333 -6 74.666 -20.5 105.999 -43.5s54 -53.167 68 -90.5l-63 -31c-12.667 29.333 -32.334 52.166 -59.001 68.499s-55 24.833 -85 25.5
c-34.667 0 -64.5 -10.167 -89.5 -30.5s-38.833 -50.166 -41.5 -89.499z" />
    <glyph glyph-name="percent" unicode="%" horiz-adv-x="844" 
d="M395 542c0 -46.667 -16.833 -86.667 -50.5 -120s-74.167 -50 -121.5 -50s-87.833 16.667 -121.5 50s-50.5 73.333 -50.5 120c0 47.333 16.833 87.666 50.5 120.999s74.167 50 121.5 50s87.833 -16.667 121.5 -50s50.5 -73.666 50.5 -120.999zM790 158
c0 -46.667 -16.833 -86.667 -50.5 -120s-74.167 -50 -121.5 -50s-88 16.667 -122 50s-51 73.333 -51 120s17 86.667 51 120s74.667 50 122 50s87.833 -16.667 121.5 -50s50.5 -73.333 50.5 -120zM718 158c0 29.333 -9.66699 54.5 -29 75.5s-43 31.5 -71 31.5
s-51.833 -10.5 -71.5 -31.5s-29.5 -46.167 -29.5 -75.5s9.66699 -54.166 29 -74.499s43.333 -30.5 72 -30.5c28 0 51.667 10.167 71 30.5s29 45.166 29 74.499zM608 742h86l-454 -779h-85zM325 542c0 30 -9.83301 55.333 -29.5 76s-43.834 31 -72.501 31
s-52.834 -10.5 -72.501 -31.5s-29.5 -46.167 -29.5 -75.5s9.83301 -54.333 29.5 -75s43.834 -31 72.501 -31s52.834 10.333 72.501 31s29.5 45.667 29.5 75z" />
    <glyph glyph-name="ampersand" unicode="&#x26;" horiz-adv-x="662" 
d="M324 379l136.001 -147.998l23.5 41l26.5 46l69 -36l-65 -113l125 -142h-105l-65 75c-28 -36 -57.833 -63.333 -89.5 -82s-68.834 -28 -111.501 -28c-60 0 -110 18.667 -150 56s-60 86.666 -60 147.999c0 46.667 11.833 84.167 35.5 112.5s58.5 56.833 104.5 85.5
c-48 57.333 -72 108.666 -72 153.999c0 49.333 17.333 88.833 52 118.5s76 44.5 124 44.5c42.667 0 80 -14.5 112 -43.5s48 -65.5 48 -109.5c0 -43.333 -12 -78 -36 -104s-58 -51 -102 -75zM417.001 160.002l-168 179c-33.333 -20.667 -60 -42 -80 -64s-30 -47.667 -30 -77
c0 -38 13.167 -68.667 39.5 -92s58.833 -35 97.5 -35c50.667 0 97.667 29.667 141 89zM299.001 635.002c-25.333 0 -46.667 -8.16895 -64 -24.502s-26 -36.833 -26 -61.5c0 -29.333 21 -68.666 63 -117.999c16 8.66699 28.833 16 38.5 22s21 14.333 34 25
s22.833 22.334 29.5 35.001s10 26.667 10 42c0 23.333 -8.16699 42.5 -24.5 57.5s-36.5 22.5 -60.5 22.5z" />
    <glyph glyph-name="quotesingle" unicode="'" horiz-adv-x="213" 
d="M67 518v193h79v-193h-79z" />
    <glyph glyph-name="parenleft" unicode="(" horiz-adv-x="390" 
d="M157 352c0 -79.333 19.333 -157.668 58 -235.001s91 -135.666 157 -174.999v-92c-88.667 46.667 -160.334 116.667 -215.001 210s-82 190.666 -82 291.999c0 102 27.333 199.667 82 293s126.334 163.333 215.001 210v-92c-66 -39.333 -118.333 -97.666 -157 -174.999
s-58 -156 -58 -236z" />
    <glyph glyph-name="parenright" unicode=")" horiz-adv-x="389" 
d="M232 352c0 80 -19.5 158.669 -58.5 236.002s-91.167 135.666 -156.5 174.999v92c88.667 -46.667 160.167 -116.667 214.5 -210s81.5 -191 81.5 -293c0 -101.333 -27.167 -198.666 -81.5 -291.999s-125.833 -163.333 -214.5 -210v92
c65.333 39.333 117.5 97.666 156.5 174.999s58.5 155.666 58.5 234.999z" />
    <glyph glyph-name="asterisk" unicode="*" horiz-adv-x="470" 
d="M422 538l-139 -43l88 -116l-58 -41l-83 119l-83 -119l-57 41l87 116l-138 43l22 66l136 -46l-1 144h70l-3 -144l137 46z" />
    <glyph glyph-name="plus" unicode="+" horiz-adv-x="652" 
d="M82 290v79h210v204h77v-204h201v-79h-201v-206h-77v206h-210z" />
    <glyph glyph-name="comma" unicode="," horiz-adv-x="263" 
d="M27 -109l65 216h92l-82 -216h-75z" />
    <glyph glyph-name="hyphen" unicode="-" horiz-adv-x="458" 
d="M95 272v79h270v-79h-270z" />
    <glyph glyph-name="period" unicode="." horiz-adv-x="264" 
d="M181 -2h-100v109h100v-109z" />
    <glyph glyph-name="slash" unicode="/" horiz-adv-x="422" 
d="M404 778l-287 -843h-85l288 843h84z" />
    <glyph glyph-name="zero" unicode="0" horiz-adv-x="611" 
d="M149 198c0 -40.667 15.667 -73.332 47 -97.999s68 -37 110 -37c41.333 0 77.666 12.333 108.999 37s47 57.334 47 98.001v307c0 41.333 -16.167 74.166 -48.5 98.499s-69.5 36.166 -111.5 35.499c-41.333 -0.666992 -77.166 -13 -107.499 -37s-45.5 -56.333 -45.5 -97
v-307zM67 505.002c0 65.333 23.001 116.332 69.001 152.999s101 55.334 165 56.001c65.333 1.33301 122.166 -16.334 170.499 -53.001s72.5 -88.667 72.5 -156v-307c0 -59.333 -19.667 -107.666 -59 -144.999c-45.333 -43.333 -105 -65 -179 -65
c-74 -1.33301 -134.333 20.334 -181 65.001c-38.667 37.333 -58 85.666 -58 144.999v307z" />
    <glyph glyph-name="one" unicode="1" horiz-adv-x="326" 
d="M144 623h-92v78h174v-701h-82v623z" />
    <glyph glyph-name="two" unicode="2" horiz-adv-x="569" 
d="M285 633c-36.667 1.33301 -68.665 -6.50195 -95.998 -23.502s-47.666 -41.5 -60.999 -73.5l-68 32c19.333 48.667 49.166 85.5 89.499 110.5s86.166 36.833 137.499 35.5c64 -2.66699 115.5 -23.167 154.5 -61.5s59.167 -84.166 60.5 -137.499
c0 -58 -25.333 -115 -76 -171l-246 -269h327v-75h-429l-24 60l316 342c37.333 40 55.666 77.333 54.999 112c0 32.667 -12.5 60.334 -37.5 83.001s-59.167 34.667 -102.5 36z" />
    <glyph glyph-name="three" unicode="3" horiz-adv-x="559" 
d="M44 133l62 34c15.333 -32 38.333 -57.167 69 -75.5s62.667 -27.5 96 -27.5c37.333 0 70.5 12.5 99.5 37.5s43.5 58.833 43.5 101.5c0 40.667 -12.833 74 -38.5 100s-56.834 39 -93.501 39h-56v73h56c34 0 61.5 8.5 82.5 25.5s31.5 43.167 31.5 78.5
c0 37.333 -12.167 66.166 -36.5 86.499s-53.5 30.5 -87.5 30.5c-28.667 0 -56.667 -7.66699 -84 -23s-47.333 -36.333 -60 -63l-59 35c17.333 40 44.333 71.167 81 93.5s75.667 33.5 117 33.5c56 0 105.167 -17 147.5 -51s63.5 -81.333 63.5 -142
c0 -29.333 -7.16699 -56.666 -21.5 -81.999s-33.166 -43.333 -56.499 -54c64 -34.667 96 -95 96 -181c-0.666992 -65.333 -23.667 -117.333 -69 -156s-98.333 -58 -159 -58c-46.667 0 -90.667 12.667 -132 38s-72 61 -92 107z" />
    <glyph glyph-name="four" unicode="4" horiz-adv-x="546" 
d="M444 701v-492h56v-76h-56v-133h-82v133h-281l-54 73l331 495h86zM362 209l2 375l-240 -374z" />
    <glyph glyph-name="five" unicode="5" horiz-adv-x="582" 
d="M50 133l66.999 34c14.667 -30.667 38 -55 70 -73s64.667 -27 98 -27c51.333 0 91.333 16.333 120 49s42.667 71 42 115c0 42.667 -13.833 79.334 -41.5 110.001s-66.834 46 -117.501 46c-66 0 -121.333 -13 -166 -39l-44 -2l54 354h350v-78h-283l-29 -181
c38 14.667 78 22 120 22c75.333 -0.666992 133.833 -24 175.5 -70s62.5 -100.333 62.5 -163c0 -64.667 -21.667 -120.834 -65 -168.501s-103.333 -71.5 -180 -71.5c-49.333 0 -95.166 12.333 -137.499 37s-74.166 60 -95.499 106z" />
    <glyph glyph-name="six" unicode="6" horiz-adv-x="603" 
d="M306 -10c-75.333 0 -134.668 23.833 -178.001 71.5s-65 103.834 -65 168.501c0 48 13.333 93 40 135l208 335h95l-149 -241c20 2.66699 36.333 4 49 4c78.667 0 138.834 -22.833 180.501 -68.5s62.5 -100.5 62.5 -164.5c0 -64.667 -21.5 -120.834 -64.5 -168.501
s-102.5 -71.5 -178.5 -71.5zM305.998 387c-45.333 0 -83.5 -14.6689 -114.5 -44.002s-46.833 -66.666 -47.5 -111.999c0 -44 14.333 -82.333 43 -115s68.334 -49 119.001 -49c51.333 0 91.333 16.333 120 49s42.667 71 42 115c0 42.667 -14.333 79.334 -43 110.001
s-68.334 46 -119.001 46z" />
    <glyph glyph-name="seven" unicode="7" horiz-adv-x="501" 
d="M377 622h-337v80h413l27 -56l-337 -646h-93z" />
    <glyph glyph-name="eight" unicode="8" horiz-adv-x="587" 
d="M291 -14c-61.333 0 -114.665 19.333 -159.998 58s-68.333 91.334 -69 158.001c-0.666992 76.667 31.666 135.667 96.999 177c-46 32.667 -69 81 -69 145c0 58.667 20 104.834 60 138.501s87 50.5 141 50.5c54.667 0 101.834 -16.833 141.501 -50.5
s59.5 -79.834 59.5 -138.501c0 -64.667 -22.667 -113 -68 -145c65.333 -41.333 97.666 -100.333 96.999 -177c-0.666992 -66.667 -23.834 -119.334 -69.501 -158.001s-99.167 -58 -160.5 -58zM291.001 637c-38 0 -67.4971 -11.667 -88.4971 -35s-31.333 -49 -31 -77
s11.166 -53.667 32.499 -77s50.333 -35 87 -35c37.333 0 66.666 11.667 87.999 35s32.166 49 32.499 77s-10.167 53.667 -31.5 77s-51 35 -89 35zM291.004 343c-26.667 0 -50.5 -5.16406 -71.5 -15.4971s-36.833 -23.833 -47.5 -40.5s-18.667 -35 -24 -55s-5.5 -40 -0.5 -60
s13 -38.333 24 -55s27 -30 48 -40s44.833 -15 71.5 -15c38 0.666992 69.833 10.667 95.5 30s41.5 42.666 47.5 69.999s6 54.666 0 81.999s-22 50.666 -48 69.999s-57.667 29 -95 29z" />
    <glyph glyph-name="nine" unicode="9" horiz-adv-x="605" 
d="M299 709c75.333 0 134.668 -23.833 178.001 -71.5s65 -103.834 65 -168.501c0 -48 -13.333 -93 -40 -135l-208 -335h-95l149 241c-20 -2.66699 -36.333 -4 -49 -4c-78.667 0 -138.834 22.833 -180.501 68.5s-62.5 100.5 -62.5 164.5c0 64.667 21.5 120.834 64.5 168.501
s102.5 71.5 178.5 71.5zM299.002 312c45.333 0 83.5 14.6689 114.5 44.002s46.833 66.666 47.5 111.999c0 44 -14.333 82.333 -43 115s-68.334 49 -119.001 49c-51.333 0 -91.333 -16.333 -120 -49s-42.667 -71 -42 -115c0 -42.667 14.333 -79.334 43 -110.001
s68.334 -46 119.001 -46z" />
    <glyph glyph-name="colon" unicode=":" horiz-adv-x="302" 
d="M197 -2h-100v109h100v-109zM197 386h-100v109h100v-109z" />
    <glyph glyph-name="semicolon" unicode=";" horiz-adv-x="303" 
d="M197 386h-100v109h100v-109zM43 -120l65 216h92l-82 -216h-75z" />
    <glyph glyph-name="less" unicode="&#x3c;" horiz-adv-x="505" 
d="M442 529v-90l-306 -153l306 -152v-87l-401 209v60z" />
    <glyph glyph-name="equal" unicode="=" horiz-adv-x="635" 
d="M101 337v79h433v-79h-433zM101 142v79h433v-79h-433z" />
    <glyph glyph-name="greater" unicode="&#x3e;" horiz-adv-x="504" 
d="M64 438v91l401 -213v-60l-401 -209v90l306 149z" />
    <glyph glyph-name="question" unicode="?" horiz-adv-x="530" 
d="M26 620l9.00586 10.999c22 28 50.333 49.5 85 64.5s71 22.5 109 22.5c61.333 0 114.666 -18.667 159.999 -56s67.666 -88.333 66.999 -153c-0.666992 -59.333 -18.834 -108.166 -54.501 -146.499s-83.167 -62.833 -142.5 -73.5l-7 -144h-71l-6 207
c52.667 0.666992 99.167 16 139.5 46s60.166 67.333 59.499 112c-0.666992 40 -15.667 72.167 -45 96.5s-63.333 36.5 -102 36.5c-26.667 0 -52.834 -6.16699 -78.501 -18.5s-46.834 -28.833 -63.501 -49.5zM263.006 0.999023h-87v93h87v-93z" />
    <glyph glyph-name="at" unicode="@" horiz-adv-x="813" 
d="M648 473l-2.00293 2.99902c-23.333 29.333 -53.666 51.833 -90.999 67.5s-77.333 23.5 -120 23.5c-86 0 -156.167 -30.833 -210.5 -92.5s-82.166 -132.167 -83.499 -211.5c-1.33301 -75.333 20.5 -139.166 65.5 -191.499s112.833 -78.5 203.5 -78.5
c33.333 0 67.666 7 102.999 21l34 -64c-48.667 -18.667 -94.334 -28 -137.001 -28c-59.333 0 -111.833 9.5 -157.5 28.5s-81.834 44.833 -108.501 77.5s-46.667 69 -60 109s-19.666 82.333 -18.999 127c1.33301 62.667 16.166 122.167 44.499 178.5s71 103.166 128 140.499
s122.167 56 195.5 56c94.667 0 173.834 -28.333 237.501 -85s95.5 -126.667 95.5 -210c0 -78.667 -24 -146.5 -72 -203.5s-101.333 -85.5 -160 -85.5c-40.667 0 -62 20.667 -64 62c-12 -19.333 -28.5 -33.833 -49.5 -43.5s-43.167 -14.5 -66.5 -14.5
c-37.333 0 -69.333 15.333 -96 46s-40 65 -40 103c0 46.667 8.83301 91.334 26.5 134.001s44.334 78.167 80.001 106.5s76.834 42.5 123.501 42.5c20.667 0 40.834 -6.16699 60.501 -18.5s31.5 -28.833 35.5 -49.5l14 35l79 -3l-87 -270c0 -0.666992 -0.333008 -2 -1 -4
c-10 -28.667 -10.333 -44.667 -1 -48l8 -1c30 0 59.833 23.167 89.5 69.5s44.5 93.833 44.5 142.5c0 50.667 -14 93.667 -42 129zM293.997 209.999c0 -22.667 6.16797 -41.002 18.501 -55.002s28.833 -21 49.5 -21c38 0 71.833 22.333 101.5 67s44.5 88 44.5 130
c0 26.667 -5.5 47.5 -16.5 62.5s-26.833 22.5 -47.5 22.5c-46.667 0.666992 -83.334 -21.166 -110.001 -65.499s-40 -91.166 -40 -140.499z" />
    <glyph glyph-name="A" unicode="A" horiz-adv-x="632" 
d="M13 0l251 705h101l254 -705h-87l-81 224h-271l-79 -224h-88zM205 300h219l-109 318z" />
    <glyph glyph-name="B" unicode="B" horiz-adv-x="609" 
d="M183 410h128c40.667 0 72.5 11 95.5 33s34.5 48 34.5 78s-11.333 55.667 -34 77s-54.667 32 -96 32h-128v-220zM311 333l-128 0.000976562v-257h128c50.667 0 90 11.667 118 35s42 53.333 42 90c0 35.333 -14 66.166 -42 92.499s-67.333 39.5 -118 39.5zM517 519.001
c0 -57.333 -27 -104.668 -81 -142.001c38 -18.667 66.5 -43.667 85.5 -75s28.167 -65 27.5 -101c0 -67.333 -22.333 -117.666 -67 -150.999s-102 -50 -172 -50h-209v704h210c58 0 106.833 -16.833 146.5 -50.5s59.5 -78.5 59.5 -134.5z" />
    <glyph glyph-name="C" unicode="C" horiz-adv-x="729" 
d="M664 607l-53 -54.999c-56.667 58.667 -123.667 87 -201 85c-85.333 -1.33301 -152.333 -30.5 -201 -87.5s-73 -124.167 -73 -201.5c0 -76.667 24.5 -143.167 73.5 -199.5s115.833 -84.5 200.5 -84.5c41.333 0 81.166 9 119.499 27s70.833 42.667 97.5 74l58 -48
c-33.333 -40 -74 -71.5 -122 -94.5s-99 -34.5 -153 -34.5c-74.667 0 -139.667 17.667 -195 53s-96.166 79.666 -122.499 132.999s-39.5 111.333 -39.5 174s13.167 121.167 39.5 175.5s67.333 99.5 123 135.5s120.5 54 194.5 54c100 0 184.667 -35.333 254 -106z" />
    <glyph glyph-name="D" unicode="D" horiz-adv-x="725" 
d="M317 705c108 0.666992 193.169 -33.1699 255.502 -101.503s94.166 -149.833 95.499 -244.5c1.33301 -45.333 -5.33398 -89.166 -20.001 -131.499s-36.167 -80.666 -64.5 -114.999s-65.5 -61.666 -111.5 -81.999s-97.333 -30.5 -154 -30.5h-217v705h216zM317.002 75.9961
c86.667 -1.33301 153.832 26.167 201.499 82.5s70.5 122.833 68.5 199.5c-1.33301 74 -25.666 137.667 -72.999 191s-112.333 80 -195 80h-136v-553h134z" />
    <glyph glyph-name="E" unicode="E" horiz-adv-x="531" 
d="M462 704v-77h-292v-237h288v-77h-288l-1 -234h293v-78h-375v703h375z" />
    <glyph glyph-name="F" unicode="F" horiz-adv-x="518" 
d="M476 701v-77h-292v-238h288v-77h-288v-308h-83v700h375z" />
    <glyph glyph-name="G" unicode="G" horiz-adv-x="821" 
d="M423 713c55.333 0 108.669 -11.002 160.002 -33.002s93 -52.333 125 -91l-58 -50c-25.333 30 -59 53.833 -101 71.5s-84 26.5 -126 26.5c-84.667 0 -153.667 -29.333 -207 -88s-80 -125.334 -80 -200.001c0 -76 24.833 -142.667 74.5 -200s116.5 -86 200.5 -86
c63.333 0 121.5 20.333 174.5 61s82.5 92.334 88.5 155.001h-313v76h404c0 -103.333 -32.833 -190.5 -98.5 -261.5s-150.834 -106.5 -255.501 -106.5c-74.667 0 -139.667 17.833 -195 53.5s-96 80.334 -122 134.001s-39.333 111.834 -40 174.501
c0 62 14.167 120.167 42.5 174.5s71.166 99.5 128.499 135.5s123.333 54 198 54z" />
    <glyph glyph-name="H" unicode="H" horiz-adv-x="688" 
d="M505 0v312h-321v-312h-83v703h83v-317h321v317h83v-703h-83z" />
    <glyph glyph-name="I" unicode="I" horiz-adv-x="284" 
d="M101 0v703h82v-703h-82z" />
    <glyph glyph-name="J" unicode="J" horiz-adv-x="555" 
d="M44 167l76.001 16.0029c7.33301 -36.667 24.333 -65.334 51 -86.001s56.334 -31.334 89.001 -32.001c35.333 -0.666992 65.666 10.666 90.999 33.999s38 56 38 98v433h-147v70h227v-503c0 -66 -20.333 -117.333 -61 -154s-89.334 -55 -146.001 -55
c-51.333 0 -97.5 15.5 -138.5 46.5s-67.5 75.167 -79.5 132.5z" />
    <glyph glyph-name="K" unicode="K" horiz-adv-x="630" 
d="M101 705h83v-348l321 348h91l-281 -316l292 -389h-97l-250 335l-76 -76v-259h-83v705z" />
    <glyph glyph-name="L" unicode="L" horiz-adv-x="478" 
d="M454 77v-77h-353v700h83v-623h270z" />
    <glyph glyph-name="M" unicode="M" horiz-adv-x="851" 
d="M462 95h-71l-210 462v-557h-80v704h105l220 -502l219 502h106v-704h-83v552z" />
    <glyph glyph-name="N" unicode="N" horiz-adv-x="757" 
d="M658 700v-700h-116l-359 586v-586h-82v700h99l376 -610v610h82z" />
    <glyph glyph-name="O" unicode="O" 
d="M410 714c98 0 182 -36 252 -108s105 -157.667 105 -257s-35 -184.666 -105 -255.999s-154 -107 -252 -107s-182 35.667 -252 107s-105 156.666 -105 255.999s35 185 105 257s154 108 252 108zM136 349c0 -89.333 27.166 -159.5 81.499 -210.5s118.5 -76.5 192.5 -76.5
s138.167 25.5 192.5 76.5s81.5 121.167 81.5 210.5s-27.5 160 -82.5 212s-119.167 77.667 -192.5 77s-137.166 -27 -191.499 -79s-81.5 -122 -81.5 -210z" />
    <glyph glyph-name="P" unicode="P" horiz-adv-x="583" 
d="M183 256v-256h-82v703h210c74 0 131.833 -22.5 173.5 -67.5s62.5 -97.833 62.5 -158.5s-20.667 -112.667 -62 -156s-99 -65 -173 -65h-129zM311 332c48.667 0 86.5 14.501 113.5 43.501s40.5 62.833 40.5 101.5c0 39.333 -13.667 74.166 -41 104.499s-65 45.5 -113 45.5
h-128v-295h128z" />
    <glyph glyph-name="Q" unicode="Q" horiz-adv-x="832" 
d="M470 232l54.999 55l110 -111c33.333 48.667 50 106 50 172c0 89.333 -27.667 160 -83 212s-119.666 77.667 -192.999 77c-73.333 0 -137 -26 -191 -78s-81 -122.333 -81 -211c0 -60 13.5 -112.333 40.5 -157s60.833 -77.5 101.5 -98.5s84.667 -31.5 132 -31.5
c64 0 121 19.333 171 58zM688.999 122l66 -66.002l-55 -55l-65 66c-65.333 -54.667 -140 -82 -224 -82c-98 0 -182 35.833 -252 107.5s-105 156.834 -105 255.501c0 99.333 35 185 105 257s154 108 252 108s182 -36 252 -108s105 -157.667 105 -257
c0 -85.333 -26.333 -160.666 -79 -225.999z" />
    <glyph glyph-name="R" unicode="R" horiz-adv-x="616" 
d="M351 286l224.999 -286.001h-103l-219 285h-70v-285h-83v701h223c71.333 0 128.833 -17.167 172.5 -51.5s65.834 -87.166 66.501 -158.499c0.666992 -66 -18.5 -115.833 -57.5 -149.5s-90.5 -52.167 -154.5 -55.5zM183.999 355.999h141c103.333 0 155 45 155 135
c0 89.333 -51.667 134 -155 134h-141v-269z" />
    <glyph glyph-name="S" unicode="S" horiz-adv-x="560" 
d="M143 526c-1.33301 -20.667 2 -38.666 10 -53.999s20.5 -27.833 37.5 -37.5s31.667 -16.667 44 -21s28.5 -9.16602 48.5 -14.499c24.667 -6 46.167 -12.333 64.5 -19s37.666 -16 57.999 -28s36.833 -25.5 49.5 -40.5s22.834 -34.333 30.501 -58
s10.834 -50.5 9.50098 -80.5c-2.66699 -60 -26.5 -106.167 -71.5 -138.5s-96.833 -48.5 -155.5 -48.5c-47.333 0 -91.833 13.167 -133.5 39.5s-71.5 63.166 -89.5 110.499l65 35c13.333 -33.333 34.5 -60.166 63.5 -80.499s61.167 -30.5 96.5 -30.5
c41.333 -0.666992 75.166 9.66602 101.499 30.999s40.833 50.333 43.5 87c1.33301 24 -2.16699 44.833 -10.5 62.5s-21.5 32 -39.5 43s-34.167 19.333 -48.5 25s-32.5 11.5 -54.5 17.5c-28 7.33301 -52 15.166 -72 23.499s-40.833 20.166 -62.5 35.499
s-38 35.166 -49 59.499s-16.167 52.833 -15.5 85.5c2 60 23.5 106.5 64.5 139.5s89.167 49.5 144.5 49.5c46.667 0 89.167 -12 127.5 -36s65.5 -57.667 81.5 -101l-63 -31c-12 30 -31.5 53.167 -58.5 69.5s-55.5 24.5 -85.5 24.5
c-34.667 0.666992 -64.5 -9.16602 -89.5 -29.499s-38.833 -50.166 -41.5 -89.499z" />
    <glyph glyph-name="T" unicode="T" horiz-adv-x="451" 
d="M10 702h431v-80h-174v-622h-83v622h-174v80z" />
    <glyph glyph-name="U" unicode="U" horiz-adv-x="655" 
d="M91 700l82.999 0.000976562v-498c0 -44 14.833 -78.333 44.5 -103s65.167 -37.334 106.5 -38.001c42 -0.666992 78.5 11.5 109.5 36.5s46.5 59.833 46.5 104.5v498h83v-498c0 -68.667 -23.667 -122.167 -71 -160.5s-103.333 -57.166 -168 -56.499
c-63.333 0.666992 -118.166 20.167 -164.499 58.5s-69.5 91.166 -69.5 158.499v498z" />
    <glyph glyph-name="V" unicode="V" horiz-adv-x="627" 
d="M366 -2h-101l-253 706h89l215 -615l214 615h87z" />
    <glyph glyph-name="W" unicode="W" horiz-adv-x="954" 
d="M519 614l160 -521l160 609h85l-194 -705h-101l-147 471l-148 -471h-101l-194 705h86l159 -610l162 522h73z" />
    <glyph glyph-name="X" unicode="X" horiz-adv-x="643" 
d="M615 700l-239 -350l120 -174l120 -175h-100l-189 281l-189 -281h-101l241 349l-239 350h99l189 -277l189 277h99z" />
    <glyph glyph-name="Y" unicode="Y" horiz-adv-x="589" 
d="M574 705l-240 -426v-279h-81v279l-115.5 206.5l-123.5 219.5h94l186 -339l81.5 148l103.5 191h95z" />
    <glyph glyph-name="Z" unicode="Z" horiz-adv-x="568" 
d="M58 0v80l273 406l103 145h-364v74h445v-76l-262 -392l-116 -162h378v-75h-457z" />
    <glyph glyph-name="bracketleft" unicode="[" horiz-adv-x="311" 
d="M273 787v-71h-86l-1 -732h86v-69h-167l1 872h167z" />
    <glyph glyph-name="backslash" unicode="\" horiz-adv-x="423" 
d="M307 -65l-287 843h84l288 -843h-85z" />
    <glyph glyph-name="bracketright" unicode="]" horiz-adv-x="312" 
d="M36 716v71h167l1 -872h-167v69h86l-1 732h-86z" />
    <glyph glyph-name="asciicircum" unicode="^" horiz-adv-x="609" 
d="M70 301l208 399h54l207 -399h-89l-145 289l-148 -289h-87z" />
    <glyph glyph-name="underscore" unicode="_" horiz-adv-x="582" 
d="M33 0h511v-78h-511v78z" />
    <glyph glyph-name="grave" unicode="`" horiz-adv-x="509" 
d="M263 761l-84 115h93l65 -115h-74z" />
    <glyph glyph-name="a" unicode="a" horiz-adv-x="568" 
d="M418 239c-37.333 24 -80.002 35.999 -128.002 35.999c-53.333 -0.666992 -94.166 -11.167 -122.499 -31.5s-42.5 -47.833 -42.5 -82.5c0 -31.333 13.333 -57.166 40 -77.499s65 -30.5 115 -30.5c24.667 0 49.834 6 75.501 18s46.5 27.333 62.5 46v122z
M492.998 -0.000976562l-61 0.00195312l-11 45c-38 -36.667 -85 -55.667 -141 -57c-73.333 -0.666992 -129.5 15.166 -168.5 47.499s-58.5 74.166 -58.5 125.499c0 52 20.5 95 61.5 129s99.167 50.667 174.5 50c39.333 0 83 -12.667 131 -38v22
c0 84.667 -48.667 127 -146 127c-57.333 0 -109 -16.333 -155 -49l-33 55c58 42 121.333 63 190 63c62.667 0.666992 114.5 -15 155.5 -47s61.5 -81.667 61.5 -149v-324z" />
    <glyph glyph-name="b" unicode="b" horiz-adv-x="574" 
d="M267 513c80 0 143.001 -24.001 189.001 -72.001s69 -111.333 69 -190c0 -70.667 -21.5 -131.5 -64.5 -182.5s-97.5 -75.833 -163.5 -74.5c-20.667 0.666992 -37.334 1.83398 -50.001 3.50098s-28 7 -46 16s-34.667 21.833 -50 38.5l-14 -52h-56v700h76v-222
c31.333 23.333 68 35 110 35zM290.001 60.999c51.333 4.66699 91 24.3291 119 58.9961s42 79.334 42 134.001c0 60.667 -18.167 107.334 -54.5 140.001s-80.5 48.334 -132.5 47.001c-40 -1.33301 -76 -11.666 -108 -30.999v-283c38 -50.667 82.667 -72.667 134 -66z" />
    <glyph glyph-name="c" unicode="c" horiz-adv-x="526" 
d="M481 449l-42.999 -52.999c-36.667 34.667 -81.667 52 -135 52c-48 0.666992 -89.833 -17.333 -125.5 -54s-53.834 -84 -54.501 -142c0 -50.667 16 -95 48 -133s76.333 -57 133 -57c51.333 0 97.333 18.667 138 56l44 -53c-50 -48.667 -110.667 -73 -182 -73
c-81.333 0 -144.833 25.833 -190.5 77.5s-68.5 113.167 -68.5 184.5c0.666992 71.333 24 133.166 70 185.499s109 78.833 189 79.5c70.667 0 129.667 -23.333 177 -70z" />
    <glyph glyph-name="d" unicode="d" horiz-adv-x="573" 
d="M307 513c42 0 78.668 -11.666 110.001 -34.999v222h76v-700h-56l-14 52c-15.333 -16.667 -32 -29.5 -50 -38.5s-33.333 -14.333 -46 -16s-29.334 -2.83398 -50.001 -3.50098c-66 -1.33301 -120.5 23.5 -163.5 74.5s-64.5 111.833 -64.5 182.5c0 78.667 23 142 69 190
s109 72 189 72zM284.001 61.001c25.333 -2.66699 49.832 2.00195 73.499 14.002s43.834 29.333 60.501 52v283c-35.333 20.667 -72.666 31 -111.999 31c-50.667 0.666992 -93.834 -15.333 -129.501 -48s-53.5 -79 -53.5 -139c0 -54.667 14 -99.334 42 -134.001
s67.667 -54.334 119 -59.001z" />
    <glyph glyph-name="e" unicode="e" horiz-adv-x="599" 
d="M304 60c28.667 0 56.334 5.99707 83.001 17.9971s48.334 29.333 65.001 52l60 -38c-50.667 -68.667 -120 -103 -208 -103c-54.667 0 -102.167 13.333 -142.5 40s-69.833 59.667 -88.5 99s-27.667 81.666 -27 126.999c0 70.667 23 132.334 69 185.001
s108.667 79.334 188 80.001c80 0.666992 143.667 -27.666 191 -84.999s65 -126.666 53 -207.999h-425c3.33301 -46 21.166 -85.333 53.499 -118s75.166 -49 128.499 -49zM123 292.997h354c-4 46.667 -21.667 84.5 -53 113.5s-71.333 43.833 -120 44.5
c-52 -0.666992 -93.333 -16 -124 -46s-49.667 -67.333 -57 -112z" />
    <glyph glyph-name="f" unicode="f" horiz-adv-x="296" 
d="M284 701l-0.000976562 -64.999c-36.667 5.33301 -64.667 0.666016 -84 -14.001s-29 -38.667 -29 -72v-42h107v-63h-107v-445h-76v445h-83v63h83v42c0 54 17.333 94.333 52 121s80.334 36.667 137.001 30z" />
    <glyph glyph-name="g" unicode="g" horiz-adv-x="577" 
d="M310 512c48 0 84.667 -15.335 110 -46.002l14 41h62v-502c0 -48 -11 -88.833 -33 -122.5s-50.167 -57 -84.5 -70s-71 -19.5 -110 -19.5s-77 8.33301 -114 25s-67.5 39.334 -91.5 68.001l47 51c20.667 -24 48.5 -42.667 83.5 -56s69.333 -19.666 103 -18.999
s62.834 13.167 87.501 37.5s37 59.5 37 105.5v39c-20.667 -21.333 -41.834 -35 -63.501 -41s-47.5 -9.33301 -77.5 -10c-66 -1.33301 -120.5 23.5 -163.5 74.5s-64.5 111.833 -64.5 182.5c0 78.667 23 142 69 190s109 72 189 72zM287 59.998
c51.333 -6.66699 96 15.334 134 66.001v269c-32.667 29.333 -70.667 44 -114 44c-50 0.666992 -92.667 -15.166 -128 -47.499s-53 -78.5 -53 -138.5c0 -54.667 14 -99.334 42 -134.001s67.667 -54.334 119 -59.001z" />
    <glyph glyph-name="h" unicode="h" horiz-adv-x="606" 
d="M81 701h78v-229c33.333 28 77 42.333 131 43c71.333 -1.33301 129.5 -22.333 174.5 -63s67.5 -96.667 67.5 -168v-284h-78v284c-0.666992 47.333 -16 85 -46 113s-68.333 43.667 -115 47c-51.333 2.66699 -96.333 -10 -135 -38v-406h-77v701z" />
    <glyph glyph-name="i" unicode="i" horiz-adv-x="241" 
d="M160 0h-79v512h79v-512zM161 592h-81v112h81v-112z" />
    <glyph glyph-name="j" unicode="j" horiz-adv-x="241" 
d="M-22 -198v63.999c32 -2 57.167 4.83301 75.5 20.5s27.5 37.834 27.5 66.501v559h79v-559c0 -54 -16.833 -94 -50.5 -120s-77.5 -36.333 -131.5 -31zM159 591.999h-81v113h81v-113z" />
    <glyph glyph-name="k" unicode="k" horiz-adv-x="518" 
d="M81 700h76v-431l238 239h95l-223 -222l231 -286h-91l-190 236l-60 -56v-180h-76v700z" />
    <glyph glyph-name="l" unicode="l" horiz-adv-x="272" 
d="M235 67l0.000976562 -69c-52 -5.33301 -91.667 4.66699 -119 30s-41 65.666 -41 120.999v556h79v-556c0 -30.667 5.66699 -52.667 17 -66s32.666 -18.666 63.999 -15.999z" />
    <glyph glyph-name="m" unicode="m" horiz-adv-x="923" 
d="M429 303c0 48.667 -16.167 85.832 -48.5 111.499s-69.833 36.5 -112.5 32.5s-79.334 -21 -110.001 -51v-396h-77v507h66l10 -47c32.667 36 77.667 54 135 54c38.667 0 73.334 -7.66699 104.001 -23s53.667 -36.666 69 -63.999c32 59.333 90 89 174 89
c58 0 107.5 -18.5 148.5 -55.5s61.5 -92.833 61.5 -167.5v-293h-77v293c0 54 -12.833 93.333 -38.5 118s-58.834 37 -99.501 37c-37.333 0 -68.166 -12.333 -92.499 -37s-36.833 -60.667 -37.5 -108l-1 -303h-74v303z" />
    <glyph glyph-name="n" unicode="n" horiz-adv-x="616" 
d="M81 507l66.0039 -0.00195312l10 -47c31.333 34.667 80 52.667 146 54c71.333 -1.33301 128.833 -21.166 172.5 -59.499s65.5 -93.166 65.5 -164.499v-290h-78v290c-0.666992 46.667 -15.334 83 -44.001 109s-66.334 40.667 -113.001 44
c-24.667 1.33301 -50.834 -2.16699 -78.501 -10.5s-50.834 -21.5 -69.501 -39.5v-393h-77v507z" />
    <glyph glyph-name="o" unicode="o" horiz-adv-x="605" 
d="M123 253c0 -62.667 17.5 -111 52.5 -145s77.167 -51 126.5 -51c50 0 92.5 17 127.5 51s52.5 82.333 52.5 145c0 62 -17.5 109.833 -52.5 143.5s-77.5 50.5 -127.5 50.5c-49.333 0 -91.5 -16.833 -126.5 -50.5s-52.5 -81.5 -52.5 -143.5zM560 253
c0 -75.333 -24.167 -138.335 -72.5 -189.002s-110.166 -76 -185.499 -76s-137 25.333 -185 76s-72 113.667 -72 189c0 74.667 24 137.334 72 188.001s109.667 76 185 76s137.166 -25.167 185.499 -75.5s72.5 -113.166 72.5 -188.499z" />
    <glyph glyph-name="p" unicode="p" horiz-adv-x="573" 
d="M272 513c79.333 2.66699 141.334 -19.832 186.001 -67.499s67 -112.5 67 -194.5c0 -74.667 -23.667 -136.334 -71 -185.001s-104 -72.667 -170 -72c-50.667 0 -93.334 11.667 -128.001 35v-224h-75v702h61l12 -53c13.333 16.667 30.833 30.5 52.5 41.5
s43.5 16.833 65.5 17.5zM290.001 61.001c51.333 4.66699 91.001 24.3291 119.001 58.9961s42 79.334 42 134.001c0 61.333 -16.833 108.333 -50.5 141s-74.5 48.334 -122.5 47.001c-44.667 -1.33301 -85.334 -19.666 -122.001 -54.999v-277
c35.333 -39.333 80 -55.666 134 -48.999z" />
    <glyph glyph-name="q" unicode="q" horiz-adv-x="573" 
d="M301 513c22 -0.666992 43.834 -6.50098 65.501 -17.501s39.167 -24.833 52.5 -41.5l12 53h61v-702h-75v224c-34.667 -23.333 -77.334 -35 -128.001 -35c-66 -0.666992 -122.667 23.333 -170 72s-71 110.334 -71 185.001c0 82 22.333 146.833 67 194.5
s106.667 70.167 186 67.5zM283.001 60.999c54 -6.66699 98.668 9.6709 134.001 49.0039v277c-36.667 35.333 -77.334 53.666 -122.001 54.999c-48 1.33301 -88.833 -14.334 -122.5 -47.001s-50.5 -79.667 -50.5 -141c0 -54.667 14 -99.334 42 -134.001
s67.667 -54.334 119 -59.001z" />
    <glyph glyph-name="r" unicode="r" horiz-adv-x="404" 
d="M81 510l67 0.000976562l8 -65c16 27.333 38.667 47.166 68 59.499s59 17.333 89 15s58 -9.83301 84 -22.5l-29 -68c-52.667 24.667 -100.667 24.5 -144 -0.5s-65 -66.167 -65 -123.5v-305h-78v510z" />
    <glyph glyph-name="s" unicode="s" horiz-adv-x="439" 
d="M231 291c110 -22 165 -72.3311 165 -150.998c0 -33.333 -10 -62 -30 -86s-43.333 -40.833 -70 -50.5s-54.334 -14.5 -83.001 -14.5c-75.333 0 -132.333 27.667 -171 83l48 49c34 -41.333 75 -62 123 -62c27.333 -0.666992 52 6.16602 74 20.499s33 34.833 33 61.5
c-0.666992 39.333 -36 65.666 -106 78.999c-105.333 18 -158.333 66.333 -159 145c0 46.667 17.667 83.667 53 111s77 41 125 41c62 0 112 -19.333 150 -58l-45 -51c-28 24 -63 36.667 -105 38c-28 0.666992 -52.167 -6.33301 -72.5 -21s-30.166 -34.667 -29.499 -60
c0 -36 33.333 -60.667 100 -74z" />
    <glyph glyph-name="t" unicode="t" horiz-adv-x="313" 
d="M269 64v-67c-54 -6 -97.667 4.16699 -131 30.5s-50 66.5 -50 120.5v297h-83v62h83v142l78 7v-149h103v-62h-103v-297c0 -61.333 34.333 -89.333 103 -84z" />
    <glyph glyph-name="u" unicode="u" horiz-adv-x="615" 
d="M534 0h-65.001l-11 52c-45.333 -39.333 -98.333 -59 -159 -59c-61.333 0 -114.166 19.833 -158.499 59.5s-66.5 92.834 -66.5 159.501v294h78v-294c1.33301 -46 17.833 -82.333 49.5 -109s69.167 -40.334 112.5 -41.001c60 -1.33301 107.667 19.667 143 63v381h77v-506z
" />
    <glyph glyph-name="v" unicode="v" horiz-adv-x="484" 
d="M100 509l120.001 -338c5.33301 -12.667 12.666 -49.334 21.999 -110.001h6c8.66699 58.667 15.667 95.334 21 110.001l119 338h84l-181 -511h-94l-181 511h84z" />
    <glyph glyph-name="w" unicode="w" horiz-adv-x="718" 
d="M315 510l87 0.000976562l85 -337c8 -26 13 -62.333 15 -109h5c2 47.333 6.66699 84 14 110l95 336h80l-151 -510h-92l-85 339c-0.666992 2.66699 -2.16699 14.5 -4.5 35.5s-3.5 31.833 -3.5 32.5h-4l-4 -33c-2 -22.667 -3 -34.334 -3 -35.001l-84 -339h-92l-152 510h80
l95 -336c4.66699 -13.333 10 -50 16 -110h5c2 54 6 90.333 12 109z" />
    <glyph glyph-name="x" unicode="x" horiz-adv-x="514" 
d="M255 311l131 199h97l-178 -256l180 -254h-97l-133 197l-133 -197h-97l179 254l-177 256h97z" />
    <glyph glyph-name="y" unicode="y" horiz-adv-x="504" 
d="M89 -190v65c28 -3.33301 49.333 -0.5 64 8.5s25.667 22.833 33 41.5l28 73l-207 509h84l164 -420l156 420h84l-235 -607c-26 -68.667 -83 -98.667 -171 -90z" />
    <glyph glyph-name="z" unicode="z" horiz-adv-x="471" 
d="M46 0v73l277 366l-266 -1v70h365v-51l-294 -388h294v-69h-376z" />
    <glyph glyph-name="braceleft" unicode="{" horiz-adv-x="312" 
d="M277 781v-71.0029h-16h-15.5c-2.33301 0 -6.33301 -0.333008 -12 -1s-9.33398 -1.66699 -11.001 -3s-4.16699 -3.16602 -7.5 -5.49902s-5.5 -5.33301 -6.5 -9s-2 -8 -3 -13s-1.5 -11.167 -1.5 -18.5v-162c0 -74 -18 -123.667 -54 -149c36 -25.333 54 -75 54 -149v-161
c0 -7.33301 0.5 -13.666 1.5 -18.999s2 -9.83301 3 -13.5s3.16699 -6.66699 6.5 -9s5.83301 -4.16602 7.5 -5.49902s5.33398 -2.33301 11.001 -3s9.66699 -1 12 -1h15.5h16v-71h-47c-34 0 -60.5 10.5 -79.5 31.5s-28.5 49.167 -28.5 84.5v148c0 87.333 -22.333 131 -67 131
v74c44.667 0 67 43.667 67 131v148c0 35.333 9.5 63.5 28.5 84.5s45.5 31.5 79.5 31.5h47z" />
    <glyph glyph-name="bar" unicode="|" horiz-adv-x="285" 
d="M104 -159v951h77v-951h-77z" />
    <glyph glyph-name="braceright" unicode="}" horiz-adv-x="312" 
d="M35 710v71.0029h47c34 0 60.5 -10.5 79.5 -31.5s28.5 -49.167 28.5 -84.5v-148c0 -87.333 22.333 -131 67 -131v-74c-44.667 0 -67 -43.667 -67 -131v-148c0 -35.333 -9.5 -63.5 -28.5 -84.5s-45.5 -31.5 -79.5 -31.5h-47v71h16h15.5c2.33301 0 6.33301 0.333008 12 1
s9.33398 1.66699 11.001 3s4.16699 3.16602 7.5 5.49902s5.5 5.33301 6.5 9s2 8.16699 3 13.5s1.5 11.666 1.5 18.999v161c0 74 18 123.667 54 149c-36 25.333 -54 75 -54 149v162c0 7.33301 -0.5 13.5 -1.5 18.5s-2 9.33301 -3 13s-3.16699 6.66699 -6.5 9
s-5.83301 4.16602 -7.5 5.49902s-5.33398 2.33301 -11.001 3s-9.66699 1 -12 1h-15.5h-16z" />
    <glyph glyph-name="asciitilde" unicode="~" horiz-adv-x="596" 
d="M478 391l52.999 -43c-25.333 -56 -61.166 -89.667 -107.499 -101s-93.833 -0.666016 -142.5 32.001c-40.667 25.333 -71.5 35 -92.5 29s-45.833 -30.667 -74.5 -74l-52 43c64.667 119.333 152 141.666 262 66.999c23.333 -16 44.333 -24 63 -24s34.5 5.66699 47.5 17
s27.5 29.333 43.5 54z" />
    <glyph glyph-name="uni00A0" unicode="&#xa0;" horiz-adv-x="257" 
 />
    <glyph glyph-name="exclamdown" unicode="&#xa1;" horiz-adv-x="291" 
d="M105 336h82l5 -530h-91zM101 506h90v-103h-90v103z" />
    <glyph glyph-name="cent" unicode="&#xa2;" horiz-adv-x="568" 
d="M290 1l0.000976562 85.001c-49.333 4 -91.833 19.167 -127.5 45.5s-61.834 58 -78.501 95s-25 77.167 -25 120.5c0.666992 66.667 21.334 125.5 62.001 176.5s97 79.833 169 86.5v90h61v-90c55.333 -6 103.333 -28.667 144 -68l-43 -53
c-36.667 34.667 -81.667 52 -135 52c-48 0.666992 -89.833 -17.333 -125.5 -54s-53.834 -84 -54.501 -142c0 -50.667 16 -95 48 -133s76.333 -57 133 -57c51.333 0 97.333 18.667 138 56l44 -53c-41.333 -40.667 -91 -64.334 -149 -71.001v-86h-61z" />
    <glyph glyph-name="sterling" unicode="&#xa3;" horiz-adv-x="592" 
d="M543 533l-76 -15c-6 30.667 -19.167 56.167 -39.5 76.5s-43 32.666 -68 36.999s-49.833 3.5 -74.5 -2.5s-45.167 -20.167 -61.5 -42.5s-24.5 -49.833 -24.5 -82.5v-128h220v-60h-220v-243h349v-73h-487v73h57v243h-55v60h55v128c0 42.667 9.33301 79.834 28 111.501
s42.167 55.167 70.5 70.5s59.833 24 94.5 26s67.667 -3 99 -15s59.333 -32.167 84 -60.5s41 -62.833 49 -103.5z" />
    <glyph glyph-name="yen" unicode="&#xa5;" horiz-adv-x="613" 
d="M591 700l-170 -304h85v-60h-119l-35 -63v-12h154v-60h-154v-201h-82v201h-153v60h153v12c-7.33301 14 -19 35 -35 63h-118v60h84c-111.333 198.667 -168 300 -170 304h95l186 -339l92 170l92 169h95z" />
    <glyph glyph-name="brokenbar" unicode="&#xa6;" horiz-adv-x="283" 
d="M104 -159v410h77v-410h-77zM181 792v-407h-77v407h77z" />
    <glyph glyph-name="section" unicode="&#xa7;" horiz-adv-x="472" 
d="M235 286c22 -4 42.999 -10.002 62.999 -18.002c28 15.333 42 37.666 42 66.999c-0.666992 22.667 -11.667 40.334 -33 53.001s-45.666 21.334 -72.999 26.001c-18.667 2.66699 -37 7.33398 -55 14.001c-30 -16 -44.667 -39 -44 -69c0 -16 6.16699 -29.333 18.5 -40
s24.5 -18 36.5 -22s27 -7.66699 45 -11zM124.999 454.998c-33.333 25.333 -49.999 59.998 -49.999 103.998c0 46.667 17.667 83.834 53 111.501s77 41.5 125 41.5c62 0 111.667 -19.667 149 -59l-44 -54c-30.667 26 -66.334 39.667 -107.001 41
c-27.333 0.666992 -51 -6.33301 -71 -21s-29.667 -34.667 -29 -60c0 -15.333 6.16699 -28.5 18.5 -39.5s24.333 -18.167 36 -21.5s26.834 -7 45.501 -11c110 -22 165 -72.667 165 -152c0 -47.333 -22.333 -78.666 -67 -93.999c34 -26 51 -61.667 51 -107
c0 -33.333 -10 -62 -30 -86s-43.333 -40.833 -70 -50.5s-54.334 -14.5 -83.001 -14.5c-76 0 -133.333 27.667 -172 83l49 48c34 -40.667 75 -61 123 -61c27.333 -0.666992 52 6 74 20s32.667 34.333 32 61c0 40 -35 66.667 -105 80c-106 18 -159 66.333 -159 145
c0 21.333 6 40.5 18 57.5s28 29.833 48 38.5z" />
    <glyph glyph-name="dieresis" unicode="&#xa8;" horiz-adv-x="509" 
d="M215 782h-90v98h90v-98zM388 782h-90v98h90v-98z" />
    <glyph glyph-name="copyright" unicode="&#xa9;" horiz-adv-x="831" 
d="M59 350c0 101.333 34.5 187.5 103.5 258.5s152.833 106.5 251.5 106.5c99.333 0 183.833 -35.5 253.5 -106.5s104.5 -157.167 104.5 -258.5s-34.833 -187.5 -104.5 -258.5s-154.167 -106.5 -253.5 -106.5c-98.667 0 -182.5 35.5 -251.5 106.5
s-103.5 157.167 -103.5 258.5zM423 222c-45.333 0 -79 18.333 -101 55c-14.667 23.333 -21.167 49.833 -19.5 79.5s10.834 55.167 27.501 76.5c17.333 22.667 38.666 37 63.999 43c21.333 5.33301 43 4.83301 65 -1.5s41 -17.5 57 -33.5l44 52
c-36.667 37.333 -82.334 56 -137.001 56c-77.333 0 -133.666 -32.333 -168.999 -97c-17.333 -31.333 -26 -65.5 -26 -102.5s8.66699 -71.167 26 -102.5c35.333 -63.333 91.666 -95 168.999 -95c52.667 0 98.334 18.667 137.001 56l-45 51c-26 -24.667 -56.667 -37 -92 -37z
M132 350c0 -83.333 27.167 -153.666 81.5 -210.999s121.166 -86 200.499 -86c80.667 0 148.334 28.667 203.001 86s82 127.666 82 210.999s-27.333 153.666 -82 210.999s-122.334 86 -203.001 86c-79.333 0 -146.166 -28.667 -200.499 -86s-81.5 -127.666 -81.5 -210.999z
" />
    <glyph glyph-name="ordfeminine" unicode="&#xaa;" horiz-adv-x="486" 
d="M345 331l-6 43.002c-29.333 -40 -72 -54.333 -128 -43c-44.667 8.66699 -81.167 30 -109.5 64s-42.5 75.667 -42.5 125c0 53.333 19 99.166 57 137.499s83.667 58.166 137 59.499c54.667 2 105 -8 151 -30l4 -2v-354h-63zM409 279.002v-57h-332v57h332zM337 433.002
l0.998047 216.999c-24 8 -51.667 11 -83 9c-35.333 -3.33301 -65.166 -18.166 -89.499 -44.499s-36.5 -57.833 -36.5 -94.5c0 -30 9.16699 -57.167 27.5 -81.5s41.833 -39.833 70.5 -46.5c46.667 -10 83.334 3.66699 110.001 41z" />
    <glyph glyph-name="guillemotleft" unicode="&#xab;" horiz-adv-x="558" 
d="M250 282l164 206h90l-164 -206l164 -205h-90zM213 77l-164 205l164 206h90l-164 -206l164 -205h-90z" />
    <glyph glyph-name="logicalnot" unicode="&#xac;" horiz-adv-x="624" 
d="M65 345v73h477v-267h-72v194h-405z" />
    <glyph glyph-name="uni00AD" unicode="&#xad;" horiz-adv-x="441" 
d="M75 247v74h292v-74h-292z" />
    <glyph glyph-name="registered" unicode="&#xae;" horiz-adv-x="831" 
d="M464 308c31.333 6 55.668 19.167 73.001 39.5s26 46.833 26 79.5c-0.666992 41.333 -13.834 72.5 -39.501 93.5s-59.5 31.5 -101.5 31.5h-130v-397h71v150h25l114 -150h83zM60.002 348c0 101.333 34.5 187.5 103.5 258.5s152.833 106.5 251.5 106.5
c99.333 0 183.833 -35.5 253.5 -106.5s104.5 -157.167 104.5 -258.5s-34.833 -187.5 -104.5 -258.5s-154.167 -106.5 -253.5 -106.5c-98.667 0 -182.5 35.5 -251.5 106.5s-103.5 157.167 -103.5 258.5zM133.002 348c0 -83.333 27.167 -153.666 81.5 -210.999
s121.166 -86 200.499 -86c80.667 0 148.334 28.667 203.001 86s82 127.666 82 210.999s-27.333 153.666 -82 210.999s-122.334 86 -203.001 86c-79.333 0 -146.166 -28.667 -200.499 -86s-81.5 -127.666 -81.5 -210.999zM363.002 365v126h59c22 0 39.667 -6.66699 53 -20
s20.333 -28 21 -44s-6 -30.333 -20 -43s-32 -19 -54 -19h-59z" />
    <glyph glyph-name="macron" unicode="&#xaf;" horiz-adv-x="509" 
d="M127 757v67h255v-67h-255z" />
    <glyph glyph-name="degree" unicode="&#xb0;" horiz-adv-x="400" 
d="M199 437c-38.667 0 -71.5 13.333 -98.5 40s-40.5 58.667 -40.5 96s13.5 69.333 40.5 96s59.833 40 98.5 40s71.667 -13.333 99 -40s41 -58.667 41 -96s-13.667 -69.333 -41 -96s-60.333 -40 -99 -40zM199 499c20.667 0 38.167 7.16699 52.5 21.5s21.5 31.833 21.5 52.5
s-7.16699 38.334 -21.5 53.001s-31.833 22 -52.5 22s-38.167 -7.33301 -52.5 -22s-21.5 -32.334 -21.5 -53.001s7.16699 -38.167 21.5 -52.5s31.833 -21.5 52.5 -21.5z" />
    <glyph glyph-name="plusminus" unicode="&#xb1;" horiz-adv-x="691" 
d="M105 69h481v-69h-481v69zM98 340v79h210v204h77v-204h201v-79h-201v-206h-77v206h-210z" />
    <glyph glyph-name="twosuperior" unicode="&#xb2;" horiz-adv-x="405" 
d="M310 526l-166.001 -147.003h221v-64h-307l-22 48l224 211c28.667 28.667 39.334 55 32.001 79c-4.66699 16.667 -15.167 28.834 -31.5 36.501s-34.166 11.834 -53.499 12.501c-48.667 2 -82.334 -15.667 -101.001 -53l-63 26c10 23.333 25 43 45 59
c14.667 12 33 21.333 55 28c22 6 43.667 8.66699 65 8c35.333 -1.33301 67.333 -10.5 96 -27.5s47.334 -41.167 56.001 -72.5c7.33301 -25.333 6.16602 -50.666 -3.50098 -75.999s-25.167 -48 -46.5 -68z" />
    <glyph glyph-name="threesuperior" unicode="&#xb3;" horiz-adv-x="425" 
d="M309 558c44.667 -23.333 67.002 -60.3311 67.002 -110.998c-0.666992 -42.667 -17.5 -76.5 -50.5 -101.5s-71.5 -37.5 -115.5 -37.5c-34.667 0 -66.834 8.16699 -96.501 24.5s-51.834 39.5 -66.501 69.5l59 28c10 -18 24.833 -32.167 44.5 -42.5s40.167 -15.5 61.5 -15.5
c24 0 45 6.83301 63 20.5s27 32.167 27 55.5c0 22 -8.16699 40.167 -24.5 54.5s-35.5 21.5 -57.5 21.5h-45v60h45c20 0 36.5 4.66699 49.5 14s19.5 23.666 19.5 42.999c0 20 -7.5 35.5 -22.5 46.5s-33.167 16.5 -54.5 16.5c-18 0 -35.667 -4.33301 -53 -13
s-30 -20.667 -38 -36l-57 30c13.333 26 33.333 46.333 60 61s55 22 85 22c41.333 0 77.333 -11.333 108 -34s46 -53.667 46 -93c0 -17.333 -5 -33.833 -15 -49.5s-23 -26.834 -39 -33.501z" />
    <glyph glyph-name="acute" unicode="&#xb4;" horiz-adv-x="509" 
d="M334 876l-84 -115h-74l65 115h93z" />
    <glyph glyph-name="mu" unicode="&#xb5;" horiz-adv-x="553" 
d="M470 509v-508.998h-65l-8 73c-13.333 -22.667 -32.833 -40.334 -58.5 -53.001s-52.5 -19 -80.5 -19c-40 0 -73 17.333 -99 52v-248h-75v704h81v-312c0 -81.333 31 -122 93 -122c38 0 69.5 13.667 94.5 41s37.5 66.666 37.5 117.999v275h80z" />
    <glyph glyph-name="mu" unicode="&#x3bc;" horiz-adv-x="553" 
d="M470 509v-508.998h-65l-8 73c-13.333 -22.667 -32.833 -40.334 -58.5 -53.001s-52.5 -19 -80.5 -19c-40 0 -73 17.333 -99 52v-248h-75v704h81v-312c0 -81.333 31 -122 93 -122c38 0 69.5 13.667 94.5 41s37.5 66.666 37.5 117.999v275h80z" />
    <glyph glyph-name="paragraph" unicode="&#xb6;" horiz-adv-x="600" 
d="M255 -80v355.998c-65.333 2.66699 -116.333 24.834 -153 66.501s-55 89.834 -55 144.501c0 59.333 20.667 110.333 62 153s99 64 173 64h220v-784h-79v715h-88v-715h-80z" />
    <glyph glyph-name="periodcentered" unicode="&#xb7;" horiz-adv-x="270" 
d="M93 247v95h92v-95h-92z" />
    <glyph glyph-name="cedilla" unicode="&#xb8;" horiz-adv-x="509" 
d="M298 15l-32.0029 -57c18 -0.666992 35.333 -8.83398 52 -24.501s24.667 -33.167 24 -52.5c-1.33301 -28.667 -11.666 -50.5 -30.999 -65.5s-41.666 -22.5 -66.999 -22.5c-23.333 0 -51.666 8.33301 -84.999 25l15 44c22.667 -12.667 44 -19 64 -19c18 0 31 5.5 39 16.5
s8.5 22.333 1.5 34s-19.833 17.834 -38.5 18.501c-10.667 0 -19.667 -2 -27 -6l-24 20l51 89h58z" />
    <glyph glyph-name="onesuperior" unicode="&#xb9;" horiz-adv-x="304" 
d="M118 311v385h-64v65h9h120h9v-450h-74z" />
    <glyph glyph-name="ordmasculine" unicode="&#xba;" horiz-adv-x="477" 
d="M238 392c-46 0 -84.666 15 -115.999 45s-47 68.333 -47 115c0 44.667 15.667 82 47 112s69.666 45 114.999 45c46 0 84.833 -15 116.5 -45s47.5 -67.333 47.5 -112c0 -46.667 -15.667 -85 -47 -115s-70 -45 -116 -45zM238.001 448c27.333 0 50.5 9.83301 69.5 29.5
s28.5 44.5 28.5 74.5c0 29.333 -9.5 53.5 -28.5 72.5s-42.167 28.5 -69.5 28.5c-28 0 -51.5 -9.5 -70.5 -28.5s-28.5 -43.167 -28.5 -72.5c0 -30 9.5 -54.833 28.5 -74.5s42.5 -29.5 70.5 -29.5zM83.001 257v65h312v-65h-312z" />
    <glyph glyph-name="guillemotright" unicode="&#xbb;" horiz-adv-x="558" 
d="M256 77l164 205l-164 206h89l164 -206l-164 -205h-89zM54 77l164 205l-164 206h89l164 -206l-164 -205h-89z" />
    <glyph glyph-name="onequarter" unicode="&#xbc;" horiz-adv-x="937" 
d="M311 -32h-75l375 786h75zM840 144v299h-72l-234 -310l44 -53h189v-80h73v80h39v64h-39zM767 144l-145 1l146 199zM161 636v-347h74v412h-9h-120h-9v-65h64z" />
    <glyph glyph-name="onehalf" unicode="&#xbd;" horiz-adv-x="956" 
d="M274 -30h-75l376 780h75zM144 636v-347h74v412h-9h-120h-9v-65h64zM677 64l166.001 147.003c21.333 20 36.833 42.667 46.5 68s10.834 50.666 3.50098 75.999c-8.66699 31.333 -27.334 55.5 -56.001 72.5s-60.667 26.167 -96 27.5c-21.333 0.666992 -43 -2 -65 -8
c-22 -6.66699 -40.333 -16 -55 -28c-20 -16 -35 -35.667 -45 -59l63 -26c18.667 37.333 52.334 55 101.001 53c19.333 -0.666992 37.166 -4.83398 53.499 -12.501s26.833 -19.834 31.5 -36.501c7.33301 -24 -3.33398 -50.333 -32.001 -79l-224 -211l22 -48h307v64h-221z" />
    <glyph glyph-name="threequarters" unicode="&#xbe;" horiz-adv-x="989" 
d="M371 -36h-75l381 786h75zM886 144v299h-72l-234 -310l44 -53h189v-80h73v80h39v64h-39zM813 144l-145 1l146 199zM306 505c16 6.66699 28.998 17.832 38.998 33.499s15 32.167 15 49.5c0 39.333 -15.333 70.333 -46 93s-66.667 34 -108 34
c-30 0 -58.333 -7.33301 -85 -22s-46.667 -35 -60 -61l57 -30c8 15.333 20.667 27.333 38 36s35 13 53 13c21.333 0 39.5 -5.5 54.5 -16.5s22.5 -26.5 22.5 -46.5c0 -19.333 -6.5 -33.666 -19.5 -42.999s-29.5 -14 -49.5 -14h-45v-60h45c22 0 41.167 -7.16699 57.5 -21.5
s24.5 -32.5 24.5 -54.5c0 -23.333 -9 -41.833 -27 -55.5s-39 -20.5 -63 -20.5c-21.333 0 -41.833 5.16699 -61.5 15.5s-34.5 24.5 -44.5 42.5l-59 -28c14.667 -30 36.834 -53.167 66.501 -69.5s61.834 -24.5 96.501 -24.5c44 0 82.5 12.5 115.5 37.5
s49.833 58.833 50.5 101.5c0 50.667 -22.333 87.667 -67 111z" />
    <glyph glyph-name="questiondown" unicode="&#xbf;" horiz-adv-x="504" 
d="M480 -113l-9.00586 -10.999c-22 -28 -50.333 -49.5 -85 -64.5s-71 -22.5 -109 -22.5c-61.333 0 -114.666 18.667 -159.999 56s-67.666 88.333 -66.999 153c0.666992 59.333 18.834 108.166 54.501 146.499s83.167 62.833 142.5 73.5l7 144h71l6 -207
c-52.667 -0.666992 -99.167 -16 -139.5 -46s-60.166 -67.333 -59.499 -112c0.666992 -40 15.667 -72.167 45 -96.5s63.333 -36.5 102 -36.5c26.667 0 52.834 6.16699 78.501 18.5s46.834 28.833 63.501 49.5zM242.994 506.001h87v-93h-87v93z" />
    <glyph glyph-name="Agrave" unicode="&#xc0;" horiz-adv-x="632" 
d="M13 0l251 705h101l254 -705h-87l-81 224h-271l-79 -224h-88zM205 300h219l-109 318zM278 747l-84 115h93l65 -115h-74z" />
    <glyph glyph-name="Aacute" unicode="&#xc1;" horiz-adv-x="632" 
d="M13 0l251 705h101l254 -705h-87l-81 224h-271l-79 -224h-88zM205 300h219l-109 318zM436 866l-84 -115h-74l65 115h93z" />
    <glyph glyph-name="Acircumflex" unicode="&#xc2;" horiz-adv-x="632" 
d="M13 0l251 705h101l254 -705h-87l-81 224h-271l-79 -224h-88zM205 300h219l-109 318zM175 741l88 117h101l88 -117h-74l-64 81h-2l-63 -81h-74z" />
    <glyph glyph-name="Atilde" unicode="&#xc3;" horiz-adv-x="632" 
d="M13 0l251 705h101l254 -705h-87l-81 224h-271l-79 -224h-88zM205 300h219l-109 318zM429 854l45 -32.999c-15.333 -34.667 -39 -56.334 -71 -65.001s-63.667 -2.66699 -95 18c-41.333 26.667 -76 18.334 -104 -24.999l-48 31c20 37.333 46.5 60.166 79.5 68.499
s66.5 0.833008 100.5 -22.5c36 -24 67 -14.667 93 28z" />
    <glyph glyph-name="Adieresis" unicode="&#xc4;" horiz-adv-x="632" 
d="M13 0l251 705h101l254 -705h-87l-81 224h-271l-79 -224h-88zM205 300h219l-109 318zM275 750h-84v89h84v-89zM438 750h-85v89h85v-89z" />
    <glyph glyph-name="Aring" unicode="&#xc5;" horiz-adv-x="632" 
d="M13 0l251 705h101l254 -705h-87l-81 224h-271l-79 -224h-88zM205 300h219l-109 318zM313 741c-23.333 0 -43.333 6.83301 -60 20.5s-25 31.5 -25 53.5c0 22.667 8.33301 40.834 25 54.501s36.667 20.5 60 20.5s43.333 -6.83301 60 -20.5s25 -31.834 25 -54.501
c0 -22 -8.33301 -39.833 -25 -53.5s-36.667 -20.5 -60 -20.5zM313 782c9.33301 0 17.166 3.16699 23.499 9.5s9.5 14.166 9.5 23.499c0 10.667 -3.16699 19.167 -9.5 25.5s-14.166 9.5 -23.499 9.5c-10 0 -18 -3.16699 -24 -9.5s-9 -14.833 -9 -25.5
c0 -9.33301 3 -17.166 9 -23.499s14 -9.5 24 -9.5z" />
    <glyph glyph-name="AE" unicode="&#xc6;" horiz-adv-x="865" 
d="M11 1l358 705h442v-76h-291v-240h288v-77h-288l-1 -234h292v-78h-374v236h-218l-120 -236h-88zM437 315v332h-13l-166 -332h179z" />
    <glyph glyph-name="Ccedilla" unicode="&#xc7;" horiz-adv-x="729" 
d="M664 607l-53.002 -54.999c-56.667 58.667 -123.667 87 -201 85c-85.333 -1.33301 -152.333 -30.5 -201 -87.5s-73 -124.167 -73 -201.5c0 -76.667 24.5 -143.167 73.5 -199.5s115.833 -84.5 200.5 -84.5c41.333 0 81.166 9 119.499 27s70.833 42.667 97.5 74l58 -48
c-64.667 -77.333 -147.667 -120 -249 -128l-23 -42c18 -0.666992 35.333 -8.83398 52 -24.501s24.667 -33.167 24 -52.5c-1.33301 -28.667 -11.666 -50.5 -30.999 -65.5s-41.666 -22.5 -66.999 -22.5c-23.333 0 -51.666 8.33301 -84.999 25l15 44
c22.667 -12.667 44 -19 64 -19c18 0 31 5.5 39 16.5s8.5 22.333 1.5 34s-19.833 17.834 -38.5 18.501c-10.667 0 -19.667 -2 -27 -6l-24 20l42 75c-101.333 7.33301 -180.833 45.666 -238.5 114.999s-86.5 150.333 -86.5 243c0 62.667 13.167 121.167 39.5 175.5
s67.333 99.5 123 135.5s120.5 54 194.5 54c100 0 184.667 -35.333 254 -106z" />
    <glyph glyph-name="Egrave" unicode="&#xc8;" horiz-adv-x="531" 
d="M476 704v-77h-292v-237h288v-77h-288l-1 -234h293v-78h-375v703h375zM285 773l-84 115h93l65 -115h-74z" />
    <glyph glyph-name="Eacute" unicode="&#xc9;" horiz-adv-x="531" 
d="M476 704v-77h-292v-237h288v-77h-288l-1 -234h293v-78h-375v703h375zM404 893l-84 -115h-74l65 115h93z" />
    <glyph glyph-name="Ecircumflex" unicode="&#xca;" horiz-adv-x="531" 
d="M476 704v-77h-292v-237h288v-77h-288l-1 -234h293v-78h-375v703h375zM154 750l88 117h101l88 -117h-74l-64 81h-2l-63 -81h-74z" />
    <glyph glyph-name="Edieresis" unicode="&#xcb;" horiz-adv-x="531" 
d="M467 701v-74h-292v-237h288v-75h-288l-1 -240h293v-74h-375v700h375zM253 769h-85v75h85v-75zM416 769h-85v75h85v-75z" />
    <glyph glyph-name="Igrave" unicode="&#xcc;" horiz-adv-x="284" 
d="M101 0v703h82v-703h-82zM103 750l-84 115h93l65 -115h-74z" />
    <glyph glyph-name="Iacute" unicode="&#xcd;" horiz-adv-x="284" 
d="M101 0v703h82v-703h-82zM260 866l-84 -115h-74l65 115h93z" />
    <glyph glyph-name="Icircumflex" unicode="&#xce;" horiz-adv-x="284" 
d="M101 0v703h82v-703h-82zM1 741l88 117h101l88 -117h-74l-64 81h-2l-63 -81h-74z" />
    <glyph glyph-name="Idieresis" unicode="&#xcf;" horiz-adv-x="284" 
d="M101 0v703h82v-703h-82zM101 750h-86v86h86v-86zM267 750h-86v86h86v-86z" />
    <glyph glyph-name="Eth" unicode="&#xd0;" horiz-adv-x="731" 
d="M46 311l0.00195312 75.9961h61v318h216c108 0.666992 193.167 -33.166 255.5 -101.499s94.166 -149.833 95.499 -244.5c1.33301 -45.333 -5.33398 -89.166 -20.001 -131.499s-36.167 -80.666 -64.5 -114.999s-65.5 -61.666 -111.5 -81.999s-97.333 -30.5 -154 -30.5h-217
v311h-61zM323.002 75.9961c86.667 -1.33301 153.832 26.167 201.499 82.5s70.5 122.833 68.5 199.5c-1.33301 74 -25.666 137.667 -72.999 191s-112.333 80 -195 80h-136v-242h132v-76h-132v-235h134z" />
    <glyph glyph-name="Ntilde" unicode="&#xd1;" horiz-adv-x="730" 
d="M101 704h88l360 -588v588h83v-704h-105l-344 564v-564h-82v704zM480 851l45 -32.999c-15.333 -34.667 -39 -56.334 -71 -65.001s-63.667 -2.66699 -95 18c-41.333 26.667 -76 18.334 -104 -24.999l-48 31c20 37.333 46.5 60.166 79.5 68.499s66.5 0.833008 100.5 -22.5
c36 -24 67 -14.667 93 28z" />
    <glyph glyph-name="Ograve" unicode="&#xd2;" 
d="M410 714c98 0 182 -36 252 -108s105 -157.667 105 -257s-35 -184.666 -105 -255.999s-154 -107 -252 -107s-182 35.667 -252 107s-105 156.666 -105 255.999s35 185 105 257s154 108 252 108zM136 349c0 -89.333 27.166 -159.5 81.499 -210.5s118.5 -76.5 192.5 -76.5
s138.167 25.5 192.5 76.5s81.5 121.167 81.5 210.5s-27.5 160 -82.5 212s-119.167 77.667 -192.5 77s-137.166 -27 -191.499 -79s-81.5 -122 -81.5 -210zM394.999 776l-84 115h93l65 -115h-74z" />
    <glyph glyph-name="Oacute" unicode="&#xd3;" 
d="M410 714c98 0 182 -36 252 -108s105 -157.667 105 -257s-35 -184.666 -105 -255.999s-154 -107 -252 -107s-182 35.667 -252 107s-105 156.666 -105 255.999s35 185 105 257s154 108 252 108zM136 349c0 -89.333 27.166 -159.5 81.499 -210.5s118.5 -76.5 192.5 -76.5
s138.167 25.5 192.5 76.5s81.5 121.167 81.5 210.5s-27.5 160 -82.5 212s-119.167 77.667 -192.5 77s-137.166 -27 -191.499 -79s-81.5 -122 -81.5 -210zM521.999 910l-84 -115h-74l65 115h93z" />
    <glyph glyph-name="Ocircumflex" unicode="&#xd4;" 
d="M410 714c98 0 182 -36 252 -108s105 -157.667 105 -257s-35 -184.666 -105 -255.999s-154 -107 -252 -107s-182 35.667 -252 107s-105 156.666 -105 255.999s35 185 105 257s154 108 252 108zM136 349c0 -89.333 27.166 -159.5 81.499 -210.5s118.5 -76.5 192.5 -76.5
s138.167 25.5 192.5 76.5s81.5 121.167 81.5 210.5s-27.5 160 -82.5 212s-119.167 77.667 -192.5 77s-137.166 -27 -191.499 -79s-81.5 -122 -81.5 -210zM293.999 774l88 117h101l88 -117h-74l-64 81h-2l-63 -81h-74z" />
    <glyph glyph-name="Otilde" unicode="&#xd5;" 
d="M410 714c98 0 182 -36 252 -108s105 -157.667 105 -257s-35 -184.666 -105 -255.999s-154 -107 -252 -107s-182 35.667 -252 107s-105 156.666 -105 255.999s35 185 105 257s154 108 252 108zM136 349c0 -89.333 27.166 -159.5 81.499 -210.5s118.5 -76.5 192.5 -76.5
s138.167 25.5 192.5 76.5s81.5 121.167 81.5 210.5s-27.5 160 -82.5 212s-119.167 77.667 -192.5 77s-137.166 -27 -191.499 -79s-81.5 -122 -81.5 -210zM530.999 895l45 -32.999c-15.333 -34.667 -39 -56.334 -71 -65.001s-63.667 -2.66699 -95 18
c-41.333 26.667 -76 18.334 -104 -24.999l-48 31c20 37.333 46.5 60.166 79.5 68.499s66.5 0.833008 100.5 -22.5c36 -24 67 -14.667 93 28z" />
    <glyph glyph-name="Odieresis" unicode="&#xd6;" 
d="M410 714c98 0 182 -36 252 -108s105 -157.667 105 -257s-35 -184.666 -105 -255.999s-154 -107 -252 -107s-182 35.667 -252 107s-105 156.666 -105 255.999s35 185 105 257s154 108 252 108zM136 349c0 -89.333 27.166 -159.5 81.499 -210.5s118.5 -76.5 192.5 -76.5
s138.167 25.5 192.5 76.5s81.5 121.167 81.5 210.5s-27.5 160 -82.5 212s-119.167 77.667 -192.5 77s-137.166 -27 -191.499 -79s-81.5 -122 -81.5 -210zM366.999 790h-91v84h91v-84zM541.999 790h-91v84h91v-84z" />
    <glyph glyph-name="multiply" unicode="&#xd7;" horiz-adv-x="539" 
d="M65 434l55 56l149 -149l144 144l55 -54l-145 -144l143 -143l-56 -55l-142 142l-146 -146l-55 55l146 145z" />
    <glyph glyph-name="Oslash" unicode="&#xd8;" 
d="M410 714c56 0 109 -13.001 159 -39.001l46 76h77l-67 -112c44 -34.667 78.667 -77.5 104 -128.5s38 -104.833 38 -161.5c0 -99.333 -35 -184.666 -105 -255.999s-154 -107 -252 -107c-54 0 -105.667 12 -155 36l-43 -72h-78l64 107c-44.667 34 -80 76.5 -106 127.5
s-39 105.833 -39 164.5c0 99.333 35 185 105 257s154 108 252 108zM136 348.999c0 -98 33.665 -174 100.998 -228l293 489c-37.333 18.667 -77.666 28 -120.999 28c-73.333 -0.666992 -137.166 -27 -191.499 -79s-81.5 -122 -81.5 -210zM683.998 348.999
c0 96 -32.667 171 -98 225l-292 -488c37.333 -16 76 -24 116 -24c74 0 138.167 25.5 192.5 76.5s81.5 121.167 81.5 210.5z" />
    <glyph glyph-name="Ugrave" unicode="&#xd9;" horiz-adv-x="655" 
d="M91 700l82.999 0.000976562v-498c0 -44 14.833 -78.333 44.5 -103s65.167 -37.334 106.5 -38.001c42 -0.666992 78.5 11.5 109.5 36.5s46.5 59.833 46.5 104.5v498h83v-498c0 -68.667 -23.667 -122.167 -71 -160.5s-103.333 -57.166 -168 -56.499
c-63.333 0.666992 -118.166 20.167 -164.499 58.5s-69.5 91.166 -69.5 158.499v498zM307.999 774.001l-84 115h93l65 -115h-74z" />
    <glyph glyph-name="Uacute" unicode="&#xda;" horiz-adv-x="655" 
d="M91 700l82.999 0.000976562v-498c0 -44 14.833 -78.333 44.5 -103s65.167 -37.334 106.5 -38.001c42 -0.666992 78.5 11.5 109.5 36.5s46.5 59.833 46.5 104.5v498h83v-498c0 -68.667 -23.667 -122.167 -71 -160.5s-103.333 -57.166 -168 -56.499
c-63.333 0.666992 -118.166 20.167 -164.499 58.5s-69.5 91.166 -69.5 158.499v498zM445.999 883.001l-84 -115h-74l65 115h93z" />
    <glyph glyph-name="Ucircumflex" unicode="&#xdb;" horiz-adv-x="655" 
d="M91 700l82.999 0.000976562v-498c0 -44 14.833 -78.333 44.5 -103s65.167 -37.334 106.5 -38.001c42 -0.666992 78.5 11.5 109.5 36.5s46.5 59.833 46.5 104.5v498h83v-498c0 -68.667 -23.667 -122.167 -71 -160.5s-103.333 -57.166 -168 -56.499
c-63.333 0.666992 -118.166 20.167 -164.499 58.5s-69.5 91.166 -69.5 158.499v498zM192.999 763.001l88 117h101l88 -117h-74l-64 81h-2l-63 -81h-74z" />
    <glyph glyph-name="Udieresis" unicode="&#xdc;" horiz-adv-x="655" 
d="M91 700l82.999 0.000976562v-498c0 -44 14.833 -78.333 44.5 -103s65.167 -37.334 106.5 -38.001c42 -0.666992 78.5 11.5 109.5 36.5s46.5 59.833 46.5 104.5v498h83v-498c0 -68.667 -23.667 -122.167 -71 -160.5s-103.333 -57.166 -168 -56.499
c-63.333 0.666992 -118.166 20.167 -164.499 58.5s-69.5 91.166 -69.5 158.499v498zM293.999 772.001h-90v98h90v-98zM466.999 772.001h-90v98h90v-98z" />
    <glyph glyph-name="Yacute" unicode="&#xdd;" horiz-adv-x="589" 
d="M574 705l-240 -426v-279h-81v279l-115.5 206.5l-123.5 219.5h94l186 -339l81.5 148l103.5 191h95zM411 860l-84 -115h-74l65 115h93z" />
    <glyph glyph-name="Thorn" unicode="&#xde;" horiz-adv-x="583" 
d="M183 143v-142.999h-82v700h82v-114h127c74 0 131.833 -22.333 173.5 -67s62.5 -97 62.5 -157c0 -60.667 -20.667 -112.334 -62 -155.001s-99 -64 -173 -64h-128zM310 219.001c48.667 0 86.5 14.168 113.5 42.501s40.5 61.833 40.5 100.5
c0 39.333 -13.667 74.666 -41 105.999s-65 47 -113 47h-127v-296h127z" />
    <glyph glyph-name="germandbls" unicode="&#xdf;" horiz-adv-x="581" 
d="M162 525l0.00292969 -447.997v-77h-83v525c0 55.333 20.167 99.833 60.5 133.5s88.166 50.5 143.499 50.5s102.5 -16.333 141.5 -49s58.5 -76.334 58.5 -131.001c0 -28 -7.16699 -55.333 -21.5 -82s-34.833 -48.334 -61.5 -65.001
c38.667 -14.667 69.667 -38.834 93 -72.501s34.666 -69.834 33.999 -108.501c0.666992 -35.333 -5.5 -66.833 -18.5 -94.5s-30.5 -49.667 -52.5 -66s-47.167 -28.666 -75.5 -36.999s-57.833 -11.833 -88.5 -10.5s-60.334 7 -89.001 17v76c26 -14.667 54.667 -22 86 -22
c33.333 0 62 6.83301 86 20.5s41.5 30.5 52.5 50.5s16.5 42 16.5 66s-5.5 46 -16.5 66s-28.667 36.833 -53 50.5s-52.833 20.5 -85.5 20.5h-59v77h59c36.667 0 65.667 11.833 87 35.5s31 50.5 29 80.5c-2.66699 31.333 -15.834 56.166 -39.501 74.499s-51.5 27.5 -83.5 27.5
c-31.333 0 -59.166 -10.167 -83.499 -30.5s-36.5 -46.166 -36.5 -77.499z" />
    <glyph glyph-name="agrave" unicode="&#xe0;" horiz-adv-x="568" 
d="M418 239c-37.333 24 -80.002 35.999 -128.002 35.999c-53.333 -0.666992 -94.166 -11.167 -122.499 -31.5s-42.5 -47.833 -42.5 -82.5c0 -31.333 13.333 -57.166 40 -77.499s65 -30.5 115 -30.5c24.667 0 49.834 6 75.501 18s46.5 27.333 62.5 46v122z
M492.998 -0.000976562l-61 0.00195312l-11 45c-38 -36.667 -85 -55.667 -141 -57c-73.333 -0.666992 -129.5 15.166 -168.5 47.499s-58.5 74.166 -58.5 125.499c0 52 20.5 95 61.5 129s99.167 50.667 174.5 50c39.333 0 83 -12.667 131 -38v22
c0 84.667 -48.667 127 -146 127c-57.333 0 -109 -16.333 -155 -49l-33 55c58 42 121.333 63 190 63c62.667 0.666992 114.5 -15 155.5 -47s61.5 -81.667 61.5 -149v-324zM277.998 587.001l-84 115h93l65 -115h-74z" />
    <glyph glyph-name="aacute" unicode="&#xe1;" horiz-adv-x="568" 
d="M418 239c-37.333 24 -80.002 35.999 -128.002 35.999c-53.333 -0.666992 -94.166 -11.167 -122.499 -31.5s-42.5 -47.833 -42.5 -82.5c0 -31.333 13.333 -57.166 40 -77.499s65 -30.5 115 -30.5c24.667 0 49.834 6 75.501 18s46.5 27.333 62.5 46v122z
M492.998 -0.000976562l-61 0.00195312l-11 45c-38 -36.667 -85 -55.667 -141 -57c-73.333 -0.666992 -129.5 15.166 -168.5 47.499s-58.5 74.166 -58.5 125.499c0 52 20.5 95 61.5 129s99.167 50.667 174.5 50c39.333 0 83 -12.667 131 -38v22
c0 84.667 -48.667 127 -146 127c-57.333 0 -109 -16.333 -155 -49l-33 55c58 42 121.333 63 190 63c62.667 0.666992 114.5 -15 155.5 -47s61.5 -81.667 61.5 -149v-324zM394.998 701.001l-84 -115h-74l65 115h93z" />
    <glyph glyph-name="acircumflex" unicode="&#xe2;" horiz-adv-x="568" 
d="M418 239c-37.333 24 -80.002 35.999 -128.002 35.999c-53.333 -0.666992 -94.166 -11.167 -122.499 -31.5s-42.5 -47.833 -42.5 -82.5c0 -31.333 13.333 -57.166 40 -77.499s65 -30.5 115 -30.5c24.667 0 49.834 6 75.501 18s46.5 27.333 62.5 46v122z
M492.998 -0.000976562l-61 0.00195312l-11 45c-38 -36.667 -85 -55.667 -141 -57c-73.333 -0.666992 -129.5 15.166 -168.5 47.499s-58.5 74.166 -58.5 125.499c0 52 20.5 95 61.5 129s99.167 50.667 174.5 50c39.333 0 83 -12.667 131 -38v22
c0 84.667 -48.667 127 -146 127c-57.333 0 -109 -16.333 -155 -49l-33 55c58 42 121.333 63 190 63c62.667 0.666992 114.5 -15 155.5 -47s61.5 -81.667 61.5 -149v-324zM153.998 585.001l88 117h101l88 -117h-74l-64 81h-2l-63 -81h-74z" />
    <glyph glyph-name="atilde" unicode="&#xe3;" horiz-adv-x="568" 
d="M418 239c-37.333 24 -80.002 35.999 -128.002 35.999c-53.333 -0.666992 -94.166 -11.167 -122.499 -31.5s-42.5 -47.833 -42.5 -82.5c0 -31.333 13.333 -57.166 40 -77.499s65 -30.5 115 -30.5c24.667 0 49.834 6 75.501 18s46.5 27.333 62.5 46v122z
M492.998 -0.000976562l-61 0.00195312l-11 45c-38 -36.667 -85 -55.667 -141 -57c-73.333 -0.666992 -129.5 15.166 -168.5 47.499s-58.5 74.166 -58.5 125.499c0 52 20.5 95 61.5 129s99.167 50.667 174.5 50c39.333 0 83 -12.667 131 -38v22
c0 84.667 -48.667 127 -146 127c-57.333 0 -109 -16.333 -155 -49l-33 55c58 42 121.333 63 190 63c62.667 0.666992 114.5 -15 155.5 -47s61.5 -81.667 61.5 -149v-324zM403.998 712.001l45 -32.999c-15.333 -34.667 -39 -56.334 -71 -65.001s-63.667 -2.66699 -95 18
c-41.333 26.667 -76 18.334 -104 -24.999l-48 31c20 37.333 46.5 60.166 79.5 68.499s66.5 0.833008 100.5 -22.5c36 -24 67 -14.667 93 28z" />
    <glyph glyph-name="adieresis" unicode="&#xe4;" horiz-adv-x="568" 
d="M418 239c-37.333 24 -80.002 35.999 -128.002 35.999c-53.333 -0.666992 -94.166 -11.167 -122.499 -31.5s-42.5 -47.833 -42.5 -82.5c0 -31.333 13.333 -57.166 40 -77.499s65 -30.5 115 -30.5c24.667 0 49.834 6 75.501 18s46.5 27.333 62.5 46v122z
M492.998 -0.000976562l-61 0.00195312l-11 45c-38 -36.667 -85 -55.667 -141 -57c-73.333 -0.666992 -129.5 15.166 -168.5 47.499s-58.5 74.166 -58.5 125.499c0 52 20.5 95 61.5 129s99.167 50.667 174.5 50c39.333 0 83 -12.667 131 -38v22
c0 84.667 -48.667 127 -146 127c-57.333 0 -109 -16.333 -155 -49l-33 55c58 42 121.333 63 190 63c62.667 0.666992 114.5 -15 155.5 -47s61.5 -81.667 61.5 -149v-324zM249.998 614.001h-89v87h89v-87zM421.998 614.001h-89v87h89v-87z" />
    <glyph glyph-name="aring" unicode="&#xe5;" horiz-adv-x="568" 
d="M418 239c-37.333 24 -80.002 35.999 -128.002 35.999c-53.333 -0.666992 -94.166 -11.167 -122.499 -31.5s-42.5 -47.833 -42.5 -82.5c0 -31.333 13.333 -57.166 40 -77.499s65 -30.5 115 -30.5c24.667 0 49.834 6 75.501 18s46.5 27.333 62.5 46v122z
M492.998 -0.000976562l-61 0.00195312l-11 45c-38 -36.667 -85 -55.667 -141 -57c-73.333 -0.666992 -129.5 15.166 -168.5 47.499s-58.5 74.166 -58.5 125.499c0 52 20.5 95 61.5 129s99.167 50.667 174.5 50c39.333 0 83 -12.667 131 -38v22
c0 84.667 -48.667 127 -146 127c-57.333 0 -109 -16.333 -155 -49l-33 55c58 42 121.333 63 190 63c62.667 0.666992 114.5 -15 155.5 -47s61.5 -81.667 61.5 -149v-324zM288.998 578.001c-23.333 0 -43.1641 6.83301 -59.4971 20.5s-24.5 31.5 -24.5 53.5
c0 22.667 8.16699 40.834 24.5 54.501s36.166 20.5 59.499 20.5s43.166 -6.83301 59.499 -20.5s24.5 -31.834 24.5 -54.501c0 -22 -8.33301 -39.833 -25 -53.5s-36.334 -20.5 -59.001 -20.5zM289 620.001c9.33301 0 17.167 3 23.5 9s9.5 13.667 9.5 23c0 10.667 -3 19 -9 25
s-14 9 -24 9s-18 -3 -24 -9s-9 -14.333 -9 -25c0 -9.33301 3 -17 9 -23s14 -9 24 -9z" />
    <glyph glyph-name="ae" unicode="&#xe6;" horiz-adv-x="958" 
d="M663 58c62.667 0 111.331 23.334 145.998 70.001l63 -38c-50 -67.333 -119.667 -101 -209 -101c-82.667 0 -148 28.333 -196 85c-25.333 -26.667 -55.666 -47.5 -90.999 -62.5s-70 -21.833 -104 -20.5c-95.333 -0.666992 -162.166 27.833 -200.499 85.5
s-37.166 115.5 3.50098 173.5s109.334 86.333 206.001 85c40 0 82.333 -11.667 127 -35c0.666992 0.666992 1 1.33398 1 2.00098v8c0 52 -19 90.667 -57 116s-80.667 35.166 -128 29.499s-86 -23.167 -116 -52.5l-40 46c36 35.333 82 57.666 138 66.999s108.333 3 157 -19
s80 -57 94 -105c20 38.667 47.667 69.167 83 91.5s76 33.833 122 34.5c80 0.666992 143.833 -28.333 191.5 -87s65.5 -128.667 53.5 -210h-426c3.33301 -45.333 21.166 -83.833 53.499 -115.5s75.166 -47.5 128.499 -47.5zM271.997 60.001
c67.333 0 120.331 23.333 158.998 70c-16 36 -24.667 73 -26 111c-33.333 19.333 -74.333 29 -123 29c-66 0 -113.167 -17.5 -141.5 -52.5s-29.666 -70 -3.99902 -105s70.834 -52.5 135.501 -52.5zM479.995 287.001h355.999c-4 46.667 -21.833 85.167 -53.5 115.5
s-71.5 45.833 -119.5 46.5c-52 -0.666992 -93.667 -16.5 -125 -47.5s-50.666 -69.167 -57.999 -114.5z" />
    <glyph glyph-name="ccedilla" unicode="&#xe7;" horiz-adv-x="526" 
d="M481 449l-43.002 -52.998c-36.667 34.667 -81.667 52 -135 52c-48 0.666992 -89.833 -17.333 -125.5 -54s-53.834 -84 -54.501 -142c0 -50.667 16 -95 48 -133s76.333 -57 133 -57c51.333 0 97.333 18.667 138 56l44 -53c-48 -46.667 -105.667 -71 -173 -73l-17 -30
c18 -0.666992 35.333 -8.83398 52 -24.501s24.667 -33.167 24 -52.5c-1.33301 -28.667 -11.666 -50.5 -30.999 -65.5s-41.666 -22.5 -66.999 -22.5c-23.333 0 -51.666 8.33301 -84.999 25l15 44c22.667 -12.667 44 -19 64 -19c18 0 31 5.5 39 16.5s8.5 22.333 1.5 34
s-19.833 17.834 -38.5 18.501c-10.667 0 -19.667 -2 -27 -6l-24 20l37 66c-66.667 10 -118.5 39.667 -155.5 89s-55.5 105.666 -55.5 168.999c0.666992 71.333 24 133.166 70 185.499s109 78.833 189 79.5c70.667 0 129.667 -23.333 177 -70z" />
    <glyph glyph-name="egrave" unicode="&#xe8;" horiz-adv-x="599" 
d="M304 60c28.667 0 56.334 5.99707 83.001 17.9971s48.334 29.333 65.001 52l60 -38c-50.667 -68.667 -120 -103 -208 -103c-54.667 0 -102.167 13.333 -142.5 40s-69.833 59.667 -88.5 99s-27.667 81.666 -27 126.999c0 70.667 23 132.334 69 185.001
s108.667 79.334 188 80.001c80 0.666992 143.667 -27.666 191 -84.999s65 -126.666 53 -207.999h-425c3.33301 -46 21.166 -85.333 53.499 -118s75.166 -49 128.499 -49zM123 292.997h354c-4 46.667 -21.667 84.5 -53 113.5s-71.333 43.833 -120 44.5
c-52 -0.666992 -93.333 -16 -124 -46s-49.667 -67.333 -57 -112zM290 594.997l-84 115h93l65 -115h-74z" />
    <glyph glyph-name="eacute" unicode="&#xe9;" horiz-adv-x="599" 
d="M304 60c28.667 0 56.334 5.99707 83.001 17.9971s48.334 29.333 65.001 52l60 -38c-50.667 -68.667 -120 -103 -208 -103c-54.667 0 -102.167 13.333 -142.5 40s-69.833 59.667 -88.5 99s-27.667 81.666 -27 126.999c0 70.667 23 132.334 69 185.001
s108.667 79.334 188 80.001c80 0.666992 143.667 -27.666 191 -84.999s65 -126.666 53 -207.999h-425c3.33301 -46 21.166 -85.333 53.499 -118s75.166 -49 128.499 -49zM123 292.997h354c-4 46.667 -21.667 84.5 -53 113.5s-71.333 43.833 -120 44.5
c-52 -0.666992 -93.333 -16 -124 -46s-49.667 -67.333 -57 -112zM415 706.997l-84 -115h-74l65 115h93z" />
    <glyph glyph-name="ecircumflex" unicode="&#xea;" horiz-adv-x="599" 
d="M304 60c28.667 0 56.334 5.99707 83.001 17.9971s48.334 29.333 65.001 52l60 -38c-50.667 -68.667 -120 -103 -208 -103c-54.667 0 -102.167 13.333 -142.5 40s-69.833 59.667 -88.5 99s-27.667 81.666 -27 126.999c0 70.667 23 132.334 69 185.001
s108.667 79.334 188 80.001c80 0.666992 143.667 -27.666 191 -84.999s65 -126.666 53 -207.999h-425c3.33301 -46 21.166 -85.333 53.499 -118s75.166 -49 128.499 -49zM123 292.997h354c-4 46.667 -21.667 84.5 -53 113.5s-71.333 43.833 -120 44.5
c-52 -0.666992 -93.333 -16 -124 -46s-49.667 -67.333 -57 -112zM165 590.997l88 117h101l88 -117h-74l-64 81h-2l-63 -81h-74z" />
    <glyph glyph-name="edieresis" unicode="&#xeb;" horiz-adv-x="599" 
d="M304 60c28.667 0 56.334 5.99707 83.001 17.9971s48.334 29.333 65.001 52l60 -38c-50.667 -68.667 -120 -103 -208 -103c-54.667 0 -102.167 13.333 -142.5 40s-69.833 59.667 -88.5 99s-27.667 81.666 -27 126.999c0 70.667 23 132.334 69 185.001
s108.667 79.334 188 80.001c80 0.666992 143.667 -27.666 191 -84.999s65 -126.666 53 -207.999h-425c3.33301 -46 21.166 -85.333 53.499 -118s75.166 -49 128.499 -49zM123 292.997h354c-4 46.667 -21.667 84.5 -53 113.5s-71.333 43.833 -120 44.5
c-52 -0.666992 -93.333 -16 -124 -46s-49.667 -67.333 -57 -112zM262 615.997h-91v81h91v-81zM437 615.997h-91v81h91v-81z" />
    <glyph glyph-name="igrave" unicode="&#xec;" horiz-adv-x="240" 
d="M160 0h-79v512h79v-512zM95 592l-84 115h93l65 -115h-74z" />
    <glyph glyph-name="iacute" unicode="&#xed;" horiz-adv-x="240" 
d="M160 0h-79v512h79v-512zM226 707l-84 -115h-74l65 115h93z" />
    <glyph glyph-name="icircumflex" unicode="&#xee;" horiz-adv-x="240" 
d="M160 0h-79v512h79v-512zM-19 590l88 117h101l88 -117h-74l-64 81h-2l-63 -81h-74z" />
    <glyph glyph-name="idieresis" unicode="&#xef;" horiz-adv-x="240" 
d="M160 0h-79v512h79v-512zM81 610h-82v88h82v-88zM237 610h-81v88h81v-88z" />
    <glyph glyph-name="eth" unicode="&#xf0;" horiz-adv-x="613" 
d="M209 498l-28.999 40.998l106 64c-44.667 19.333 -95.334 29 -152.001 29l7 68c84.667 0 158.334 -16.667 221.001 -50l101 61l26 -42l-81 -49c104 -79.333 153.333 -206.666 148 -381.999c-0.666992 -68 -22.834 -125.667 -66.501 -173s-106.5 -71 -188.5 -71
c-81.333 0 -144.333 24.167 -189 72.5s-66.334 104.833 -65.001 169.5c1.33301 62.667 24.5 117 69.5 163s106.5 68.667 184.5 68c78.667 -1.33301 138.334 -31.333 179.001 -90c-22 86.667 -69.333 153.334 -142 200.001zM301.001 395.998
c-54.667 0 -96.832 -15.668 -126.499 -47.001s-45.167 -69.333 -46.5 -114c-1.33301 -45.333 13 -84.666 43 -117.999s73.333 -50 130 -50c57.333 0 101.166 16.833 131.499 50.5s44.833 73.167 43.5 118.5c-1.33301 44 -17 81.667 -47 113s-72.667 47 -128 47z" />
    <glyph glyph-name="ntilde" unicode="&#xf1;" horiz-adv-x="616" 
d="M81 507l66.0039 -0.00195312l10 -47c31.333 34.667 80 52.667 146 54c71.333 -1.33301 128.833 -21.166 172.5 -59.499s65.5 -93.166 65.5 -164.499v-290h-78v290c-0.666992 46.667 -15.334 83 -44.001 109s-66.334 40.667 -113.001 44
c-24.667 1.33301 -50.834 -2.16699 -78.501 -10.5s-50.834 -21.5 -69.501 -39.5v-393h-77v507zM411.004 710.998l45 -32.999c-15.333 -34.667 -39 -56.334 -71 -65.001s-63.667 -2.66699 -95 18c-41.333 26.667 -76 18.334 -104 -24.999l-48 31
c20 37.333 46.5 60.166 79.5 68.499s66.5 0.833008 100.5 -22.5c36 -24 67 -14.667 93 28z" />
    <glyph glyph-name="ograve" unicode="&#xf2;" horiz-adv-x="605" 
d="M123 253c0 -62.667 17.5 -111 52.5 -145s77.167 -51 126.5 -51c50 0 92.5 17 127.5 51s52.5 82.333 52.5 145c0 62 -17.5 109.833 -52.5 143.5s-77.5 50.5 -127.5 50.5c-49.333 0 -91.5 -16.833 -126.5 -50.5s-52.5 -81.5 -52.5 -143.5zM560 253
c0 -75.333 -24.167 -138.335 -72.5 -189.002s-110.166 -76 -185.499 -76s-137 25.333 -185 76s-72 113.667 -72 189c0 74.667 24 137.334 72 188.001s109.667 76 185 76s137.166 -25.167 185.499 -75.5s72.5 -113.166 72.5 -188.499zM288 591.998l-84 115h93l65 -115h-74z
" />
    <glyph glyph-name="oacute" unicode="&#xf3;" horiz-adv-x="605" 
d="M123 253c0 -62.667 17.5 -111 52.5 -145s77.167 -51 126.5 -51c50 0 92.5 17 127.5 51s52.5 82.333 52.5 145c0 62 -17.5 109.833 -52.5 143.5s-77.5 50.5 -127.5 50.5c-49.333 0 -91.5 -16.833 -126.5 -50.5s-52.5 -81.5 -52.5 -143.5zM560 253
c0 -75.333 -24.167 -138.335 -72.5 -189.002s-110.166 -76 -185.499 -76s-137 25.333 -185 76s-72 113.667 -72 189c0 74.667 24 137.334 72 188.001s109.667 76 185 76s137.166 -25.167 185.499 -75.5s72.5 -113.166 72.5 -188.499zM414 704.998l-84 -115h-74l65 115h93z
" />
    <glyph glyph-name="ocircumflex" unicode="&#xf4;" horiz-adv-x="605" 
d="M123 253c0 -62.667 17.5 -111 52.5 -145s77.167 -51 126.5 -51c50 0 92.5 17 127.5 51s52.5 82.333 52.5 145c0 62 -17.5 109.833 -52.5 143.5s-77.5 50.5 -127.5 50.5c-49.333 0 -91.5 -16.833 -126.5 -50.5s-52.5 -81.5 -52.5 -143.5zM560 253
c0 -75.333 -24.167 -138.335 -72.5 -189.002s-110.166 -76 -185.499 -76s-137 25.333 -185 76s-72 113.667 -72 189c0 74.667 24 137.334 72 188.001s109.667 76 185 76s137.166 -25.167 185.499 -75.5s72.5 -113.166 72.5 -188.499zM170 589.998l88 117h101l88 -117h-74
l-64 81h-2l-63 -81h-74z" />
    <glyph glyph-name="otilde" unicode="&#xf5;" horiz-adv-x="605" 
d="M123 253c0 -62.667 17.5 -111 52.5 -145s77.167 -51 126.5 -51c50 0 92.5 17 127.5 51s52.5 82.333 52.5 145c0 62 -17.5 109.833 -52.5 143.5s-77.5 50.5 -127.5 50.5c-49.333 0 -91.5 -16.833 -126.5 -50.5s-52.5 -81.5 -52.5 -143.5zM560 253
c0 -75.333 -24.167 -138.335 -72.5 -189.002s-110.166 -76 -185.499 -76s-137 25.333 -185 76s-72 113.667 -72 189c0 74.667 24 137.334 72 188.001s109.667 76 185 76s137.166 -25.167 185.499 -75.5s72.5 -113.166 72.5 -188.499zM428 714.998l45 -32.999
c-15.333 -34.667 -39 -56.334 -71 -65.001s-63.667 -2.66699 -95 18c-41.333 26.667 -76 18.334 -104 -24.999l-48 31c20 37.333 46.5 60.166 79.5 68.499s66.5 0.833008 100.5 -22.5c36 -24 67 -14.667 93 28z" />
    <glyph glyph-name="odieresis" unicode="&#xf6;" horiz-adv-x="605" 
d="M123 253c0 -62.667 17.5 -111 52.5 -145s77.167 -51 126.5 -51c50 0 92.5 17 127.5 51s52.5 82.333 52.5 145c0 62 -17.5 109.833 -52.5 143.5s-77.5 50.5 -127.5 50.5c-49.333 0 -91.5 -16.833 -126.5 -50.5s-52.5 -81.5 -52.5 -143.5zM560 253
c0 -75.333 -24.167 -138.335 -72.5 -189.002s-110.166 -76 -185.499 -76s-137 25.333 -185 76s-72 113.667 -72 189c0 74.667 24 137.334 72 188.001s109.667 76 185 76s137.166 -25.167 185.499 -75.5s72.5 -113.166 72.5 -188.499zM266 617.998h-89v87h89v-87z
M439 617.998h-90v87h90v-87z" />
    <glyph glyph-name="divide" unicode="&#xf7;" horiz-adv-x="615" 
d="M255 482v91h90v-91h-90zM70 293v78h472v-78h-472zM255 91v91h91v-91h-91z" />
    <glyph glyph-name="oslash" unicode="&#xf8;" horiz-adv-x="605" 
d="M560 253c0 -75.333 -24.168 -138.334 -72.501 -189.001s-110.166 -76 -185.499 -76c-38.667 0 -77 8.33301 -115 25l-39 -63h-68l58 94c-62 51.333 -93 121 -93 209c0 74.667 24 137.334 72 188.001s109.667 76 185 76c41.333 0 79.333 -8.33301 114 -25l41 66h67
l-60 -96c64 -51.333 96 -121 96 -209zM481.999 252.999c0 62.667 -18.667 111.667 -56 147l-202 -327c23.333 -10.667 49.333 -16 78 -16c50 0 92.5 17 127.5 51s52.5 82.333 52.5 145zM122.999 252.999c0 -62.667 17.999 -111.333 53.999 -146l201 324
c-23.333 10.667 -48.666 16 -75.999 16c-49.333 0 -91.5 -16.833 -126.5 -50.5s-52.5 -81.5 -52.5 -143.5z" />
    <glyph glyph-name="ugrave" unicode="&#xf9;" horiz-adv-x="615" 
d="M534 0h-65.001l-11 52c-45.333 -39.333 -98.333 -59 -159 -59c-61.333 0 -114.166 19.833 -158.499 59.5s-66.5 92.834 -66.5 159.501v294h78v-294c1.33301 -46 17.833 -82.333 49.5 -109s69.167 -40.334 112.5 -41.001c60 -1.33301 107.667 19.667 143 63v381h77v-506z
M278.999 595l-84 115h93l65 -115h-74z" />
    <glyph glyph-name="uacute" unicode="&#xfa;" horiz-adv-x="615" 
d="M534 0h-65.001l-11 52c-45.333 -39.333 -98.333 -59 -159 -59c-61.333 0 -114.166 19.833 -158.499 59.5s-66.5 92.834 -66.5 159.501v294h78v-294c1.33301 -46 17.833 -82.333 49.5 -109s69.167 -40.334 112.5 -41.001c60 -1.33301 107.667 19.667 143 63v381h77v-506z
M410.999 707l-84 -115h-74l65 115h93z" />
    <glyph glyph-name="ucircumflex" unicode="&#xfb;" horiz-adv-x="615" 
d="M534 0h-65.001l-11 52c-45.333 -39.333 -98.333 -59 -159 -59c-61.333 0 -114.166 19.833 -158.499 59.5s-66.5 92.834 -66.5 159.501v294h78v-294c1.33301 -46 17.833 -82.333 49.5 -109s69.167 -40.334 112.5 -41.001c60 -1.33301 107.667 19.667 143 63v381h77v-506z
M172.999 596l88 117h101l88 -117h-74l-64 81h-2l-63 -81h-74z" />
    <glyph glyph-name="udieresis" unicode="&#xfc;" horiz-adv-x="615" 
d="M534 0h-65.001l-11 52c-45.333 -39.333 -98.333 -59 -159 -59c-61.333 0 -114.166 19.833 -158.499 59.5s-66.5 92.834 -66.5 159.501v294h78v-294c1.33301 -46 17.833 -82.333 49.5 -109s69.167 -40.334 112.5 -41.001c60 -1.33301 107.667 19.667 143 63v381h77v-506z
M259.999 620h-88v80h88v-80zM429.999 620h-89v80h89v-80z" />
    <glyph glyph-name="yacute" unicode="&#xfd;" horiz-adv-x="504" 
d="M89 -190v65c28 -3.33301 49.333 -0.5 64 8.5s25.667 22.833 33 41.5l28 73l-207 509h84l164 -420l156 420h84l-235 -607c-26 -68.667 -83 -98.667 -171 -90zM369 703l-84 -115h-74l65 115h93z" />
    <glyph glyph-name="thorn" unicode="&#xfe;" horiz-adv-x="574" 
d="M81 -195v894.001h75v-239c28.667 34 67.334 51.667 116.001 53c79.333 2.66699 141.333 -19.833 186 -67.5s67 -112.5 67 -194.5c0 -74.667 -23.667 -136.334 -71 -185.001s-104 -72.667 -170 -72c-50.667 0 -93.334 11.667 -128.001 35v-224h-75zM290 61.001
c51.333 4.66699 91.001 24.3291 119.001 58.9961s42 79.334 42 134.001c0 61.333 -16.833 108.333 -50.5 141s-74.5 48.334 -122.5 47.001c-44.667 -1.33301 -85.334 -19.666 -122.001 -54.999v-277c35.333 -39.333 80 -55.666 134 -48.999z" />
    <glyph glyph-name="ydieresis" unicode="&#xff;" horiz-adv-x="504" 
d="M89 -190v65c28 -3.33301 49.333 -0.5 64 8.5s25.667 22.833 33 41.5l28 73l-207 509h84l164 -420l156 420h84l-235 -607c-26 -68.667 -83 -98.667 -171 -90zM210 625h-91v78h91v-78zM385 625h-91v78h91v-78z" />
    <glyph glyph-name="Amacron" unicode="&#x100;" horiz-adv-x="632" 
d="M13 0l251 705h101l254 -705h-87l-81 224h-271l-79 -224h-88zM205 300h219l-109 318zM188 762v67h252v-67h-252z" />
    <glyph glyph-name="amacron" unicode="&#x101;" horiz-adv-x="556" 
d="M410 239c-34 22 -76.667 33 -128 33c-67.333 0 -115.5 -17.5 -144.5 -52.5s-30.333 -70 -4 -105s72.5 -52.5 138.5 -52.5c61.333 0 107.333 18.333 138 55v122zM485 0l-60.998 0.000976562l-11 45c-34.667 -33.333 -81.667 -50.666 -141 -51.999
c-90 -0.666992 -155.333 25.666 -196 78.999c-32.667 42 -40.334 88 -23.001 138c17.333 51.333 55.666 87.666 114.999 108.999c33.333 12.667 71 18.667 113 18c41.333 0 84.333 -11.667 129 -35v10c0 40.667 -10.5 73 -31.5 97s-46.667 38 -77 42s-62 2.16699 -95 -5.5
s-62.167 -20.5 -87.5 -38.5l-40 46c34.667 28.667 75.5 48.167 122.5 58.5s91.333 10.833 133 1.5s77.167 -31.5 106.5 -66.5s44 -79.833 44 -134.5v-312zM150.002 604.001v61h245v-61h-245z" />
    <glyph glyph-name="Abreve" unicode="&#x102;" horiz-adv-x="632" 
d="M13 0l251 705h101l254 -705h-87l-81 224h-271l-79 -224h-88zM205 300h219l-109 318zM313 748c-36.667 0 -67.833 10.333 -93.5 31s-38.5 49.334 -38.5 86.001h64c0 -19.333 6.83301 -34 20.5 -44s29.5 -15 47.5 -15c16.667 0 31.667 4.83301 45 14.5s20 24.5 20 44.5h66
c0 -36.667 -12.833 -65.334 -38.5 -86.001s-56.5 -31 -92.5 -31z" />
    <glyph glyph-name="abreve" unicode="&#x103;" horiz-adv-x="556" 
d="M410 239c-34 22 -76.667 33 -128 33c-67.333 0 -115.5 -17.5 -144.5 -52.5s-30.333 -70 -4 -105s72.5 -52.5 138.5 -52.5c61.333 0 107.333 18.333 138 55v122zM485 0l-60.998 0.000976562l-11 45c-34.667 -33.333 -81.667 -50.666 -141 -51.999
c-90 -0.666992 -155.333 25.666 -196 78.999c-32.667 42 -40.334 88 -23.001 138c17.333 51.333 55.666 87.666 114.999 108.999c33.333 12.667 71 18.667 113 18c41.333 0 84.333 -11.667 129 -35v10c0 40.667 -10.5 73 -31.5 97s-46.667 38 -77 42s-62 2.16699 -95 -5.5
s-62.167 -20.5 -87.5 -38.5l-40 46c34.667 28.667 75.5 48.167 122.5 58.5s91.333 10.833 133 1.5s77.167 -31.5 106.5 -66.5s44 -79.833 44 -134.5v-312zM275.002 568.001c-36.667 0 -67.833 10.333 -93.5 31s-38.5 49.334 -38.5 86.001h64c0 -19.333 6.83301 -34 20.5 -44
s29.5 -15 47.5 -15c16.667 0 31.667 4.83301 45 14.5s20 24.5 20 44.5h66c0 -36.667 -12.833 -65.334 -38.5 -86.001s-56.5 -31 -92.5 -31z" />
    <glyph glyph-name="Aogonek" unicode="&#x104;" horiz-adv-x="635" 
d="M470 -116c-4 24.667 1.66992 47 17.0029 67s33.666 36.333 54.999 49h-7l-81 224h-271l-79 -224h-88l251 705h101l254 -705l-23 -16c-9.33301 -6.66699 -21.666 -18.5 -36.999 -35.5s-23 -32.167 -23 -45.5c0 -11.333 5.83301 -21 17.5 -29s23.5 -13.333 35.5 -16l17 -4
l-24 -44c-0.666992 0.666992 -4.33398 0.5 -11.001 -0.5s-15.334 -0.166992 -26.001 2.5s-21.334 6.16699 -32.001 10.5s-20.5 11.833 -29.5 22.5s-14.5 23.667 -16.5 39zM208.003 300h219l-109 318z" />
    <glyph glyph-name="aogonek" unicode="&#x105;" horiz-adv-x="557" 
d="M353 -112c-4 26 1.67285 48.501 17.0059 67.501s33 33.833 53 44.5l-10 44c-34.667 -33.333 -81.667 -50.666 -141 -51.999c-90 -0.666992 -155.333 25.666 -196 78.999c-32.667 42 -40.334 88 -23.001 138c17.333 51.333 55.666 87.666 114.999 108.999
c33.333 12.667 71 18.667 113 18c41.333 0 84.333 -11.667 129 -35v10c0 40.667 -10.5 73 -31.5 97s-46.667 38 -77 42s-62 2.16699 -95 -5.5s-62.167 -20.5 -87.5 -38.5l-40 46c34.667 28.667 75.5 48.167 122.5 58.5s91.333 10.833 133 1.5s77.167 -31.5 106.5 -66.5
s44 -79.833 44 -134.5v-310h1l-1 -1v-1h-2c-6 -4.66699 -12.833 -10.667 -20.5 -18s-16.334 -18.5 -26.001 -33.5s-14.5 -28.5 -14.5 -40.5c0 -11.333 5.83301 -21 17.5 -29s23.167 -13.333 34.5 -16l18 -4l-24 -44c-0.666992 0.666992 -4.33398 0.5 -11.001 -0.5
s-15.334 -0.166992 -26.001 2.5s-21.334 6.16699 -32.001 10.5s-20.5 11.833 -29.5 22.5s-14.5 23.667 -16.5 39zM410.006 238.001c-34 22 -76.667 33 -128 33c-67.333 0 -115.5 -17.5 -144.5 -52.5s-30.333 -70 -4 -105s72.5 -52.5 138.5 -52.5
c61.333 0 107.333 18.333 138 55v122z" />
    <glyph glyph-name="Cacute" unicode="&#x106;" horiz-adv-x="729" 
d="M664 607l-53 -54.999c-56.667 58.667 -123.667 87 -201 85c-85.333 -1.33301 -152.333 -30.5 -201 -87.5s-73 -124.167 -73 -201.5c0 -76.667 24.5 -143.167 73.5 -199.5s115.833 -84.5 200.5 -84.5c41.333 0 81.166 9 119.499 27s70.833 42.667 97.5 74l58 -48
c-33.333 -40 -74 -71.5 -122 -94.5s-99 -34.5 -153 -34.5c-74.667 0 -139.667 17.667 -195 53s-96.166 79.666 -122.499 132.999s-39.5 111.333 -39.5 174s13.167 121.167 39.5 175.5s67.333 99.5 123 135.5s120.5 54 194.5 54c100 0 184.667 -35.333 254 -106zM527 876.001
l-84 -115h-74l65 115h93z" />
    <glyph glyph-name="cacute" unicode="&#x107;" horiz-adv-x="526" 
d="M481 449l-42.999 -52.999c-36.667 34.667 -81.667 52 -135 52c-48 0.666992 -89.833 -17.333 -125.5 -54s-53.834 -84 -54.501 -142c0 -50.667 16 -95 48 -133s76.333 -57 133 -57c51.333 0 97.333 18.667 138 56l44 -53c-50 -48.667 -110.667 -73 -182 -73
c-81.333 0 -144.833 25.833 -190.5 77.5s-68.5 113.167 -68.5 184.5c0.666992 71.333 24 133.166 70 185.499s109 78.833 189 79.5c70.667 0 129.667 -23.333 177 -70zM410.001 702.001l-84 -115h-74l65 115h93z" />
    <glyph glyph-name="Ccircumflex" unicode="&#x108;" horiz-adv-x="729" 
d="M664 607l-53 -54.999c-56.667 58.667 -123.667 87 -201 85c-85.333 -1.33301 -152.333 -30.5 -201 -87.5s-73 -124.167 -73 -201.5c0 -76.667 24.5 -143.167 73.5 -199.5s115.833 -84.5 200.5 -84.5c41.333 0 81.166 9 119.499 27s70.833 42.667 97.5 74l58 -48
c-33.333 -40 -74 -71.5 -122 -94.5s-99 -34.5 -153 -34.5c-74.667 0 -139.667 17.667 -195 53s-96.166 79.666 -122.499 132.999s-39.5 111.333 -39.5 174s13.167 121.167 39.5 175.5s67.333 99.5 123 135.5s120.5 54 194.5 54c100 0 184.667 -35.333 254 -106zM266 756.001
l88 117h101l88 -117h-74l-64 81h-2l-63 -81h-74z" />
    <glyph glyph-name="ccircumflex" unicode="&#x109;" horiz-adv-x="525" 
d="M481 449l-42.999 -52.999c-36.667 34.667 -81.667 52 -135 52c-48 0.666992 -89.833 -17.333 -125.5 -54s-53.834 -84 -54.501 -142c0 -50.667 16 -95 48 -133s76.333 -57 133 -57c51.333 0 97.333 18.667 138 56l44 -53c-50 -48.667 -110.667 -73 -182 -73
c-81.333 0 -144.833 25.833 -190.5 77.5s-68.5 113.167 -68.5 184.5c0.666992 71.333 24 133.166 70 185.499s109 78.833 189 79.5c70.667 0 129.667 -23.333 177 -70zM162.001 579.001l88 117h101l88 -117h-74l-64 81h-2l-63 -81h-74z" />
    <glyph glyph-name="Cdotaccent" unicode="&#x10a;" horiz-adv-x="729" 
d="M361 784v88h87v-88h-87zM664 607l-53 -54.999c-56.667 58.667 -123.667 87 -201 85c-85.333 -1.33301 -152.333 -30.5 -201 -87.5s-73 -124.167 -73 -201.5c0 -76.667 24.5 -143.167 73.5 -199.5s115.833 -84.5 200.5 -84.5c41.333 0 81.166 9 119.499 27
s70.833 42.667 97.5 74l58 -48c-33.333 -40 -74 -71.5 -122 -94.5s-99 -34.5 -153 -34.5c-74.667 0 -139.667 17.667 -195 53s-96.166 79.666 -122.499 132.999s-39.5 111.333 -39.5 174s13.167 121.167 39.5 175.5s67.333 99.5 123 135.5s120.5 54 194.5 54
c100 0 184.667 -35.333 254 -106z" />
    <glyph glyph-name="cdotaccent" unicode="&#x10b;" horiz-adv-x="525" 
d="M254 608v85h87v-85h-87zM481 449l-42.999 -52.999c-36.667 34.667 -81.667 52 -135 52c-48 0.666992 -89.833 -17.333 -125.5 -54s-53.834 -84 -54.501 -142c0 -50.667 16 -95 48 -133s76.333 -57 133 -57c51.333 0 97.333 18.667 138 56l44 -53
c-50 -48.667 -110.667 -73 -182 -73c-81.333 0 -144.833 25.833 -190.5 77.5s-68.5 113.167 -68.5 184.5c0.666992 71.333 24 133.166 70 185.499s109 78.833 189 79.5c70.667 0 129.667 -23.333 177 -70z" />
    <glyph glyph-name="Ccaron" unicode="&#x10c;" horiz-adv-x="729" 
d="M664 607l-53 -54.999c-56.667 58.667 -123.667 87 -201 85c-85.333 -1.33301 -152.333 -30.5 -201 -87.5s-73 -124.167 -73 -201.5c0 -76.667 24.5 -143.167 73.5 -199.5s115.833 -84.5 200.5 -84.5c41.333 0 81.166 9 119.499 27s70.833 42.667 97.5 74l58 -48
c-33.333 -40 -74 -71.5 -122 -94.5s-99 -34.5 -153 -34.5c-74.667 0 -139.667 17.667 -195 53s-96.166 79.666 -122.499 132.999s-39.5 111.333 -39.5 174s13.167 121.167 39.5 175.5s67.333 99.5 123 135.5s120.5 54 194.5 54c100 0 184.667 -35.333 254 -106zM543 874.001
l-88 -120h-101l-88 120h74l64 -81h2l63 81h74z" />
    <glyph glyph-name="ccaron" unicode="&#x10d;" horiz-adv-x="525" 
d="M481 449l-42.999 -52.999c-36.667 34.667 -81.667 52 -135 52c-48 0.666992 -89.833 -17.333 -125.5 -54s-53.834 -84 -54.501 -142c0 -50.667 16 -95 48 -133s76.333 -57 133 -57c51.333 0 97.333 18.667 138 56l44 -53c-50 -48.667 -110.667 -73 -182 -73
c-81.333 0 -144.833 25.833 -190.5 77.5s-68.5 113.167 -68.5 184.5c0.666992 71.333 24 133.166 70 185.499s109 78.833 189 79.5c70.667 0 129.667 -23.333 177 -70zM435.001 698.001l-88 -120h-101l-88 120h74l64 -81h2l63 81h74z" />
    <glyph glyph-name="Dcaron" unicode="&#x10e;" horiz-adv-x="726" 
d="M317 705c108 0.666992 193.169 -33.1699 255.502 -101.503s94.166 -149.833 95.499 -244.5c1.33301 -45.333 -5.33398 -89.166 -20.001 -131.499s-36.167 -80.666 -64.5 -114.999s-65.5 -61.666 -111.5 -81.999s-97.333 -30.5 -154 -30.5h-217v705h216zM317.002 75.9961
c86.667 -1.33301 153.832 26.167 201.499 82.5s70.5 122.833 68.5 199.5c-1.33301 74 -25.666 137.667 -72.999 191s-112.333 80 -195 80h-136v-553h134zM474 871.996l-88 -120h-101l-88 120h74l64 -81h2l63 81h74z" />
    <glyph glyph-name="dcaron" unicode="&#x10f;" horiz-adv-x="611" 
d="M565 703l72.998 -0.00195312c14 -52.667 3.66699 -101 -31 -145h-49c10.667 30.667 16.834 54.834 18.501 72.501s-2.16602 41.834 -11.499 72.501zM308.998 512.998c42 0 78.668 -11.666 110.001 -34.999v222h76v-700h-56l-14 52c-15.333 -16.667 -32 -29.5 -50 -38.5
s-33.333 -14.333 -46 -16s-29.334 -2.83398 -50.001 -3.50098c-66 -1.33301 -120.5 23.5 -163.5 74.5s-64.5 111.833 -64.5 182.5c0 78.667 23 142 69 190s109 72 189 72zM285.999 60.999c51.333 -6.66699 95.999 15.3369 133.999 66.0039v283
c-30 17.333 -62.167 27.166 -96.5 29.499s-66.166 -2.33398 -95.499 -14.001s-53.833 -32.5 -73.5 -62.5s-29.5 -66.333 -29.5 -109c0 -54.667 14 -99.334 42 -134.001s67.667 -54.334 119 -59.001z" />
    <glyph glyph-name="Dcroat" unicode="&#x110;" horiz-adv-x="730" 
d="M46 311l0.00195312 75.9961h61v318h216c108 0.666992 193.167 -33.166 255.5 -101.499s94.166 -149.833 95.499 -244.5c1.33301 -45.333 -5.33398 -89.166 -20.001 -131.499s-36.167 -80.666 -64.5 -114.999s-65.5 -61.666 -111.5 -81.999s-97.333 -30.5 -154 -30.5h-217
v311h-61zM323.002 75.9961c86.667 -1.33301 153.832 26.167 201.499 82.5s70.5 122.833 68.5 199.5c-1.33301 74 -25.666 137.667 -72.999 191s-112.333 80 -195 80h-136v-242h132v-76h-132v-235h134z" />
    <glyph glyph-name="dcroat" unicode="&#x111;" horiz-adv-x="579" 
d="M304 584l0.000976562 53.001h113v63h76v-63h72v-53h-72v-584h-56l-14 52c-15.333 -16.667 -32 -29.5 -50 -38.5s-33.333 -14.333 -46 -16s-29.334 -2.83398 -50.001 -3.50098c-66 -1.33301 -120.5 23.5 -163.5 74.5s-64.5 111.833 -64.5 182.5c0 78.667 23 142 69 190
s109 72 189 72c42 0 78.667 -11.667 110 -35v106h-113zM284.001 61.001c51.333 -6.66699 95.999 15.3369 133.999 66.0039v283c-30 17.333 -62.167 27.166 -96.5 29.499s-66.166 -2.33398 -95.499 -14.001s-53.833 -32.5 -73.5 -62.5s-29.5 -66.333 -29.5 -109
c0 -54.667 14 -99.334 42 -134.001s67.667 -54.334 119 -59.001z" />
    <glyph glyph-name="Emacron" unicode="&#x112;" horiz-adv-x="530" 
d="M476 704v-77h-292v-237h288v-77h-288l-1 -234h293v-78h-375v703h375zM180 764v67h252v-67h-252z" />
    <glyph glyph-name="emacron" unicode="&#x113;" horiz-adv-x="600" 
d="M304 60c62.667 0 111.335 23.3301 146.002 69.9971l63 -38c-50 -67.333 -119.667 -101 -209 -101c-81.333 0 -144.833 26.333 -190.5 79s-68.167 114.334 -67.5 185.001c0 70.667 23 132.334 69 185.001s108.667 79.334 188 80.001
c80 0.666992 143.833 -28.333 191.5 -87s65.5 -128.667 53.5 -210h-426c3.33301 -45.333 21.166 -83.833 53.499 -115.5s75.166 -47.5 128.499 -47.5zM123.001 288.997h354c-4 46.667 -21.833 85.167 -53.5 115.5s-71.5 45.833 -119.5 46.5
c-52 -0.666992 -93.333 -16.5 -124 -47.5s-49.667 -69.167 -57 -114.5zM174.001 607.997v67h252v-67h-252z" />
    <glyph glyph-name="Ebreve" unicode="&#x114;" horiz-adv-x="530" 
d="M476 704v-77h-292v-237h288v-77h-288l-1 -234h293v-78h-375v703h375zM297 748c-36.667 0 -67.833 10.333 -93.5 31s-38.5 49.334 -38.5 86.001h64c0 -19.333 6.83301 -34 20.5 -44s29.5 -15 47.5 -15c16.667 0 31.667 4.83301 45 14.5s20 24.5 20 44.5h66
c0 -36.667 -12.833 -65.334 -38.5 -86.001s-56.5 -31 -92.5 -31z" />
    <glyph glyph-name="ebreve" unicode="&#x115;" horiz-adv-x="600" 
d="M304 60c62.667 0 111.335 23.3301 146.002 69.9971l63 -38c-50 -67.333 -119.667 -101 -209 -101c-81.333 0 -144.833 26.333 -190.5 79s-68.167 114.334 -67.5 185.001c0 70.667 23 132.334 69 185.001s108.667 79.334 188 80.001
c80 0.666992 143.833 -28.333 191.5 -87s65.5 -128.667 53.5 -210h-426c3.33301 -45.333 21.166 -83.833 53.499 -115.5s75.166 -47.5 128.499 -47.5zM123.001 288.997h354c-4 46.667 -21.833 85.167 -53.5 115.5s-71.5 45.833 -119.5 46.5
c-52 -0.666992 -93.333 -16.5 -124 -47.5s-49.667 -69.167 -57 -114.5zM302.001 577.997c-36.667 0 -67.833 10.333 -93.5 31s-38.5 49.334 -38.5 86.001h64c0 -19.333 6.83301 -34 20.5 -44s29.5 -15 47.5 -15c16.667 0 31.667 4.83301 45 14.5s20 24.5 20 44.5h66
c0 -36.667 -12.833 -65.334 -38.5 -86.001s-56.5 -31 -92.5 -31z" />
    <glyph glyph-name="Edotaccent" unicode="&#x116;" horiz-adv-x="530" 
d="M253 771v88h87v-88h-87zM476 704v-77h-292v-237h288v-77h-288l-1 -234h293v-78h-375v703h375z" />
    <glyph glyph-name="edotaccent" unicode="&#x117;" horiz-adv-x="600" 
d="M258 602v81h87v-81h-87zM304 60c62.667 0 111.335 23.3301 146.002 69.9971l63 -38c-50 -67.333 -119.667 -101 -209 -101c-81.333 0 -144.833 26.333 -190.5 79s-68.167 114.334 -67.5 185.001c0 70.667 23 132.334 69 185.001s108.667 79.334 188 80.001
c80 0.666992 143.833 -28.333 191.5 -87s65.5 -128.667 53.5 -210h-426c3.33301 -45.333 21.166 -83.833 53.499 -115.5s75.166 -47.5 128.499 -47.5zM123.001 288.997h354c-4 46.667 -21.833 85.167 -53.5 115.5s-71.5 45.833 -119.5 46.5
c-52 -0.666992 -93.333 -16.5 -124 -47.5s-49.667 -69.167 -57 -114.5z" />
    <glyph glyph-name="Eogonek" unicode="&#x118;" horiz-adv-x="530" 
d="M476 704v-77h-292v-237h288v-77h-288l-1 -234h293v-78h-2c-46 -30.667 -69 -59.667 -69 -87c0 -11.333 5.83301 -21 17.5 -29s23.5 -13.333 35.5 -16l17 -4l-24 -44c-0.666992 0.666992 -4.33398 0.5 -11.001 -0.5s-15.667 -0.166992 -27 2.5s-22.5 6.16699 -33.5 10.5
s-21.167 11.833 -30.5 22.5s-15 23.667 -17 39c-5.33301 36.667 15.334 72 62.001 106h-293v703h375z" />
    <glyph glyph-name="eogonek" unicode="&#x119;" horiz-adv-x="600" 
d="M305 -76c-4 24 5 46.998 27 68.998c-12 -1.33301 -21.333 -2 -28 -2c-81.333 0 -144.833 26.333 -190.5 79s-68.167 114.334 -67.5 185.001c0 70.667 23 132.334 69 185.001s108.667 79.334 188 80.001c80 0.666992 143.833 -28.333 191.5 -87s65.5 -128.667 53.5 -210
h-426c3.33301 -45.333 21.166 -83.833 53.499 -115.5s75.166 -47.5 128.499 -47.5c62.667 0 111.334 23.333 146.001 70l63 -38c-19.333 -25.333 -42 -46.333 -68 -63c-44 -34.667 -66 -63.334 -66 -86.001c0 -11.333 5.83301 -21 17.5 -29s23.5 -13.333 35.5 -16l17 -4
l-24 -44h-11.5c-5 0 -13.833 1.16699 -26.5 3.5s-24.167 5.66602 -34.5 9.99902s-20.166 11.833 -29.499 22.5s-15.333 23.334 -18 38.001zM123 288.998h354c-4 46.667 -21.833 85.167 -53.5 115.5s-71.5 45.833 -119.5 46.5c-52 -0.666992 -93.333 -16.5 -124 -47.5
s-49.667 -69.167 -57 -114.5z" />
    <glyph glyph-name="Ecaron" unicode="&#x11a;" horiz-adv-x="530" 
d="M476 704v-77h-292v-237h288v-77h-288l-1 -234h293v-78h-375v703h375zM442 874l-88 -120h-101l-88 120h74l64 -81h2l63 81h74z" />
    <glyph glyph-name="ecaron" unicode="&#x11b;" horiz-adv-x="600" 
d="M304 60c62.667 0 111.335 23.3301 146.002 69.9971l63 -38c-50 -67.333 -119.667 -101 -209 -101c-81.333 0 -144.833 26.333 -190.5 79s-68.167 114.334 -67.5 185.001c0 70.667 23 132.334 69 185.001s108.667 79.334 188 80.001
c80 0.666992 143.833 -28.333 191.5 -87s65.5 -128.667 53.5 -210h-426c3.33301 -45.333 21.166 -83.833 53.499 -115.5s75.166 -47.5 128.499 -47.5zM123.001 288.997h354c-4 46.667 -21.833 85.167 -53.5 115.5s-71.5 45.833 -119.5 46.5
c-52 -0.666992 -93.333 -16.5 -124 -47.5s-49.667 -69.167 -57 -114.5zM433.001 697.997l-88 -120h-101l-88 120h74l64 -81h2l63 81h74z" />
    <glyph glyph-name="Gcircumflex" unicode="&#x11c;" horiz-adv-x="822" 
d="M411 713c54 0 104.835 -11.3359 152.502 -34.0029s88.167 -53.667 121.5 -93l-58 -49c-26 31.333 -58.333 55.833 -97 73.5s-78.334 26.5 -119.001 26.5c-84 0 -150.833 -29 -200.5 -87s-74.5 -125 -74.5 -201s24.833 -142.667 74.5 -200s116.5 -86 200.5 -86
c63.333 0 121.5 20.333 174.5 61s82.5 92.334 88.5 155.001h-313v76h404c0 -103.333 -32.833 -190.5 -98.5 -261.5s-150.834 -106.5 -255.501 -106.5c-74.667 0 -139.667 17.833 -195 53.5s-96 80.334 -122 134.001s-39.333 111.834 -40 174.501
c0 62 13.167 120.167 39.5 174.5s67.333 99.5 123 135.5s120.5 54 194.5 54zM266.002 755.997l88 117h101l88 -117h-74l-64 81h-2l-63 -81h-74z" />
    <glyph glyph-name="gcircumflex" unicode="&#x11d;" horiz-adv-x="576" 
d="M152 584l88 117h101l88 -117h-74l-64 81h-2l-63 -81h-74zM309 512c48 0 84.666 -15.335 109.999 -46.002l14 41h62v-502c0 -48 -11 -88.833 -33 -122.5s-50 -57 -84 -70s-70.333 -19.333 -109 -19s-76.5 8.83301 -113.5 25.5s-67.5 39.334 -91.5 68.001l43 50
c20.667 -24 48.5 -42.667 83.5 -56s69.5 -19.666 103.5 -18.999s63.5 13.167 88.5 37.5s37.5 59.5 37.5 105.5v39c-21.333 -21.333 -42.666 -35 -63.999 -41s-47 -9.33301 -77 -10c-66 -1.33301 -120.5 23.5 -163.5 74.5s-64.5 111.833 -64.5 182.5c0 78.667 23 142 69 190
s109 72 189 72zM285.999 59.998c51.333 -6.66699 96 15.334 134 66.001v269c-32.667 29.333 -70.667 44 -114 44c-50 0.666992 -92.667 -15.166 -128 -47.499s-53 -78.5 -53 -138.5c0 -54.667 14 -99.334 42 -134.001s67.667 -54.334 119 -59.001z" />
    <glyph glyph-name="Gbreve" unicode="&#x11e;" horiz-adv-x="822" 
d="M411 713c54 0 104.835 -11.3359 152.502 -34.0029s88.167 -53.667 121.5 -93l-58 -49c-26 31.333 -58.333 55.833 -97 73.5s-78.334 26.5 -119.001 26.5c-84 0 -150.833 -29 -200.5 -87s-74.5 -125 -74.5 -201s24.833 -142.667 74.5 -200s116.5 -86 200.5 -86
c63.333 0 121.5 20.333 174.5 61s82.5 92.334 88.5 155.001h-313v76h404c0 -103.333 -32.833 -190.5 -98.5 -261.5s-150.834 -106.5 -255.501 -106.5c-74.667 0 -139.667 17.833 -195 53.5s-96 80.334 -122 134.001s-39.333 111.834 -40 174.501
c0 62 13.167 120.167 39.5 174.5s67.333 99.5 123 135.5s120.5 54 194.5 54zM407.002 749.997c-36.667 0 -67.833 10.333 -93.5 31s-38.5 49.334 -38.5 86.001h64c0 -19.333 6.83301 -34 20.5 -44s29.5 -15 47.5 -15c16.667 0 31.667 4.83301 45 14.5s20 24.5 20 44.5h66
c0 -36.667 -12.833 -65.334 -38.5 -86.001s-56.5 -31 -92.5 -31z" />
    <glyph glyph-name="gbreve" unicode="&#x11f;" horiz-adv-x="577" 
d="M299 580c-36.667 0 -67.5 9.83301 -92.5 29.5s-37.5 47.834 -37.5 84.501h62c0 -19.333 7 -34.333 21 -45s29.667 -16 47 -16c16.667 0 31.667 5.16699 45 15.5s20 25.5 20 45.5h63c0 -36.667 -12.333 -64.834 -37 -84.501s-55 -29.5 -91 -29.5zM310 512
c48 0 84.668 -15.335 110.001 -46.002l14 41h62v-502c0 -48 -11 -88.833 -33 -122.5s-50 -57 -84 -70s-70.333 -19.333 -109 -19s-76.5 8.83301 -113.5 25.5s-67.5 39.334 -91.5 68.001l43 50c20.667 -24 48.5 -42.667 83.5 -56s69.5 -19.666 103.5 -18.999
s63.5 13.167 88.5 37.5s37.5 59.5 37.5 105.5v39c-20.667 -21.333 -41.834 -35 -63.501 -41s-47.5 -9.33301 -77.5 -10c-66 -1.33301 -120.5 23.5 -163.5 74.5s-64.5 111.833 -64.5 182.5c0 78.667 23 142 69 190s109 72 189 72zM287.001 59.998
c51.333 -6.66699 96 15.334 134 66.001v269c-32.667 29.333 -70.667 44 -114 44c-50 0.666992 -92.667 -15.166 -128 -47.499s-53 -78.5 -53 -138.5c0 -54.667 14 -99.334 42 -134.001s67.667 -54.334 119 -59.001z" />
    <glyph glyph-name="Gdotaccent" unicode="&#x120;" horiz-adv-x="822" 
d="M360 784v90h87v-90h-87zM411 713c54 0 104.835 -11.3359 152.502 -34.0029s88.167 -53.667 121.5 -93l-58 -49c-26 31.333 -58.333 55.833 -97 73.5s-78.334 26.5 -119.001 26.5c-84 0 -150.833 -29 -200.5 -87s-74.5 -125 -74.5 -201s24.833 -142.667 74.5 -200
s116.5 -86 200.5 -86c63.333 0 121.5 20.333 174.5 61s82.5 92.334 88.5 155.001h-313v76h404c0 -103.333 -32.833 -190.5 -98.5 -261.5s-150.834 -106.5 -255.501 -106.5c-74.667 0 -139.667 17.833 -195 53.5s-96 80.334 -122 134.001s-39.333 111.834 -40 174.501
c0 62 13.167 120.167 39.5 174.5s67.333 99.5 123 135.5s120.5 54 194.5 54z" />
    <glyph glyph-name="gdotaccent" unicode="&#x121;" horiz-adv-x="577" 
d="M259 608v89h87v-89h-87zM309 512c48 0 84.666 -15.335 109.999 -46.002l14 41h62v-502c0 -48 -11 -88.833 -33 -122.5s-50 -57 -84 -70s-70.333 -19.333 -109 -19s-76.5 8.83301 -113.5 25.5s-67.5 39.334 -91.5 68.001l43 50c20.667 -24 48.5 -42.667 83.5 -56
s69.5 -19.666 103.5 -18.999s63.5 13.167 88.5 37.5s37.5 59.5 37.5 105.5v39c-21.333 -21.333 -42.666 -35 -63.999 -41s-47 -9.33301 -77 -10c-66 -1.33301 -120.5 23.5 -163.5 74.5s-64.5 111.833 -64.5 182.5c0 78.667 23 142 69 190s109 72 189 72zM285.999 59.998
c51.333 -6.66699 96 15.334 134 66.001v269c-32.667 29.333 -70.667 44 -114 44c-50 0.666992 -92.667 -15.166 -128 -47.499s-53 -78.5 -53 -138.5c0 -54.667 14 -99.334 42 -134.001s67.667 -54.334 119 -59.001z" />
    <glyph glyph-name="Gcommaaccent" unicode="&#x122;" horiz-adv-x="822" 
d="M357 -59l84.998 -0.00195312c17.333 -57.333 9 -106 -25 -146l-67 1c10.667 30.667 16.834 54.834 18.501 72.501s-2.16602 41.834 -11.499 72.501zM410.998 712.998c54 0 104.835 -11.3359 152.502 -34.0029s88.167 -53.667 121.5 -93l-58 -49
c-26 31.333 -58.333 55.833 -97 73.5s-78.334 26.5 -119.001 26.5c-84 0 -150.833 -29 -200.5 -87s-74.5 -125 -74.5 -201s24.833 -142.667 74.5 -200s116.5 -86 200.5 -86c63.333 0 121.5 20.333 174.5 61s82.5 92.334 88.5 155.001h-313v76h404
c0 -103.333 -32.833 -190.5 -98.5 -261.5s-150.834 -106.5 -255.501 -106.5c-74.667 0 -139.667 17.833 -195 53.5s-96 80.334 -122 134.001s-39.333 111.834 -40 174.501c0 62 13.167 120.167 39.5 174.5s67.333 99.5 123 135.5s120.5 54 194.5 54z" />
    <glyph glyph-name="gcommaaccent" unicode="&#x123;" horiz-adv-x="577" 
d="M348 565l-84 -0.000976562c-6.66699 28 -8.5 51.833 -5.5 71.5s10.833 42.834 23.5 69.501h69c-18.667 -52.667 -19.667 -99.667 -3 -141zM310 511.999c48 0 84.668 -15.335 110.001 -46.002l14 41h62v-502c0 -48 -11 -88.833 -33 -122.5s-50 -57 -84 -70
s-70.333 -19.333 -109 -19s-76.5 8.83301 -113.5 25.5s-67.5 39.334 -91.5 68.001l43 50c20.667 -24 48.5 -42.667 83.5 -56s69.5 -19.666 103.5 -18.999s63.5 13.167 88.5 37.5s37.5 59.5 37.5 105.5v39c-20.667 -21.333 -41.834 -35 -63.501 -41s-47.5 -9.33301 -77.5 -10
c-66 -1.33301 -120.5 23.5 -163.5 74.5s-64.5 111.833 -64.5 182.5c0 78.667 23 142 69 190s109 72 189 72zM287.001 59.9971c51.333 -6.66699 96 15.334 134 66.001v269c-32.667 29.333 -70.667 44 -114 44c-50 0.666992 -92.667 -15.166 -128 -47.499
s-53 -78.5 -53 -138.5c0 -54.667 14 -99.334 42 -134.001s67.667 -54.334 119 -59.001z" />
    <glyph glyph-name="Hcircumflex" unicode="&#x124;" horiz-adv-x="688" 
d="M505 0v312h-321v-312h-83v703h83v-317h321v317h83v-703h-83zM205 756l88 117h101l88 -117h-74l-64 81h-2l-63 -81h-74z" />
    <glyph glyph-name="hcircumflex" unicode="&#x125;" horiz-adv-x="607" 
d="M-16 752l88 117h101l88 -117h-74l-64 81h-2l-63 -81h-74zM81 701h78v-229c33.333 28 77 42.333 131 43c71.333 -1.33301 129.5 -22.333 174.5 -63s67.5 -96.667 67.5 -168v-284h-78v284c-0.666992 47.333 -16 85 -46 113s-68.333 43.667 -115 47
c-51.333 2.66699 -96.333 -10 -135 -38v-406h-77v701z" />
    <glyph glyph-name="Hbar" unicode="&#x126;" horiz-adv-x="688" 
d="M42 518v64h59v121h83v-121h321v121h83v-121h61v-64h-61v-518h-83v312h-321v-312h-83v518h-59zM184 386h321v132h-321v-132z" />
    <glyph glyph-name="hbar" unicode="&#x127;" horiz-adv-x="597" 
d="M11 576v55h70v70h78v-70h124v-55h-124v-104c33.333 28 77 42.333 131 43c71.333 -1.33301 129.5 -22.333 174.5 -63s67.5 -96.667 67.5 -168v-284h-78v284c-0.666992 47.333 -16 85 -46 113s-68.333 43.667 -115 47c-51.333 2.66699 -96.333 -10 -135 -38v-406h-77v576
h-70z" />
    <glyph glyph-name="Itilde" unicode="&#x128;" horiz-adv-x="283" 
d="M101 0v703h82v-703h-82zM253 851l42 -31.002c-14.667 -32 -37 -52.167 -67 -60.5s-59.333 -2.83301 -88 16.5c-38.667 24 -71.334 16.333 -98.001 -23l-44 29c18.667 34.667 43.334 55.834 74.001 63.501s62 0.833984 94 -20.499c33.333 -22.667 62.333 -14 87 26z" />
    <glyph glyph-name="itilde" unicode="&#x129;" horiz-adv-x="240" 
d="M160 0h-79v511h79v-511zM228 692l42 -31.002c-14.667 -32 -37 -52.167 -67 -60.5s-59.333 -2.83301 -88 16.5c-38.667 24 -71.334 16.333 -98.001 -23l-44 29c18.667 34.667 43.334 55.834 74.001 63.501s62 0.833984 94 -20.499c33.333 -22.667 62.333 -14 87 26z" />
    <glyph glyph-name="Imacron" unicode="&#x12a;" horiz-adv-x="283" 
d="M21 784v64h255v-64h-255zM101 0v703h82v-703h-82z" />
    <glyph glyph-name="imacron" unicode="&#x12b;" horiz-adv-x="240" 
d="M3 614v64h255v-64h-255zM160 0h-79v512h79v-512z" />
    <glyph glyph-name="Ibreve" unicode="&#x12c;" horiz-adv-x="283" 
d="M101 0v703h82v-703h-82zM143 752c-36.667 0 -67.833 10.333 -93.5 31s-38.5 49.334 -38.5 86.001h64c0 -19.333 6.83301 -34 20.5 -44s29.5 -15 47.5 -15c16.667 0 31.667 4.83301 45 14.5s20 24.5 20 44.5h66c0 -36.667 -12.833 -65.334 -38.5 -86.001
s-56.5 -31 -92.5 -31z" />
    <glyph glyph-name="ibreve" unicode="&#x12d;" horiz-adv-x="240" 
d="M160 0h-79v512h79v-512zM123 575c-36.667 0 -67.833 10.333 -93.5 31s-38.5 49.334 -38.5 86.001h64c0 -19.333 6.83301 -34 20.5 -44s29.5 -15 47.5 -15c16.667 0 31.667 4.83301 45 14.5s20 24.5 20 44.5h66c0 -36.667 -12.833 -65.334 -38.5 -86.001
s-56.5 -31 -92.5 -31z" />
    <glyph glyph-name="Iogonek" unicode="&#x12e;" horiz-adv-x="285" 
d="M101 0l0.000976562 703h82v-703c-44.667 -36 -67 -65 -67 -87c0 -11.333 5.83301 -21 17.5 -29s23.167 -13.333 34.5 -16l18 -4l-24 -44c-0.666992 0.666992 -4.33398 0.5 -11.001 -0.5s-15.667 -0.166992 -27 2.5s-22.5 6.16699 -33.5 10.5s-21 11.833 -30 22.5
s-14.5 23.667 -16.5 39c-6 38 14 73.333 60 106h-3z" />
    <glyph glyph-name="iogonek" unicode="&#x12f;" horiz-adv-x="240" 
d="M37 -106c-5.33301 38 11.3359 73.334 50.0029 106.001h-6v512h79l-1 -513c-13.333 -10.667 -25.333 -24.334 -36 -41.001s-16 -31.667 -16 -45c0 -11.333 4.66699 -21 14 -29s18.666 -13.333 27.999 -16l14 -4l-24 -44c-0.666992 0.666992 -3.83398 0.5 -9.50098 -0.5
s-13.334 -0.166992 -23.001 2.5s-19.167 6.16699 -28.5 10.5s-18 11.833 -26 22.5s-13 23.667 -15 39zM80.002 607.001v99h86v-99h-86z" />
    <glyph glyph-name="Idotaccent" unicode="&#x130;" horiz-adv-x="283" 
d="M98 774v98h87v-98h-87zM101 0v703h82v-703h-82z" />
    <glyph glyph-name="dotlessi" unicode="&#x131;" horiz-adv-x="240" 
d="M160 0h-79v512h79v-512z" />
    <glyph glyph-name="IJ" unicode="&#x132;" horiz-adv-x="603" 
d="M100 0v703h82v-703h-82zM267 -14v78.999c106.667 -4 160 39.667 160 131v426h-132v78h215v-504c0 -69.333 -22 -121.666 -66 -156.999s-103 -53 -177 -53z" />
    <glyph glyph-name="ij" unicode="&#x133;" horiz-adv-x="509" 
d="M84 607v99h84v-99h-84zM164 0h-79v512h79v-512zM230 -198v69c32.667 -2 58 4 76 18s27 35.333 27 64v559h79v-559c0 -54 -16.833 -94 -50.5 -120s-77.5 -36.333 -131.5 -31zM416 607v98h-86v-98h86z" />
    <glyph glyph-name="Jcircumflex" unicode="&#x134;" horiz-adv-x="545" 
d="M34 166l76 15.998c6 -30.667 19.167 -56.167 39.5 -76.5s43 -32.666 68 -36.999s49.5 -3.66602 73.5 2.00098s44.167 19.834 60.5 42.501s24.5 50.334 24.5 83.001v426h-132v78h215v-504c0 -42.667 -9.33301 -79.834 -28 -111.501s-42.167 -55.334 -70.5 -71.001
s-59.833 -24.5 -94.5 -26.5s-67.667 3 -99 15s-59.333 32.167 -84 60.5s-41 62.833 -49 103.5zM179 751.998l88 117h101l88 -117h-74l-64 81h-2l-63 -81h-74z" />
    <glyph glyph-name="jcircumflex" unicode="&#x135;" horiz-adv-x="240" 
d="M-22 -198v69c32.667 -2 58 4 76 18s27 35.333 27 64v559h79v-559c0 -54 -16.833 -94 -50.5 -120s-77.5 -36.333 -131.5 -31zM-12 584l88 117h101l88 -117h-74l-64 81h-2l-63 -81h-74z" />
    <glyph glyph-name="Kcommaaccent" unicode="&#x136;" horiz-adv-x="634" 
d="M296 -49l78 -0.000976562c14.667 -54.667 5.33398 -103 -27.999 -145h-63c8.66699 24.667 14.5 42 17.5 52s4.66699 23.833 5 41.5s-2.83398 34.834 -9.50098 51.501zM101 704.999h83v-348l321 348h91l-281 -316l292 -389h-97l-250 335l-76 -76v-259h-83v705z" />
    <glyph glyph-name="kcommaaccent" unicode="&#x137;" horiz-adv-x="517" 
d="M238 -40l79 -0.000976562c16 -53.333 8.33301 -101.666 -23 -144.999h-63c12.667 36 19 64 19 84s-4 40.333 -12 61zM81 699.999h76v-431l238 239h95l-223 -222l231 -286h-91l-190 236l-60 -56v-180h-76v700z" />
    <glyph glyph-name="kgreenlandic" unicode="&#x138;" horiz-adv-x="517" 
d="M81 507h76v-238l238 239h95l-223 -222l231 -286h-91l-190 236l-60 -56v-180h-76v507z" />
    <glyph glyph-name="Lacute" unicode="&#x139;" horiz-adv-x="479" 
d="M454 77v-77h-353v700h83v-623h270zM265 870l-84 -115h-74l65 115h93z" />
    <glyph glyph-name="lacute" unicode="&#x13a;" horiz-adv-x="267" 
d="M235 67l0.000976562 -69c-52 -5.33301 -91.667 4.66699 -119 30s-41 65.666 -41 120.999v556h79v-556c0 -30.667 5.66699 -52.667 17 -66s32.666 -18.666 63.999 -15.999zM236.001 869l-84 -115h-74l65 115h93z" />
    <glyph glyph-name="Lcommaaccent" unicode="&#x13b;" horiz-adv-x="479" 
d="M270 -59l85 -0.000976562c4.66699 -18 7 -35 7 -51c0 -27.333 -8.33301 -58.666 -25 -93.999h-74c12.667 36 19 64 19 84s-4 40.333 -12 61zM454 76.999v-77h-353v700h83v-623h270z" />
    <glyph glyph-name="lcommaaccent" unicode="&#x13c;" horiz-adv-x="267" 
d="M115 -59h80.998c13.333 -51.333 7.33301 -98 -18 -140h-70c10.667 28 16.834 51.167 18.501 69.5s-2.16602 41.833 -11.499 70.5zM234.998 67l0.000976562 -69c-52 -5.33301 -91.667 4.66699 -119 30s-41 65.666 -41 120.999v556h79v-556
c0 -30.667 5.66699 -52.667 17 -66s32.666 -18.666 63.999 -15.999z" />
    <glyph glyph-name="Lcaron" unicode="&#x13d;" horiz-adv-x="479" 
d="M285 706h77c14 -50 7.33301 -98.333 -20 -145h-64c12.667 36 19 64 19 84s-4 40.333 -12 61zM454 77v-77h-353v700h83v-623h270z" />
    <glyph glyph-name="lcaron" unicode="&#x13e;" horiz-adv-x="298" 
d="M233 706l73.999 -0.000976562c6.66699 -28 8.33398 -51.667 5.00098 -71s-12 -42.666 -26 -69.999h-60c20 55.333 22.333 102.333 7 141zM234.999 -2.00098l-0.000976562 69c-31.333 -2.66699 -52.666 2.66602 -63.999 15.999s-17 35.333 -17 66v556h-79v-556
c0 -55.333 13.667 -95.666 41 -120.999s67 -35.333 119 -30z" />
    <glyph glyph-name="Ldot" unicode="&#x13f;" horiz-adv-x="479" 
d="M278 330v101h93v-101h-93zM454 77v-77h-353v700h83v-623h270z" />
    <glyph glyph-name="ldot" unicode="&#x140;" horiz-adv-x="304" 
d="M210 332v99h87v-99h-87zM235 67l0.000976562 -69c-52 -5.33301 -91.667 4.66699 -119 30s-41 65.666 -41 120.999v556h79v-556c0 -30.667 5.66699 -52.667 17 -66s32.666 -18.666 63.999 -15.999z" />
    <glyph glyph-name="Lslash" unicode="&#x141;" horiz-adv-x="479" 
d="M42 268v75l59 34v323h83v-275l118 68v-77l-118 -67v-272h270v-77h-353v301z" />
    <glyph glyph-name="lslash" unicode="&#x142;" horiz-adv-x="267" 
d="M75 290l-41.999 -24v71l42 24v344h79v-298l83 49v-73l-83 -48v-186c0 -30.667 5.66699 -52.667 17 -66s32.666 -18.666 63.999 -15.999v-69c-52 -5.33301 -91.667 4.66699 -119 30s-41 65.666 -41 120.999v141z" />
    <glyph glyph-name="Nacute" unicode="&#x143;" horiz-adv-x="759" 
d="M496 865l-84 -115h-74l65 115h93zM658 700v-700h-116l-359 586v-586h-82v700h99l376 -610v610h82z" />
    <glyph glyph-name="nacute" unicode="&#x144;" horiz-adv-x="616" 
d="M414 691l-84 -115h-65l59 115h90zM81 507l66.001 -0.00195312l10 -47c32 35.333 77 53.333 135 54c72 -1.33301 131.5 -22.166 178.5 -62.499s70.5 -96.166 70.5 -167.499v-284h-78v284c-0.666992 46.667 -17.334 84 -50.001 112s-72.667 43.667 -120 47
c-53.333 2.66699 -98.333 -14 -135 -50v-393h-77v507z" />
    <glyph glyph-name="Ncommaaccent" unicode="&#x145;" horiz-adv-x="759" 
d="M331 -35l83.998 -0.00195312c12.667 -46.667 6.66699 -95 -18 -145h-73c10.667 30.667 16.834 54.834 18.501 72.501s-2.16602 41.834 -11.499 72.501zM657.998 699.998v-700h-116l-359 586v-586h-82v700h99l376 -610v610h82z" />
    <glyph glyph-name="ncommaaccent" unicode="&#x146;" horiz-adv-x="616" 
d="M272 -26l74.998 -0.00195312c12.667 -46.667 6.66699 -95 -18 -145h-64c10.667 30.667 16.834 54.834 18.501 72.501s-2.16602 41.834 -11.499 72.501zM80.998 506.998l66.001 -0.00195312l10 -47c32 35.333 76.333 53.333 133 54
c72 -1.33301 131.833 -22.166 179.5 -62.499s71.5 -96.166 71.5 -167.499v-284h-78v284c-0.666992 46.667 -17.334 84 -50.001 112s-72.667 43.667 -120 47c-53.333 2.66699 -98.333 -14 -135 -50v-393h-77v507z" />
    <glyph glyph-name="Ncaron" unicode="&#x147;" horiz-adv-x="759" 
d="M534 868l-88 -120h-101l-88 120h74l64 -81h2l63 81h74zM658 0v700h-82v-610l-376 610h-99v-700h82v586l359 -586h116z" />
    <glyph glyph-name="ncaron" unicode="&#x148;" horiz-adv-x="616" 
d="M443 696l-88 -120h-101l-88 120h74l64 -81h2l63 81h74zM81 507l66.001 -0.00195312l10 -47c32 35.333 76.333 53.333 133 54c72 -1.33301 131.833 -22.166 179.5 -62.499s71.5 -96.166 71.5 -167.499v-284h-78v284c-0.666992 46.667 -17.334 84 -50.001 112
s-72.667 43.667 -120 47c-53.333 2.66699 -98.333 -14 -135 -50v-393h-77v507z" />
    <glyph glyph-name="napostrophe" unicode="&#x149;" horiz-adv-x="609" 
d="M0 706l76.998 -0.00195312c12.667 -46.667 6.66699 -95 -18 -145h-66c10.667 30.667 16.834 54.834 18.501 72.501s-2.16602 41.834 -11.499 72.501zM75.998 506.998l66.001 -0.00195312l10 -47c32 35.333 76.333 53.333 133 54
c72 -1.33301 131.833 -22.166 179.5 -62.499s71.5 -96.166 71.5 -167.499v-284h-78v284c-0.666992 46.667 -17.334 84 -50.001 112s-72.667 43.667 -120 47c-53.333 2.66699 -98.333 -14 -135 -50v-393h-77v507z" />
    <glyph glyph-name="Eng" unicode="&#x14a;" horiz-adv-x="759" 
d="M576 700h82v-733c0 -56 -18 -98 -54 -126s-87.333 -39.667 -154 -35v74c76.667 -6.66699 115 22.333 115 87v33h-20l-362 586v-586h-82v700h99l376 -610v610z" />
    <glyph glyph-name="eng" unicode="&#x14b;" horiz-adv-x="613" 
d="M81 507l66 -0.00195312l10 -47c32 35.333 76.333 53.333 133 54c72 -1.33301 131.833 -22.166 179.5 -62.499s71.5 -96.166 71.5 -167.499v-330c0 -54 -15.833 -93.667 -47.5 -119s-74.167 -35.333 -127.5 -30v61c65.333 -4 98 25.333 98 88v330
c-0.666992 46.667 -17.5 84 -50.5 112s-73.167 43.667 -120.5 47c-53.333 2.66699 -98.333 -14 -135 -50v-393h-77v507z" />
    <glyph glyph-name="Omacron" unicode="&#x14c;" 
d="M281 784v63h255v-63h-255zM410 714c98 0 182 -36 252 -108s105 -157.667 105 -257s-35 -184.666 -105 -255.999s-154 -107 -252 -107s-182 35.667 -252 107s-105 156.666 -105 255.999s35 185 105 257s154 108 252 108zM136 349c0 -89.333 27.166 -159.5 81.499 -210.5
s118.5 -76.5 192.5 -76.5s138.167 25.5 192.5 76.5s81.5 121.167 81.5 210.5s-27.5 160 -82.5 212s-119.167 77.667 -192.5 77s-137.166 -27 -191.499 -79s-81.5 -122 -81.5 -210z" />
    <glyph glyph-name="omacron" unicode="&#x14d;" horiz-adv-x="605" 
d="M172 605v62h255v-62h-255zM123 253c0 -62.667 17.5 -111 52.5 -145s77.167 -51 126.5 -51c50 0 92.5 17 127.5 51s52.5 82.333 52.5 145c0 62 -17.5 109.833 -52.5 143.5s-77.5 50.5 -127.5 50.5c-49.333 0 -91.5 -16.833 -126.5 -50.5s-52.5 -81.5 -52.5 -143.5z
M560 253c0 -75.333 -24.167 -138.335 -72.5 -189.002s-110.166 -76 -185.499 -76s-137 25.333 -185 76s-72 113.667 -72 189c0 74.667 24 137.334 72 188.001s109.667 76 185 76s137.166 -25.167 185.499 -75.5s72.5 -113.166 72.5 -188.499z" />
    <glyph glyph-name="Obreve" unicode="&#x14e;" 
d="M410 714c98 0 182 -36 252 -108s105 -157.667 105 -257s-35 -184.666 -105 -255.999s-154 -107 -252 -107s-182 35.667 -252 107s-105 156.666 -105 255.999s35 185 105 257s154 108 252 108zM136 349c0 -89.333 27.166 -159.5 81.499 -210.5s118.5 -76.5 192.5 -76.5
s138.167 25.5 192.5 76.5s81.5 121.167 81.5 210.5s-27.5 160 -82.5 212s-119.167 77.667 -192.5 77s-137.166 -27 -191.499 -79s-81.5 -122 -81.5 -210zM410.999 754c-36.667 0 -67.833 10.333 -93.5 31s-38.5 49.334 -38.5 86.001h64c0 -19.333 6.83301 -34 20.5 -44
s29.5 -15 47.5 -15c16.667 0 31.667 4.83301 45 14.5s20 24.5 20 44.5h66c0 -36.667 -12.833 -65.334 -38.5 -86.001s-56.5 -31 -92.5 -31z" />
    <glyph glyph-name="obreve" unicode="&#x14f;" horiz-adv-x="605" 
d="M123 253c0 -62.667 17.5 -111 52.5 -145s77.167 -51 126.5 -51c50 0 92.5 17 127.5 51s52.5 82.333 52.5 145c0 62 -17.5 109.833 -52.5 143.5s-77.5 50.5 -127.5 50.5c-49.333 0 -91.5 -16.833 -126.5 -50.5s-52.5 -81.5 -52.5 -143.5zM560 253
c0 -75.333 -24.167 -138.335 -72.5 -189.002s-110.166 -76 -185.499 -76s-137 25.333 -185 76s-72 113.667 -72 189c0 74.667 24 137.334 72 188.001s109.667 76 185 76s137.166 -25.167 185.499 -75.5s72.5 -113.166 72.5 -188.499zM301 573.998
c-36.667 0 -67.833 10.333 -93.5 31s-38.5 49.334 -38.5 86.001h64c0 -19.333 6.83301 -34 20.5 -44s29.5 -15 47.5 -15c16.667 0 31.667 4.83301 45 14.5s20 24.5 20 44.5h66c0 -36.667 -12.833 -65.334 -38.5 -86.001s-56.5 -31 -92.5 -31z" />
    <glyph glyph-name="Ohungarumlaut" unicode="&#x150;" 
d="M410 714c98 0 182 -36 252 -108s105 -157.667 105 -257s-35 -184.666 -105 -255.999s-154 -107 -252 -107s-182 35.667 -252 107s-105 156.666 -105 255.999s35 185 105 257s154 108 252 108zM136 349c0 -89.333 27.166 -159.5 81.499 -210.5s118.5 -76.5 192.5 -76.5
s138.167 25.5 192.5 76.5s81.5 121.167 81.5 210.5s-27.5 160 -82.5 212s-119.167 77.667 -192.5 77s-137.166 -27 -191.499 -79s-81.5 -122 -81.5 -210zM446.999 755l68 113h89l-87 -113h-70zM292.999 755l63 113h82l-76 -113h-69z" />
    <glyph glyph-name="ohungarumlaut" unicode="&#x151;" horiz-adv-x="605" 
d="M123 253c0 -62.667 17.5 -111 52.5 -145s77.167 -51 126.5 -51c50 0 92.5 17 127.5 51s52.5 82.333 52.5 145c0 62 -17.5 109.833 -52.5 143.5s-77.5 50.5 -127.5 50.5c-49.333 0 -91.5 -16.833 -126.5 -50.5s-52.5 -81.5 -52.5 -143.5zM560 253
c0 -75.333 -24.167 -138.335 -72.5 -189.002s-110.166 -76 -185.499 -76s-137 25.333 -185 76s-72 113.667 -72 189c0 74.667 24 137.334 72 188.001s109.667 76 185 76s137.166 -25.167 185.499 -75.5s72.5 -113.166 72.5 -188.499zM326 583.998l66 107h86l-84 -107h-68z
M177 583.998l61 107h79l-73 -107h-67z" />
    <glyph glyph-name="OE" unicode="&#x152;" horiz-adv-x="943" 
d="M410 714c30.667 0 62.333 -4.33398 95 -13.001h374v-77h-291v-234h288v-77h-288l-1 -234h292v-78h-368c-32 -10 -65.667 -15 -101 -15c-98 0 -182 35.833 -252 107.5s-105 156.834 -105 255.501c0 99.333 35 185 105 257s154 108 252 108zM504.999 71.999
l-0.00195312 554c-50.667 18 -103 20.5 -157 7.5s-99.667 -39.5 -137 -79.5c-50 -54.667 -75 -123 -75 -205c0 -78 22.667 -143.333 68 -196c36.667 -41.333 81.334 -69.833 134.001 -85.5s108.334 -14.167 167.001 4.5z" />
    <glyph glyph-name="oe" unicode="&#x153;" horiz-adv-x="1036" 
d="M123 255c0 -62 17.5 -110.001 52.5 -144.001s77.167 -51 126.5 -51c50 0 92.5 16.833 127.5 50.5s52.5 81.834 52.5 144.501s-17.5 111 -52.5 145s-77.5 51 -127.5 51c-49.333 0 -91.5 -17 -126.5 -51s-52.5 -82.333 -52.5 -145zM740 63.999
c62.667 0 111.666 23.334 146.999 70.001l63 -38c-50 -67.333 -120 -101 -210 -101c-47.333 0 -90.333 11.333 -129 34s-68.667 54.667 -90 96c-21.333 -41.333 -51.5 -74 -90.5 -98s-81.833 -36 -128.5 -36c-75.333 0 -137 25.333 -185 76s-72 113.334 -72 188.001
c0 75.333 24.167 138.5 72.5 189.5s109.833 76.5 184.5 76.5c46 0 89.333 -11.5 130 -34.5s70.667 -54.833 90 -95.5c20.667 39.333 49.667 70.666 87 93.999s81 35.333 131 36c50 0 95.333 -13.667 136 -41c86 -54 124 -139.333 114 -256h-431
c0 -0.666992 -0.333008 -1 -1 -1c7.33301 -44.667 26.833 -82.334 58.5 -113.001s72.834 -46 123.501 -46zM558.999 290h354.998c-4 46.667 -21.833 85 -53.5 115s-71.5 45.333 -119.5 46c-51.333 0 -92.666 -15.5 -123.999 -46.5s-50.666 -69.167 -57.999 -114.5z" />
    <glyph glyph-name="Racute" unicode="&#x154;" horiz-adv-x="616" 
d="M351 286l224.999 -286.001h-99l-219 285h-74v-285h-83v701h223c71.333 0 128.833 -17.167 172.5 -51.5s65.834 -87.166 66.501 -158.499c0.666992 -66 -18.5 -115.833 -57.5 -149.5s-90.5 -52.167 -154.5 -55.5zM183.999 355.999h141c103.333 0 155 45 155 135
c0 89.333 -51.667 134 -155 134h-141v-269zM412.999 864.999l-84 -115h-74l65 115h93z" />
    <glyph glyph-name="racute" unicode="&#x155;" horiz-adv-x="401" 
d="M81 510l67 0.000976562l8 -65c16 27.333 38.667 47.166 68 59.499s59 17.333 89 15s58 -9.83301 84 -22.5l-29 -68c-52.667 24.667 -100.667 24.5 -144 -0.5s-65 -66.167 -65 -123.5v-305h-78v510zM343 698.001l-84 -115h-74l65 115h93z" />
    <glyph glyph-name="Rcommaaccent" unicode="&#x156;" horiz-adv-x="616" 
d="M288 -44l78 -0.000976562c4.66699 -18 7 -35 7 -51c0 -27.333 -8.33301 -58.666 -25 -93.999h-67c12.667 36 19 64 19 84s-4 40.333 -12 61zM351 285.999l224.999 -286.001h-99l-219 285h-74v-285h-83v701h223c71.333 0 128.833 -17.167 172.5 -51.5
s65.834 -87.166 66.501 -158.499c0.666992 -66 -18.5 -115.833 -57.5 -149.5s-90.5 -52.167 -154.5 -55.5zM183.999 355.998h141c103.333 0 155 45 155 135c0 89.333 -51.667 134 -155 134h-141v-269z" />
    <glyph glyph-name="rcommaaccent" unicode="&#x157;" horiz-adv-x="401" 
d="M86 -55l77.001 -0.000976562c12.667 -49.333 6.66699 -96.666 -18 -141.999h-66c11.333 28 17.666 51.667 18.999 71s-2.66699 43 -12 71zM81.001 509.999l67 0.000976562l8 -65c16 27.333 38.667 47.166 68 59.499s59 17.333 89 15s58 -9.83301 84 -22.5l-29 -68
c-52.667 24.667 -100.667 24.5 -144 -0.5s-65 -66.167 -65 -123.5v-305h-78v510z" />
    <glyph glyph-name="Rcaron" unicode="&#x158;" horiz-adv-x="614" 
d="M351 286l224.999 -286.001h-99l-219 285h-74v-285h-83v701h223c71.333 0 128.833 -17.167 172.5 -51.5s65.834 -87.166 66.501 -158.499c0.666992 -66 -18.5 -115.833 -57.5 -149.5s-90.5 -52.167 -154.5 -55.5zM183.999 355.999h141c103.333 0 155 45 155 135
c0 89.333 -51.667 134 -155 134h-141v-269zM441.999 871.999l-88 -120h-101l-88 120h74l64 -81h2l63 81h74z" />
    <glyph glyph-name="rcaron" unicode="&#x159;" horiz-adv-x="401" 
d="M81 510l67 0.000976562l8 -65c16 27.333 38.667 47.166 68 59.499s59 17.333 89 15s58 -9.83301 84 -22.5l-29 -68c-52.667 24.667 -100.667 24.5 -144 -0.5s-65 -66.167 -65 -123.5v-305h-78v510zM372 694.001l-88 -113h-101l-88 113h74l64 -80h2l63 80h74z" />
    <glyph glyph-name="Sacute" unicode="&#x15a;" horiz-adv-x="558" 
d="M143 526c-1.33301 -20.667 2 -38.666 10 -53.999s20.5 -27.833 37.5 -37.5s31.667 -16.667 44 -21s28.5 -9.16602 48.5 -14.499c24.667 -6 46.167 -12.333 64.5 -19s37.666 -16 57.999 -28s36.833 -25.5 49.5 -40.5s22.834 -34.333 30.501 -58
s10.834 -50.5 9.50098 -80.5c-2.66699 -60 -26.5 -106.167 -71.5 -138.5s-96.833 -48.5 -155.5 -48.5c-47.333 0 -91.833 13.167 -133.5 39.5s-71.5 63.166 -89.5 110.499l65 35c13.333 -33.333 34.5 -60.166 63.5 -80.499s61.167 -30.5 96.5 -30.5
c41.333 -0.666992 75.166 9.66602 101.499 30.999s40.833 50.333 43.5 87c1.33301 24 -2.16699 44.833 -10.5 62.5s-21.5 32 -39.5 43s-34.167 19.333 -48.5 25s-32.5 11.5 -54.5 17.5c-28 7.33301 -52 15.166 -72 23.499s-40.833 20.166 -62.5 35.499
s-38 35.166 -49 59.499s-16.167 52.833 -15.5 85.5c2 60 23.5 106.5 64.5 139.5s89.167 49.5 144.5 49.5c46.667 0 89.167 -12 127.5 -36s65.5 -57.667 81.5 -101l-63 -31c-12 30 -31.5 53.167 -58.5 69.5s-55.5 24.5 -85.5 24.5
c-34.667 0.666992 -64.5 -9.16602 -89.5 -29.499s-38.833 -50.166 -41.5 -89.499zM396 871.001l-84 -115h-74l65 115h93z" />
    <glyph glyph-name="sacute" unicode="&#x15b;" horiz-adv-x="439" 
d="M231 291c110 -22 165 -72.3311 165 -150.998c0 -33.333 -10 -62 -30 -86s-43.333 -40.833 -70 -50.5s-54.334 -14.5 -83.001 -14.5c-75.333 0 -132.333 27.667 -171 83l48 49c34 -41.333 75 -62 123 -62c27.333 -0.666992 52 6.16602 74 20.499s33 34.833 33 61.5
c-0.666992 39.333 -36 65.666 -106 78.999c-105.333 18 -158.333 66.333 -159 145c0 46.667 17.667 83.667 53 111s77 41 125 41c62 0 112 -19.333 150 -58l-45 -51c-28 24 -63 36.667 -105 38c-28 0.666992 -52.167 -6.33301 -72.5 -21s-30.166 -34.667 -29.499 -60
c0 -36 33.333 -60.667 100 -74zM345 691.002l-85 -115h-71l65 115h91z" />
    <glyph glyph-name="Scircumflex" unicode="&#x15c;" horiz-adv-x="558" 
d="M143 526c-1.33301 -20.667 2 -38.666 10 -53.999s20.5 -27.833 37.5 -37.5s31.667 -16.667 44 -21s28.5 -9.16602 48.5 -14.499c24.667 -6 46.167 -12.333 64.5 -19s37.666 -16 57.999 -28s36.833 -25.5 49.5 -40.5s22.834 -34.333 30.501 -58
s10.834 -50.5 9.50098 -80.5c-2.66699 -60 -26.5 -106.167 -71.5 -138.5s-96.833 -48.5 -155.5 -48.5c-47.333 0 -91.833 13.167 -133.5 39.5s-71.5 63.166 -89.5 110.499l65 35c13.333 -33.333 34.5 -60.166 63.5 -80.499s61.167 -30.5 96.5 -30.5
c41.333 -0.666992 75.166 9.66602 101.499 30.999s40.833 50.333 43.5 87c1.33301 24 -2.16699 44.833 -10.5 62.5s-21.5 32 -39.5 43s-34.167 19.333 -48.5 25s-32.5 11.5 -54.5 17.5c-28 7.33301 -52 15.166 -72 23.499s-40.833 20.166 -62.5 35.499
s-38 35.166 -49 59.499s-16.167 52.833 -15.5 85.5c2 60 23.5 106.5 64.5 139.5s89.167 49.5 144.5 49.5c46.667 0 89.167 -12 127.5 -36s65.5 -57.667 81.5 -101l-63 -31c-12 30 -31.5 53.167 -58.5 69.5s-55.5 24.5 -85.5 24.5
c-34.667 0.666992 -64.5 -9.16602 -89.5 -29.499s-38.833 -50.166 -41.5 -89.499zM140 756.001l88 114h101l88 -114h-74l-64 78h-2l-63 -78h-74z" />
    <glyph glyph-name="scircumflex" unicode="&#x15d;" horiz-adv-x="439" 
d="M231 291c110 -22 165 -72.3311 165 -150.998c0 -33.333 -10 -62 -30 -86s-43.333 -40.833 -70 -50.5s-54.334 -14.5 -83.001 -14.5c-75.333 0 -132.333 27.667 -171 83l48 49c34 -41.333 75 -62 123 -62c27.333 -0.666992 52 6.16602 74 20.499s33 34.833 33 61.5
c-0.666992 39.333 -36 65.666 -106 78.999c-105.333 18 -158.333 66.333 -159 145c0 46.667 17.667 83.667 53 111s77 41 125 41c62 0 112 -19.333 150 -58l-45 -51c-28 24 -63 36.667 -105 38c-28 0.666992 -52.167 -6.33301 -72.5 -21s-30.166 -34.667 -29.499 -60
c0 -36 33.333 -60.667 100 -74zM95 570.002l88 114h101l88 -114h-74l-64 78h-2l-63 -78h-74z" />
    <glyph glyph-name="Scedilla" unicode="&#x15e;" horiz-adv-x="558" 
d="M143 526c-1.33301 -20.667 1.99902 -38.668 9.99902 -54.001s20.5 -27.833 37.5 -37.5s31.667 -16.667 44 -21s28.5 -9.16602 48.5 -14.499c24.667 -6 46.167 -12.333 64.5 -19s37.666 -16 57.999 -28s36.833 -25.5 49.5 -40.5s22.834 -34.333 30.501 -58
s10.834 -50.5 9.50098 -80.5c-2.66699 -52.667 -21.667 -94.667 -57 -126s-78.333 -50.666 -129 -57.999l-22 -37c18 -0.666992 35.333 -8.16699 52 -22.5s24.667 -30.5 24 -48.5c-1.33301 -26.667 -11.666 -47 -30.999 -61s-41.666 -21 -66.999 -21
c-24 0 -52.333 7.66699 -85 23l15 41c23.333 -12 44.666 -18 63.999 -18c18 0 31 5.16699 39 15.5s8.5 21 1.5 32s-19.833 16.5 -38.5 16.5c-10.667 0 -19.667 -1.66699 -27 -5l-24 18l40 65c-45.333 4 -86.833 18.667 -124.5 44s-64.5 60.333 -80.5 105l65 35
c13.333 -33.333 34.5 -60.166 63.5 -80.499s61.167 -30.5 96.5 -30.5c41.333 -0.666992 75.166 9.66602 101.499 30.999s40.833 50.333 43.5 87c1.33301 24 -2.16699 44.833 -10.5 62.5s-21.5 32 -39.5 43s-34.167 19.333 -48.5 25s-32.5 11.5 -54.5 17.5
c-28 7.33301 -52 15.166 -72 23.499s-40.833 20.166 -62.5 35.499s-38 35.166 -49 59.499s-16.167 52.833 -15.5 85.5c2 60 23.5 106.5 64.5 139.5s89.167 49.5 144.5 49.5c46.667 0 89.167 -12 127.5 -36s65.5 -57.667 81.5 -101l-63 -31c-12 30 -31.5 53.167 -58.5 69.5
s-55.5 24.5 -85.5 24.5c-34.667 0.666992 -64.5 -9.16602 -89.5 -29.499s-38.833 -50.166 -41.5 -89.499z" />
    <glyph glyph-name="scedilla" unicode="&#x15f;" horiz-adv-x="438" 
d="M231 291c110 -22 165 -72.3311 165 -150.998c0 -45.333 -16.333 -80.666 -49 -105.999s-71 -40 -115 -44l-14 -24c15.333 -0.666992 30.166 -7.33398 44.499 -20.001s21.166 -27 20.499 -43c-0.666992 -24 -9.16699 -42.167 -25.5 -54.5s-34.833 -18.5 -55.5 -18.5
c-19.333 0 -43 6.66699 -71 20l13 37c18.667 -10.667 36.334 -16 53.001 -16c14.667 0 25.334 4.66699 32.001 14s7.16699 18.833 1.5 28.5s-16.5 14.5 -32.5 14.5c-6.66699 0 -13 -1.66699 -19 -5l-20 16l29 52c-64.667 6.66699 -113.334 33.667 -146.001 81l48 49
c34 -41.333 75 -62 123 -62c27.333 -0.666992 52 6.16602 74 20.499s33 34.833 33 61.5c-0.666992 39.333 -36 65.666 -106 78.999c-105.333 18 -158.333 66.333 -159 145c0 46.667 17.667 83.667 53 111s77 41 125 41c62 0 112 -19.333 150 -58l-45 -51
c-28 24 -63 36.667 -105 38c-28 0.666992 -52.167 -6.33301 -72.5 -21s-30.166 -34.667 -29.499 -60c0 -36 33.333 -60.667 100 -74z" />
    <glyph glyph-name="Scaron" unicode="&#x160;" horiz-adv-x="560" 
d="M143 526c-1.33301 -20.667 2 -38.666 10 -53.999s20.5 -27.833 37.5 -37.5s31.667 -16.667 44 -21s28.5 -9.16602 48.5 -14.499c24.667 -6 46.167 -12.333 64.5 -19s37.666 -16 57.999 -28s36.833 -25.5 49.5 -40.5s22.834 -34.333 30.501 -58
s10.834 -50.5 9.50098 -80.5c-2.66699 -60 -26.5 -106.167 -71.5 -138.5s-96.833 -48.5 -155.5 -48.5c-47.333 0 -91.833 13.167 -133.5 39.5s-71.5 63.166 -89.5 110.499l65 35c13.333 -33.333 34.5 -60.166 63.5 -80.499s61.167 -30.5 96.5 -30.5
c41.333 -0.666992 75.166 9.66602 101.499 30.999s40.833 50.333 43.5 87c1.33301 24 -2.16699 44.833 -10.5 62.5s-21.5 32 -39.5 43s-34.167 19.333 -48.5 25s-32.5 11.5 -54.5 17.5c-28 7.33301 -52 15.166 -72 23.499s-40.833 20.166 -62.5 35.499
s-38 35.166 -49 59.499s-16.167 52.833 -15.5 85.5c2 60 23.5 106.5 64.5 139.5s89.167 49.5 144.5 49.5c46.667 0 89.167 -12 127.5 -36s65.5 -57.667 81.5 -101l-63 -31c-12 30 -31.5 53.167 -58.5 69.5s-55.5 24.5 -85.5 24.5
c-34.667 0.666992 -64.5 -9.16602 -89.5 -29.499s-38.833 -50.166 -41.5 -89.499zM420 896.001l-88 -106h-101l-88 106h74l65 -66h2l62 66h74z" />
    <glyph glyph-name="scaron" unicode="&#x161;" horiz-adv-x="439" 
d="M231 292c110 -22 165 -72.665 165 -151.998c0 -33.333 -10 -62 -30 -86s-43.333 -40.833 -70 -50.5s-54.334 -14.5 -83.001 -14.5c-75.333 0 -132.333 27.667 -171 83l48 49c34 -41.333 75 -62 123 -62c27.333 -0.666992 52 6.16602 74 20.499s33 34.833 33 61.5
c-0.666992 39.333 -36 65.666 -106 78.999c-105.333 18 -158.333 66.333 -159 145c0 46.667 17.667 83.667 53 111s77 41 125 41c62 0 112 -19.333 150 -58l-45 -51c-28 24 -63 36.667 -105 38c-28 0.666992 -52.167 -6.33301 -72.5 -21s-30.166 -34.667 -29.499 -60
c0 -16 6.16699 -29.333 18.5 -40s24.5 -18 36.5 -22s27 -7.66699 45 -11zM363 691.002l-88 -120h-101l-88 120h74l64 -81h2l63 81h74z" />
    <glyph glyph-name="Tcommaaccent" unicode="&#x162;" horiz-adv-x="451" 
d="M10 702h430.999v-80h-174v-622h-19l-8 -42c30 -2.66699 52.667 -12.834 68 -30.501s22.166 -36.5 20.499 -56.5s-11 -38 -28 -54s-39.167 -24 -66.5 -24c-23.333 0 -51.666 8.33301 -84.999 25l15 44c22.667 -12.667 44 -19 64 -19c18.667 0 32.334 5.5 41.001 16.5
s9.16699 22.333 1.5 34s-21.167 17.834 -40.5 18.501c-15.333 0 -25.333 -1.33301 -30 -4l-21 18l13 74h-8v622h-174v80z" />
    <glyph glyph-name="tcommaaccent" unicode="&#x163;" horiz-adv-x="307" 
d="M219 -3l-14.001 -39.001c30 -2.66699 52.667 -12.834 68 -30.501s22.166 -36.5 20.499 -56.5s-11 -38 -28 -54s-39.167 -24 -66.5 -24c-23.333 0 -51.666 8.33301 -84.999 25l15 44c22.667 -12.667 44 -19 64 -19c18.667 0 32.334 5.5 41.001 16.5s9.16699 22.333 1.5 34
s-21.167 17.834 -40.5 18.501c-15.333 0 -25.333 -1.33301 -30 -4l-21 18l26 83c-54.667 24.667 -82 71 -82 139v291h-52v68h52v192h78v-192h103v-68h-103v-291c0 -28.667 9 -50.167 27 -64.5s43.333 -20.166 76 -17.499v-69c-17.333 -2 -34 -2 -50 0z" />
    <glyph glyph-name="Tcaron" unicode="&#x164;" horiz-adv-x="451" 
d="M10 702h431v-80h-174v-622h-83v622h-174v80zM363 869l-88 -118h-101l-88 118h74l64 -79h2l63 79h74z" />
    <glyph glyph-name="tcaron" unicode="&#x165;" horiz-adv-x="307" 
d="M245 707h72.001c12.667 -46 6.66699 -93.333 -18 -142h-62c7.33301 21.333 12.5 38 15.5 50s4.16699 26 3.5 42s-4.33398 32.667 -11.001 50zM269.001 -3v69.001c-32.667 -2.66699 -58 3.16602 -76 17.499s-27 35.833 -27 64.5v291h103v68h-103v192h-78v-192h-52v-68h52
v-291c0 -54 16.667 -94.167 50 -120.5s77 -36.5 131 -30.5z" />
    <glyph glyph-name="Tbar" unicode="&#x166;" horiz-adv-x="450" 
d="M53 320v58h131v244h-174v80h431v-80h-174v-244h132v-58h-132v-320h-83v320h-131z" />
    <glyph glyph-name="tbar" unicode="&#x167;" horiz-adv-x="307" 
d="M39 240v59.999h49v139h-52v68h52v192h78v-192h103v-68h-103v-139h103v-60h-103v-92c0 -28.667 9.16699 -50.667 27.5 -66s43.5 -21.666 75.5 -18.999v-66c-54 -6 -97.667 4.16699 -131 30.5s-50 66.5 -50 120.5v92h-49z" />
    <glyph glyph-name="Utilde" unicode="&#x168;" horiz-adv-x="654" 
d="M91 700h83v-498c0 -30 7.5 -56 22.5 -78s34 -38 57 -48s47.667 -15 74 -15s51 5 74 15s42 26 57 48s22.5 48 22.5 78v498h83v-498c0 -34.667 -6.83301 -66.167 -20.5 -94.5s-31.5 -51.166 -53.5 -68.499s-47.167 -30.666 -75.5 -39.999s-57.333 -14 -87 -14
s-58.667 4.66699 -87 14s-53.5 22.666 -75.5 39.999s-39.833 40.166 -53.5 68.499s-20.5 59.833 -20.5 94.5v498zM438 864l44.002 -31.001c-14.667 -33.333 -37.667 -54.166 -69 -62.499s-62.333 -2.5 -93 17.5c-40 25.333 -73.667 17.333 -101 -24l-47 30
c19.333 35.333 45.166 57 77.499 65s64.833 0.666992 97.5 -22c35.333 -22.667 65.666 -13.667 90.999 27z" />
    <glyph glyph-name="utilde" unicode="&#x169;" horiz-adv-x="614" 
d="M417 692l41.999 -32c-16 -32 -39.5 -51.5 -70.5 -58.5s-61.167 -0.166992 -90.5 20.5c-37.333 27.333 -70.666 21.333 -99.999 -18l-45 31c20.667 34 47 54.167 79 60.5s63.667 -2.16699 95 -25.5c33.333 -24 63.333 -16.667 90 22zM533.999 0l-65.001 -0.000976562
l-11 52c-36 -40 -80.333 -60.333 -133 -61c-74.667 1.33301 -135.167 19.833 -181.5 55.5s-69.5 90.834 -69.5 165.501v295h78v-295c1.33301 -48.667 19.5 -86.5 54.5 -113.5s75.833 -39.167 122.5 -36.5c46.667 2 89.334 23 128.001 63v382h77v-507z" />
    <glyph glyph-name="Umacron" unicode="&#x16a;" horiz-adv-x="654" 
d="M203 778v65h255v-65h-255zM91 700h83v-498c0 -30 7.5 -56 22.5 -78s34 -38 57 -48s47.667 -15 74 -15s51 5 74 15s42 26 57 48s22.5 48 22.5 78v498h83v-498c0 -34.667 -6.83301 -66.167 -20.5 -94.5s-31.5 -51.166 -53.5 -68.499s-47.167 -30.666 -75.5 -39.999
s-57.333 -14 -87 -14s-58.667 4.66699 -87 14s-53.5 22.666 -75.5 39.999s-39.833 40.166 -53.5 68.499s-20.5 59.833 -20.5 94.5v498z" />
    <glyph glyph-name="umacron" unicode="&#x16b;" horiz-adv-x="614" 
d="M181 626v62h251v-62h-251zM534 0l-65.001 -0.000976562l-11 52c-36 -40 -80.333 -60.333 -133 -61c-74.667 1.33301 -135.167 19.833 -181.5 55.5s-69.5 90.834 -69.5 165.501v295h78v-295c1.33301 -48.667 19.5 -86.5 54.5 -113.5s75.833 -39.167 122.5 -36.5
c46.667 2 89.334 23 128.001 63v382h77v-507z" />
    <glyph glyph-name="Ubreve" unicode="&#x16c;" horiz-adv-x="654" 
d="M91 700h83v-498c0 -30 7.5 -56 22.5 -78s34 -38 57 -48s47.667 -15 74 -15s51 5 74 15s42 26 57 48s22.5 48 22.5 78v498h83v-498c0 -34.667 -6.83301 -66.167 -20.5 -94.5s-31.5 -51.166 -53.5 -68.499s-47.167 -30.666 -75.5 -39.999s-57.333 -14 -87 -14
s-58.667 4.66699 -87 14s-53.5 22.666 -75.5 39.999s-39.833 40.166 -53.5 68.499s-20.5 59.833 -20.5 94.5v498zM332 744c-36.667 0 -67.833 10.332 -93.5 30.999s-38.5 49.334 -38.5 86.001h64c0 -19.333 7 -34.166 21 -44.499s29.667 -15.5 47 -15.5
c16.667 0 31.667 5 45 15s20 25 20 45h66c0 -36.667 -12.833 -65.334 -38.5 -86.001s-56.5 -31 -92.5 -31z" />
    <glyph glyph-name="ubreve" unicode="&#x16d;" horiz-adv-x="614" 
d="M310 576c-36.667 0 -67.833 10.332 -93.5 30.999s-38.5 49.334 -38.5 86.001h64c0 -19.333 7 -34.166 21 -44.499s29.667 -15.5 47 -15.5c16.667 0 31.667 5 45 15s20 25 20 45h66c0 -36.667 -12.833 -65.334 -38.5 -86.001s-56.5 -31 -92.5 -31zM534.001 -0.000976562
l-65.001 -0.000976562l-11 52c-36 -40 -80.333 -60.333 -133 -61c-74.667 1.33301 -135.167 19.833 -181.5 55.5s-69.5 90.834 -69.5 165.501v295h78v-295c1.33301 -48.667 19.5 -86.5 54.5 -113.5s75.833 -39.167 122.5 -36.5c46.667 2 89.334 23 128.001 63v382h77v-507z
" />
    <glyph glyph-name="Uring" unicode="&#x16e;" horiz-adv-x="654" 
d="M91 700h83v-498c0 -30 7.5 -56 22.5 -78s34 -38 57 -48s47.667 -15 74 -15s51 5 74 15s42 26 57 48s22.5 48 22.5 78v498h83v-498c0 -34.667 -6.83301 -66.167 -20.5 -94.5s-31.5 -51.166 -53.5 -68.499s-47.167 -30.666 -75.5 -39.999s-57.333 -14 -87 -14
s-58.667 4.66699 -87 14s-53.5 22.666 -75.5 39.999s-39.833 40.166 -53.5 68.499s-20.5 59.833 -20.5 94.5v498zM337 738c-23.333 0 -43.1641 6.83301 -59.4971 20.5s-24.5 31.5 -24.5 53.5c0 22.667 8.16699 40.834 24.5 54.501s36.166 20.5 59.499 20.5
s43.166 -6.83301 59.499 -20.5s24.5 -31.834 24.5 -54.501c0 -22 -8.33301 -39.833 -25 -53.5s-36.334 -20.5 -59.001 -20.5zM337.002 780c9.33301 0 17.167 3 23.5 9s9.5 13.667 9.5 23c0 10.667 -3 19 -9 25s-14 9 -24 9s-18 -3 -24 -9s-9 -14.333 -9 -25
c0 -9.33301 3 -17 9 -23s14 -9 24 -9z" />
    <glyph glyph-name="uring" unicode="&#x16f;" horiz-adv-x="614" 
d="M304 556c-23.333 0 -43.1641 6.83301 -59.4971 20.5s-24.5 31.5 -24.5 53.5c0 22.667 8.16699 40.834 24.5 54.501s36.166 20.5 59.499 20.5s43.166 -6.83301 59.499 -20.5s24.5 -31.834 24.5 -54.501c0 -22 -8.33301 -39.833 -25 -53.5s-36.334 -20.5 -59.001 -20.5z
M304.002 598c9.33301 0 17.166 3 23.499 9s9.5 13.667 9.5 23c0 10.667 -3.16699 19 -9.5 25s-14.166 9 -23.499 9c-10 0 -18 -3 -24 -9s-9 -14.333 -9 -25c0 -9.33301 3 -17 9 -23s14 -9 24 -9zM534.002 0l-65.001 -0.000976562l-11 52c-36 -40 -80.333 -60.333 -133 -61
c-74.667 1.33301 -135.167 19.833 -181.5 55.5s-69.5 90.834 -69.5 165.501v295h78v-295c1.33301 -48.667 19.5 -86.5 54.5 -113.5s75.833 -39.167 122.5 -36.5c46.667 2 89.334 23 128.001 63v382h77v-507z" />
    <glyph glyph-name="Uhungarumlaut" unicode="&#x170;" horiz-adv-x="654" 
d="M91 700h83v-498c0 -30 7.5 -56 22.5 -78s34 -38 57 -48s47.667 -15 74 -15s51 5 74 15s42 26 57 48s22.5 48 22.5 78v498h83v-498c0 -34.667 -6.83301 -66.167 -20.5 -94.5s-31.5 -51.166 -53.5 -68.499s-47.167 -30.666 -75.5 -39.999s-57.333 -14 -87 -14
s-58.667 4.66699 -87 14s-53.5 22.666 -75.5 39.999s-39.833 40.166 -53.5 68.499s-20.5 59.833 -20.5 94.5v498zM368 755l66 107h86l-84 -107h-68zM219 755l61 107h79l-73 -107h-67z" />
    <glyph glyph-name="uhungarumlaut" unicode="&#x171;" horiz-adv-x="616" 
d="M333 585l66 107h86l-84 -107h-68zM184 585l61 107h79l-73 -107h-67zM534 0l-65.001 -0.000976562l-11 52c-36 -40 -80.333 -60.333 -133 -61c-74.667 1.33301 -135.167 19.833 -181.5 55.5s-69.5 90.834 -69.5 165.501v295h78v-295
c1.33301 -48.667 19.5 -86.5 54.5 -113.5s75.833 -39.167 122.5 -36.5c46.667 2 89.334 23 128.001 63v382h77v-507z" />
    <glyph glyph-name="Uogonek" unicode="&#x172;" horiz-adv-x="654" 
d="M91 700l82.999 0.00292969v-498c0 -30 7.5 -56 22.5 -78s34 -38 57 -48s47.667 -15 74 -15s51 5 74 15s42 26 57 48s22.5 48 22.5 78v498h83v-498c0 -76.667 -30.333 -135 -91 -175c-0.666992 -0.666992 -3.16699 -2.66699 -7.5 -6s-7.5 -5.83301 -9.5 -7.5l-9 -7.5
c-4 -3.33301 -7.16699 -6.33301 -9.5 -9l-8.5 -9.5c-3.33301 -3.66699 -6 -7 -8 -10s-4 -6.33301 -6 -10s-3.5 -7.33398 -4.5 -11.001s-1.5 -7.5 -1.5 -11.5c0 -12 5.5 -23.5 16.5 -34.5s21.833 -18.833 32.5 -23.5l16 -7l-23 -62c-3.33301 0.666992 -7.5 1.66699 -12.5 3
s-14 4.83301 -27 10.5s-24.5 12.167 -34.5 19.5s-19 17.666 -27 30.999s-12 28 -12 44c0 20.667 9.66699 41.334 29 62.001c-44.667 -6 -87.667 -2.33301 -129 11s-76.166 37.666 -104.499 72.999s-42.5 78.666 -42.5 129.999v498z" />
    <glyph glyph-name="uogonek" unicode="&#x173;" horiz-adv-x="614" 
d="M534 0c-39.333 -20.667 -59.3311 -43.001 -59.998 -67.001c-0.666992 -13.333 4.16602 -24.833 14.499 -34.5s20.833 -15.834 31.5 -18.501l15 -4l-22 -46c-2.66699 0 -6.33398 0.333008 -11.001 1s-12.834 2.83398 -24.501 6.50098s-22 8.33398 -31 14.001
s-17.167 14.167 -24.5 25.5s-11 24.666 -11 39.999c0 33.333 19.333 61 58 83l-11 52c-36 -40 -80.333 -60.333 -133 -61c-74.667 1.33301 -135.167 19.833 -181.5 55.5s-69.5 90.834 -69.5 165.501v295h78v-295c1.33301 -48.667 19.5 -86.5 54.5 -113.5
s75.833 -39.167 122.5 -36.5c46.667 2 89.334 23 128.001 63v382h77v-507z" />
    <glyph glyph-name="Wcircumflex" unicode="&#x174;" horiz-adv-x="958" 
d="M519 614l160 -521l159 609h85l-193 -705h-101l-147 471l-148 -471h-101l-194 705h86l159 -610l162 522h73zM344 754l88 117h101l88 -117h-74l-64 81h-2l-63 -81h-74z" />
    <glyph glyph-name="wcircumflex" unicode="&#x175;" horiz-adv-x="720" 
d="M221 579l88 117h101l88 -117h-74l-64 81h-2l-63 -81h-74zM318 510h87.001l85 -337c8.66699 -27.333 13.667 -59.666 15 -96.999h5c1.33301 38.667 6 71.334 14 98.001l95 336h80l-151 -510h-92l-85 339c-0.666992 2.66699 -2.16699 14.5 -4.5 35.5s-3.5 31.833 -3.5 32.5
h-4l-3 -33c-2.66699 -22.667 -4 -34.334 -4 -35.001l-84 -339h-92l-152 510h80l95 -336c5.33301 -17.333 10.666 -50 15.999 -98h5c1.33301 45.333 5.33301 77.666 12 96.999z" />
    <glyph glyph-name="Ycircumflex" unicode="&#x176;" horiz-adv-x="586" 
d="M571 705l-240 -426v-279h-81v279l-115.5 206.5l-123.5 219.5h94l186 -339l81.5 148l103.5 191h95zM157 754l88 117h101l88 -117h-74l-64 81h-2l-63 -81h-74z" />
    <glyph glyph-name="ycircumflex" unicode="&#x177;" horiz-adv-x="505" 
d="M115 578l88 117h101l88 -117h-74l-64 81h-2l-63 -81h-74zM90 -190v65c28 -3.33301 49.333 -0.5 64 8.5s25.667 22.833 33 41.5l28 73l-207 509h84l164 -419l156 419h84l-235 -607c-26 -68.667 -83 -98.667 -171 -90z" />
    <glyph glyph-name="Ydieresis" unicode="&#x178;" horiz-adv-x="589" 
d="M574 705l-240 -426v-279h-81v279l-115.5 206.5l-123.5 219.5h94l186 -339l81.5 148l103.5 191h95zM253 775h-90v98h90v-98zM426 775h-90v98h90v-98z" />
    <glyph glyph-name="Zacute" unicode="&#x179;" horiz-adv-x="569" 
d="M415 873l-84 -115h-74l65 115h93zM58 0v80l273 406l103 145h-364v74h445v-76l-262 -392l-116 -162h378v-75h-457z" />
    <glyph glyph-name="zacute" unicode="&#x17a;" horiz-adv-x="469" 
d="M342 692l-84 -115h-74l65 115h93zM46 0v73l277 366l-266 -1v70h365v-51l-294 -388h294v-69h-376z" />
    <glyph glyph-name="Zdotaccent" unicode="&#x17b;" horiz-adv-x="568" 
d="M258 769v89h87v-89h-87zM58 0v80l273 406l103 145h-364v74h445v-76l-262 -392l-116 -162h378v-75h-457z" />
    <glyph glyph-name="zdotaccent" unicode="&#x17c;" horiz-adv-x="469" 
d="M202 596v83h87v-83h-87zM46 0v73l277 366l-266 -1v70h365v-51l-294 -388h294v-69h-376z" />
    <glyph glyph-name="Zcaron" unicode="&#x17d;" horiz-adv-x="557" 
d="M441 892l-88 -120h-101l-88 120h76l62 -78h2l62 78h75zM52 0v80l273 406l103 145h-364v74h445v-76l-262 -392l-116 -162h378v-75h-457z" />
    <glyph glyph-name="zcaron" unicode="&#x17e;" horiz-adv-x="468" 
d="M391 726l-88 -120h-101l-88 120h74l64 -81h2l63 81h74zM46 0v73l277 366l-266 -1v70h365v-51l-294 -388h294v-69h-376z" />
    <glyph glyph-name="longs" unicode="&#x17f;" horiz-adv-x="232" 
d="M277 701v-69c-33.333 2 -59 -4 -77 -18s-27 -35.333 -27 -64v-550h-78v432h-55v72h55v46c0 54 16.833 94.167 50.5 120.5s77.5 36.5 131.5 30.5z" />
    <glyph glyph-name="florin" unicode="&#x192;" horiz-adv-x="562" 
d="M518 712l-11.998 -72.001c-23.333 2 -43.5 -0.666992 -60.5 -8s-30.333 -19.333 -40 -36s-17 -33 -22 -49s-9.5 -35.667 -13.5 -59h108l-13 -76h-108l-88 -461c-10.667 -53.333 -31.334 -94.5 -62.001 -123.5s-77 -43.5 -139 -43.5c-20.667 0 -37.334 2 -50.001 6l11 65
c50.667 -7.33301 87.167 -2.16602 109.5 15.501s38.166 49.167 47.499 94.5l86 447h-95l14 76h96l6 32c10 55.333 33 101.5 69 138.5s82.333 55.5 139 55.5c4.66699 0 10.334 -0.666992 17.001 -2z" />
    <glyph glyph-name="Scommaaccent" unicode="&#x218;" horiz-adv-x="558" 
d="M237 -56h77.998c12 -45.333 6 -92 -18 -140h-67c10.667 28 16.834 51.167 18.501 69.5s-2.16602 41.833 -11.499 70.5zM142.998 526c-1.33301 -20.667 2 -38.666 10 -53.999s20.5 -27.833 37.5 -37.5s31.667 -16.667 44 -21s28.5 -9.16602 48.5 -14.499
c24.667 -6 46.167 -12.333 64.5 -19s37.666 -16 57.999 -28s36.833 -25.5 49.5 -40.5s22.834 -34.333 30.501 -58s10.834 -50.5 9.50098 -80.5c-2.66699 -60 -26.5 -106.167 -71.5 -138.5s-96.833 -48.5 -155.5 -48.5c-47.333 0 -91.833 13.167 -133.5 39.5
s-71.5 63.166 -89.5 110.499l65 35c13.333 -33.333 34.5 -60.166 63.5 -80.499s61.167 -30.5 96.5 -30.5c41.333 -0.666992 75.166 9.66602 101.499 30.999s40.833 50.333 43.5 87c1.33301 24 -2.16699 44.833 -10.5 62.5s-21.5 32 -39.5 43s-34.167 19.333 -48.5 25
s-32.5 11.5 -54.5 17.5c-28 7.33301 -52 15.166 -72 23.499s-40.833 20.166 -62.5 35.499s-38 35.166 -49 59.499s-16.167 52.833 -15.5 85.5c2 60 23.5 106.5 64.5 139.5s89.167 49.5 144.5 49.5c46.667 0 89.167 -12 127.5 -36s65.5 -57.667 81.5 -101l-63 -31
c-12 30 -31.5 53.167 -58.5 69.5s-55.5 24.5 -85.5 24.5c-34.667 0.666992 -64.5 -9.16602 -89.5 -29.499s-38.833 -50.166 -41.5 -89.499z" />
    <glyph glyph-name="scommaaccent" unicode="&#x219;" horiz-adv-x="439" 
d="M182 -56l75 0.000976562c11.333 -46 5.33301 -91.333 -18 -136h-64c11.333 26.667 17.5 49.167 18.5 67.5s-2.83301 41.166 -11.5 68.499zM231 291.001c110 -22 165 -72.3311 165 -150.998c0 -33.333 -10 -62 -30 -86s-43.333 -40.833 -70 -50.5
s-54.334 -14.5 -83.001 -14.5c-75.333 0 -132.333 27.667 -171 83l48 49c34 -41.333 75 -62 123 -62c27.333 -0.666992 52 6.16602 74 20.499s33 34.833 33 61.5c-0.666992 39.333 -36 65.666 -106 78.999c-105.333 18 -158.333 66.333 -159 145
c0 46.667 17.667 83.667 53 111s77 41 125 41c62 0 112 -19.333 150 -58l-45 -51c-28 24 -63 36.667 -105 38c-28 0.666992 -52.167 -6.33301 -72.5 -21s-30.166 -34.667 -29.499 -60c0 -36 33.333 -60.667 100 -74z" />
    <glyph glyph-name="uni021A" unicode="&#x21a;" horiz-adv-x="451" 
d="M189 -47h79.998c12.667 -48 6.66699 -97 -18 -147h-69c10.667 30.667 16.834 55.167 18.501 73.5s-2.16602 42.833 -11.499 73.5zM9.99805 702h431v-80h-174v-622h-83v622h-174v80z" />
    <glyph glyph-name="uni021B" unicode="&#x21b;" horiz-adv-x="307" 
d="M166 -57l76.998 -0.00195312c12.667 -46.667 6.66699 -95 -18 -145h-66c10.667 30.667 16.834 54.834 18.501 72.501s-2.16602 41.834 -11.499 72.501zM269.998 65.998v-69.001c-54 -6 -97.667 4.16699 -131 30.5s-50 66.5 -50 120.5v291h-52v68h52v192h78v-192h103v-68
h-103v-291c0 -28.667 9 -50.167 27 -64.5s43.333 -20.166 76 -17.499z" />
    <glyph glyph-name="circumflex" unicode="&#x2c6;" horiz-adv-x="509" 
d="M117 763l88 117h101l88 -117h-74l-64 81h-2l-63 -81h-74z" />
    <glyph glyph-name="caron" unicode="&#x2c7;" horiz-adv-x="509" 
d="M393 879l-88 -120h-101l-88 120h74l64 -81h2l63 81h74z" />
    <glyph glyph-name="breve" unicode="&#x2d8;" horiz-adv-x="509" 
d="M255 751c-36.667 0 -67.833 10.333 -93.5 31s-38.5 49.334 -38.5 86.001h64c0 -19.333 6.83301 -34 20.5 -44s29.5 -15 47.5 -15c16.667 0 31.667 4.83301 45 14.5s20 24.5 20 44.5h66c0 -36.667 -12.833 -65.334 -38.5 -86.001s-56.5 -31 -92.5 -31z" />
    <glyph glyph-name="dotaccent" unicode="&#x2d9;" horiz-adv-x="510" 
d="M211 784v89h87v-89h-87z" />
    <glyph glyph-name="ring" unicode="&#x2da;" horiz-adv-x="510" 
d="M255 743c-23.333 0 -43.1641 6.83301 -59.4971 20.5s-24.5 31.5 -24.5 53.5c0 22.667 8.16699 40.834 24.5 54.501s36.166 20.5 59.499 20.5s43.166 -6.83301 59.499 -20.5s24.5 -31.834 24.5 -54.501c0 -22 -8.33301 -39.833 -25 -53.5s-36.334 -20.5 -59.001 -20.5z
M255.002 785c9.33301 0 17.167 3 23.5 9s9.5 13.667 9.5 23c0 10 -3 18.167 -9 24.5s-14 9.5 -24 9.5s-18 -3 -24 -9s-9 -14.333 -9 -25c0 -9.33301 3 -17 9 -23s14 -9 24 -9z" />
    <glyph glyph-name="ogonek" unicode="&#x2db;" horiz-adv-x="509" 
d="M175 -106c-2 14.667 0.00195312 29.168 6.00195 43.501s14 26.5 24 36.5s20.167 18.833 30.5 26.5s19.166 13.5 26.499 17.5l12 5l58 -11c-6.66699 -4 -14.667 -9.33301 -24 -16s-21.833 -18.834 -37.5 -36.501s-23.5 -33.167 -23.5 -46.5
c0 -11.333 5.83301 -21 17.5 -29s23.5 -13.333 35.5 -16l17 -4l-24 -44c-0.666992 0.666992 -4.33398 0.5 -11.001 -0.5s-15.667 -0.166992 -27 2.5s-22.5 6.16699 -33.5 10.5s-21 11.833 -30 22.5s-14.5 23.667 -16.5 39z" />
    <glyph glyph-name="tilde" unicode="&#x2dc;" horiz-adv-x="490" 
d="M359 858l45 -32.999c-15.333 -34.667 -39 -56.334 -71 -65.001s-63.667 -2.66699 -95 18c-41.333 26.667 -76 18.334 -104 -24.999l-48 31c20 37.333 46.5 60.166 79.5 68.499s66.5 0.833008 100.5 -22.5c36 -24 67 -14.667 93 28z" />
    <glyph glyph-name="hungarumlaut" unicode="&#x2dd;" horiz-adv-x="509" 
d="M245 755l68 113h89l-87 -113h-70zM91 755l63 113h82l-76 -113h-69z" />
    <glyph glyph-name="tonos" unicode="&#x384;" horiz-adv-x="509" 
d="M328 876l-84 -115h-68l65 115h87z" />
    <glyph glyph-name="dieresistonos" unicode="&#x385;" horiz-adv-x="509" 
d="M241 765l77 113h-85l-52 -113h60zM155 791h-81v89h81v-89zM429 791h-81v89h81v-89z" />
    <glyph glyph-name="Alphatonos" unicode="&#x386;" horiz-adv-x="632" 
d="M13 0l251 705h101l254 -705h-87l-81 224h-271l-79 -224h-88zM205 300h219l-109 318zM65 590l84 115h-87l-65 -115h68z" />
    <glyph glyph-name="Epsilontonos" unicode="&#x388;" horiz-adv-x="570" 
d="M501 704v-77h-292v-237h288v-77h-288l-1 -234h293v-78h-375v703h375zM98 705l-84 -115h-68l65 115h87z" />
    <glyph glyph-name="Etatonos" unicode="&#x389;" horiz-adv-x="713" 
d="M530 0v312h-321v-312h-83v703h83v-317h321v317h83v-703h-83zM102 705l-84 -115h-68l65 115h87z" />
    <glyph glyph-name="Iotatonos" unicode="&#x38a;" horiz-adv-x="307" 
d="M124 0v703h82v-703h-82zM98 705l-84 -115h-68l65 115h87z" />
    <glyph glyph-name="Omicrontonos" unicode="&#x38c;" 
d="M410 714c98 0 182 -36 252 -108s105 -157.667 105 -257s-35 -184.666 -105 -255.999s-154 -107 -252 -107s-182 35.667 -252 107s-105 156.666 -105 255.999s35 185 105 257s154 108 252 108zM136 349c0 -89.333 27.166 -159.5 81.499 -210.5s118.5 -76.5 192.5 -76.5
s138.167 25.5 192.5 76.5s81.5 121.167 81.5 210.5s-27.5 160 -82.5 212s-119.167 77.667 -192.5 77s-137.166 -27 -191.499 -79s-81.5 -122 -81.5 -210zM39.999 590l84 115h-87l-65 -115h68z" />
    <glyph glyph-name="Upsilontonos" unicode="&#x38e;" horiz-adv-x="690" 
d="M675 705l-240 -426v-279h-81v279l-115.5 206.5l-123.5 219.5h94l186 -339l81.5 148l103.5 191h95zM18 590l84 115h-87l-65 -115h68z" />
    <glyph glyph-name="Omegatonos" unicode="&#x38f;" horiz-adv-x="810" 
d="M405 637c-80.667 0 -147.168 -26.835 -199.501 -80.502s-78.5 -120.5 -78.5 -200.5c0 -70.667 18 -130.5 54 -179.5s85.667 -86.167 149 -111.5l-17 -65h-284v67h183c-50 20.667 -89.667 58 -119 112s-44 113 -44 177c0 102.667 33.333 187.5 100 254.5
s152 100.5 256 100.5c104.667 0 190 -33.5 256 -100.5s99 -151.833 99 -254.5c0 -61.333 -15.5 -120.166 -46.5 -176.499s-69.5 -94.166 -115.5 -113.499h184v-66h-278l-13 66c62.667 29.333 110.334 67 143.001 113s49 105 49 177c0 80 -26.167 146.833 -78.5 200.5
s-118.833 80.5 -199.5 80.5zM116.999 704.998l-84 -115h-68l65 115h87z" />
    <glyph glyph-name="iotadieresistonos" unicode="&#x390;" horiz-adv-x="244" 
d="M220 66v-67c-50 0.666992 -86 8.16699 -108 22.5s-33 45.5 -33 93.5v392h79v-392c0 -18.667 4.33301 -31.5 13 -38.5s25 -10.5 49 -10.5zM205 697l-74 -108h-56l49 108h81zM59 612h-77v85h77v-85zM302 612h-77v85h77v-85z" />
    <glyph glyph-name="Alpha" unicode="&#x391;" horiz-adv-x="632" 
d="M13 0l251 705h101l254 -705h-87l-81 224h-271l-79 -224h-88zM205 300h219l-109 318z" />
    <glyph glyph-name="Beta" unicode="&#x392;" horiz-adv-x="609" 
d="M183 410l127.997 -0.000976562c32.667 0 60.334 7.5 83.001 22.5s36.667 33.333 42 55s5.33301 43.334 0 65.001s-19.166 40 -41.499 55s-50.166 22.5 -83.499 22.5h-128v-220zM310.997 332.999l-128.001 0.00292969v-257h128c29.333 0 55.5 4.66699 78.5 14
s40.333 21.666 52 36.999s20.334 32 26.001 50s5.66699 36.167 0 54.5s-14.5 35.166 -26.5 50.499s-29.333 27.666 -52 36.999s-48.667 14 -78 14zM516.996 519.002c0 -57.333 -27 -104.666 -81 -141.999c38 -18.667 66.5 -43.667 85.5 -75s28.167 -65 27.5 -101
c0 -66.667 -22.5 -116.834 -67.5 -150.501s-102.167 -50.5 -171.5 -50.5h-209v704h210c58 0 106.833 -16.833 146.5 -50.5s59.5 -78.5 59.5 -134.5z" />
    <glyph glyph-name="Gamma" unicode="&#x393;" horiz-adv-x="518" 
d="M473 700v-71h-291v-629h-80v700h371z" />
    <glyph glyph-name="Delta" unicode="&#x394;" horiz-adv-x="632" 
d="M619 0h-606l251 705h101zM315 618l-191 -550h384z" />
    <glyph glyph-name="Epsilon" unicode="&#x395;" horiz-adv-x="531" 
d="M462 704v-77h-292v-237h288v-77h-288l-1 -234h293v-78h-375v703h375z" />
    <glyph glyph-name="Zeta" unicode="&#x396;" horiz-adv-x="568" 
d="M58 0v80l273 406l103 145h-364v74h445v-76l-262 -392l-116 -162h378v-75h-457z" />
    <glyph glyph-name="Eta" unicode="&#x397;" horiz-adv-x="688" 
d="M505 0v312h-321v-312h-83v703h83v-317h321v317h83v-703h-83z" />
    <glyph glyph-name="Theta" unicode="&#x398;" 
d="M410 714c98 0 182 -36 252 -108s105 -157.667 105 -257s-35 -184.666 -105 -255.999s-154 -107 -252 -107s-182 35.667 -252 107s-105 156.666 -105 255.999s35 185 105 257s154 108 252 108zM136 349c0 -89.333 27.166 -159.5 81.499 -210.5s118.5 -76.5 192.5 -76.5
s138.167 25.5 192.5 76.5s81.5 121.167 81.5 210.5s-27.5 160 -82.5 212s-119.167 77.667 -192.5 77s-137.166 -27 -191.499 -79s-81.5 -122 -81.5 -210zM202.999 314v71h409v-71h-409z" />
    <glyph glyph-name="Iota" unicode="&#x399;" horiz-adv-x="284" 
d="M101 0v703h82v-703h-82z" />
    <glyph glyph-name="Kappa" unicode="&#x39a;" horiz-adv-x="630" 
d="M101 705h83v-348l321 348h91l-281 -316l292 -389h-97l-250 335l-76 -76v-259h-83v705z" />
    <glyph glyph-name="Lambda" unicode="&#x39b;" horiz-adv-x="627" 
d="M262 705h101l253 -706h-89l-215 620l-214 -620h-87z" />
    <glyph glyph-name="Mu" unicode="&#x39c;" horiz-adv-x="851" 
d="M462 95h-71l-210 462v-557h-80v704h105l220 -502l219 502h106v-704h-83v552z" />
    <glyph glyph-name="Nu" unicode="&#x39d;" horiz-adv-x="757" 
d="M658 700v-700h-116l-359 586v-586h-82v700h99l376 -610v610h82z" />
    <glyph glyph-name="Xi" unicode="&#x39e;" horiz-adv-x="530" 
d="M37 74h462v-74h-462v74zM493 627h-450v73h450v-73zM78 319v69h377v-69h-377z" />
    <glyph glyph-name="Omicron" unicode="&#x39f;" 
d="M410 714c98 0 182 -36 252 -108s105 -157.667 105 -257s-35 -184.666 -105 -255.999s-154 -107 -252 -107s-182 35.667 -252 107s-105 156.666 -105 255.999s35 185 105 257s154 108 252 108zM136 349c0 -89.333 27.166 -159.5 81.499 -210.5s118.5 -76.5 192.5 -76.5
s138.167 25.5 192.5 76.5s81.5 121.167 81.5 210.5s-27.5 160 -82.5 212s-119.167 77.667 -192.5 77s-137.166 -27 -191.499 -79s-81.5 -122 -81.5 -210z" />
    <glyph glyph-name="Pi" unicode="&#x3a0;" horiz-adv-x="658" 
d="M557 0h-78v633h-297v-633h-80v700h455v-700z" />
    <glyph glyph-name="Rho" unicode="&#x3a1;" horiz-adv-x="583" 
d="M183 256v-256h-82v703h210c74 0 131.833 -22.5 173.5 -67.5s62.5 -97.833 62.5 -158.5s-20.667 -112.667 -62 -156s-99 -65 -173 -65h-129zM311 332c48.667 0 86.5 14.501 113.5 43.501s40.5 62.833 40.5 101.5c0 39.333 -13.667 74.166 -41 104.499s-65 45.5 -113 45.5
h-128v-295h128z" />
    <glyph glyph-name="Sigma" unicode="&#x3a3;" horiz-adv-x="546" 
d="M329 374v-29l-187 -275h367v-70h-437l-36 44l211 315l-202 297l31 44h426v-67h-356z" />
    <glyph glyph-name="Tau" unicode="&#x3a4;" horiz-adv-x="451" 
d="M10 702h431v-80h-174v-622h-83v622h-174v80z" />
    <glyph glyph-name="Upsilon" unicode="&#x3a5;" horiz-adv-x="589" 
d="M574 705l-240 -426v-279h-81v279l-115.5 206.5l-123.5 219.5h94l186 -339l81.5 148l103.5 191h95z" />
    <glyph glyph-name="Phi" unicode="&#x3a6;" horiz-adv-x="818" 
d="M361 639l-0.000976562 64.002h79v-64c49.333 -0.666992 93.833 -9.33398 133.5 -26.001s71.667 -38.334 96 -65.001s43.166 -57.167 56.499 -91.5s19.833 -69.333 19.5 -105s-7.16602 -70.5 -20.499 -104.5s-32.166 -64.5 -56.499 -91.5s-56.333 -49 -96 -66
s-83.834 -25.833 -132.501 -26.5v-66h-79v66c-50 0.666992 -95 9.33398 -135 26.001s-72.5 38.5 -97.5 65.5s-44.167 57.667 -57.5 92s-20 69.166 -20 104.499s6.83301 70.166 20.5 104.499s32.834 65 57.501 92s57 48.833 97 65.5s85 25.334 135 26.001zM439.999 572.002
v-443.001c48 1.33301 89.667 13 125 35s60.833 49.167 76.5 81.5s23.5 67.333 23.5 105s-8 72.834 -24 105.501s-41.5 60 -76.5 82s-76.5 33.333 -124.5 34zM131.999 352.001c0 -58 20.667 -109.667 62 -155s97 -68 167 -68v443c-71.333 0 -127.333 -22.167 -168 -66.5
s-61 -95.5 -61 -153.5z" />
    <glyph glyph-name="Chi" unicode="&#x3a7;" horiz-adv-x="643" 
d="M615 700l-239 -350l120 -174l120 -175h-100l-189 281l-189 -281h-101l241 349l-239 350h99l189 -277l189 277h99z" />
    <glyph glyph-name="Psi" unicode="&#x3a8;" horiz-adv-x="749" 
d="M338 213v487.002h81v-487c68.667 6 119.667 28.833 153 68.5s50.333 89.834 51 150.501v268h80v-268c0 -36.667 -5.33301 -71.334 -16 -104.001s-26.667 -62.834 -48 -90.501s-50.833 -50 -88.5 -67s-81.5 -26.5 -131.5 -28.5v-142h-81v142
c-65.333 4 -120 20.5 -164 49.5s-75 63.833 -93 104.5s-27.333 85.667 -28 135v269h80v-268c0.666992 -58 18 -107.333 52 -148s85 -64.334 153 -71.001z" />
    <glyph glyph-name="Omega" unicode="&#x3a9;" horiz-adv-x="810" 
d="M405 637c-80.667 0 -147.168 -26.835 -199.501 -80.502s-78.5 -120.5 -78.5 -200.5c0 -70.667 18 -130.5 54 -179.5s85.667 -86.167 149 -111.5l-17 -65h-284v67h183c-50 20.667 -89.667 58 -119 112s-44 113 -44 177c0 102.667 33.333 187.5 100 254.5
s152 100.5 256 100.5c104.667 0 190 -33.5 256 -100.5s99 -151.833 99 -254.5c0 -61.333 -15.5 -120.166 -46.5 -176.499s-69.5 -94.166 -115.5 -113.499h184v-66h-278l-13 66c62.667 29.333 110.334 67 143.001 113s49 105 49 177c0 80 -26.167 146.833 -78.5 200.5
s-118.833 80.5 -199.5 80.5z" />
    <glyph glyph-name="Iotadieresis" unicode="&#x3aa;" horiz-adv-x="284" 
d="M101 0v703h82v-703h-82zM102 747h-90v83h90v-83zM275 747h-90v83h90v-83z" />
    <glyph glyph-name="Upsilondieresis" unicode="&#x3ab;" horiz-adv-x="589" 
d="M574 705l-240 -426v-279h-81v279l-115.5 206.5l-123.5 219.5h94l186 -339l81.5 148l103.5 191h95zM257 751h-87v81h87v-81zM424 751h-87v81h87v-81z" />
    <glyph glyph-name="alphatonos" unicode="&#x3ac;" horiz-adv-x="575" 
d="M303 513c23.333 -0.666992 46.168 -6.5 68.501 -17.5s38.833 -25.5 49.5 -43.5l12 55h61v-507h-60l-12 58c-28.667 -42.667 -72.334 -64 -131.001 -64c-70 0 -128.167 24 -174.5 72s-69.5 109.667 -69.5 185c0 81.333 22.833 146 68.5 194s108.167 70.667 187.5 68z
M286.002 66c32.667 -2 59.501 2.50195 80.501 13.502s38.833 29.5 53.5 55.5l-1 252c-36.667 35.333 -77.334 53.666 -122.001 54.999c-48 1.33301 -89 -14.334 -123 -47.001s-51 -79.667 -51 -141c0 -54.667 14 -99 42 -133s68.333 -52.333 121 -55zM398.003 694.002
l-84 -115h-60l59 115h85z" />
    <glyph glyph-name="epsilontonos" unicode="&#x3ad;" horiz-adv-x="460" 
d="M61 371c0 46.667 19.335 82.1689 58.002 106.502s82.334 36.5 131.001 36.5c56.667 1.33301 113 -19.334 169 -62.001l-37 -54c-41.333 28 -85.333 42 -132 42c-28.667 -0.666992 -54.334 -6.5 -77.001 -17.5s-34.334 -28.167 -35.001 -51.5
c-0.666992 -28.667 12.333 -48.667 39 -60s59 -17 97 -17h49v-63h-46c-95.333 0 -147 -27 -155 -81c0.666992 -26.667 13 -47.5 37 -62.5s52.333 -22.167 85 -21.5c50.667 0 99.667 16.333 147 49l42 -55c-62 -44.667 -125.333 -67 -190 -67
c-55.333 0 -102.833 13.167 -142.5 39.5s-58.5 66.166 -56.5 119.499c1.33301 25.333 9.66602 47.666 24.999 66.999s37 34 65 44c-24.667 8 -43 22.333 -55 43s-18 42.334 -18 65.001zM351.002 694.002l-84 -115h-60l59 115h85z" />
    <glyph glyph-name="etatonos" unicode="&#x3ae;" horiz-adv-x="616" 
d="M81 507l66.001 -0.00195312l10 -47c32 35.333 76.333 53.333 133 54c72 -1.33301 131.833 -22.166 179.5 -62.499s71.5 -96.166 71.5 -167.499v-284h-78v284c-0.666992 46.667 -17.334 84 -50.001 112s-72.667 43.667 -120 47c-53.333 2.66699 -98.333 -14 -135 -50v-393
h-77v507zM399.001 695.998l-84 -115h-60l59 115h85z" />
    <glyph glyph-name="iotatonos" unicode="&#x3af;" horiz-adv-x="244" 
d="M220 66v-67c-50 0.666992 -86 8.16699 -108 22.5s-33 45.5 -33 93.5v392h79v-392c0 -18.667 4.33301 -31.5 13 -38.5s25 -10.5 49 -10.5zM221 694l-84 -115h-60l59 115h85z" />
    <glyph glyph-name="upsilondieresistonos" unicode="&#x3b0;" horiz-adv-x="590" 
d="M291 65c40.667 0 74.165 12.6709 100.498 38.0039s39.5 60.666 39.5 105.999v298h77v-298c0.666992 -64.667 -19.333 -116.834 -60 -156.501s-93 -59.5 -157 -59.5c-61.333 0 -111.666 20.167 -150.999 60.5s-58.666 92.166 -57.999 155.499v298h77v-298
c0 -44.667 12.5 -79.834 37.5 -105.501s56.5 -38.5 94.5 -38.5zM361.998 697.004l-74 -108h-56l49 108h81zM215.998 612.004h-77v85h77v-85zM458.998 612.004h-77v85h77v-85z" />
    <glyph glyph-name="alpha" unicode="&#x3b1;" horiz-adv-x="575" 
d="M297 513c24.667 -0.666992 49.001 -6.16797 73.001 -16.501s41 -25.166 51 -44.499l12 55h61v-507h-60l-12 58c-28.667 -42.667 -72.334 -64 -131.001 -64c-70 0 -128.167 24 -174.5 72s-69.5 109.667 -69.5 185c0 77.333 22.167 141 66.5 191s105.5 73.667 183.5 71z
M286.001 62.999c32.667 -2 59.5 2.83203 80.5 14.499s38.833 30.834 53.5 57.501l-1 252c-26 36.667 -66.667 55.667 -122 57c-48 1.33301 -89.167 -14.5 -123.5 -47.5s-51.5 -80.167 -51.5 -141.5c0 -55.333 14.333 -100.5 43 -135.5s69 -53.833 121 -56.5z" />
    <glyph glyph-name="beta" unicode="&#x3b2;" horiz-adv-x="580" 
d="M160 525l0.000976562 -447.997v-273h-81v721c0 55.333 20.167 99.833 60.5 133.5s88.166 50.5 143.499 50.5s102.5 -16.333 141.5 -49s58.5 -76.334 58.5 -131.001c0 -28 -7.16699 -55.333 -21.5 -82s-34.833 -48.334 -61.5 -65.001
c38.667 -14.667 69.667 -38.834 93 -72.501s34.666 -69.834 33.999 -108.501c0.666992 -44 -8.66602 -82.167 -27.999 -114.5s-45 -55.666 -77 -69.999s-68.167 -22.833 -108.5 -25.5s-80.5 3.66602 -120.5 18.999v76c24 -13.333 56 -20.666 96 -21.999
c42 -0.666992 76.833 8.33301 104.5 27s44.334 41.667 50.001 69s5 54.833 -2 82.5s-24.333 51.167 -52 70.5s-61.167 29 -100.5 29h-59v69h59c36.667 0 65.667 12.5 87 37.5s31 52.5 29 82.5c-2.66699 31.333 -15.834 56.666 -39.501 75.999s-51.5 29 -83.5 29
c-32.667 0 -61.167 -9.66699 -85.5 -29s-36.5 -46.666 -36.5 -81.999z" />
    <glyph glyph-name="gamma" unicode="&#x3b3;" horiz-adv-x="487" 
d="M16 437v69.999c41.333 1.33301 70.833 -3.16699 88.5 -13.5s32.5 -32.166 44.5 -65.499l108 -327l137 406h79l-180 -496l2 -205h-76l2 205l-147 397v-1c-4.66699 10.667 -11 18.5 -19 23.5s-21 7.16699 -39 6.5z" />
    <glyph glyph-name="delta" unicode="&#x3b4;" horiz-adv-x="599" 
d="M557 238c0 -40 -7.00195 -74.0029 -21.002 -102.003c-22.667 -44.667 -54.5 -79.5 -95.5 -104.5s-87.5 -37.5 -139.5 -37.5c-35.333 0.666992 -67.666 6.33398 -96.999 17.001h1c-49.333 19.333 -88.333 48 -117 86s-43 85 -43 141c0 46.667 14.833 89.5 44.5 128.5
s70.5 65.167 122.5 78.5c-34.667 7.33301 -61.5 21.833 -80.5 43.5s-28.5 44.5 -28.5 68.5c0 35.333 11.667 64.833 35 88.5s50 39.834 80 48.501s61.333 12.667 94 12c62.667 -1.33301 123.334 -18.666 182.001 -51.999l-39 -52c-16.667 10.667 -40 19.334 -70 26.001
s-60.333 10.167 -91 10.5s-57.167 -6.33398 -79.5 -20.001s-33.5 -34.167 -33.5 -61.5c0 -41.333 43.667 -66.333 131 -75c63.333 -6 118 -29.667 164 -71c54 -48 81 -105.667 81 -173zM479.998 237.997c0 46.667 -17 87.332 -51 121.999s-76.667 52 -128 52
c-48.667 0 -90.5 -16.667 -125.5 -50s-52.5 -74.666 -52.5 -123.999c0 -50 16.5 -91.5 49.5 -124.5s75.833 -49.5 128.5 -49.5c54.667 0 98.167 16 130.5 48s48.5 74 48.5 126z" />
    <glyph glyph-name="epsilon" unicode="&#x3b5;" horiz-adv-x="450" 
d="M382 107l36 -56.999c-57.333 -38 -115.666 -57 -174.999 -57c-55.333 0 -102.833 13.167 -142.5 39.5s-58.5 66.166 -56.5 119.499c1.33301 25.333 9.66602 47.666 24.999 66.999s37 34 65 44c-24.667 8 -43 22.333 -55 43s-18 42.334 -18 65.001
c0 46.667 19.333 82.167 58 106.5s82.334 36.5 131.001 36.5c50 1.33301 101 -15.667 153 -51l-33 -55c-20.667 18 -49.334 29.667 -86.001 35s-70 1.83301 -100 -10.5s-45.333 -32.833 -46 -61.5s12.333 -48.667 39 -60s59 -17 97 -17h49v-63h-46
c-21.333 0 -39.5 -0.833008 -54.5 -2.5s-31 -5.16699 -48 -10.5s-30 -14 -39 -26s-13.5 -27 -13.5 -45c0 -19.333 4 -35 12 -47s19.167 -20.333 33.5 -25s27 -7.5 38 -8.5s24.167 -1.5 39.5 -1.5c46 0 91.667 14 137 42z" />
    <glyph glyph-name="zeta" unicode="&#x3b6;" horiz-adv-x="449" 
d="M448 700l-0.00195312 -55.001l-79.5 -71.5c-21.667 -20.333 -49.667 -48.333 -84 -84s-62.166 -68.167 -83.499 -97.5s-40.166 -62 -56.499 -98s-24.5 -69 -24.5 -99c0 -42.667 21.667 -74.667 65 -96c30 -15.333 80.667 -34.333 152 -57
c27.333 -8.66699 48.333 -24.667 63 -48s18.667 -48.333 12 -75c-4 -16 -25 -52.667 -63 -110l-59 36c28.667 40.667 44 70 46 88c1.33301 9.33301 -0.666992 17.833 -6 25.5s-13 13.167 -23 16.5c-27.333 11.333 -47.666 19 -60.999 23c-50 15.333 -86.333 29.333 -109 42
h1c-63.333 36.667 -95 87.334 -95 152.001c0 46.667 16.5 98.834 49.5 156.501s71.167 109.667 114.5 156s90.666 90.166 141.999 131.499h-290v64h389z" />
    <glyph glyph-name="eta" unicode="&#x3b7;" horiz-adv-x="616" 
d="M81 507l66.001 -0.00195312l10 -47c32 35.333 76.333 53.333 133 54c72 -1.33301 131.833 -22.166 179.5 -62.499s71.5 -96.166 71.5 -167.499v-284h-78v284c-0.666992 46.667 -17.334 84 -50.001 112s-72.667 43.667 -120 47c-53.333 2.66699 -98.333 -14 -135 -50v-393
h-77v507z" />
    <glyph glyph-name="theta" unicode="&#x3b8;" horiz-adv-x="610" 
d="M561 347c0 -49.333 -6.33301 -97.666 -19 -144.999c-25.333 -86 -71 -147 -137 -183c-66.667 -36.667 -133.667 -36.334 -201 0.999023c-63.333 36.667 -108 98.334 -134 185.001v-1c-14 40 -21 87.667 -21 143c0 95.333 25 180.333 75 255
c23.333 32.667 50 57.667 80 75c32.667 17.333 66.334 26 101.001 26c36 0 69.333 -8.66699 100 -26c53.333 -30.667 92.666 -75.834 117.999 -135.501s38 -124.5 38 -194.5zM484 333l-356 -0.000976562c-0.666992 -28 2.16602 -57 8.49902 -87s16.333 -58.667 30 -86
s32.5 -49.833 56.5 -67.5s51.333 -26.5 82 -26.5c41.333 0 75.833 13.833 103.5 41.5s46.834 60.334 57.501 98.001s16.667 80.167 18 127.5zM130 398.999l352.001 -0.00195312c-2 34 -9.33301 68.167 -22 102.5s-32.667 65 -60 92s-59 40.5 -95 40.5
c-34.667 0 -65.334 -13.167 -92.001 -39.5s-46.5 -56.666 -59.5 -90.999s-20.833 -69.166 -23.5 -104.499z" />
    <glyph glyph-name="iota" unicode="&#x3b9;" horiz-adv-x="256" 
d="M220 66v-67c-50 0.666992 -86 8.16699 -108 22.5s-33 45.5 -33 93.5v392h79v-392c0 -18.667 4.33301 -31.5 13 -38.5s25 -10.5 49 -10.5z" />
    <glyph glyph-name="kappa" unicode="&#x3ba;" horiz-adv-x="518" 
d="M81 507h76v-241l239 242h94l-223 -222l231 -286h-91l-190 234l-60 -54v-180h-76v507z" />
    <glyph glyph-name="lambda" unicode="&#x3bb;" horiz-adv-x="506" 
d="M89 632l-0.00195312 68.001h34c58.667 2 97.334 -24 116.001 -78l197 -522c0.666992 -1.33301 1.83398 -4 3.50098 -8s2.66699 -6.5 3 -7.5s1.16602 -3 2.49902 -6s2.5 -4.83301 3.5 -5.5s2.33301 -2 4 -4s3.33398 -3.16699 5.00098 -3.5s3.66699 -1.16602 6 -2.49902
s5 -2 8 -2s6.16699 -0.166992 9.5 -0.5s7.33301 -0.5 12 -0.5v-60c-40 -0.666992 -68.167 4.16602 -84.5 14.499s-29.833 31.166 -40.5 62.499l-118 315l-88.5 -221.5l-66.5 -170.5h-83l198 481l-37 116c-13.333 26 -41.333 37.667 -84 35z" />
    <glyph glyph-name="nu" unicode="&#x3bd;" horiz-adv-x="484" 
d="M100 509l120.001 -338c7.33301 -18.667 14.666 -50.667 21.999 -96h6c6 43.333 13 75.333 21 96l119 338h84l-181 -511h-94l-181 511h84z" />
    <glyph glyph-name="xi" unicode="&#x3be;" horiz-adv-x="446" 
d="M310 -31l-35 12.002c-27.333 9.33301 -49.333 17.333 -66 24s-36.667 16.5 -60 29.5s-41.666 26.5 -54.999 40.5s-24.833 32 -34.5 54s-14.5 46 -14.5 72c0 34.667 9.16699 67.334 27.5 98.001s46.5 54 84.5 70c-31.333 11.333 -55 30.5 -71 57.5s-24 55.167 -24 84.5
c0.666992 56.667 20.5 103.667 59.5 141s89.167 56 150.5 56c51.333 0 103.333 -17 156 -51l-39 -48c-35.333 22 -74 33 -116 33c-40 0 -72.5 -12.167 -97.5 -36.5s-37.167 -55.833 -36.5 -94.5c1.33301 -30 13.333 -55.333 36 -76s50 -31.334 82 -32.001h106v-64h-106
c-40 -0.666992 -72.833 -13.834 -98.5 -39.501s-38.5 -57.5 -38.5 -95.5c0 -23.333 5.66699 -44 17 -62s28 -33.5 50 -46.5s42.5 -23.333 61.5 -31s42.833 -15.834 71.5 -24.501c15.333 -5.33301 27.333 -10 36 -14s18.5 -9.5 29.5 -16.5s19.167 -15.333 24.5 -25
s8 -20.5 8 -32.5c0 -15.333 -4.16699 -31.833 -12.5 -49.5s-16 -31.167 -23 -40.5s-18.167 -23.333 -33.5 -42l-52 36l12.5 15c5.66699 6.66699 9.66699 11.5 12 14.5s5.5 7.33301 9.5 13s6.66699 10 8 13s2.66602 7 3.99902 12s1.33301 9.16699 0 12.5s-3 7 -5 11
s-5.5 7.83301 -10.5 11.5s-10.833 7.16699 -17.5 10.5z" />
    <glyph glyph-name="omicron" unicode="&#x3bf;" horiz-adv-x="605" 
d="M123 253c0 -62.667 17.5 -111 52.5 -145s77.167 -51 126.5 -51c50 0 92.5 17 127.5 51s52.5 82.333 52.5 145c0 62 -17.5 109.833 -52.5 143.5s-77.5 50.5 -127.5 50.5c-49.333 0 -91.5 -16.833 -126.5 -50.5s-52.5 -81.5 -52.5 -143.5zM560 253
c0 -75.333 -24.167 -138.335 -72.5 -189.002s-110.166 -76 -185.499 -76s-137 25.333 -185 76s-72 113.667 -72 189c0 74.667 24 137.334 72 188.001s109.667 76 185 76s137.166 -25.167 185.499 -75.5s72.5 -113.166 72.5 -188.499z" />
    <glyph glyph-name="pi" unicode="&#x3c0;" horiz-adv-x="574" 
d="M82 507h410v-507h-79v441h-253v-441h-78v507z" />
    <glyph glyph-name="rho" unicode="&#x3c1;" horiz-adv-x="611" 
d="M318 -5c-36.667 1.33301 -67.6709 8.5 -93.0039 21.5s-49.333 39.167 -72 78.5l1 -290h-75v454c1.33301 68.667 22.833 128.334 64.5 179.001s99.834 76.334 174.501 77.001c74.667 -0.666992 132.834 -25.834 174.501 -75.501s62.834 -109.834 63.501 -180.501
c1.33301 -73.333 -18.667 -135.5 -60 -186.5s-100.666 -76.833 -177.999 -77.5zM323.996 444l-14.999 0.000976562c-46 0 -83.667 -20.833 -113 -62.5s-43 -85.5 -41 -131.5v-4c0.666992 -45.333 16 -86.5 46 -123.5s70.667 -55.5 122 -55.5c45.333 0 82.5 17.5 111.5 52.5
s43.833 77.167 44.5 126.5c1.33301 53.333 -11.834 99.666 -39.501 138.999s-66.167 59 -115.5 59z" />
    <glyph glyph-name="sigma1" unicode="&#x3c2;" horiz-adv-x="526" 
d="M481 449l-42.999 -52.999c-36.667 34.667 -81.667 52 -135 52c-48 0.666992 -89.833 -17.333 -125.5 -54s-53.834 -84 -54.501 -142c0 -50.667 16 -95 48 -133s76.333 -57 133 -57c51.333 0 97.333 18.667 138 56l44 -53c-50 -48.667 -110.667 -73 -182 -73
c-81.333 0 -144.833 25.833 -190.5 77.5s-68.5 113.167 -68.5 184.5c0.666992 71.333 24 133.166 70 185.499s109 78.833 189 79.5c70.667 0 129.667 -23.333 177 -70z" />
    <glyph glyph-name="sigma" unicode="&#x3c3;" horiz-adv-x="617" 
d="M563 254c0 -77.333 -24 -140.834 -72 -190.501s-110 -74.5 -186 -74.5c-76.667 0 -139.5 24.667 -188.5 74s-73.5 113 -73.5 191c0 74.667 24.833 136.834 74.5 186.501s112.167 74.5 187.5 74.5h291v-62h-146c40 -18 68.833 -45 86.5 -81s26.5 -75.333 26.5 -118z
M121 253.999c0 -42 9 -78.335 27 -109.002s40.5 -53 67.5 -67s56.167 -21 87.5 -21s60.5 6.83301 87.5 20.5s49.5 36 67.5 67s27 67.5 27 109.5c0 40.667 -9 75.834 -27 105.501s-40.5 51.334 -67.5 65.001s-56.167 20.5 -87.5 20.5s-60.5 -6.66699 -87.5 -20
s-49.5 -35 -67.5 -65s-27 -65.333 -27 -106z" />
    <glyph glyph-name="tau" unicode="&#x3c4;" horiz-adv-x="351" 
d="M302 62l0.000976562 -63c-56.667 -1.33301 -99.334 8.83398 -128.001 30.501s-44 57.5 -46 107.5v310h-107v60h309v-60h-123v-310c0 -26 7.66699 -44.833 23 -56.5s39.333 -17.834 72 -18.501z" />
    <glyph glyph-name="upsilon" unicode="&#x3c5;" horiz-adv-x="590" 
d="M291 65c40.667 0 74.165 12.6709 100.498 38.0039s39.5 60.666 39.5 105.999v298h77v-298c0.666992 -64.667 -19.333 -116.834 -60 -156.501s-93 -59.5 -157 -59.5c-61.333 0 -111.666 20.167 -150.999 60.5s-58.666 92.166 -57.999 155.499v298h77v-298
c0 -44.667 12.5 -79.834 37.5 -105.501s56.5 -38.5 94.5 -38.5z" />
    <glyph glyph-name="phi" unicode="&#x3c6;" horiz-adv-x="673" 
d="M124 254c0 -52.667 16.499 -97.667 49.499 -135s74.833 -58 125.5 -62v456c210 4.66699 319.333 -81.666 328 -258.999c-1.33301 -100.667 -40.666 -174.667 -117.999 -222c-32 -19.333 -76.333 -32 -133 -38v-172h-77v171c-74 2 -134.5 27.667 -181.5 77
s-70.5 110.666 -70.5 183.999c0 103.333 53.333 185 160 245l34 -54c-78 -46 -117 -109.667 -117 -191zM375.999 444v-385.999c54 4 96.333 23 127 57s46 80.333 46 139c0 54.667 -15.5 99.167 -46.5 133.5s-73.167 53.166 -126.5 56.499z" />
    <glyph glyph-name="chi" unicode="&#x3c7;" horiz-adv-x="503" 
d="M255 306l133 202h95l-178 -255l180 -254h-88l-142 206l-141 -206h-89l179 254l-177 255h95z" />
    <glyph glyph-name="psi" unicode="&#x3c8;" horiz-adv-x="723" 
d="M323 60l0.00195312 461.997h75v-462c51.333 2 93.666 21.667 126.999 59s49.666 82 48.999 134v254h76v-253c-1.33301 -100 -40 -173.667 -116 -221c-28 -18.667 -73.333 -31 -136 -37v-182h-75v182c-60 6 -104.667 18.333 -134 37
c-39.333 23.333 -68.833 54.333 -88.5 93s-29.5 81.334 -29.5 128.001v253h77v-253c-0.666992 -53.333 15.333 -98.666 48 -135.999s75 -56.666 127 -57.999z" />
    <glyph glyph-name="omega" unicode="&#x3c9;" horiz-adv-x="760" 
d="M509 452l15.998 61.9961c61.333 -10 107.333 -39.667 138 -89s46 -106 46 -170c0 -69.333 -17 -129.833 -51 -181.5s-81.667 -77.834 -143 -78.501c-14.667 0 -29.334 1.66699 -44.001 5c-20 6 -38.333 17.333 -55 34s-29 37.334 -37 62.001
c-7.33301 -25.333 -19.666 -46.333 -36.999 -63s-36 -27.667 -56 -33c-13.333 -3.33301 -27.666 -5 -42.999 -5c-61.333 0.666992 -108.666 26.334 -141.999 77.001s-50 111.667 -50 183c0 65.333 15.5 121.666 46.5 168.999s76.167 77.333 135.5 90l15 -63
c-30 -6.66699 -54.667 -21.5 -74 -44.5s-32.166 -47 -38.499 -72s-9.5 -52.167 -9.5 -81.5c0 -52.667 10.167 -96.5 30.5 -131.5s49.166 -52.833 86.499 -53.5c30.667 0 55.167 11.333 73.5 34s27.5 49.667 27.5 81v196h71v-196c2 -34 11.333 -61.5 28 -82.5
s41 -31.5 73 -31.5h-1c38 0.666992 67.167 18.334 87.5 53.001s30.5 78.334 30.5 131.001c0 29.333 -3.5 56.833 -10.5 82.5s-20.167 49.834 -39.5 72.501s-44 37.334 -74 44.001zM4.99805 160.996v1v-1z" />
    <glyph glyph-name="iotadieresis" unicode="&#x3ca;" horiz-adv-x="244" 
d="M220 -1v67c-24 0 -40.333 3.5 -49 10.5s-13 19.833 -13 38.5v392h-79v-392c0 -48 11 -79.167 33 -93.5s58 -21.833 108 -22.5zM84 623h-81v71h81v-71zM239 623h-81v71h81v-71z" />
    <glyph glyph-name="upsilondieresis" unicode="&#x3cb;" horiz-adv-x="590" 
d="M291 65c-38 0 -69.498 12.8291 -94.498 38.4961s-37.5 60.834 -37.5 105.501v298h-77v-298c-0.666992 -63.333 18.666 -115.166 57.999 -155.499s89.666 -60.5 150.999 -60.5c64 0 116.333 19.833 157 59.5s60.667 91.834 60 156.501v298h-77v-298
c0 -45.333 -13.167 -80.666 -39.5 -105.999s-59.833 -38 -100.5 -38zM263.002 622.996h-81v71h81v-71zM418.002 622.996h-81v71h81v-71z" />
    <glyph glyph-name="omicrontonos" unicode="&#x3cc;" horiz-adv-x="605" 
d="M123 253c0 -62.667 17.5 -111 52.5 -145s77.167 -51 126.5 -51c50 0 92.5 17 127.5 51s52.5 82.333 52.5 145c0 62 -17.5 109.833 -52.5 143.5s-77.5 50.5 -127.5 50.5c-49.333 0 -91.5 -16.833 -126.5 -50.5s-52.5 -81.5 -52.5 -143.5zM560 253
c0 -75.333 -24.167 -138.335 -72.5 -189.002s-110.166 -76 -185.499 -76s-137 25.333 -185 76s-72 113.667 -72 189c0 74.667 24 137.334 72 188.001s109.667 76 185 76s137.166 -25.167 185.499 -75.5s72.5 -113.166 72.5 -188.499zM414 693.998l-75 -112h-67l59 112h83z
" />
    <glyph glyph-name="upsilontonos" unicode="&#x3cd;" horiz-adv-x="590" 
d="M291 65c40.667 0 74.165 12.6709 100.498 38.0039s39.5 60.666 39.5 105.999v298h77v-298c0.666992 -64.667 -19.333 -116.834 -60 -156.501s-93 -59.5 -157 -59.5c-61.333 0 -111.666 20.167 -150.999 60.5s-58.666 92.166 -57.999 155.499v298h77v-298
c0 -44.667 12.5 -79.834 37.5 -105.501s56.5 -38.5 94.5 -38.5zM403.998 693.004l-82 -112h-65l63 112h84z" />
    <glyph glyph-name="omegatonos" unicode="&#x3ce;" horiz-adv-x="760" 
d="M509 452l15.998 61.9961c61.333 -10 107.333 -39.667 138 -89s46 -106 46 -170c0 -69.333 -17 -129.833 -51 -181.5s-81.667 -77.834 -143 -78.501c-14.667 0 -29.334 1.66699 -44.001 5c-20 6 -38.333 17.333 -55 34s-29 37.334 -37 62.001
c-7.33301 -25.333 -19.666 -46.333 -36.999 -63s-36 -27.667 -56 -33c-13.333 -3.33301 -27.666 -5 -42.999 -5c-61.333 0.666992 -108.666 26.334 -141.999 77.001s-50 111.667 -50 183c0 65.333 15.5 121.666 46.5 168.999s76.167 77.333 135.5 90l15 -63
c-30 -6.66699 -54.667 -21.5 -74 -44.5s-32.166 -47 -38.499 -72s-9.5 -52.167 -9.5 -81.5c0 -52.667 10.167 -96.5 30.5 -131.5s49.166 -52.833 86.499 -53.5c30.667 0 55.167 11.333 73.5 34s27.5 49.667 27.5 81v196h71v-196c2 -34 11.333 -61.5 28 -82.5
s41 -31.5 73 -31.5h-1c38 0.666992 67.167 18.334 87.5 53.001s30.5 78.334 30.5 131.001c0 29.333 -3.5 56.833 -10.5 82.5s-20.167 49.834 -39.5 72.501s-44 37.334 -74 44.001zM495.998 695.996l-79 -108h-69l61 108h87z" />
    <glyph glyph-name="afii10023" unicode="&#x401;" horiz-adv-x="532" 
d="M467 701v-74h-292v-237h288v-75h-288l-1 -240h293v-74h-375v700h375zM253 769h-85v75h85v-75zM416 769h-85v75h85v-75z" />
    <glyph glyph-name="afii10051" unicode="&#x402;" horiz-adv-x="675" 
d="M375 -1v63.998c52.667 4.66699 92 17.834 118 39.501s39 59.167 39 112.5v72c2.66699 36 -4.83301 67.333 -22.5 94s-40 45.5 -67 56.5s-56.5 14.5 -88.5 10.5s-60.333 -16.333 -85 -37v-411h-80v635h-175v65h430v-65h-174v-152c28.667 16.667 59.667 27 93 31
s65 1 95 -9s57.167 -24.5 81.5 -43.5s43.166 -43.833 56.499 -74.5s19 -64 17 -100v-72c0.666992 -71.333 -19.666 -124.666 -60.999 -159.999s-100.333 -54 -177 -56z" />
    <glyph glyph-name="afii10052" unicode="&#x403;" horiz-adv-x="517" 
d="M473 700v-71h-291v-629h-80v700h371zM402 862l-84 -115h-60l59 115h85z" />
    <glyph glyph-name="afii10053" unicode="&#x404;" horiz-adv-x="716" 
d="M486 384l0.000976562 -66.002h-350c7.33301 -71.333 36 -131.166 86 -179.499s112.333 -72.5 187 -72.5c38 0 76.167 9.66699 114.5 29s71.5 46 99.5 80l56 -45c-36 -43.333 -77.333 -77.166 -124 -101.499s-95.334 -36.5 -146.001 -36.5
c-106.667 0 -192.5 34.333 -257.5 103s-97.5 152.667 -97.5 252c0 64 13.333 122.833 40 176.5s67.5 97.667 122.5 132s119.167 51.5 192.5 51.5c96.667 0 181.667 -39.333 255 -118l-54 -47c-59.333 61.333 -126.333 92 -201 92c-74 0 -136 -23 -186 -69
s-78.667 -106.333 -86 -181h349z" />
    <glyph glyph-name="afii10054" unicode="&#x405;" horiz-adv-x="560" 
d="M143 526c-1.33301 -20.667 2 -38.666 10 -53.999s20.5 -27.833 37.5 -37.5s31.667 -16.667 44 -21s28.5 -9.16602 48.5 -14.499c24.667 -6 46.167 -12.333 64.5 -19s37.666 -16 57.999 -28s36.833 -25.5 49.5 -40.5s22.834 -34.333 30.501 -58
s10.834 -50.5 9.50098 -80.5c-2.66699 -60 -26.5 -106.167 -71.5 -138.5s-96.833 -48.5 -155.5 -48.5c-47.333 0 -91.833 13.167 -133.5 39.5s-71.5 63.166 -89.5 110.499l65 35c13.333 -33.333 34.5 -60.166 63.5 -80.499s61.167 -30.5 96.5 -30.5
c41.333 -0.666992 75.166 9.66602 101.499 30.999s40.833 50.333 43.5 87c1.33301 24 -2.16699 44.833 -10.5 62.5s-21.5 32 -39.5 43s-34.167 19.333 -48.5 25s-32.5 11.5 -54.5 17.5c-28 7.33301 -52 15.166 -72 23.499s-40.833 20.166 -62.5 35.499
s-38 35.166 -49 59.499s-16.167 52.833 -15.5 85.5c2 60 23.5 106.5 64.5 139.5s89.167 49.5 144.5 49.5c46.667 0 89.167 -12 127.5 -36s65.5 -57.667 81.5 -101l-63 -31c-12 30 -31.5 53.167 -58.5 69.5s-55.5 24.5 -85.5 24.5
c-34.667 0.666992 -64.5 -9.16602 -89.5 -29.499s-38.833 -50.166 -41.5 -89.499z" />
    <glyph glyph-name="afii10055" unicode="&#x406;" horiz-adv-x="284" 
d="M101 0v701h82v-701h-82z" />
    <glyph glyph-name="afii10056" unicode="&#x407;" horiz-adv-x="283" 
d="M101 0v701h82v-701h-82zM102 749h-85v75h85v-75zM265 749h-85v75h85v-75z" />
    <glyph glyph-name="afii10057" unicode="&#x408;" horiz-adv-x="545" 
d="M34 166l76 15.998c6 -30.667 19.167 -56.167 39.5 -76.5s43 -32.666 68 -36.999s49.5 -3.66602 73.5 2.00098s44.167 19.834 60.5 42.501s24.5 50.334 24.5 83.001v426h-132v78h215v-504c0 -42.667 -9.33301 -79.834 -28 -111.501s-42.167 -55.334 -70.5 -71.001
s-59.833 -24.5 -94.5 -26.5s-67.667 3 -99 15s-59.333 32.167 -84 60.5s-41 62.833 -49 103.5z" />
    <glyph glyph-name="afii10058" unicode="&#x409;" horiz-adv-x="904" 
d="M502 700l0.000976562 -282.001h117c71.333 0 127.166 -20.833 167.499 -62.5s60.5 -90.5 60.5 -146.5s-20.167 -104.833 -60.5 -146.5s-96.5 -62.5 -168.5 -62.5h-197v635h-197l-6 -284c-2 -83.333 -6.66699 -141.333 -14 -174c-20.667 -84 -74 -148.667 -160 -194
l-34 60c28.667 18 51.834 36.5 69.501 55.5s30.5 41.333 38.5 67s13.167 48.834 15.5 69.501s4.16602 50 5.49902 88l8 377h355zM618.001 353.999h-116v-290h116c46 0 82.167 14.833 108.5 44.5s39.5 63.5 39.5 101.5s-13.167 71.5 -39.5 100.5s-62.5 43.5 -108.5 43.5z" />
    <glyph glyph-name="afii10059" unicode="&#x40a;" horiz-adv-x="917" 
d="M516 700v-300h118c72 0 127.833 -19.333 167.5 -58s59.5 -85 59.5 -139c0 -54.667 -20 -102.167 -60 -142.5s-96 -60.5 -168 -60.5h-197v331h-255v-331h-81v700h81v-300h255v300h80zM633 331h-117v-267h117c45.333 0 81.5 14.167 108.5 42.5s40.5 60.5 40.5 96.5
c0 34.667 -13.333 64.667 -40 90s-63 38 -109 38z" />
    <glyph glyph-name="afii10060" unicode="&#x40b;" horiz-adv-x="675" 
d="M613 0l-80.999 0.00195312v287c2.66699 35.333 -4.83301 66.166 -22.5 92.499s-40 44.666 -67 54.999s-56.5 13.5 -88.5 9.5s-60.333 -16.333 -85 -37v-407h-80v635h-175v65h430v-65h-174v-152c28.667 16.667 59.667 27 93 31s65 1 95 -9s57.167 -24.5 81.5 -43.5
s43.166 -43.833 56.499 -74.5s19 -64 17 -100v-287z" />
    <glyph glyph-name="afii10061" unicode="&#x40c;" horiz-adv-x="630" 
d="M101 701h83v-344l314 344h98l-281 -312l292 -389h-97l-250 335l-76 -76v-259h-83v701zM442 862l-84 -115h-60l59 115h85z" />
    <glyph glyph-name="afii10062" unicode="&#x40e;" horiz-adv-x="554" 
d="M96 700l189.999 -399l170 399h86l-268 -608c-18.667 -40.667 -39.167 -66.167 -61.5 -76.5s-63.166 -15.5 -122.499 -15.5l-1 67h39c20 0 35.333 4 46 12s21 22 31 42l40 93l-236 486h87zM289.999 743c-35.333 0 -65.167 10 -89.5 30s-36.5 47.667 -36.5 83h61
c0 -18.667 6.66699 -32.834 20 -42.501s28.333 -14.5 45 -14.5c16 0 30.5 4.83301 43.5 14.5s19.5 23.834 19.5 42.501h64c0 -35.333 -12.333 -63 -37 -83s-54.667 -30 -90 -30z" />
    <glyph glyph-name="afii10145" unicode="&#x40f;" horiz-adv-x="658" 
d="M290 -120v120h-189v700h80v-633h295v633h80v-700h-191v-120h-75z" />
    <glyph glyph-name="bgA" unicode="&#x410;" horiz-adv-x="632" 
d="M13 0l251 705h101l254 -705h-87l-81 224h-271l-79 -224h-88zM205 300h219l-109 318z" />
    <glyph glyph-name="afii10018" unicode="&#x411;" horiz-adv-x="587" 
d="M182 632l0.00292969 -201.999h118c33.333 0 63.833 -4.83301 91.5 -14.5s50.334 -22.834 68.001 -39.501s32.667 -35.667 45 -57s19.833 -44 22.5 -68s2.66699 -47.833 0 -71.5s-10.334 -46.167 -23.001 -67.5s-27.834 -40.333 -45.501 -57s-40.334 -30 -68.001 -40
s-57.834 -15 -90.501 -15h-200v700h380v-68h-298zM300.003 358.001l-117.999 0.000976562v-288h118c31.333 0.666992 58.666 8.16699 81.999 22.5s40.333 32.166 51 53.499s16.167 44.333 16.5 69s-4.66699 47.5 -15 68.5s-27.333 38.667 -51 53s-51.5 21.5 -83.5 21.5z" />
    <glyph glyph-name="afii10019" unicode="&#x412;" horiz-adv-x="609" 
d="M183 410l127.997 -0.000976562c32.667 0 60.334 7.5 83.001 22.5s36.667 33.333 42 55s5.33301 43.334 0 65.001s-19.166 40 -41.499 55s-50.166 22.5 -83.499 22.5h-128v-220zM310.997 332.999l-128.001 0.00292969v-257h128c29.333 0 55.5 4.66699 78.5 14
s40.333 21.666 52 36.999s20.334 32 26.001 50s5.66699 36.167 0 54.5s-14.5 35.166 -26.5 50.499s-29.333 27.666 -52 36.999s-48.667 14 -78 14zM516.996 519.002c0 -57.333 -27 -104.666 -81 -141.999c38 -18.667 66.5 -43.667 85.5 -75s28.167 -65 27.5 -101
c0 -66.667 -22.5 -116.834 -67.5 -150.501s-102.167 -50.5 -171.5 -50.5h-209v704h210c58 0 106.833 -16.833 146.5 -50.5s59.5 -78.5 59.5 -134.5z" />
    <glyph glyph-name="afii10020" unicode="&#x413;" horiz-adv-x="518" 
d="M473 700v-71h-291v-629h-80v700h371z" />
    <glyph glyph-name="afii10021" unicode="&#x414;" horiz-adv-x="691" 
d="M580 68l45 -0.00195312v-217h-71v149h-455v-149h-69v207l48 10c17.333 14 31.5 34.833 42.5 62.5s18.167 52.334 21.5 74.001s6.33301 48.834 9 81.501v-1l27 415h402v-632zM161 67.998l340.003 0.000976562v567h-251l-16 -280c-2 -40.667 -3.83301 -71.334 -5.5 -92.001
s-4.83398 -45.5 -9.50098 -74.5s-11.834 -53 -21.501 -72s-21.834 -35.167 -36.501 -48.5z" />
    <glyph glyph-name="afii10022" unicode="&#x415;" horiz-adv-x="531" 
d="M472 702v-75h-292v-240h288v-74h-288l-1 -237h293v-75h-375v701h375z" />
    <glyph glyph-name="afii10024" unicode="&#x416;" horiz-adv-x="851" 
d="M387 700h75v-313l271 313h96l-277 -314l286 -386h-93l-247 336l-36 -41v-295h-75v294l-36 42l-250 -336h-93l290 386l-278 314h97l270 -313v313z" />
    <glyph glyph-name="afii10025" unicode="&#x417;" horiz-adv-x="541" 
d="M26 125l59.002 39.001c22.667 -38 47.5 -64.333 74.5 -79s58.833 -22 95.5 -22c43.333 0 78.666 12.5 105.999 37.5s41 60.5 41 106.5c0 35.333 -13.333 66 -40 92s-57.667 39.333 -93 40h-104v63h104c29.333 0 56.166 11.667 80.499 35s36.5 50.666 36.5 81.999
c-1.33301 36.667 -14 65.667 -38 87s-51.333 33.333 -82 36s-61.5 -3.16602 -92.5 -17.499s-54.167 -35.5 -69.5 -63.5l-54 35c49.333 75.333 117 113 203 113c56.667 0 106.167 -16.667 148.5 -50s63.5 -80 63.5 -140c0 -30.667 -8.5 -60.334 -25.5 -89.001
s-41.833 -48.667 -74.5 -60c38 -10.667 67 -31 87 -61s30 -64.333 30 -103c0 -65.333 -22 -117.833 -66 -157.5s-98 -59.167 -162 -58.5c-105.333 1.33301 -181.333 46.333 -228 135z" />
    <glyph glyph-name="afii10026" unicode="&#x418;" horiz-adv-x="733" 
d="M88 0v700h82v-610l376 610h99v-700h-82v586l-359 -586h-116z" />
    <glyph glyph-name="afii10027" unicode="&#x419;" horiz-adv-x="733" 
d="M88 0v700h82v-610l376 610h99v-700h-82v586l-359 -586h-116zM369 743c-35.333 0 -65.167 10 -89.5 30s-36.5 47.667 -36.5 83h61c0 -18.667 6.66699 -32.834 20 -42.501s28.333 -14.5 45 -14.5c16 0 30.5 4.83301 43.5 14.5s19.5 23.834 19.5 42.501h64
c0 -35.333 -12.333 -63 -37 -83s-54.667 -30 -90 -30z" />
    <glyph glyph-name="afii10028" unicode="&#x41a;" horiz-adv-x="630" 
d="M101 701h83v-344l314 344h98l-281 -312l292 -389h-97l-250 335l-76 -76v-259h-83v701z" />
    <glyph glyph-name="afii10029" unicode="&#x41b;" horiz-adv-x="634" 
d="M134 328l16.002 373.001h383v-701h-79v635h-231l-11 -305c-0.666992 -30.667 -1.83398 -55.834 -3.50098 -75.501s-5.83398 -43.834 -12.501 -72.501s-15.834 -53.167 -27.501 -73.5s-28.5 -41.5 -50.5 -63.5s-48.667 -41.333 -80 -58l-36 59
c24 14.667 44.333 30.834 61 48.501s29.334 34 38.001 49s15.5 34.333 20.5 58s8 43.167 9 58.5s2.16699 38 3.5 68z" />
    <glyph glyph-name="afii10030" unicode="&#x41c;" horiz-adv-x="851" 
d="M462 95h-71l-210 462v-557h-80v704h105l220 -502l219 502h106v-704h-83v552z" />
    <glyph glyph-name="afii10031" unicode="&#x41d;" horiz-adv-x="687" 
d="M505 0v312h-321v-312h-83v703h83v-317h321v317h83v-703h-83z" />
    <glyph glyph-name="afii10032" unicode="&#x41e;" 
d="M410 714c98 0 182 -36 252 -108s105 -157.667 105 -257s-35 -184.666 -105 -255.999s-154 -107 -252 -107s-182 35.667 -252 107s-105 156.666 -105 255.999s35 185 105 257s154 108 252 108zM136 349c0 -89.333 27.166 -159.5 81.499 -210.5s118.5 -76.5 192.5 -76.5
s138.167 25.5 192.5 76.5s81.5 121.167 81.5 210.5s-27.5 160 -82.5 212s-119.167 77.667 -192.5 77s-137.166 -27 -191.499 -79s-81.5 -122 -81.5 -210z" />
    <glyph glyph-name="afii10033" unicode="&#x41f;" horiz-adv-x="658" 
d="M557 0h-80v633h-295v-633h-80v700h455v-700z" />
    <glyph glyph-name="afii10034" unicode="&#x420;" horiz-adv-x="583" 
d="M183 256v-256h-82v703h210c74 0 131.833 -22.5 173.5 -67.5s62.5 -97.833 62.5 -158.5s-20.667 -112.667 -62 -156s-99 -65 -173 -65h-129zM311 332c48.667 0 86.5 14.501 113.5 43.501s40.5 62.833 40.5 101.5c0 39.333 -13.667 74.166 -41 104.499s-65 45.5 -113 45.5
h-128v-295h128z" />
    <glyph glyph-name="afii10035" unicode="&#x421;" horiz-adv-x="729" 
d="M664 607l-53 -54.999c-56.667 58.667 -123.667 87 -201 85c-85.333 -1.33301 -152.333 -30.5 -201 -87.5s-73 -124.167 -73 -201.5c0 -76.667 24.5 -143.167 73.5 -199.5s115.833 -84.5 200.5 -84.5c41.333 0 81.166 9 119.499 27s70.833 42.667 97.5 74l58 -48
c-33.333 -40 -74 -71.5 -122 -94.5s-99 -34.5 -153 -34.5c-74.667 0 -139.667 17.667 -195 53s-96.166 79.666 -122.499 132.999s-39.5 111.333 -39.5 174s13.167 121.167 39.5 175.5s67.333 99.5 123 135.5s120.5 54 194.5 54c100 0 184.667 -35.333 254 -106z" />
    <glyph glyph-name="afii10036" unicode="&#x422;" horiz-adv-x="451" 
d="M10 702h431v-80h-174v-622h-83v622h-174v80z" />
    <glyph glyph-name="afii10037" unicode="&#x423;" horiz-adv-x="553" 
d="M96 700l189.999 -399l170 399h86l-268 -608c-18.667 -40.667 -39.167 -66.167 -61.5 -76.5s-63.166 -15.5 -122.499 -15.5l-1 67h39c20 0 35.333 4 46 12s21 22 31 42l40 93l-236 486h87z" />
    <glyph glyph-name="afii10038" unicode="&#x424;" horiz-adv-x="818" 
d="M361 639l-0.000976562 64.002h79v-64c49.333 -0.666992 93.833 -9.33398 133.5 -26.001s71.667 -38.334 96 -65.001s43.166 -57.167 56.499 -91.5s19.833 -69.333 19.5 -105s-7.16602 -70.5 -20.499 -104.5s-32.166 -64.5 -56.499 -91.5s-56.333 -49 -96 -66
s-83.834 -25.833 -132.501 -26.5v-66h-79v66c-50 0.666992 -95 9.33398 -135 26.001s-72.5 38.5 -97.5 65.5s-44.167 57.667 -57.5 92s-20 69.166 -20 104.499s6.83301 70.166 20.5 104.499s32.834 65 57.501 92s57 48.833 97 65.5s85 25.334 135 26.001zM439.999 572.002
v-443.001c48 1.33301 89.667 13 125 35s60.833 49.167 76.5 81.5s23.5 67.333 23.5 105s-8 72.834 -24 105.501s-41.5 60 -76.5 82s-76.5 33.333 -124.5 34zM131.999 352.001c0 -58 20.667 -109.667 62 -155s97 -68 167 -68v443c-71.333 0 -127.333 -22.167 -168 -66.5
s-61 -95.5 -61 -153.5z" />
    <glyph glyph-name="afii10039" unicode="&#x425;" horiz-adv-x="643" 
d="M615 700l-239 -350l240 -349h-95l-194 289l-195 -289h-95l241 349l-239 350h96l192 -286l193 286h95z" />
    <glyph glyph-name="afii10040" unicode="&#x426;" horiz-adv-x="667" 
d="M556 68h46v-216h-74v148h-427v700h80v-632h293v632h82v-632z" />
    <glyph glyph-name="afii10041" unicode="&#x427;" horiz-adv-x="624" 
d="M523 700v-700h-79v265c-34 -10.667 -72.667 -16 -116 -16c-74 0 -136.167 18.333 -186.5 55s-75.5 91 -75.5 163v233h80v-233c0 -48 18.167 -85.167 54.5 -111.5s79.833 -39.5 130.5 -39.5c36 0 73.667 6.33301 113 19v365h79z" />
    <glyph glyph-name="afii10042" unicode="&#x428;" horiz-adv-x="1018" 
d="M106 700h81v-632h271v632h81v-632h271v632h81v-700h-785v700z" />
    <glyph glyph-name="afii10043" unicode="&#x429;" horiz-adv-x="1001" 
d="M101 700h80v-632h271v632h81v-632h271v632h82v-632h52v-216h-78v148h-759v700z" />
    <glyph glyph-name="afii10044" unicode="&#x42a;" horiz-adv-x="636" 
d="M350 356l-115 -0.000976562v-288h115c32 0.666992 59.667 8.16699 83 22.5s40.166 32 50.499 53s15.5 43.667 15.5 68s-5.33301 47 -16 68s-27.667 38.833 -51 53.5s-50.666 22.334 -81.999 23.001zM235 699.999v-278h116c71.333 0 126.833 -20.833 166.5 -62.5
s59.5 -91.167 59.5 -148.5s-19.833 -106.833 -59.5 -148.5s-95.5 -62.5 -167.5 -62.5h-195v635h-139v65h219z" />
    <glyph glyph-name="afii10045" unicode="&#x42b;" horiz-adv-x="822" 
d="M298 350l-115 0.00195312v-278h115c46 0.666992 81.833 14.667 107.5 42s38.5 59.666 38.5 96.999s-12.833 69.666 -38.5 96.999s-61.5 41.333 -107.5 42zM183 700.002v-278h116c70.667 0 126 -21 166 -63s60 -91.333 60 -148s-20 -106 -60 -148s-95.667 -63 -167 -63
h-196v700h81zM638 0.00195312v700h83v-700h-83z" />
    <glyph glyph-name="afii10046" unicode="&#x42c;" horiz-adv-x="580" 
d="M296 354h-116v-285h116c46 0.666992 81.833 15.167 107.5 43.5s38.5 61.166 38.5 98.499s-13 70.333 -39 99s-61.667 43.334 -107 44.001zM180 700v-278h117c70.667 0 126 -21 166 -63s60 -91.333 60 -148s-20 -106 -60 -148s-95.667 -63 -167 -63h-197v700h81z" />
    <glyph glyph-name="afii10047" unicode="&#x42d;" horiz-adv-x="717" 
d="M230 318l0.000976562 66.002h349c-7.33301 74.667 -36 135 -86 181s-112 69 -186 69c-74.667 0 -141.667 -30.667 -201 -92l-54 47c73.333 78.667 158.333 118 255 118c73.333 0 137.5 -17.167 192.5 -51.5s95.833 -78.333 122.5 -132s40 -112.5 40 -176.5
c0 -99.333 -32.5 -183.333 -97.5 -252s-150.833 -103 -257.5 -103c-50.667 0 -99.334 12.167 -146.001 36.5s-88 58.166 -124 101.499l56 45c28 -34 61.167 -60.667 99.5 -80s76.5 -29 114.5 -29c74.667 0 137 24.167 187 72.5s78.667 108.166 86 179.499h-350z" />
    <glyph glyph-name="afii10048" unicode="&#x42e;" horiz-adv-x="1052" 
d="M640 710c105.333 -1.33301 191.002 -35.832 257.002 -103.499s99 -153.834 99 -258.501c0 -38 -4 -74.667 -12 -110c-8 -26.667 -22.333 -56.667 -43 -90c-14 -22.667 -34.333 -46.667 -61 -72c-32 -24 -56.333 -40.333 -73 -49
c-20.667 -10.667 -48.334 -20.667 -83.001 -30c-25.333 -6 -53.333 -9 -84 -9c-34 0 -67 5 -99 15c-50 14.667 -96.5 41.667 -139.5 81s-74.167 83.333 -93.5 132c-10 24 -16.667 56.333 -20 97h-106v-313h-81v700h81v-315h106c13.333 93.333 47.333 169 102 227
c67.333 65.333 150.666 98 249.999 98zM640.002 637.001c-75.333 0 -139.668 -26.667 -193.001 -80c-51.333 -52.667 -77.666 -122.334 -78.999 -209.001c1.33301 -40.667 7 -74.667 17 -102c14 -40.667 36.833 -76.167 68.5 -106.5s68.167 -52.5 109.5 -66.5h-1
c24.667 -7.33301 50.667 -11 78 -11c28 0 54.333 3.66699 79 11h-1c30 9.33301 55.333 21.333 76 36h-1c28 18.667 49.333 37 64 55c18.667 23.333 33 49.333 43 78c10 35.333 15 70.666 15 105.999c0 82.667 -25.5 151.334 -76.5 206.001s-117.167 82.334 -198.5 83.001z
" />
    <glyph glyph-name="afii10049" unicode="&#x42f;" horiz-adv-x="596" 
d="M44 0l208 290.001c-67.333 4.66699 -117 24.667 -149 60s-47.667 83.666 -47 144.999c0.666992 65.333 21.667 115.833 63 151.5s96 53.5 164 53.5h212v-700h-80v287h-80l-198 -287h-93zM288 355.001l127.001 -0.000976562v275h-131
c-44.667 0 -80.834 -11.667 -108.501 -35s-41.5 -56.666 -41.5 -99.999c0 -93.333 51.333 -140 154 -140z" />
    <glyph glyph-name="bga" unicode="&#x430;" horiz-adv-x="568" 
d="M418 239c-34 22 -76.668 33 -128.001 33c-67.333 0 -115.5 -17.833 -144.5 -53.5s-30.5 -71.334 -4.5 -107.001s72.333 -53.5 139 -53.5c24.667 0 49.834 5.83301 75.501 17.5s46.5 26.834 62.5 45.501v118zM492.999 0l-60.998 0.00195312l-11 49
c-37.333 -36 -84.333 -54.667 -141 -56c-90 -0.666992 -155.333 25.666 -196 78.999c-32.667 42 -40.334 88 -23.001 138c17.333 51.333 55.666 87.666 114.999 108.999c33.333 12.667 71 18.667 113 18c41.333 0 84.333 -11.667 129 -35v10c0 40.667 -10.5 73 -31.5 97
s-46.667 38 -77 42s-62 2.16699 -95 -5.5s-62.167 -20.5 -87.5 -38.5l-40 46c34.667 28.667 75.5 48.167 122.5 58.5s91.333 10.833 133 1.5s77.167 -31.5 106.5 -66.5s44 -79.833 44 -134.5v-312z" />
    <glyph glyph-name="afii10066" unicode="&#x431;" horiz-adv-x="617" 
d="M112 389c40 80 105.332 119.997 195.999 119.997c69.333 -0.666992 129 -22.667 179 -66s75.333 -106.666 76 -189.999c0 -75.333 -24.5 -138.333 -73.5 -189s-110.5 -74.667 -184.5 -72c-52 0.666992 -98.5 14.334 -139.5 41.001s-72.167 64.334 -93.5 113.001
c-10.667 26 -18.334 69 -23.001 129c-0.666992 8 -1 21.667 -1 41c-2.66699 118 28 208.667 92 272s151.667 95 263 95c26.667 0 40.334 14.333 41.001 43h67c0.666992 -40 -9.66602 -68.833 -30.999 -86.5s-46 -26.5 -74 -26.5c-163.333 0 -261.333 -74.667 -294 -224z
M125.999 252.997c0 -20 3.33203 -43.333 9.99902 -70v1c13.333 -38.667 35.333 -68.667 66 -90s65.334 -32 104.001 -32c52 0 94.5 17.833 127.5 53.5s49.5 81.5 49.5 137.5c-0.666992 60 -18.167 106 -52.5 138s-75.5 48.333 -123.5 49s-90.167 -15.833 -126.5 -49.5
s-54.5 -79.5 -54.5 -137.5z" />
    <glyph glyph-name="afii10067" unicode="&#x432;" horiz-adv-x="555" 
d="M89 0v506.998h201c52 0 95.5 -10.833 130.5 -32.5s52.833 -56.167 53.5 -103.5c0 -23.333 -7.66699 -46.166 -23 -68.499s-34.333 -35.5 -57 -39.5c28 -5.33301 51.5 -19.166 70.5 -41.499s29.167 -45.5 30.5 -69.5c2 -54 -16.167 -92.833 -54.5 -116.5
s-85.833 -35.5 -142.5 -35.5h-209zM290 441.998h-125v-147h130c71.333 0 106 25.333 104 76c-2 47.333 -38.333 71 -109 71zM286 230.998l-121 -0.000976562v-166h133c36 0 65.333 6.83301 88 20.5s33.667 34.834 33 63.501c-2 30 -16.333 51.333 -43 64
s-56.667 18.667 -90 18z" />
    <glyph glyph-name="afii10068" unicode="&#x433;" horiz-adv-x="450" 
d="M86 0v507h334v-68h-256v-439h-78z" />
    <glyph glyph-name="afii10069" unicode="&#x434;" horiz-adv-x="610" 
d="M510 507v-441h44v-186h-71v120h-393v-120h-70v186h50c28.667 19.333 43 73.333 43 162v279h397zM147 66l285 0.00390625v378h-243v-216v-13.5v-16.5c0 -2.66699 -0.166992 -8.16699 -0.5 -16.5s-0.666016 -14.5 -0.999023 -18.5s-1 -9.83301 -2 -17.5
s-2.16699 -13.834 -3.5 -18.501s-3.16602 -10.334 -5.49902 -17.001s-4.83301 -12.334 -7.5 -17.001s-5.83398 -9.33398 -9.50098 -14.001s-7.83398 -9 -12.501 -13z" />
    <glyph glyph-name="afii10070" unicode="&#x435;" horiz-adv-x="599" 
d="M304 60c62.667 0 111.335 23.3301 146.002 69.9971l63 -38c-50 -67.333 -119.667 -101 -209 -101c-81.333 0 -144.833 26.333 -190.5 79s-68.167 114.334 -67.5 185.001c0 70.667 23 132.334 69 185.001s108.667 79.334 188 80.001
c80 0.666992 143.833 -28.333 191.5 -87s65.5 -128.667 53.5 -210h-426c3.33301 -45.333 21.166 -83.833 53.499 -115.5s75.166 -47.5 128.499 -47.5zM123.001 288.997h354c-4 46.667 -21.833 85.167 -53.5 115.5s-71.5 45.833 -119.5 46.5
c-52 -0.666992 -93.333 -16.5 -124 -47.5s-49.667 -69.167 -57 -114.5z" />
    <glyph glyph-name="afii10072" unicode="&#x436;" horiz-adv-x="715" 
d="M323 507h74v-221l209 222h91l-211 -227l221 -281h-89l-186 239l-35 -32v-207h-74v206l-33 33l-189 -239h-86l222 281l-213 226h94l205 -218v218z" />
    <glyph glyph-name="afii10073" unicode="&#x437;" horiz-adv-x="449" 
d="M386 373c0 -22 -6.16602 -43.3379 -18.499 -64.0049s-30.166 -35 -53.499 -43c27.333 -10 48.833 -26.167 64.5 -48.5s23.5 -44.166 23.5 -65.499c0.666992 -55.333 -18 -96.166 -56 -122.499s-84.667 -39.5 -140 -39.5c-63.333 0 -126 23.333 -188 70l40 56
c20.667 -23.333 52.167 -40.666 94.5 -51.999s81.5 -10.166 117.5 3.50098s54 40.834 54 81.501c0 54.667 -50.333 82 -151 82h-46v65h49c40 -0.666992 72.333 4.33301 97 15s36.667 31.334 36 62.001c-0.666992 23.333 -11.334 41.5 -32.001 54.5
s-45.334 19.5 -74.001 19.5c-54 0 -96.333 -15 -127 -45l-43 48c48 44.667 104 67 168 67c50 0 93.167 -12.333 129.5 -37s54.833 -60.334 55.5 -107.001z" />
    <glyph glyph-name="afii10074" unicode="&#x438;" horiz-adv-x="596" 
d="M434 384l-281 -384h-69v507h78v-386l281 386h68v-507h-77v384z" />
    <glyph glyph-name="afii10075" unicode="&#x439;" horiz-adv-x="592" 
d="M434 384l-281 -384h-69v507h78v-386l281 386h68v-507h-77v384zM306 580c-36 0 -66.499 9.83301 -91.499 29.5s-37.5 46.834 -37.5 81.501h63c0 -18 6.66699 -31.667 20 -41s28.666 -14 45.999 -14c16.667 0 31.5 4.5 44.5 13.5s19.5 22.833 19.5 41.5h64
c0 -34.667 -12.5 -61.834 -37.5 -81.501s-55.167 -29.5 -90.5 -29.5z" />
    <glyph glyph-name="afii10076" unicode="&#x43a;" horiz-adv-x="518" 
d="M81 507h76v-238l238 239h93l-221 -222l231 -286h-91l-190 236l-60 -56v-180h-76v507z" />
    <glyph glyph-name="afii10077" unicode="&#x43b;" horiz-adv-x="549" 
d="M181 230c0 -26.667 -1.33301 -49.1699 -4 -67.5029s-8.33398 -38.5 -17.001 -60.5s-22.5 -42.333 -41.5 -61s-43.5 -36 -73.5 -52l-35 53c22.667 12.667 40.834 26.834 54.501 42.501s23.167 34.334 28.5 56.001s8.5 39.334 9.5 53.001s1.5 34.167 1.5 61.5v252h363v-507
h-79v439h-207v-209z" />
    <glyph glyph-name="afii10078" unicode="&#x43c;" horiz-adv-x="655" 
d="M81 507h77l170 -325l170 325h75v-507h-74v354l-141 -260h-62l-142 259v-353h-73v507z" />
    <glyph glyph-name="afii10079" unicode="&#x43d;" horiz-adv-x="574" 
d="M82 507h78v-221h253v221h79v-507h-79v221h-253v-221h-78v507z" />
    <glyph glyph-name="afii10080" unicode="&#x43e;" horiz-adv-x="615" 
d="M127 253c0 -62.667 17.5 -111 52.5 -145s77.167 -51 126.5 -51c50 0 92.5 17 127.5 51s52.5 82.333 52.5 145c0 62 -17.5 109.833 -52.5 143.5s-77.5 50.5 -127.5 50.5c-49.333 0 -91.5 -16.833 -126.5 -50.5s-52.5 -81.5 -52.5 -143.5zM564 253
c0 -75.333 -24.167 -138.335 -72.5 -189.002s-110.166 -76 -185.499 -76s-137 25.333 -185 76s-72 113.667 -72 189c0 74.667 24 137.334 72 188.001s109.667 76 185 76s137.166 -25.167 185.499 -75.5s72.5 -113.166 72.5 -188.499z" />
    <glyph glyph-name="afii10081" unicode="&#x43f;" horiz-adv-x="574" 
d="M82 507h410v-507h-79v441h-253v-441h-78v507z" />
    <glyph glyph-name="afii10082" unicode="&#x440;" horiz-adv-x="573" 
d="M272 513c79.333 2.66699 141.334 -19.832 186.001 -67.499s67 -112.5 67 -194.5c0 -74.667 -23.667 -136.334 -71 -185.001s-104 -72.667 -170 -72c-50.667 0 -93.334 11.667 -128.001 35v-224h-75v702h61l12 -53c13.333 16.667 30.833 30.5 52.5 41.5
s43.5 16.833 65.5 17.5zM290.001 61.001c51.333 4.66699 91.001 24.3291 119.001 58.9961s42 79.334 42 134.001c0 61.333 -16.833 108.333 -50.5 141s-74.5 48.334 -122.5 47.001c-44.667 -1.33301 -85.334 -19.666 -122.001 -54.999v-277
c35.333 -39.333 80 -55.666 134 -48.999z" />
    <glyph glyph-name="afii10083" unicode="&#x441;" horiz-adv-x="526" 
d="M481 449l-42.999 -52.999c-36.667 34.667 -81.667 52 -135 52c-48 0.666992 -89.833 -17.333 -125.5 -54s-53.834 -84 -54.501 -142c0 -50.667 16 -95 48 -133s76.333 -57 133 -57c51.333 0 97.333 18.667 138 56l44 -53c-50 -48.667 -110.667 -73 -182 -73
c-81.333 0 -144.833 25.833 -190.5 77.5s-68.5 113.167 -68.5 184.5c0.666992 71.333 24 133.166 70 185.499s109 78.833 189 79.5c70.667 0 129.667 -23.333 177 -70z" />
    <glyph glyph-name="afii10084" unicode="&#x442;" horiz-adv-x="451" 
d="M22 441v66h405v-66h-163v-441h-80v441h-162z" />
    <glyph glyph-name="afii10085" unicode="&#x443;" horiz-adv-x="504" 
d="M89 -190v65c28 -3.33301 49.333 -0.5 64 8.5s25.667 22.833 33 41.5l28 73l-207 509h84l164 -420l156 420h84l-235 -607c-26 -68.667 -83 -98.667 -171 -90z" />
    <glyph glyph-name="afii10086" unicode="&#x444;" horiz-adv-x="691" 
d="M134 253c-2 -50.667 13.667 -94.001 47 -130.001s75.333 -56.333 126 -61v383c-50.667 -5.33301 -92.5 -26.166 -125.5 -62.499s-48.833 -79.5 -47.5 -129.5zM385 444.999v-382.998c52 3.33301 93.667 22.666 125 57.999s47 79.666 47 132.999
c0 50.667 -16.167 94.167 -48.5 130.5s-73.5 56.833 -123.5 61.5zM307 700.001l78 0.00195312v-186c74 -4.66699 134.333 -31.334 181 -80.001s70 -109 70 -181c0 -73.333 -22.833 -133.833 -68.5 -181.5s-106.5 -73.834 -182.5 -78.501v-186h-78v186
c-74 4.66699 -134.833 31.167 -182.5 79.5s-70.5 108.5 -68.5 180.5c-0.666992 70.667 22.5 130.167 69.5 178.5s107.5 75.5 181.5 81.5v187z" />
    <glyph glyph-name="afii10087" unicode="&#x445;" horiz-adv-x="503" 
d="M255 308l137 202h91l-178 -256l180 -254h-91l-139 200l-142 -200h-88l179 254l-177 256h95z" />
    <glyph glyph-name="afii10088" unicode="&#x446;" horiz-adv-x="588" 
d="M419 507h78v-440h41l-1 -187h-71v120h-381v507h79v-440h255v440z" />
    <glyph glyph-name="afii10089" unicode="&#x447;" horiz-adv-x="544" 
d="M462 0h-79v169c-30.667 -10 -65.667 -15 -105 -15c-64.667 0 -118.834 18.333 -162.501 55s-65.5 90 -65.5 160v138h77v-138c0 -47.333 15 -84 45 -110s66.667 -39 110 -39c38.667 0 72.334 5.66699 101.001 17v270h79v-507z" />
    <glyph glyph-name="afii10090" unicode="&#x448;" horiz-adv-x="854" 
d="M467 66h227v441h78v-507h-688v507h79v-441h228v441h76v-441z" />
    <glyph glyph-name="afii10091" unicode="&#x449;" horiz-adv-x="863" 
d="M466 67h225v440h80v-439h46l-1 -188h-73v120h-661v507h80v-440h226v440h78v-440z" />
    <glyph glyph-name="afii10092" unicode="&#x44a;" horiz-adv-x="595" 
d="M221 507v-193.001h134c53.333 0 98 -12.833 134 -38.5s54 -65.5 54 -119.5c0 -53.333 -18 -92.666 -54 -117.999s-80.667 -38 -134 -38h-211v443h-125v64h202zM355 247.999h-134v-184h134c30 0 56.167 8 78.5 24s33.5 38.667 33.5 68c0 30.667 -10.833 53.5 -32.5 68.5
s-48.167 22.833 -79.5 23.5z" />
    <glyph glyph-name="afii10093" unicode="&#x44b;" horiz-adv-x="731" 
d="M159 507l-0.000976562 -196.001h134c54 0 99 -12.333 135 -37s54 -64 54 -118c0 -53.333 -18.167 -92.666 -54.5 -117.999s-81.166 -38 -134.499 -38h-211v507h77zM292.999 246.999l-134 -0.00195312v-185h134c30 0 56.167 8.33301 78.5 25s33.5 39.667 33.5 69
c0 30.667 -10.833 53.334 -32.5 68.001s-48.167 22.334 -79.5 23.001zM572.999 -0.00292969v507h76v-507h-76z" />
    <glyph glyph-name="afii10094" unicode="&#x44c;" horiz-adv-x="532" 
d="M158 507v-199.001h134c54.667 0 99.667 -11.833 135 -35.5s53 -62.5 53 -116.5c0 -53.333 -17.833 -92.666 -53.5 -117.999s-80.5 -38 -134.5 -38h-210v507h76zM292 245.999l-134 0.000976562v-183h134c30.667 0 57.167 8.16699 79.5 24.5s33.5 39.166 33.5 68.499
c0 30.667 -10.833 53.167 -32.5 67.5s-48.5 21.833 -80.5 22.5z" />
    <glyph glyph-name="afii10095" unicode="&#x44d;" horiz-adv-x="507" 
d="M213 446c-48.667 0 -94.333 -18.999 -137 -56.999l-42 45c53.333 54.667 112.666 81.334 177.999 80.001c74 -0.666992 134.333 -25.834 181 -75.501s70 -112.5 70 -188.5c0 -73.333 -23.167 -134.333 -69.5 -183s-106.5 -73.334 -180.5 -74.001
c-62 0 -124.667 26 -188 78l45 52c46.667 -39.333 94.334 -59 143.001 -59c50 0.666992 91.167 15.167 123.5 43.5s49.5 66.5 51.5 114.5h-262v63h261c0 44.667 -18 82.667 -54 114s-76 47 -120 47z" />
    <glyph glyph-name="afii10096" unicode="&#x44e;" horiz-adv-x="793" 
d="M314 252c0 -49.333 13 -90.333 39 -123h-1c18 -19.333 39.5 -35 64.5 -47s50.167 -18 75.5 -18c32.667 0 65.334 9.33301 98.001 28c26 16.667 45.833 39.167 59.5 67.5s20.5 59.166 20.5 92.499c0 56.667 -17.667 102.334 -53 137.001
c-34.667 34.667 -76.334 52 -125.001 52c-34 0 -66.667 -10 -98 -30c-32.667 -20 -56 -49.667 -70 -89c-6.66699 -22 -10 -45.333 -10 -70zM156 219v-218.998h-75v507h75v-219h81c2.66699 22.667 9.33398 46 20.001 70c20.667 47.333 53 85.666 97 114.999
c42.667 26.667 88.667 40 138 40c70 0 129.333 -23.333 178 -70c51.333 -52.667 77 -116.334 77 -191.001c0 -45.333 -10 -87.5 -30 -126.5s-49 -70.833 -87 -95.5c-41.333 -25.333 -87.333 -38 -138 -38c-82 1.33301 -148.333 32 -199 92
c-32.667 41.333 -51.334 86.333 -56.001 135h-81z" />
    <glyph glyph-name="bgq" unicode="&#x44f;" horiz-adv-x="523" 
d="M441 507v-507h-76v212h-82l-168 -212h-85l164 214c-98 11.333 -147 59.333 -147 144c0 99.333 61 149 183 149h211zM230 275h135v166h-135c-71.333 -1.33301 -107 -29 -107 -83c0 -29.333 10 -50.5 30 -63.5s45.667 -19.5 77 -19.5z" />
    <glyph glyph-name="afii10071" unicode="&#x451;" horiz-adv-x="598" 
d="M304 60c62.667 0 111.335 23.3301 146.002 69.9971l63 -38c-50 -67.333 -119.667 -101 -209 -101c-81.333 0 -144.833 26.333 -190.5 79s-68.167 114.334 -67.5 185.001c0 70.667 23 132.334 69 185.001s108.667 79.334 188 80.001
c80 0.666992 143.833 -28.333 191.5 -87s65.5 -128.667 53.5 -210h-426c3.33301 -45.333 21.166 -83.833 53.499 -115.5s75.166 -47.5 128.499 -47.5zM123.001 288.997h354c-4 46.667 -21.833 85.167 -53.5 115.5s-71.5 45.833 -119.5 46.5
c-52 -0.666992 -93.333 -16.5 -124 -47.5s-49.667 -69.167 -57 -114.5zM258.001 607.997h-89v81h89v-81zM430.001 607.997h-89v81h89v-81z" />
    <glyph glyph-name="afii10099" unicode="&#x452;" horiz-adv-x="610" 
d="M85 701l78 -0.00195312v-70h132v-58h-132v-99c31.333 26.667 75 40.334 131 41.001c71.333 -1.33301 129.5 -22.333 174.5 -63s67.5 -96.667 67.5 -168v-75c0 -74 -15.167 -128.167 -45.5 -162.5s-82.833 -50.166 -157.5 -47.499v66c49.333 0 82.5 9.5 99.5 28.5
s25.5 57.5 25.5 115.5v75c-0.666992 47.333 -16 85 -46 113s-68.333 43.667 -115 47c-51.333 2.66699 -96.333 -10 -135 -38v-406h-77v573h-64v58h64v70z" />
    <glyph glyph-name="afii10100" unicode="&#x453;" horiz-adv-x="450" 
d="M86 0v507h334v-68h-256v-439h-78zM353 698l-84 -115h-60l59 115h85z" />
    <glyph glyph-name="afii10101" unicode="&#x454;" horiz-adv-x="507" 
d="M294 446c-44 0 -83.999 -15.668 -119.999 -47.001s-54 -69.333 -54 -114h261v-63h-262c2 -48 19.167 -86.167 51.5 -114.5s73.5 -42.833 123.5 -43.5c48.667 0 96.334 19.667 143.001 59l45 -52c-63.333 -52 -126 -78 -188 -78
c-74 0.666992 -134.167 25.334 -180.5 74.001s-69.5 109.667 -69.5 183c0 76 23.333 138.833 70 188.5s107 74.834 181 75.501c65.333 1.33301 124.666 -25.334 177.999 -80.001l-42 -45c-42.667 38 -88.334 57 -137.001 57z" />
    <glyph glyph-name="afii10102" unicode="&#x455;" horiz-adv-x="439" 
d="M231 291c110 -22 165 -72.3311 165 -150.998c0 -33.333 -10 -62 -30 -86s-43.333 -40.833 -70 -50.5s-54.334 -14.5 -83.001 -14.5c-75.333 0 -132.333 27.667 -171 83l48 49c34 -41.333 75 -62 123 -62c27.333 -0.666992 52 6.16602 74 20.499s33 34.833 33 61.5
c-0.666992 39.333 -36 65.666 -106 78.999c-105.333 18 -158.333 66.333 -159 145c0 46.667 17.667 83.667 53 111s77 41 125 41c62 0 112 -19.333 150 -58l-45 -51c-28 24 -63 36.667 -105 38c-28 0.666992 -52.167 -6.33301 -72.5 -21s-30.166 -34.667 -29.499 -60
c0 -36 33.333 -60.667 100 -74z" />
    <glyph glyph-name="afii10103" unicode="&#x456;" horiz-adv-x="241" 
d="M160 0h-79v512h79v-512zM161 592h-81v112h81v-112z" />
    <glyph glyph-name="afii10104" unicode="&#x457;" horiz-adv-x="241" 
d="M160 0h-79v512h79v-512zM85 623h-83v78h83v-78zM245 623h-83v78h83v-78z" />
    </font>
</defs>
</svg>
