<?xml version="1.0" standalone="no"?>
<!DOCTYPE svg PUBLIC "-//W3C//DTD SVG 20010904//EN"
 "http://www.w3.org/TR/2001/REC-SVG-20010904/DTD/svg10.dtd">
<svg version="1.0" xmlns="http://www.w3.org/2000/svg"
 width="455.000000pt" height="86.000000pt" viewBox="0 0 455.000000 86.000000"
 preserveAspectRatio="xMidYMid meet">

<g transform="translate(0.000000,86.000000) scale(0.100000,-0.100000)"
fill="#000000" stroke="none">
<path d="M1700 710 l0 -80 80 0 80 0 0 80 0 80 -80 0 -80 0 0 -80z m140 0 l0
-60 -60 0 -60 0 0 60 0 60 60 0 60 0 0 -60z"/>
<path d="M120 455 l0 -325 70 0 70 0 0 225 c0 124 3 225 8 225 4 0 70 -63 147
-140 l140 -140 145 145 c80 80 149 145 153 145 4 0 7 -56 7 -125 l0 -125 70 0
70 0 0 220 0 220 -70 0 c-97 0 -126 -17 -259 -156 l-113 -117 -126 126 c-70
69 -140 131 -155 137 -16 5 -57 10 -93 10 l-64 0 0 -325z m153 294 c12 -6 79
-67 148 -135 99 -97 130 -123 145 -118 10 4 73 60 139 124 66 65 130 123 142
129 12 6 47 11 77 11 l56 0 0 -200 0 -200 -55 0 -55 0 0 120 c0 118 0 120 -22
120 -16 0 -64 -42 -155 -132 l-133 -133 -133 133 c-91 90 -139 132 -155 132
l-22 0 0 -225 0 -225 -55 0 -55 0 0 305 0 305 56 0 c30 0 65 -5 77 -11z"/>
<path d="M1285 767 c-53 -21 -83 -48 -105 -91 -18 -38 -20 -61 -20 -221 0
-208 11 -245 83 -293 l40 -27 284 -3 283 -3 0 75 0 76 -250 0 c-314 0 -290
-14 -290 175 0 182 -8 175 190 175 l150 0 0 75 0 75 -167 -1 c-103 0 -180 -5
-198 -12z m345 -61 l0 -55 -151 -3 c-197 -4 -189 4 -189 -195 0 -139 1 -145
25 -168 l24 -25 251 0 250 0 0 -55 0 -55 -266 0 c-280 0 -286 1 -337 49 -53
49 -57 66 -57 256 0 190 4 207 57 257 44 42 67 47 236 47 l157 1 0 -54z"/>
<path d="M2610 685 c0 -88 -2 -98 -25 -120 -24 -25 -27 -25 -200 -25 -173 0
-176 0 -200 25 -23 22 -25 32 -25 115 l0 90 -75 0 -75 0 6 -127 c7 -140 17
-169 66 -207 57 -42 97 -48 321 -44 l207 3 0 -37 c0 -25 -7 -45 -20 -58 -18
-18 -33 -20 -195 -20 l-175 0 0 -75 0 -75 193 0 c180 0 196 1 237 22 24 13 58
40 74 61 l31 39 3 264 3 264 -75 0 -76 0 0 -95z m130 -159 c0 -243 -4 -272
-43 -314 -51 -55 -82 -62 -277 -62 l-180 0 0 54 0 55 175 3 c205 4 209 5 210
90 l0 53 -236 5 -236 5 -41 28 c-64 42 -82 87 -82 207 l0 100 54 0 54 0 4 -90
c3 -77 6 -93 26 -112 22 -22 28 -23 217 -23 189 0 195 1 217 23 20 20 23 35
26 117 l4 95 54 0 54 0 0 -234z"/>
<path d="M2910 695 c0 -50 4 -85 10 -85 6 0 10 23 10 50 0 59 10 63 33 15 9
-19 20 -35 25 -35 5 0 17 17 28 38 l19 37 3 -52 c5 -86 22 -60 22 32 0 99 -11
108 -43 35 -12 -27 -25 -50 -28 -50 -3 0 -16 23 -29 50 -36 76 -50 66 -50 -35z"/>
<path d="M3136 758 c-23 -33 -21 -103 4 -128 24 -24 48 -25 78 -4 18 12 22 25
22 69 0 62 -16 85 -60 85 -18 0 -34 -8 -44 -22z m72 -10 c16 -16 16 -90 0
-106 -31 -31 -68 -1 -68 53 0 54 37 84 68 53z"/>
<path d="M3313 708 c-6 -40 -16 -74 -22 -76 -14 -5 -15 -62 -1 -62 6 0 10 9
10 20 0 18 7 20 55 20 48 0 55 -2 55 -20 0 -11 5 -20 10 -20 6 0 10 14 10 30
0 17 -4 30 -10 30 -6 0 -10 32 -10 75 l0 75 -43 0 -43 0 -11 -72z m77 -13 l0
-65 -33 0 -32 0 9 65 c9 58 12 65 33 65 22 0 23 -4 23 -65z"/>
<path d="M3470 770 c0 -6 12 -34 26 -62 l26 -52 -22 -18 c-25 -20 -19 -38 7
-22 20 13 86 164 72 164 -6 0 -18 -18 -27 -40 -9 -22 -20 -40 -25 -40 -4 0
-14 18 -23 40 -15 37 -34 54 -34 30z"/>
<path d="M3650 720 c0 -47 -4 -64 -21 -81 -22 -22 -19 -35 6 -25 21 8 35 48
35 102 0 42 1 44 30 44 l30 0 0 -75 c0 -43 4 -75 10 -75 6 0 10 35 10 85 l0
85 -50 0 -50 0 0 -60z"/>
<path d="M3810 695 l0 -85 43 0 c57 0 85 27 71 68 -8 22 -17 28 -49 32 -37 5
-40 8 -43 38 -7 66 -22 29 -22 -53z m96 -20 c9 -23 -15 -45 -47 -45 -26 0 -29
4 -29 30 0 28 3 30 35 30 23 0 38 -6 41 -15z"/>
<path d="M3980 695 c0 -50 4 -85 10 -85 6 0 10 18 10 40 l0 40 40 0 40 0 0
-40 c0 -22 5 -40 10 -40 6 0 10 35 10 85 0 50 -4 85 -10 85 -5 0 -10 -16 -10
-35 0 -34 -1 -35 -40 -35 -39 0 -40 1 -40 35 0 19 -4 35 -10 35 -6 0 -10 -35
-10 -85z"/>
<path d="M4160 695 l0 -85 41 0 c55 0 79 15 79 48 0 37 -17 52 -57 52 -31 0
-33 2 -33 35 0 24 -5 35 -15 35 -12 0 -15 -16 -15 -85z m95 -35 c0 -21 -5 -26
-32 -28 -31 -3 -33 -1 -33 28 0 29 2 31 33 28 27 -2 32 -7 32 -28z"/>
<path d="M4310 695 c0 -50 4 -85 10 -85 6 0 10 35 10 85 0 50 -4 85 -10 85 -6
0 -10 -35 -10 -85z"/>
<path d="M4400 695 l0 -85 50 0 c28 0 50 5 50 10 0 6 -18 10 -40 10 -38 0 -40
2 -40 30 0 28 3 30 35 30 19 0 35 5 35 10 0 6 -16 10 -35 10 -31 0 -35 3 -35
25 0 23 4 25 40 25 22 0 40 5 40 10 0 6 -22 10 -50 10 l-50 0 0 -85z"/>
<path d="M2926 524 c-11 -10 -16 -34 -16 -68 0 -58 19 -86 58 -86 27 0 72 42
52 48 -7 3 -17 -3 -22 -12 -11 -19 -39 -21 -56 -4 -13 13 -16 75 -6 102 8 21
50 21 62 0 5 -9 14 -15 21 -13 8 3 7 11 -4 27 -19 26 -66 30 -89 6z"/>
<path d="M3070 455 c0 -47 4 -85 9 -85 6 0 25 25 43 55 18 30 36 55 40 55 5 0
8 -25 8 -55 0 -30 5 -55 10 -55 6 0 10 35 10 86 0 102 -9 105 -60 18 l-35 -59
-3 63 c-4 93 -22 75 -22 -23z"/>
<path d="M3258 529 c-24 -14 -25 -120 -2 -143 27 -27 94 -13 94 19 0 20 -16
19 -24 -1 -4 -10 -15 -14 -33 -12 -27 3 -28 5 -28 63 0 56 2 60 24 63 15 3 30
-3 38 -14 16 -22 31 -9 17 14 -13 20 -61 26 -86 11z"/>
<path d="M3380 530 c0 -5 11 -10 25 -10 24 0 25 -2 25 -75 0 -43 4 -75 10 -75
6 0 10 32 10 75 0 73 1 75 25 75 14 0 25 5 25 10 0 6 -27 10 -60 10 -33 0 -60
-4 -60 -10z"/>
<path d="M3530 455 l0 -85 55 0 c30 0 55 5 55 10 0 6 -20 10 -45 10 -43 0 -45
1 -45 30 0 28 3 30 35 30 19 0 35 5 35 10 0 6 -16 10 -35 10 -31 0 -35 3 -35
25 0 23 4 25 45 25 25 0 45 5 45 10 0 6 -25 10 -55 10 l-55 0 0 -85z"/>
<path d="M3680 455 c0 -50 4 -85 10 -85 6 0 10 20 10 45 0 52 12 58 30 15 16
-39 27 -38 47 5 23 48 33 44 33 -15 0 -27 5 -50 10 -50 6 0 10 35 10 85 0 101
-16 113 -49 35 -12 -27 -24 -50 -26 -50 -3 0 -16 23 -30 50 -14 28 -30 50 -35
50 -6 0 -10 -36 -10 -85z"/>
<path d="M3880 455 l0 -85 36 0 c50 0 74 15 74 48 0 37 -17 52 -57 52 -31 0
-33 2 -33 35 0 19 -4 35 -10 35 -6 0 -10 -35 -10 -85z m85 -35 c0 -21 -5 -26
-32 -28 -31 -3 -33 -1 -33 28 0 29 2 31 33 28 27 -2 32 -7 32 -28z"/>
<path d="M4020 455 c0 -50 4 -85 10 -85 6 0 10 35 10 85 0 50 -4 85 -10 85 -6
0 -10 -35 -10 -85z"/>
<path d="M2906 278 c3 -13 15 -40 25 -60 20 -39 17 -68 -7 -68 -8 0 -14 -5
-14 -11 0 -6 8 -9 18 -7 10 2 32 34 54 78 41 82 43 90 27 90 -6 0 -18 -18 -26
-40 -9 -22 -19 -40 -23 -40 -4 0 -15 18 -25 40 -19 42 -41 56 -29 18z"/>
<path d="M3060 215 c0 -50 4 -85 10 -85 6 0 10 32 10 76 l0 75 38 -3 37 -3 3
-72 c4 -102 22 -92 22 12 l0 85 -60 0 -60 0 0 -85z"/>
<path d="M3230 215 c0 -82 15 -119 22 -53 3 29 7 33 42 39 39 6 56 21 56 51 0
29 -29 48 -76 48 l-44 0 0 -85z m95 35 c0 -22 -5 -25 -37 -28 -36 -3 -38 -2
-38 28 0 30 2 31 38 28 32 -3 37 -6 37 -28z"/>
<path d="M3410 263 c-7 -21 -21 -59 -31 -85 -15 -38 -16 -48 -5 -48 8 0 16 9
19 20 7 29 61 27 81 -2 9 -12 18 -19 21 -16 8 8 -49 161 -62 165 -6 2 -17 -13
-23 -34z m50 -70 c0 -7 -11 -13 -25 -13 -28 0 -31 13 -14 57 l11 28 14 -30 c7
-16 13 -36 14 -42z"/>
<path d="M3540 215 l0 -85 44 0 c63 0 99 43 64 78 -9 9 -9 15 0 24 32 32 -2
68 -64 68 l-44 0 0 -85z m94 48 c9 -21 -20 -45 -49 -41 -13 2 -21 12 -23 31
-3 25 -1 27 31 27 24 0 37 -6 41 -17z m-9 -67 c16 -12 17 -16 6 -30 -7 -9 -26
-16 -42 -16 -24 0 -29 4 -29 23 0 13 3 27 7 30 11 11 38 8 58 -7z"/>
<path d="M3720 236 c0 -44 -5 -67 -15 -76 -17 -14 -20 -30 -6 -30 26 0 41 34
41 91 0 59 0 59 30 59 l30 0 0 -75 c0 -43 4 -75 10 -75 6 0 10 35 10 85 l0 85
-50 0 -50 0 0 -64z"/>
<path d="M3880 215 l0 -85 50 0 c28 0 50 5 50 10 0 6 -18 10 -40 10 -38 0 -40
2 -40 30 0 28 3 30 35 30 19 0 35 5 35 10 0 6 -16 10 -35 10 -31 0 -35 3 -35
25 0 23 4 25 40 25 22 0 40 5 40 10 0 6 -22 10 -50 10 l-50 0 0 -85z"/>
<path d="M4030 215 c0 -85 16 -119 22 -47 3 35 5 37 41 40 l37 3 0 -40 c0 -23
5 -41 10 -41 6 0 10 35 10 85 0 50 -4 85 -10 85 -5 0 -10 -16 -10 -35 0 -34
-1 -35 -40 -35 -39 0 -40 1 -40 35 0 19 -4 35 -10 35 -6 0 -10 -35 -10 -85z"/>
<path d="M4210 215 c0 -47 4 -85 9 -85 5 0 24 25 42 55 18 30 37 55 41 55 4 0
8 -25 8 -55 0 -30 5 -55 10 -55 6 0 10 35 10 86 0 102 -9 105 -60 18 l-35 -59
-3 63 c-4 93 -22 75 -22 -23z"/>
<path d="M4396 284 c-20 -20 -20 -48 -1 -68 14 -14 14 -18 0 -47 -18 -33 -10
-56 9 -25 6 10 18 28 27 39 22 28 49 16 49 -23 0 -16 5 -30 10 -30 6 0 10 35
10 85 l0 85 -44 0 c-27 0 -51 -6 -60 -16z m84 -34 c0 -28 -3 -30 -35 -30 -22
0 -38 6 -41 15 -11 28 4 45 41 45 32 0 35 -2 35 -30z"/>
<path d="M850 200 l0 -80 80 0 80 0 0 80 0 80 -80 0 -80 0 0 -80z"/>
<path d="M2020 200 l0 -70 70 0 70 0 0 70 0 70 -70 0 -70 0 0 -70z m120 0 l0
-50 -50 0 -50 0 0 50 0 50 50 0 50 0 0 -50z"/>
</g>
</svg>
