<svg width="111" height="26" viewBox="0 0 111 26" fill="none" xmlns="http://www.w3.org/2000/svg">
<path d="M49.4887 0.0523636H32.9366V3.09268H49.4887V0.0523636Z" fill="#002855"/>
<path d="M71.409 12.5281H76.6654L86.7868 3.19748V12.5281H90.3657V0.104743H84.8856L75.4911 8.80634V0.104743H71.409V12.5281Z" fill="#002855"/>
<path d="M93.2175 0.104743H106.079C107.477 0.104743 108.484 0.261997 109.155 0.576513C109.77 0.838609 110.161 1.25796 110.385 1.78216C110.553 2.20151 110.664 2.72571 110.664 3.40716C110.664 4.50796 110.385 5.24183 109.826 5.7136C109.49 5.9757 108.931 6.13296 108.092 6.29022C109.155 6.39505 109.658 6.55231 110.049 6.86682C110.664 7.28618 111 8.07247 111 9.22569C111 10.6934 110.497 11.6894 109.49 12.2136C108.931 12.5281 108.092 12.6329 106.694 12.6329H93.2735V9.85473H105.296C105.911 9.85473 106.303 9.8023 106.526 9.74988C106.974 9.59262 107.253 9.33053 107.253 8.80634C107.253 8.22973 107.03 7.91521 106.582 7.75796C106.415 7.70554 105.967 7.70553 105.296 7.70553H93.2175V5.24183H104.961C105.632 5.24183 106.079 5.18941 106.303 5.08457C106.638 4.92731 106.806 4.6128 106.806 4.14102C106.806 3.61683 106.47 3.19748 105.967 3.04022C105.743 2.9878 105.352 2.93538 104.737 2.93538H93.2175V0.104743Z" fill="#002855"/>
<path d="M52.9556 5.03215C52.9556 5.03215 63.0211 5.03215 63.6922 5.03215C65.2579 5.03215 65.0342 3.66925 64.5309 3.35473C64.3073 3.19748 63.9158 3.14506 62.7974 3.14506H52.8997V0.104743H63.077C64.1395 0.104743 64.8105 0.104746 65.202 0.157165C66.1526 0.262004 66.9355 0.419256 67.4388 0.733772C68.1657 1.20555 68.6131 1.887 68.7808 2.83054C68.8367 3.2499 68.8367 4.08861 68.8367 4.6128C68.7808 5.39909 68.3335 7.12892 66.0408 7.39102C65.202 7.49585 64.4191 7.54828 62.8534 7.54828H56.9259V12.5805H52.9556V5.03215Z" fill="#002855"/>
<path d="M49.8801 6.34263C49.3209 5.76602 48.7618 5.08457 44.6237 5.08457H32.9366V12.5281H46.3572C47.8111 12.5281 48.594 12.3708 49.1532 12.1087C50.1597 11.5846 50.663 10.5886 50.663 9.12085C50.663 7.96763 50.5512 7.02408 49.8801 6.34263ZM46.1895 9.64504C46.0217 9.69746 45.5743 9.74988 44.9592 9.74988H36.8509V7.54827H44.9592C45.6303 7.54827 46.0776 7.54828 46.2454 7.6007C46.6927 7.75795 46.9164 8.12489 46.9164 8.64908C46.9164 9.22569 46.5809 9.48779 46.1895 9.64504Z" fill="#002855"/>
<path d="M0.0559185 0H25.2756L0 23.9556L0.0559185 0Z" fill="#002855"/>
<path d="M33.7212 23.3271H40.5433V16.8271H41.3262V23.3271H41.9973V26.0005H41.2144V24.061H32.9383V16.8271H33.7212V23.3271Z" fill="#302E2C"/>
<path d="M43.2276 24.061V16.8271H49.9939V17.561H44.0105V19.9723H49.882V20.7061H44.0105V23.3271H49.9939V24.061H43.2276Z" fill="#302E2C"/>
<path d="M51.4477 24.061V16.8271H52.2864V19.9723H59.1086V16.8271H59.8915V24.061H59.1086V20.7061H52.2864V24.061H51.4477Z" fill="#302E2C"/>
<path d="M60.7303 16.8271H69.0064V17.561H65.2598V24.061H64.4769V17.561H60.7303V16.8271Z" fill="#302E2C"/>
<path d="M69.9569 24.0608V16.827H75.1574C76.1081 16.827 76.835 16.9842 77.2265 17.3512C77.6738 17.7181 77.8416 18.2423 77.8416 19.081C77.8416 19.8673 77.6179 20.3915 77.2265 20.6536C76.835 20.9157 76.1081 21.073 75.1574 21.073H70.7398V24.0608H69.9569ZM70.7398 20.3391H75.3811C76.0522 20.3391 76.4436 20.2867 76.6673 20.1294C76.8909 19.9721 77.0587 19.6052 77.0587 19.081C77.0587 18.5568 76.9469 18.1375 76.7232 17.9278C76.4995 17.7181 76.0522 17.6133 75.493 17.6133H70.7957V20.3391H70.7398Z" fill="#302E2C"/>
<path d="M25.6129 0.734375V23.9561H13.9258L25.6129 0.734375Z" fill="#302E2C"/>
</svg>
